<?xml version="1.0" standalone="no"?>
<!DOCTYPE svg PUBLIC "-//W3C//DTD SVG 20010904//EN"
 "http://www.w3.org/TR/2001/REC-SVG-20010904/DTD/svg10.dtd">
<svg version="1.0" xmlns="http://www.w3.org/2000/svg"
 width="700.000000pt" height="700.000000pt" viewBox="0 0 700.000000 700.000000"
 preserveAspectRatio="xMidYMid meet">
<metadata>
Created by potrace 1.14, written by Peter Selinger 2001-2017
</metadata>
<g transform="translate(0.000000,700.000000) scale(0.100000,-0.100000)"
fill="#000000" stroke="none">
<path d="M3023 6683 c-5 -1 -102 -4 -218 -6 -115 -3 -221 -8 -235 -11 -14 -3
-36 -8 -49 -11 -76 -15 -167 -55 -242 -106 -112 -76 -146 -124 -542 -766 -86
-139 -163 -274 -172 -300 -31 -89 -3 -204 67 -272 33 -32 947 -584 988 -597
49 -15 125 -12 175 7 85 32 117 67 226 252 124 209 170 286 186 312 7 11 22
36 33 55 11 19 30 51 41 70 12 19 66 110 121 202 101 171 132 208 175 208 40
0 74 -46 162 -215 46 -88 100 -189 119 -224 19 -36 31 -66 26 -68 -5 -2 -25
-13 -44 -25 -84 -53 -143 -88 -147 -88 -10 0 -130 -85 -146 -104 -56 -67 -57
-120 -2 -161 23 -18 146 -59 416 -139 211 -63 476 -142 589 -175 113 -34 237
-71 275 -82 39 -11 106 -32 150 -46 113 -35 181 -40 246 -17 59 22 126 81 152
135 9 20 44 160 77 310 34 151 67 301 75 334 21 91 53 237 59 265 2 14 18 86
35 160 16 74 32 146 35 160 2 14 16 75 30 135 25 111 28 124 43 205 10 51 10
53 -1 96 -13 55 -78 73 -156 44 -25 -9 -110 -56 -189 -103 -78 -48 -146 -87
-150 -87 -3 0 -62 97 -131 216 -68 119 -145 238 -170 265 -76 82 -195 141
-335 165 -40 7 -1545 14 -1572 7z"/>
<path d="M1915 4823 c-21 -5 -599 -190 -625 -200 -8 -3 -19 -7 -25 -8 -5 -2
-120 -39 -255 -83 -135 -44 -317 -104 -405 -132 -193 -63 -241 -88 -253 -133
-5 -19 -5 -43 1 -60 12 -35 80 -95 154 -136 158 -87 194 -109 193 -117 -1 -5
-43 -90 -93 -189 -234 -466 -228 -451 -223 -594 7 -190 72 -365 279 -751 97
-182 182 -339 207 -385 15 -27 62 -115 105 -195 43 -80 89 -165 103 -190 14
-25 50 -92 80 -150 30 -58 58 -109 62 -115 4 -5 38 -68 75 -140 88 -168 122
-220 176 -273 68 -67 208 -130 349 -157 68 -14 223 -19 500 -18 541 2 669 4
708 15 63 17 137 80 169 145 l28 58 0 450 c0 633 -4 728 -34 785 -30 59 -80
106 -139 133 -51 23 -41 23 -1089 17 -211 -1 -245 1 -267 16 -15 9 -27 23 -27
30 -1 8 -2 20 -3 27 -2 6 3 27 10 45 16 39 361 642 377 658 9 9 51 -11 167
-78 191 -110 232 -129 288 -130 75 -1 112 59 92 149 -5 21 -11 49 -14 63 -7
35 -6 32 -85 346 -38 154 -93 375 -120 490 -28 115 -55 223 -60 239 -5 17 -28
109 -52 205 -23 96 -52 196 -65 221 -52 104 -180 167 -289 142z"/>
<path d="M5876 4487 c-37 -9 -172 -91 -621 -375 -104 -66 -226 -143 -270 -170
-44 -28 -95 -66 -113 -85 -50 -51 -80 -134 -77 -212 2 -70 21 -114 146 -340
33 -60 82 -150 109 -200 26 -49 87 -162 135 -250 186 -340 194 -362 151 -412
l-24 -28 -291 -3 -291 -3 -2 173 c-1 214 -1 203 -17 261 -21 73 -71 102 -133
78 -28 -11 -69 -50 -553 -526 -213 -209 -440 -432 -505 -495 -67 -66 -127
-135 -140 -160 -33 -65 -38 -160 -11 -230 23 -62 37 -77 213 -243 69 -65 150
-141 180 -170 49 -47 258 -244 363 -343 22 -20 102 -96 178 -168 76 -72 168
-159 205 -194 104 -99 169 -105 214 -20 20 40 22 57 24 238 1 107 2 198 3 201
1 3 102 7 226 8 239 1 269 3 355 27 119 34 225 110 309 221 52 70 201 329 201
351 0 7 4 12 8 12 5 0 17 19 28 43 10 23 35 71 55 107 20 36 77 144 126 240
50 96 117 225 148 285 138 262 325 647 358 735 81 215 112 437 76 547 -18 56
-477 967 -510 1013 -51 71 -165 110 -253 87z"/>
</g>
</svg>
