<svg xmlns="http://www.w3.org/2000/svg" width="186.559" height="220.122" viewBox="0 0 186.559 220.122"><g transform="translate(-847.324 171.852)"><g transform="translate(919.86 30.342)"><path d="M871.348-93.091a13.964,13.964,0,0,1,6.335-10.927c1.763-1.018,3.355-1.108,4.5-.441l0,0,2.751,1.76-9.33,15.215-2.4-1.534v0C872.058-89.676,871.348-91.084,871.348-93.091Z" transform="translate(-871.348 104.886)" fill="#25242f"/><path d="M872.205-92.543c0,4.013,2.835,5.631,6.334,3.611a13.955,13.955,0,0,0,6.335-10.927c0-4.016-2.835-5.631-6.335-3.611A13.955,13.955,0,0,0,872.205-92.543Z" transform="translate(-869.618 105.99)" fill="#393842"/><path d="M872.8-95.118c0,2.88,2.035,4.04,4.544,2.591a10.014,10.014,0,0,0,4.544-7.835c0-2.88-2.035-4.04-4.544-2.591A10.013,10.013,0,0,0,872.8-95.118Z" transform="translate(-868.42 107.529)" fill="#cdc6bc"/></g><g transform="translate(851.321 -11.998)"><path d="M862.79-107.114a13.958,13.958,0,0,0-6.338-10.927c-1.76-1.018-3.351-1.108-4.5-.441l0,0-2.751,1.76,9.33,15.215,2.4-1.534v0C862.078-103.7,862.79-105.107,862.79-107.114Z" transform="translate(-847.533 118.909)" fill="#25242f"/><path d="M861.317-106.566c0,4.013-2.838,5.631-6.335,3.611a13.955,13.955,0,0,1-6.335-10.927c0-4.016,2.835-5.631,6.335-3.611A13.963,13.963,0,0,1,861.317-106.566Z" transform="translate(-848.648 120.013)" fill="#393842"/><path d="M858.329-109.141c0,2.88-2.035,4.04-4.544,2.591a10.013,10.013,0,0,1-4.544-7.835c0-2.88,2.035-4.04,4.544-2.591A10.013,10.013,0,0,1,858.329-109.141Z" transform="translate(-847.45 121.552)" fill="#929a88"/></g><g transform="translate(1008.11 -20.963)"><path d="M900.576-110.083a13.956,13.956,0,0,1,6.334-10.927c1.764-1.018,3.354-1.108,4.5-.441l0,0,2.751,1.76-9.33,15.215-2.4-1.534v0C901.285-106.668,900.576-108.076,900.576-110.083Z" transform="translate(-900.576 121.878)" fill="#25242f"/><path d="M901.432-109.535c0,4.013,2.838,5.631,6.338,3.611a13.955,13.955,0,0,0,6.335-10.927c0-4.016-2.835-5.631-6.335-3.611A13.958,13.958,0,0,0,901.432-109.535Z" transform="translate(-898.847 122.982)" fill="#393842"/><path d="M902.026-112.11c0,2.88,2.035,4.04,4.544,2.591a10.011,10.011,0,0,0,4.541-7.835c0-2.88-2.032-4.04-4.541-2.591A10.013,10.013,0,0,0,902.026-112.11Z" transform="translate(-897.648 124.521)" fill="#cdc6bc"/></g><path d="M871.032-65.277,961-117.218l2.537-5.137L873.569-70.413Z" transform="translate(47.874 99.954)" fill="#105370"/><g transform="translate(931.355 -171.235)"><path d="M964.527-112.185,959.188-36.4l-9.912-5.723-2.538,5.137L895.793-66.4l-2.508-8.049-9.853-5.689-5.34-81.955Z" transform="translate(-869.223 190.953)" fill="#416d48"/><path d="M965.12-69.767,875.155-17.826l5.33-75.795,89.965-51.941Z" transform="translate(-875.155 224.324)" fill="#1e85c4"/><path d="M878.093-162.088l.288,4.422,45.7,26.387L943.5-110.151l20.069,11.587.458-6.5L943.5-116.914l-20.625-21.078Z" transform="translate(-869.223 190.953)" fill="#385e3e"/><path d="M904.774-113.05l-12.4-7.162a5.372,5.372,0,0,1-2.243-4.284V-155.14l16.89,9.753v30.644C907.017-113.092,906.012-112.334,904.774-113.05Z" transform="translate(-844.921 204.984)" fill="#303c3e"/><path d="M955.623-129.055c-19.762-28.729-48.88-45.538-68.645-39.632-5.205,1.555-8.88,12.153-8.88,22.31h0l86.408,49.889h0C964.506-108.336,960.831-121.485,955.623-129.055Z" transform="translate(-869.212 175.251)" fill="#417a48"/><path d="M879.119-150.524c.682-8.454,3.88-15.873,7.591-16.978,9.046-2.705,20.6-.4,32.531,6.486s23.484,17.926,32.534,31.078c4.058,5.9,7.026,16.105,7.615,25.758Z" transform="translate(-867.15 177.791)" fill="#416d48"/><path d="M947.8-123.432l-70.677-40.805v4.8L947.8-118.637Z" transform="translate(-871.186 186.612)" fill="#417a48"/><path d="M921.2-134.991l-21.449-12.383v3.279L921.2-131.711Z" transform="translate(-825.479 220.666)" fill="#417a48"/><path d="M913.98-132.638,894.5-154.181l-1.2,2.288,19.482,21.543Z" transform="translate(-838.508 206.92)" fill="#417a48"/><path d="M888.267-165.1l-5.936,15.064,26.522,44.841c2.859,4.746,7.225,7.615,10.429,6.857h0c4.182-.987,4.674-7.606,1.036-13.847l-14.756-25.284,3.995-5.193Z" transform="translate(-860.664 184.877)" fill="#518557"/><path d="M897.1-142.908c0,1.637-1.157,2.295-2.582,1.47a5.687,5.687,0,0,1-2.581-4.451c0-1.636,1.156-2.295,2.581-1.473A5.693,5.693,0,0,1,897.1-142.908Z" transform="translate(-841.262 219.977)" fill="#414f52"/><path d="M970.7-82.552,954.637-99.766l-3.3,4.17-69.345-73.085-2.677-2.967-1.78,4,74.9,78.939,3.264-4.647,16.01,17.182,1.162-4.221Z" transform="translate(-870.343 171.648)" fill="#518557"/></g><g transform="translate(847.325 -171.852)"><path d="M919.906-106.774,849.23-147.579l-1.905,1.644,72.582,43.957Z" transform="translate(-847.325 220.869)" fill="#0d3e5e"/><path d="M934.731-94.982l-5.339,75.789-9.911-5.722-2.538,5.137L866-49.193l-2.508-8.049-9.853-5.689-5.34-81.955Z" transform="translate(-845.362 226.309)" fill="#226da0"/><path d="M848.3-144.885l.288,4.422,45.7,26.387L913.7-92.948l20.069,11.587.458-6.5L913.7-99.711l-20.625-21.078Z" transform="translate(-845.362 226.309)" fill="#083e51"/><path d="M874.978-95.847l-12.4-7.162a5.372,5.372,0,0,1-2.243-4.284v-30.643l16.89,9.75v30.646C877.221-95.892,876.216-95.132,874.978-95.847Z" transform="translate(-821.06 240.34)" fill="#083e51"/><path d="M925.827-111.851c-19.762-28.729-48.881-45.541-68.646-39.632-5.205,1.555-8.88,12.153-8.88,22.31h0L934.71-79.285v0C934.71-91.133,931.035-104.285,925.827-111.851Z" transform="translate(-845.351 210.607)" fill="#105370"/><path d="M849.322-133.32c.685-8.454,3.883-15.873,7.594-16.981,9.046-2.7,20.6-.4,32.531,6.489s23.484,17.926,32.531,31.078c4.061,5.9,7.029,16.1,7.618,25.758Z" transform="translate(-843.291 213.147)" fill="#0d3e5e"/><path d="M852.082-136.8c.465-5.755,2.1-11.027,4.26-14.158-3.46,1.658-6.371,8.732-7.02,16.748l80.273,46.344c-.091-1.473-.254-2.959-.45-4.441Z" transform="translate(-843.291 214.04)" fill="#1e85c4"/><path d="M918-106.23l-70.677-40.805v4.8L918-101.434Z" transform="translate(-847.325 221.968)" fill="#105370"/><path d="M891.408-117.788l-21.449-12.383v3.279l21.449,12.383Z" transform="translate(-801.618 256.022)" fill="#0d3e5e"/><path d="M884.184-115.435,864.7-136.978l-1.2,2.289,19.482,21.543Z" transform="translate(-814.648 242.276)" fill="#0d3e5e"/><g transform="translate(3.04 0.617)"><path d="M941.886-28.455l-18.235-19.37-3.3,4.17L851.007-116.74l-2.676-2.966L938.3-171.648,1010.318-95.6l3.3-4.17,18.235,19.37Z" transform="translate(-848.331 171.648)" fill="#1e85c4"/></g><path d="M937.024-169.535c8.524-5.393,31.115-2.355,54.536,19.653,28.14,26.441,34.578,45.1,31.528,69.089L937.139-31.17,929.02-59.64l-78.579-59.829S935.88-168.808,937.024-169.535Z" transform="translate(-841.031 171.852)" fill="#1976af"/><path d="M849.776-150.489c5.1-8.478,30.6-7.929,57.178,17.041,28.14,26.441,34.578,45.1,31.528,69.089L922.4-80.962l-1.667.362-1.612,3.194Z" transform="translate(-842.374 205.041)" fill="#083e51"/><path d="M858.471-147.894l-5.936,15.064L879.057-87.99c2.859,4.743,7.225,7.615,10.429,6.857h0c4.179-.987,4.674-7.609,1.032-13.847l-14.753-25.284,3.995-5.193Z" transform="translate(-836.803 220.233)" fill="#1e85c4"/><path d="M867.3-125.7c0,1.634-1.154,2.295-2.579,1.47a5.685,5.685,0,0,1-2.582-4.454c0-1.633,1.154-2.295,2.582-1.47A5.69,5.69,0,0,1,867.3-125.7Z" transform="translate(-817.4 255.333)" fill="#414f52"/><path d="M857.429-147.135l-5.936,15.064,26.522,44.841c2.859,4.746,7.222,7.615,10.429,6.857h0c4.179-.987,4.674-7.606,1.033-13.847L874.724-119.5l3.991-5.193Z" transform="translate(-838.907 221.766)" fill="#105370"/><path d="M866.263-124.946c0,1.636-1.156,2.295-2.581,1.47a5.687,5.687,0,0,1-2.582-4.451c0-1.637,1.157-2.295,2.582-1.473A5.692,5.692,0,0,1,866.263-124.946Z" transform="translate(-819.507 256.866)" fill="#083e51"/><path d="M940.9-65.349,924.841-82.563l-3.3,4.17L852.2-151.478l-2.676-2.967-1.78,4,74.9,78.939,3.264-4.647,16.009,17.182,1.162-4.221Z" transform="translate(-846.482 207.004)" fill="#105370"/></g><path d="M968.9-137.2,878.931-85.263l1.162-4.221,89.965-51.941Z" transform="translate(63.825 61.442)" fill="#226da0"/><g transform="translate(877.184 -166.999)"><path d="M958.911-91.071l-5.993,3.448c-.42-18.735-8.826-35.327-32.214-57.289-15.818-14.867-31.238-21.078-42.22-21.866l6.009-3.466c10.982.806,26.4,7,42.2,21.866C950.07-126.431,958.473-109.822,958.911-91.071Z" transform="translate(-814.262 170.245)" fill="#083e51"/><path d="M951.17-90.45c-1.048-19.082-10.613-35.5-32.525-56.082-12.687-11.92-26.745-19.683-39.188-21.745l2.4-1.386c6.326.54,22.207,3.765,41.057,21.5,21.866,20.535,31.129,36.728,31.794,55.677Z" transform="translate(-812.297 171.42)" fill="#105370"/><path d="M953.593-88,947.6-84.551c-.435-18.735-8.823-35.342-32.193-57.307-15.821-14.867-31.26-21.06-42.241-21.848l5.993-3.466c10.981.8,26.419,7,42.241,21.866C944.77-123.344,953.176-106.734,953.593-88Z" transform="translate(-825.001 176.448)" fill="#083e51"/><path d="M945.854-87.378c-1.063-19.107-10.619-35.526-32.506-56.1-12.679-11.914-26.749-19.671-39.21-21.733l2.395-1.383c6.328.54,22.219,3.765,41.087,21.5,21.873,20.553,31.13,36.746,31.779,55.677Z" transform="translate(-823.038 177.624)" fill="#105370"/><path d="M948.266-84.935l-5.994,3.463c-.42-18.732-8.823-35.339-32.2-57.3-15.822-14.867-31.238-21.063-42.223-21.866l5.993-3.463c10.984.8,26.4,7.014,42.223,21.863C939.443-120.262,947.846-103.67,948.266-84.935Z" transform="translate(-835.728 182.642)" fill="#083e51"/><path d="M940.531-84.3c-1.048-19.088-10.607-35.508-32.51-56.091-12.672-11.908-26.737-19.674-39.2-21.745l2.4-1.389c6.316.54,22.18,3.762,41.069,21.5,21.872,20.571,31.132,36.764,31.779,55.68Z" transform="translate(-833.769 183.815)" fill="#105370"/><path d="M942.946-81.861,936.952-78.4c-.417-18.732-8.823-35.342-32.193-57.3-15.821-14.867-31.256-21.078-42.223-21.866l5.993-3.466c10.982.8,26.4,7,42.223,21.866C934.123-117.2,942.529-100.6,942.946-81.861Z" transform="translate(-846.465 188.843)" fill="#083e51"/><path d="M935.212-81.228c-1.048-19.088-10.61-35.508-32.509-56.091-12.691-11.923-26.752-19.689-39.194-21.748l2.4-1.386c6.32.54,22.2,3.765,41.069,21.5,21.872,20.556,31.13,36.749,31.779,55.677Z" transform="translate(-844.504 190.019)" fill="#105370"/><path d="M937.656-78.807l-5.993,3.466c-.417-18.735-8.823-35.345-32.21-57.307-15.837-14.867-31.257-21.063-42.238-21.866l5.993-3.448c10.981.788,26.416,6.981,42.238,21.866C928.833-114.134,937.239-97.543,937.656-78.807Z" transform="translate(-857.214 195.047)" fill="#083e51"/><path d="M929.916-78.174c-1.048-19.094-10.613-35.511-32.528-56.091-12.681-11.905-26.746-19.668-39.2-21.742l2.385-1.374c6.326.528,22.208,3.735,41.091,21.5,21.884,20.553,31.148,36.74,31.794,55.662Z" transform="translate(-855.247 196.222)" fill="#105370"/></g><g transform="translate(880.086 -25.385)" opacity="0.6"><path d="M859.362-115.054a.871.871,0,0,0-.03.728c.03.085.06.136.091.151l6.92,4v-5.652l-4.327-2.5Z" transform="translate(-855.965 133.472)" fill="#b3b3b3"/><path d="M864.886-113.865l4.75,2.745a.868.868,0,0,0,.885.1l-2.714-6.474-4.158.643Z" transform="translate(-847.122 135.16)" fill="#b3b3b3"/><path d="M864.417-111.423l6.018,5.015,1.329-6.144-1.591.245-2.482-5.909a5.385,5.385,0,0,0-2.1-2.527l-4.5-2.6L866-111.664Z" transform="translate(-852.282 123.343)" fill="#b3b3b3"/><path d="M866.476-116.485l-2.3-5.562a1.924,1.924,0,0,0-.767-.948l-.03-.018c-.057-.033-.118-.069-.148-.051l-3.481,4.287,4.161,5.447Z" transform="translate(-854.996 123.897)" fill="#b3b3b3"/><path d="M866-111.643l-1.328-7.675-6.018-1.935,1.588,2.08-1.682,2.053a3.018,3.018,0,0,0-.084,2.856l2.008,5.35,3.928-4.807Z" transform="translate(-858.175 127.561)" fill="#b3b3b3"/><path d="M866.241-115.071v-2.162l-4.366,2.479,4.366,7.518V-109.4l4.333,2.5c.848.489,1.627.411,2.038-.205l2.053-3.1Z" transform="translate(-850.703 135.681)" fill="#b3b3b3"/></g></g></svg>