<svg xmlns="http://www.w3.org/2000/svg" width="95.081" height="194.855" viewBox="0 0 95.081 194.855"><g transform="translate(383.467 -1007.75)"><g transform="translate(-383.467 1010.116)"><g transform="translate(4.346 4.344)"><path d="M-321.832,1041.856a39.538,39.538,0,0,1,27.5,37.532l0,98.734A17.715,17.715,0,0,1-312,1195.787h-51.062a17.715,17.715,0,0,1-17.664-17.664v-98.734a39.535,39.535,0,0,1,27.5-37.532v-29.869h31.4Z" transform="translate(380.723 -1011.987)" fill="#fff"/></g><path d="M-310.4,1201.734l-51.062,0a22.033,22.033,0,0,1-22.01-22.006V1080.99a43.6,43.6,0,0,1,27.5-40.586v-26.816a4.344,4.344,0,0,1,4.345-4.344,4.344,4.344,0,0,1,4.344,4.344v29.869a4.343,4.343,0,0,1-3.023,4.138,34.974,34.974,0,0,0-24.474,33.394v98.736a13.334,13.334,0,0,0,13.319,13.319H-310.4a13.337,13.337,0,0,0,13.32-13.32V1080.99a34.98,34.98,0,0,0-24.475-33.394,4.344,4.344,0,0,1-3.023-4.138v-29.869a4.344,4.344,0,0,1,4.344-4.344,4.345,4.345,0,0,1,4.346,4.344V1040.4a43.608,43.608,0,0,1,27.5,40.586v98.736A22.035,22.035,0,0,1-310.4,1201.734Z" transform="translate(383.467 -1009.244)"/></g><g transform="translate(-359.723 1007.75)"><path d="M-326.027,1018.044h-37.3a5.147,5.147,0,0,1-5.147-5.147,5.147,5.147,0,0,1,5.147-5.147h37.3a5.147,5.147,0,0,1,5.147,5.147A5.147,5.147,0,0,1-326.027,1018.044Z" transform="translate(368.474 -1007.75)"/></g></g></svg>