<svg xmlns="http://www.w3.org/2000/svg" xmlns:xlink="http://www.w3.org/1999/xlink" width="125.49" height="98.35" viewBox="0 0 125.49 98.35"><defs><clipPath id="a"><path d="M0,15.195,48.787.268a6.133,6.133,0,0,1,3.5-.025l51.478,14.952L53.336,35.533ZM49.6,2.916,8.522,15.483,53.308,32.559l42-16.939L51.516,2.9a3.354,3.354,0,0,0-1.918.015Z" transform="translate(0 0)" fill="rgba(0,0,0,0)"/></clipPath></defs><g transform="translate(422.602 -636.297)"><g transform="translate(-415.961 651.492)"><path d="M-412.446,654.1l53.336,20.338v57.279l-54.166-23.036Z" transform="translate(416.045 -651.332)" fill="#fff"/><path d="M-359.085,734.511a2.78,2.78,0,0,1-1.084-.221l-54.166-23.036a2.77,2.77,0,0,1-1.685-2.59l.83-54.58a2.772,2.772,0,0,1,1.215-2.25,2.764,2.764,0,0,1,2.54-.295l53.335,20.337a2.769,2.769,0,0,1,1.782,2.587v57.279a2.766,2.766,0,0,1-1.241,2.309A2.764,2.764,0,0,1-359.085,734.511Zm-51.37-27.623,48.6,20.669V676.37l-47.86-18.248Z" transform="translate(416.02 -651.357)"/></g><g transform="translate(-361.795 651.494)"><path d="M-359.593,731.718l50.43-25.319V654.1l-50.43,20.338Z" transform="translate(362.362 -651.333)" fill="#fff"/><path d="M-359.568,734.511a2.764,2.764,0,0,1-1.454-.413,2.768,2.768,0,0,1-1.315-2.356V674.464A2.767,2.767,0,0,1-360.6,671.9l50.43-20.337a2.766,2.766,0,0,1,2.584.271,2.769,2.769,0,0,1,1.22,2.3v52.3A2.77,2.77,0,0,1-307.9,708.9l-50.43,25.319A2.777,2.777,0,0,1-359.568,734.511Zm2.768-58.18v50.924l44.894-22.539V658.227Z" transform="translate(362.337 -651.358)"/></g><g transform="translate(-422.602 651.494)"><path d="M-412.387,654.1l-7.471,14.112L-368.39,690l9.339-15.565Z" transform="translate(422.627 -651.334)" fill="#fff"/><path d="M-368.367,692.8a2.768,2.768,0,0,1-1.079-.22l-51.468-21.791a2.767,2.767,0,0,1-1.529-1.621,2.765,2.765,0,0,1,.161-2.223l7.472-14.113a2.772,2.772,0,0,1,3.433-1.291l53.335,20.337a2.77,2.77,0,0,1,1.631,1.682,2.767,2.767,0,0,1-.243,2.329l-9.339,15.566A2.768,2.768,0,0,1-368.367,692.8Zm-47.608-25.932,46.473,19.676,6.4-10.67-47.961-18.288Z" transform="translate(422.602 -651.358)"/></g><g transform="translate(-361.795 651.494)"><path d="M-359.593,674.439l10.584,15.876,48.562-23.659-8.716-12.556Z" transform="translate(362.361 -651.333)" fill="#fff"/><path d="M-348.983,693.109a2.766,2.766,0,0,1-2.3-1.233L-361.872,676a2.766,2.766,0,0,1-.341-2.353A2.762,2.762,0,0,1-360.6,671.9l50.43-20.337a2.767,2.767,0,0,1,3.309.988l8.717,12.555a2.772,2.772,0,0,1,.4,2.277,2.776,2.776,0,0,1-1.466,1.791l-48.563,23.659A2.768,2.768,0,0,1-348.983,693.109Zm-6.4-17.351,7.356,11.034,43.485-21.186-5.615-8.087Z" transform="translate(362.337 -651.358)"/></g><g transform="translate(-415.131 636.297)"><path d="M-412.454,654.236l48.788-14.927a6.124,6.124,0,0,1,3.5-.024l51.478,14.951-50.43,20.338Z" transform="translate(415.222 -636.272)" fill="#fff"/><path d="M-359.093,677.367a2.774,2.774,0,0,1-.987-.182l-53.335-20.337a2.769,2.769,0,0,1-1.781-2.68,2.767,2.767,0,0,1,1.957-2.553l48.787-14.927a8.859,8.859,0,0,1,5.082-.038l51.478,14.953a2.769,2.769,0,0,1,1.993,2.52,2.767,2.767,0,0,1-1.729,2.706l-50.43,20.337A2.763,2.763,0,0,1-359.093,677.367Zm-44.813-22.818,44.785,17.077,42-16.939-43.792-12.719a3.354,3.354,0,0,0-1.918.014Z" transform="translate(415.198 -636.297)"/><g transform="translate(2.768 2.77)" clip-path="url(#a)"><g transform="translate(40.363 -20.455)"><path d="M-369.707,630.113l18.48-8.6-4.591,13.37Z" transform="translate(372.475 -618.744)" fill="#fff"/><path d="M-355.793,637.674a2.759,2.759,0,0,1-.9-.15l-13.889-4.768a2.767,2.767,0,0,1-1.866-2.473,2.771,2.771,0,0,1,1.6-2.655l18.481-8.6a2.772,2.772,0,0,1,3.02.453,2.765,2.765,0,0,1,.766,2.955l-4.591,13.37a2.768,2.768,0,0,1-1.4,1.589A2.765,2.765,0,0,1-355.793,637.674Zm-6.5-7.926,4.776,1.641,1.579-4.6Z" transform="translate(372.451 -618.769)"/></g></g></g></g></svg>