<svg xmlns="http://www.w3.org/2000/svg" width="105.943" height="129.47" viewBox="0 0 105.943 129.47"><g transform="translate(383.467 -779.022)"><g transform="translate(-383.467 792.928)"><g transform="translate(0 12.754)"><path d="M-365.406,811.987v12.227a22.022,22.022,0,0,0-15.317,20.906v55a9.868,9.868,0,0,0,9.839,9.839h28.442a9.868,9.868,0,0,0,9.839-9.839v-55a22.024,22.024,0,0,0-15.318-20.906V811.987" transform="translate(383.144 -809.567)" fill="#fff"/><path d="M-342.765,912.054h-28.442a12.273,12.273,0,0,1-12.26-12.258v-55A24.289,24.289,0,0,1-368.15,822.19V811.664a2.42,2.42,0,0,1,2.421-2.42,2.42,2.42,0,0,1,2.42,2.42v12.227a2.419,2.419,0,0,1-1.684,2.3,19.481,19.481,0,0,0-13.632,18.6v55a7.427,7.427,0,0,0,7.419,7.419h28.442a7.429,7.429,0,0,0,7.42-7.42v-55a19.485,19.485,0,0,0-13.633-18.6,2.419,2.419,0,0,1-1.684-2.3V811.664a2.42,2.42,0,0,1,2.42-2.42,2.42,2.42,0,0,1,2.421,2.42V822.19A24.291,24.291,0,0,1-330.505,844.8v55A12.274,12.274,0,0,1-342.765,912.054Z" transform="translate(383.467 -809.244)"/></g><g transform="translate(13.422)"><path d="M3.319,0h15.42a3.319,3.319,0,0,1,3.319,3.319v8.306a0,0,0,0,1,0,0H0a0,0,0,0,1,0,0V3.319A3.319,3.319,0,0,1,3.319,0Z" transform="translate(2.42 2.42)" fill="#fff"/><path d="M-343.775,811.25h-22.058a2.419,2.419,0,0,1-2.42-2.42v-8.7a5.353,5.353,0,0,1,5.347-5.348h16.2a5.354,5.354,0,0,1,5.348,5.348v8.7A2.419,2.419,0,0,1-343.775,811.25Zm-19.637-4.839H-346.2v-6.277a.508.508,0,0,0-.507-.508h-16.2a.508.508,0,0,0-.507.508Z" transform="translate(368.252 -794.786)"/></g></g><g transform="translate(-343.114 779.022)"><path d="M-312.3,819.134v-31.02c.385-.331,1.5-.782,1.5-1.28v-2.979a2.032,2.032,0,0,0-2.185-1.833h-11.1a2.034,2.034,0,0,0-2.186,1.833v2.979c0,.5,1.121.949,1.506,1.278v31.016c-3.816,1.2-9.967,9.737-9.967,13.146v67.28a6.645,6.645,0,0,0,6.644,6.645H-309.8a6.646,6.646,0,0,0,6.645-6.645v-67.28C-303.159,828.869-308.582,820.343-312.3,819.134Z" transform="translate(337.368 -779.376)" fill="#fff"/><path d="M-310.158,908.492h-18.272a9.3,9.3,0,0,1-9.291-9.292V831.92c0-4.213,5.428-11.929,9.968-14.778V789.184a3.341,3.341,0,0,1-1.506-2.7V783.5a4.672,4.672,0,0,1,4.832-4.48h11.1a4.672,4.672,0,0,1,4.831,4.48v2.978a3.341,3.341,0,0,1-1.5,2.7v27.994c4.424,2.918,9.138,10.714,9.138,14.742V899.2A9.3,9.3,0,0,1-310.158,908.492Zm-13.809-123.163a4.963,4.963,0,0,1,.58.419,2.646,2.646,0,0,1,.925,2.01v31.016a2.645,2.645,0,0,1-1.855,2.525c-2.7.848-8.113,8.339-8.113,10.621V899.2a4,4,0,0,0,4,4h18.272a4,4,0,0,0,4-4V831.92c0-2.4-4.8-9.8-7.312-10.624a2.646,2.646,0,0,1-1.826-2.516V787.76a2.65,2.65,0,0,1,.92-2.006,4.853,4.853,0,0,1,.585-.423v-1.016h-10.176Z" transform="translate(337.722 -779.022)"/></g><g transform="translate(-319.984 804.584)"><g transform="translate(0.956 6.118)"><path d="M-283.283,828.386V817.547a.111.111,0,0,0-.111-.111H-296.3a.111.111,0,0,0-.111.111v10.839a16.537,16.537,0,0,0-11.5,15.7v59.339a7.41,7.41,0,0,0,7.389,7.39h21.36a7.411,7.411,0,0,0,7.39-7.389v-59.34A16.539,16.539,0,0,0-283.283,828.386Z" transform="translate(310.122 -815.231)" fill="#fff"/><path d="M-279.463,912.725h-21.36a9.605,9.605,0,0,1-9.594-9.595V843.79a18.626,18.626,0,0,1,11.5-17.238v-9.3a2.319,2.319,0,0,1,2.316-2.317h12.909a2.319,2.319,0,0,1,2.316,2.316v9.3a18.626,18.626,0,0,1,11.5,17.238v59.341A9.6,9.6,0,0,1-279.463,912.725Zm-15.04-93.378v8.745a2.2,2.2,0,0,1-1.536,2.1,14.243,14.243,0,0,0-9.967,13.6v59.34a5.19,5.19,0,0,0,5.183,5.184h21.36a5.189,5.189,0,0,0,5.183-5.183V843.79a14.245,14.245,0,0,0-9.968-13.6,2.2,2.2,0,0,1-1.536-2.1v-8.745Z" transform="translate(310.417 -814.936)"/></g><g transform="translate(0.001 35.65)"><path d="M2.162,0H35.885a2.163,2.163,0,0,1,2.163,2.163V5.9a2.162,2.162,0,0,1-2.162,2.162H2.163A2.163,2.163,0,0,1,0,5.9V2.162A2.162,2.162,0,0,1,2.162,0Z" transform="translate(2.206 2.206)" fill="#fff"/><path d="M-307.389,860.886a4.086,4.086,0,0,1-2.9-1.2,4.085,4.085,0,0,1-1.207-2.906v-4.247a4.082,4.082,0,0,1,1.205-2.907,4.085,4.085,0,0,1,2.907-1.207h34.232a4.119,4.119,0,0,1,4.113,4.112l0,4.247a4.086,4.086,0,0,1-1.206,2.908,4.088,4.088,0,0,1-2.907,1.206h-34.236Zm.3-4.411h33.637l0-3.651h-33.636Zm-.3,0Z" transform="translate(311.5 -848.414)"/></g><g transform="translate(0.001 44.198)"><path d="M2.162,0H35.885a2.163,2.163,0,0,1,2.163,2.163V5.9a2.162,2.162,0,0,1-2.162,2.162H2.163A2.163,2.163,0,0,1,0,5.9V2.162A2.162,2.162,0,0,1,2.162,0Z" transform="translate(2.205 2.205)" fill="#fff"/><path d="M-273.154,870.576h-34.232a4.118,4.118,0,0,1-4.113-4.113v-4.245a4.08,4.08,0,0,1,1.205-2.907,4.085,4.085,0,0,1,2.907-1.207h34.234a4.117,4.117,0,0,1,4.112,4.113v4.245A4.118,4.118,0,0,1-273.154,870.576Zm-33.935-4.411h33.636v-3.651h-33.636Z" transform="translate(311.5 -858.104)"/></g><g transform="translate(0 52.745)"><path d="M2.163,0H35.886a2.162,2.162,0,0,1,2.162,2.162V5.9a2.163,2.163,0,0,1-2.163,2.163H2.161A2.161,2.161,0,0,1,0,5.9V2.163A2.163,2.163,0,0,1,2.163,0Z" transform="translate(2.206 2.206)" fill="#fff"/><path d="M-273.156,880.266h-34.233a4.086,4.086,0,0,1-2.907-1.208,4.083,4.083,0,0,1-1.206-2.907l0-4.247a4.119,4.119,0,0,1,4.114-4.112h34.233A4.085,4.085,0,0,1-270.246,869a4.087,4.087,0,0,1,1.2,2.907l0,4.247A4.119,4.119,0,0,1-273.156,880.266Zm-33.935-4.411h33.637l0-3.652h-33.637Z" transform="translate(311.501 -867.793)"/></g><g transform="translate(0.001 61.293)"><path d="M2.163,0H35.885a2.163,2.163,0,0,1,2.163,2.163V5.9a2.162,2.162,0,0,1-2.162,2.162H2.163A2.163,2.163,0,0,1,0,5.9V2.163A2.163,2.163,0,0,1,2.163,0Z" transform="translate(2.206 2.205)" fill="#fff"/><path d="M-273.154,889.955h-34.232a4.118,4.118,0,0,1-4.113-4.112V881.6a4.075,4.075,0,0,1,1.206-2.907,4.083,4.083,0,0,1,2.907-1.207h34.233a4.119,4.119,0,0,1,4.113,4.112v4.247a4.085,4.085,0,0,1-1.2,2.907A4.083,4.083,0,0,1-273.154,889.955Zm-33.935-4.411h33.636v-3.651h-33.637Z" transform="translate(311.5 -877.483)"/></g><g transform="translate(0.001 69.841)"><path d="M2.163,0H35.885a2.163,2.163,0,0,1,2.163,2.163V5.9a2.162,2.162,0,0,1-2.162,2.162H2.163A2.163,2.163,0,0,1,0,5.9V2.163A2.163,2.163,0,0,1,2.163,0Z" transform="translate(2.206 2.205)" fill="#fff"/><path d="M-273.154,899.645h-34.232a4.119,4.119,0,0,1-4.113-4.112v-4.247a4.079,4.079,0,0,1,1.206-2.907,4.083,4.083,0,0,1,2.907-1.206h34.233a4.118,4.118,0,0,1,4.113,4.112v4.247a4.079,4.079,0,0,1-1.206,2.907A4.085,4.085,0,0,1-273.154,899.645Zm-33.935-4.411h33.636v-3.651h-33.637Z" transform="translate(311.5 -887.173)"/></g><g transform="translate(11.035)"><path d="M3.319,0h9.927a3.319,3.319,0,0,1,3.319,3.319V8.73a0,0,0,0,1,0,0H0a0,0,0,0,1,0,0V3.319A3.319,3.319,0,0,1,3.319,0Z" transform="translate(2.206 2.205)" fill="#fff"/><path d="M-280.222,821.14h-16.565a2.2,2.2,0,0,1-2.205-2.205v-5.8A5.139,5.139,0,0,1-293.859,808h10.709a5.138,5.138,0,0,1,5.133,5.132v5.8A2.2,2.2,0,0,1-280.222,821.14Zm-14.359-4.411h12.154v-3.6a.723.723,0,0,0-.722-.722h-10.709a.723.723,0,0,0-.722.722Z" transform="translate(298.992 -808)"/></g></g></g></svg>