<svg xmlns="http://www.w3.org/2000/svg" width="96.027" height="84.711" viewBox="0 0 96.027 84.711"><g transform="translate(521.906 -859)"><path d="M-483.564,941.43h49.108s5.845,2.2,5.845-7.694V885.52s0-5.638-6.594-5.638l-.329-3.667s5.125-4.275,1.078-5.25l-.749-4.272h4.762l-.366-5.495-4.4-2.2h-48.359l-4.4,1.1v6.078l5.495.516-.925,3.292s-3.123,1.268,0,6.132l.925,3.765s-7.3-1.421-6.4,6.983l-.195,49.069S-490.158,940.331-483.564,941.43Z" fill="#fff"/><path d="M-431.136,872.119h-55.572a2.158,2.158,0,0,1-2.156-2.156V866.38a4.316,4.316,0,0,1,4.312-4.312h51.259a4.317,4.317,0,0,1,4.313,4.312v3.583A2.159,2.159,0,0,1-431.136,872.119Zm-53.416-7.9a2.158,2.158,0,0,0-2.156,2.156v3.583h55.572V866.38a2.159,2.159,0,0,0-2.157-2.156Z" stroke="#000" stroke-linecap="round" stroke-linejoin="round" stroke-width="3"/><path d="M-483.39,874.381v-3.34a1.078,1.078,0,0,1,1.078-1.078h46.778a1.078,1.078,0,0,1,1.078,1.078v8.082h1.232a5.853,5.853,0,0,1,5.845,5.846v51.4a5.852,5.852,0,0,1-5.845,5.845h-51.4a5.852,5.852,0,0,1-5.845-5.845v-51.4a5.853,5.853,0,0,1,5.845-5.846h1.231v-4.742Zm2.156,5.82a1.078,1.078,0,0,1-1.078,1.079h-2.309a3.693,3.693,0,0,0-3.689,3.689v51.4a3.693,3.693,0,0,0,3.689,3.689h51.4a3.693,3.693,0,0,0,3.689-3.689v-51.4a3.693,3.693,0,0,0-3.689-3.689h-2.31a1.078,1.078,0,0,1-1.078-1.079v-8.082h-44.622V880.2Z" stroke="#000" stroke-linecap="round" stroke-linejoin="round" stroke-width="3"/><path d="M-514.109,883.883v7.143l3.549,1.5-.749,3.852s-18.853,19.621-.022,43.872l3.776,1.962h28.746s6.944-3.324,9.627-10.018c0,0,7.573-24.942-5.873-34.318v-6.849h2.8l.547-7.893H-473l-39.055-.6Z" fill="#fff"/><path d="M-478.809,942.211h-28.746a7.514,7.514,0,0,1-6.486-3.731c-15.358-26.524,2.069-41.774,2.247-41.926a.747.747,0,0,1,.485-.177h36.254a.747.747,0,0,1,.485.177c.178.152,17.606,15.4,2.247,41.926A7.513,7.513,0,0,1-478.809,942.211Zm-32.216-44.336c-1.953,1.789-15.721,15.673-1.719,39.854a6.011,6.011,0,0,0,5.189,2.983h28.746a6.011,6.011,0,0,0,5.189-2.983c14-24.181.234-38.065-1.719-39.854Z" stroke="#000" stroke-linecap="round" stroke-linejoin="round" stroke-width="3"/><path d="M-475.055,897.875h-36.254a.749.749,0,0,1-.75-.749v-5.35a.75.75,0,0,1,.75-.75h36.254a.75.75,0,0,1,.75.75v5.35A.749.749,0,0,1-475.055,897.875Zm-35.505-1.5H-475.8v-3.852H-510.56Z" stroke="#000" stroke-linecap="round" stroke-linejoin="round" stroke-width="3"/><path d="M-471.505,892.525h-43.353a.749.749,0,0,1-.75-.749v-7.893a2.251,2.251,0,0,1,2.249-2.248H-473a2.25,2.25,0,0,1,2.248,2.248v7.893A.749.749,0,0,1-471.505,892.525Zm-42.6-1.5h41.854v-7.143a.75.75,0,0,0-.749-.75h-40.355a.751.751,0,0,0-.75.75Z" stroke="#000" stroke-linecap="round" stroke-linejoin="round" stroke-width="3"/></g></svg>