<svg xmlns="http://www.w3.org/2000/svg" width="84.916" height="99.204" viewBox="0 0 84.916 99.204"><g transform="translate(168.049 -624.081)"><g transform="translate(-168.049 624.081)"><g transform="translate(2.099 2.478)"><path d="M-104.809,721.561V670.977h-.407V658.335l-11.332-22.3v-6.115s0-3.176-4.645-3.176h-29.8s-3.5.115-3.576,4.7V637l-11.222,20.4v63.548Z" transform="translate(165.792 -626.745)" fill="#fff"/></g><path d="M-167.153,723.285a.9.9,0,0,1-.9-.9V657.6a.9.9,0,0,1,.095-.4l10.9-21.806v-5.7a5.616,5.616,0,0,1,5.609-5.61h31.967a5.616,5.616,0,0,1,5.609,5.61v5.7l10.9,21.806a.9.9,0,0,1,.095.406l-.419,64.787a.9.9,0,0,1-.9.891Zm59.352-4.935V660.438H-141.12V718.35Zm-38.251,0V660.438h-17.062V718.35Zm36.727-62.846-8.531-17.062h-32.736l8.532,17.062Zm-38.251,0-7.006-14.013-7.008,14.013Zm28.778-22v-3.817a.676.676,0,0,0-.675-.675h-31.967a.676.676,0,0,0-.675.675v3.817Z" transform="translate(168.049 -624.081)"/></g><g transform="translate(-122.194 669.344)"><rect width="34.41" height="49.291" transform="translate(2.325 2.325)" fill="#fff"/><path d="M-82.007,726.691h-34.41a2.325,2.325,0,0,1-2.325-2.325V675.075a2.325,2.325,0,0,1,2.325-2.325h34.41a2.325,2.325,0,0,1,2.325,2.325v49.291A2.325,2.325,0,0,1-82.007,726.691Zm-32.085-4.65h29.76V677.4h-29.76Z" transform="translate(118.743 -672.75)"/></g><g transform="translate(-101.042 670.479)"><path d="M-93.675,726.052A2.325,2.325,0,0,1-96,723.727V676.3a2.325,2.325,0,0,1,2.325-2.325A2.325,2.325,0,0,1-91.35,676.3v47.431A2.325,2.325,0,0,1-93.675,726.052Z" transform="translate(96 -673.971)"/></g><g transform="translate(-99.69 671.226)"><path d="M-87.007,689.655a2.325,2.325,0,0,1-2.071-1.269l-5.214-10.231a2.324,2.324,0,0,1,1.016-3.127,2.326,2.326,0,0,1,3.128,1.016l3.142,6.166,3.143-6.166a2.324,2.324,0,0,1,3.127-1.016,2.325,2.325,0,0,1,1.016,3.127l-5.214,10.231A2.327,2.327,0,0,1-87.007,689.655Z" transform="translate(94.546 -674.774)"/></g></g></svg>