<svg xmlns="http://www.w3.org/2000/svg" width="128.683" height="148" viewBox="0 0 128.683 148"><g transform="translate(300.325 -1514.457) rotate(90)" opacity="0.623"><path d="M1541.719,176.081a4.441,4.441,0,1,1-4.443-4.439A4.443,4.443,0,0,1,1541.719,176.081Z" transform="translate(50.24)" fill="#fff"/><path d="M1539.052,180.691a4.439,4.439,0,1,1-4.439-4.439A4.438,4.438,0,0,1,1539.052,180.691Z" transform="translate(42.961 12.601)" fill="#fff"/><circle cx="4.439" cy="4.439" r="4.439" transform="translate(1563.174 206.044)" fill="#fff"/><path d="M1533.716,189.9a4.439,4.439,0,1,1-4.439-4.439A4.437,4.437,0,0,1,1533.716,189.9Z" transform="translate(28.375 37.784)" fill="#fff"/><path d="M1531.051,194.514a4.439,4.439,0,1,1-4.439-4.439A4.437,4.437,0,0,1,1531.051,194.514Z" transform="translate(21.091 50.385)" fill="#fff"/><circle cx="4.439" cy="4.439" r="4.439" transform="translate(1533.312 257.644)" fill="#fff"/><path d="M1525.72,203.727a4.439,4.439,0,1,1-4.439-4.439A4.44,4.44,0,0,1,1525.72,203.727Z" transform="translate(6.519 75.568)" fill="#fff"/><path d="M1523.335,208.171a4.439,4.439,0,1,1-4.439-4.439A4.437,4.437,0,0,1,1523.335,208.171Z" transform="translate(0 87.715)" fill="#fff"/><path d="M1544.389,180.691a4.439,4.439,0,1,1-4.439-4.439A4.437,4.437,0,0,1,1544.389,180.691Z" transform="translate(57.549 12.601)" fill="#fff"/><circle cx="4.439" cy="4.439" r="4.439" transform="translate(1583.1 206.044)" fill="#fff"/><path d="M1539.054,189.9a4.439,4.439,0,1,1-4.439-4.439A4.44,4.44,0,0,1,1539.054,189.9Z" transform="translate(42.967 37.784)" fill="#fff"/><circle cx="4.439" cy="4.439" r="4.439" transform="translate(1563.191 240.461)" fill="#fff"/><circle cx="4.439" cy="4.439" r="4.439" transform="translate(1553.239 257.644)" fill="#fff"/><circle cx="4.439" cy="4.439" r="4.439" transform="translate(1543.287 274.857)" fill="#fff"/><path d="M1528.673,208.171a4.439,4.439,0,1,1-4.439-4.439A4.437,4.437,0,0,1,1528.673,208.171Z" transform="translate(14.591 87.715)" fill="#fff"/><path d="M1547.059,185.3a4.439,4.439,0,1,1-4.438-4.443A4.442,4.442,0,0,1,1547.059,185.3Z" transform="translate(64.847 25.186)" fill="#fff"/><path d="M1544.391,189.9a4.439,4.439,0,1,1-4.439-4.439A4.437,4.437,0,0,1,1544.391,189.9Z" transform="translate(57.555 37.784)" fill="#fff"/><circle cx="4.439" cy="4.439" r="4.439" transform="translate(1583.118 240.461)" fill="#fff"/><circle cx="4.439" cy="4.439" r="4.439" transform="translate(1573.165 257.644)" fill="#fff"/><path d="M1536.4,203.727a4.441,4.441,0,1,1-4.439-4.439A4.44,4.44,0,0,1,1536.4,203.727Z" transform="translate(35.696 75.568)" fill="#fff"/><path d="M1534.01,208.171a4.439,4.439,0,1,1-4.439-4.439A4.437,4.437,0,0,1,1534.01,208.171Z" transform="translate(29.179 87.715)" fill="#fff"/><path d="M1549.688,189.9a4.439,4.439,0,1,1-4.439-4.439A4.437,4.437,0,0,1,1549.688,189.9Z" transform="translate(72.031 37.781)" fill="#fff"/><path d="M1547.022,194.514a4.439,4.439,0,1,1-4.439-4.439A4.44,4.44,0,0,1,1547.022,194.514Z" transform="translate(64.746 50.385)" fill="#fff"/><path d="M1544.355,199.116a4.439,4.439,0,1,1-4.439-4.439A4.437,4.437,0,0,1,1544.355,199.116Z" transform="translate(57.46 62.964)" fill="#fff"/><path d="M1541.691,203.726a4.439,4.439,0,1,1-4.439-4.439A4.44,4.44,0,0,1,1541.691,203.726Z" transform="translate(50.175 75.565)" fill="#fff"/><path d="M1539.306,208.17a4.439,4.439,0,1,1-4.439-4.439A4.437,4.437,0,0,1,1539.306,208.17Z" transform="translate(43.655 87.713)" fill="#fff"/><path d="M1552.345,194.514a4.439,4.439,0,1,1-4.439-4.439A4.44,4.44,0,0,1,1552.345,194.514Z" transform="translate(79.296 50.385)" fill="#fff"/><path d="M1549.679,199.116a4.439,4.439,0,1,1-4.439-4.439A4.437,4.437,0,0,1,1549.679,199.116Z" transform="translate(72.009 62.964)" fill="#fff"/><path d="M1547.014,203.726a4.439,4.439,0,1,1-4.439-4.439A4.44,4.44,0,0,1,1547.014,203.726Z" transform="translate(64.725 75.565)" fill="#fff"/><path d="M1544.63,208.17a4.439,4.439,0,1,1-4.439-4.439A4.44,4.44,0,0,1,1544.63,208.17Z" transform="translate(58.208 87.713)" fill="#fff"/><circle cx="4.439" cy="4.439" r="4.439" transform="translate(1632.685 257.642)" fill="#fff"/><path d="M1552.337,203.726a4.439,4.439,0,1,1-4.439-4.439A4.438,4.438,0,0,1,1552.337,203.726Z" transform="translate(79.274 75.565)" fill="#fff"/><path d="M1549.953,208.17a4.439,4.439,0,1,1-4.438-4.439A4.44,4.44,0,0,1,1549.953,208.17Z" transform="translate(72.758 87.713)" fill="#fff"/><circle cx="4.439" cy="4.439" r="4.439" transform="translate(1643.624 274.154)" fill="#fff"/><path d="M1555.267,208.149a4.439,4.439,0,1,1-4.439-4.439A4.44,4.44,0,0,1,1555.267,208.149Z" transform="translate(87.284 87.655)" fill="#fff"/><path d="M1560.6,208.149a4.439,4.439,0,1,1-4.439-4.439A4.437,4.437,0,0,1,1560.6,208.149Z" transform="translate(101.858 87.655)" fill="#fff"/></g></svg>