<svg xmlns="http://www.w3.org/2000/svg" xmlns:xlink="http://www.w3.org/1999/xlink" width="186.205" height="204" viewBox="0 0 186.205 204"><defs><linearGradient id="a" x1="-117.77" y1="0.5" x2="-119.26" y2="0.5" gradientUnits="objectBoundingBox"><stop offset="0.309" stop-color="#2e6078"/><stop offset="0.375" stop-color="#2e6179"/><stop offset="0.399" stop-color="#2f6580"/><stop offset="0.416" stop-color="#306c8c"/><stop offset="0.417" stop-color="#316d8d"/><stop offset="0.428" stop-color="#317395"/><stop offset="0.46" stop-color="#3481aa"/><stop offset="0.491" stop-color="#358ab6"/><stop offset="0.522" stop-color="#368dbb"/><stop offset="0.89" stop-color="#3588b3"/><stop offset="0.919" stop-color="#3381a9"/><stop offset="0.969" stop-color="#316f8e"/><stop offset="1" stop-color="#2f637b"/></linearGradient><linearGradient id="b" x1="-74.737" y1="0.5" x2="-75.686" y2="0.5" xlink:href="#a"/><linearGradient id="c" x1="-67.032" y1="0.5" x2="-66.07" y2="0.5" gradientUnits="objectBoundingBox"><stop offset="0.025" stop-color="#2f637b"/><stop offset="0.053" stop-color="#316f8e"/><stop offset="0.098" stop-color="#3381a9"/><stop offset="0.125" stop-color="#3588b3"/><stop offset="0.478" stop-color="#368dbb"/><stop offset="0.509" stop-color="#358ab6"/><stop offset="0.54" stop-color="#3481aa"/><stop offset="0.572" stop-color="#317395"/><stop offset="0.583" stop-color="#316d8d"/><stop offset="0.584" stop-color="#306c8c"/><stop offset="0.601" stop-color="#2f6580"/><stop offset="0.625" stop-color="#2e6179"/><stop offset="0.691" stop-color="#2e6078"/></linearGradient><linearGradient id="d" x1="1.008" y1="0.5" x2="0.059" y2="0.5" gradientUnits="objectBoundingBox"><stop offset="0" stop-color="#f7b643"/><stop offset="0.04" stop-color="#eebe3b"/><stop offset="0.11" stop-color="#e5c833"/><stop offset="0.478" stop-color="#e9d034"/><stop offset="0.509" stop-color="#e6cb33"/><stop offset="0.541" stop-color="#e0bf32"/><stop offset="0.574" stop-color="#d5aa2f"/><stop offset="0.583" stop-color="#d2a32f"/><stop offset="0.591" stop-color="#d09a2c"/><stop offset="0.607" stop-color="#cd8e27"/><stop offset="0.629" stop-color="#cc8725"/><stop offset="0.691" stop-color="#cc8625"/></linearGradient><linearGradient id="e" x1="-68.893" y1="0.5" x2="-67.932" y2="0.5" xlink:href="#d"/><linearGradient id="f" x1="-118.853" y1="0.5" x2="-120.343" y2="0.5" gradientUnits="objectBoundingBox"><stop offset="0.309" stop-color="#3f8543"/><stop offset="0.375" stop-color="#3f8643"/><stop offset="0.399" stop-color="#428d45"/><stop offset="0.416" stop-color="#479948"/><stop offset="0.417" stop-color="#489a49"/><stop offset="0.428" stop-color="#4ca24b"/><stop offset="0.46" stop-color="#56b750"/><stop offset="0.491" stop-color="#5cc353"/><stop offset="0.522" stop-color="#5ec855"/><stop offset="0.89" stop-color="#5ac052"/><stop offset="0.919" stop-color="#55b64f"/><stop offset="0.969" stop-color="#499b48"/><stop offset="1" stop-color="#418844"/></linearGradient><linearGradient id="g" x1="-75.424" y1="0.5" x2="-76.373" y2="0.5" gradientUnits="objectBoundingBox"><stop offset="0.309" stop-color="#3f8543"/><stop offset="0.375" stop-color="#3f8643"/><stop offset="0.399" stop-color="#428d45"/><stop offset="0.416" stop-color="#479948"/><stop offset="0.417" stop-color="#489a49"/><stop offset="0.421" stop-color="#4a9c49"/><stop offset="0.455" stop-color="#5db14e"/><stop offset="0.489" stop-color="#69bd51"/><stop offset="0.522" stop-color="#6dc253"/><stop offset="0.89" stop-color="#6dc253"/><stop offset="0.918" stop-color="#65b850"/><stop offset="0.967" stop-color="#519d49"/><stop offset="1" stop-color="#418844"/></linearGradient><linearGradient id="h" x1="-67.637" y1="0.5" x2="-66.676" y2="0.5" gradientUnits="objectBoundingBox"><stop offset="0.025" stop-color="#418844"/><stop offset="0.055" stop-color="#519d49"/><stop offset="0.099" stop-color="#65b850"/><stop offset="0.125" stop-color="#6dc253"/><stop offset="0.478" stop-color="#6dc253"/><stop offset="0.511" stop-color="#69bd51"/><stop offset="0.545" stop-color="#5db14e"/><stop offset="0.579" stop-color="#4a9c49"/><stop offset="0.583" stop-color="#489a49"/><stop offset="0.584" stop-color="#479948"/><stop offset="0.601" stop-color="#428d45"/><stop offset="0.625" stop-color="#3f8643"/><stop offset="0.691" stop-color="#3f8543"/></linearGradient></defs><g transform="translate(-336.492 -470)"><circle cx="80.698" cy="80.698" r="80.698" transform="translate(361.302 470)" fill="#84bd00"/><g transform="translate(-2661.277 573.306)"><g transform="translate(2997.769 -92.306)"><g transform="translate(0.002)"><path d="M3003.589-26.3l2.732-.572-1.611-37.537-1.121.141Z" transform="translate(-2987.067 143.6)" fill="#316e8e"/><path d="M2998.042-83.95v6.937l2.485-1.331,2.9-4.114Z" transform="translate(-2997.269 107.672)" fill="#347ea5"/><path d="M3026.251-51.557l-22.267-12.856,1.611,37.537,22.266,12.856Z" transform="translate(-2986.342 143.6)" fill="#27556a"/><path d="M3023.785-60.4l-15.016,8.673v27.152l10.9,6.271a3.465,3.465,0,0,0,3.119.139L3059.885-39.6a.909.909,0,0,0,.514-.752,1.217,1.217,0,0,0-.755-1.031L3026.906-60.3A3.457,3.457,0,0,0,3023.785-60.4Z" transform="translate(-2977.54 150.376)" fill="url(#a)"/><path d="M3000.812-49.557v.034c0,.341.239.684.755.994l7.129,4.114V-54.565l-7.371,4.253A.909.909,0,0,0,3000.812-49.557Z" transform="translate(-2992.175 161.711)" fill="#2e6078"/><path d="M2999.616-80.255l3.394,81.85v.034l7.885-.24v-32.62l14.707,8.5V.978l51.63-1.509,3.394-81.85Z" transform="translate(-2994.374 110.558)" fill="url(#b)"/><path d="M2999.731-73.169l13.261-7.657,55.38-1.445,11.736,6.777-.415,9.363L3041.62-44.152c-2.05,1.184-5.664,1.036-8.031-.332l-33.441-19.305Z" transform="translate(-2994.163 110.76)" fill="#1e4c63"/><path d="M2997.771-68.154l4.665-.105,39.376-19.952c2.05-1.181,5.662-1.033,8.029.335L3080.8-70.005l8.471-.19v6.578h-.026a2.35,2.35,0,0,1-1.357,2.007l-42.661,24.631c-2.05,1.184-5.664,1.033-8.031-.332L3031.5-40.6l-1.976-4.153-29.8-17.2a3.225,3.225,0,0,1-1.933-2.663h-.023Z" transform="translate(-2997.767 98.37)" fill="url(#c)"/><path d="M3045.227-39.287l42.661-24.631c2.05-1.184,1.792-3.268-.576-4.636l-37.469-21.633c-2.368-1.366-5.979-1.516-8.029-.332l-42.661,24.631c-2.05,1.184-1.792,3.271.576,4.636L3037.2-39.62C3039.563-38.254,3043.177-38.1,3045.227-39.287Z" transform="translate(-2997.77 94.122)" fill="#4094bb"/><path d="M3041.24-42.741a3.425,3.425,0,0,0,1.513-.27l38.635-22.306A1.219,1.219,0,0,0,3082-66.5c-.034-.375,0-3.248,0-3.248l-40.62-20.8a5.481,5.481,0,0,0-2.575-.6,3.408,3.408,0,0,0-1.51.27l-38.635,22.306a1.231,1.231,0,0,0,0,2.129l.21.122,39.8,22.976A5.474,5.474,0,0,0,3041.24-42.741Z" transform="translate(-2997.269 94.434)" fill="#347ea5"/><path d="M3041.24-43.9a3.382,3.382,0,0,0,1.513-.27l38.635-22.3a1.231,1.231,0,0,0,0-2.129l-40.012-23.1a5.482,5.482,0,0,0-2.575-.6,3.407,3.407,0,0,0-1.51.27L2998.655-69.73a1.228,1.228,0,0,0,0,2.126l40.012,23.1A5.473,5.473,0,0,0,3041.24-43.9Z" transform="translate(-2997.269 92.306)" fill="#4094bb"/><path d="M3025.525-70.844l8.105-4.679c2-1.155,2.232-2.89.522-3.878l-.624-.361L3018.187-70.9l.624.361A7.471,7.471,0,0,0,3025.525-70.844Z" transform="translate(-2960.223 115.376)" fill="#1e4c63"/><g transform="translate(55.256 69.754)"><path d="M3026.737-60.6a.747.747,0,0,1-.012.6.234.234,0,0,1-.076.125l-5.621,3.245.258-4.667,3.514-2.027Z" transform="translate(-3010.254 75.851)" fill="#d6cedc"/><path d="M3021.97-59.611l-3.859,2.229a.673.673,0,0,1-.7.079l2.431-5.326,3.239.565Z" transform="translate(-3016.907 77.128)" fill="#d6cedc"/><path d="M3024.431-57.919l-4.957,4.094-.764-5.082,1.238.213,2.226-4.86a4.7,4.7,0,0,1,1.76-2.072l3.656-2.109-4.394,9.6Z" transform="translate(-3014.517 67.736)" fill="#d6cedc"/><path d="M3020.979-62.081l2.062-4.574a1.717,1.717,0,0,1,.647-.781l.022-.014c.049-.026.1-.054.12-.04l2.538,3.566-3.517,4.469Z" transform="translate(-3010.342 68.182)" fill="#d6cedc"/><path d="M3021.852-58l1.4-6.328,4.817-1.55-1.342,1.7,1.227,1.709a2.592,2.592,0,0,1-.065,2.359l-1.823,4.4-2.865-4Z" transform="translate(-3008.739 71.153)" fill="#d6cedc"/><path d="M3024.076-60.605l.1-1.783,3.316,2.081-3.773,6.172.1-1.786-3.52,2.033c-.689.4-1.3.324-1.593-.187l-1.471-2.578Z" transform="translate(-3017.233 77.571)" fill="#d6cedc"/></g><path d="M3000.756-78.155l3.7,4.826,1.886-1.6Z" transform="translate(-2992.279 118.33)" fill="#083652"/><path d="M3004.459-76.016l3.7,4.826,1.886-1.6Z" transform="translate(-2985.467 122.263)" fill="#083652"/><path d="M3000.208-78.47l3.7,4.826,1.554.9-3.7-4.826Z" transform="translate(-2993.285 117.749)" fill="#27556a"/><path d="M3003.912-76.332l3.7,4.826,1.554.9-3.7-4.826Z" transform="translate(-2986.474 121.682)" fill="#27556a"/></g><g transform="translate(0 103.024)"><path d="M3010.06-45.794a12.1,12.1,0,0,0-5.493-9.471,3.86,3.86,0,0,0-3.9-.38v0l-2.387,1.525,8.088,13.187,2.084-1.329h0A3.817,3.817,0,0,0,3010.06-45.794Z" transform="translate(-2996.833 56.017)" fill="#25242f"/><path d="M3008.753-45.286c0,3.478-2.458,4.88-5.49,3.129a12.091,12.091,0,0,1-5.494-9.471c0-3.481,2.459-4.88,5.494-3.131A12.105,12.105,0,0,1,3008.753-45.286Z" transform="translate(-2997.769 56.943)" fill="#393842"/><path d="M3006.192-47.476c0,2.5-1.763,3.5-3.937,2.243a8.673,8.673,0,0,1-3.939-6.791c0-2.5,1.763-3.5,3.939-2.246A8.685,8.685,0,0,1,3006.192-47.476Z" transform="translate(-2996.761 58.236)" fill="#cdc6bc"/></g></g><g transform="translate(3082.939 -63.916)"><g transform="translate(0.002)"><path d="M3033.589-16.3l2.731-.572-1.611-37.537-1.12.141Z" transform="translate(-3017.068 133.6)" fill="#a1680d"/><path d="M3028.042-73.95v6.937l2.485-1.331,2.9-4.114Z" transform="translate(-3027.269 97.672)" fill="#54b24f"/><path d="M3056.251-41.557l-22.267-12.856,1.611,37.537,22.266,12.856Z" transform="translate(-3016.342 133.6)" fill="#c3761c"/><path d="M3029.617-70.255,3033.01,11.6v.034c0,.341.241.684.755.994l7.132,4.114V-21.231l14.706,8.5V25.24l10.9,6.271a3.465,3.465,0,0,0,3.119.139l37.094-21.429a.91.91,0,0,0,.515-.752l3.392-81.851Z" transform="translate(-3024.373 100.558)" fill="url(#d)"/><path d="M3029.731-63.169l13.261-7.657,55.38-1.445,11.737,6.777-.415,9.363L3071.62-34.152c-2.05,1.184-5.664,1.036-8.032-.332l-33.44-19.305Z" transform="translate(-3024.163 100.76)" fill="#b77922"/><path d="M3027.771-58.154l4.664-.105,39.376-19.952c2.05-1.181,5.661-1.033,8.029.335L3110.8-60.005l8.472-.19v6.578h-.026a2.352,2.352,0,0,1-1.357,2.007l-42.661,24.631c-2.05,1.184-5.664,1.033-8.031-.332L3061.5-30.6l-1.976-4.153-29.8-17.2a3.226,3.226,0,0,1-1.933-2.663h-.023Z" transform="translate(-3027.768 88.37)" fill="url(#e)"/><path d="M3075.227-29.287l42.661-24.631c2.051-1.184,1.792-3.268-.576-4.636l-37.469-21.633c-2.368-1.366-5.979-1.516-8.029-.332l-42.661,24.631c-2.05,1.184-1.792,3.271.576,4.636L3067.2-29.62C3069.563-28.254,3073.177-28.1,3075.227-29.287Z" transform="translate(-3027.77 84.122)" fill="#f1d03e"/><path d="M3071.24-32.741a3.421,3.421,0,0,0,1.513-.27l38.635-22.306A1.219,1.219,0,0,0,3112-56.5c-.034-.375,0-3.248,0-3.248l-40.62-20.8a5.479,5.479,0,0,0-2.575-.6,3.4,3.4,0,0,0-1.51.27l-38.636,22.306a1.231,1.231,0,0,0,0,2.129l.21.122,39.8,22.976A5.474,5.474,0,0,0,3071.24-32.741Z" transform="translate(-3027.269 84.434)" fill="#deba32"/><path d="M3071.24-33.9a3.379,3.379,0,0,0,1.513-.27l38.635-22.3a1.231,1.231,0,0,0,0-2.129l-40.013-23.1a5.479,5.479,0,0,0-2.575-.6,3.4,3.4,0,0,0-1.51.27L3028.655-59.73a1.228,1.228,0,0,0,0,2.126l40.012,23.1A5.474,5.474,0,0,0,3071.24-33.9Z" transform="translate(-3027.269 82.306)" fill="#f1d03e"/><path d="M3055.526-60.844l8.1-4.679c2-1.155,2.232-2.89.523-3.878l-.625-.361L3048.187-60.9l.625.361A7.471,7.471,0,0,0,3055.526-60.844Z" transform="translate(-2990.223 105.376)" fill="#b77922"/><g transform="translate(55.256 69.754)"><path d="M3056.737-50.6a.75.75,0,0,1-.012.6.234.234,0,0,1-.076.125l-5.622,3.245.258-4.667,3.515-2.027Z" transform="translate(-3040.253 65.851)" fill="#ffffd9"/><path d="M3051.969-49.611l-3.858,2.229a.673.673,0,0,1-.7.079l2.431-5.326,3.239.565Z" transform="translate(-3046.907 67.128)" fill="#ffffd9"/><path d="M3054.431-47.919l-4.957,4.094-.764-5.082,1.238.213,2.225-4.86a4.7,4.7,0,0,1,1.761-2.072l3.656-2.109-4.394,9.6Z" transform="translate(-3044.517 57.736)" fill="#ffffd9"/><path d="M3050.98-52.081l2.061-4.574a1.719,1.719,0,0,1,.647-.781l.022-.014c.049-.026.1-.054.119-.04l2.539,3.566-3.518,4.469Z" transform="translate(-3040.342 58.182)" fill="#ffffd9"/><path d="M3051.852-48l1.4-6.328,4.818-1.55-1.343,1.7,1.227,1.709a2.588,2.588,0,0,1-.065,2.359l-1.823,4.4-2.865-4Z" transform="translate(-3038.739 61.153)" fill="#ffffd9"/><path d="M3054.076-50.605l.1-1.783,3.316,2.081-3.773,6.172.1-1.786-3.52,2.033c-.689.4-1.3.324-1.593-.187l-1.471-2.578Z" transform="translate(-3047.233 67.571)" fill="#ffffd9"/></g><path d="M3030.756-68.154l3.7,4.826,1.887-1.6Z" transform="translate(-3022.279 108.33)" fill="#a1680d"/><path d="M3034.459-66.016l3.7,4.826,1.887-1.6Z" transform="translate(-3015.468 112.263)" fill="#a1680d"/><path d="M3030.209-68.47l3.7,4.826,1.554.9-3.7-4.826Z" transform="translate(-3023.286 107.749)" fill="#c0802b"/><path d="M3033.912-66.332l3.7,4.826,1.554.9-3.7-4.826Z" transform="translate(-3016.474 111.682)" fill="#c0802b"/></g><g transform="translate(0 103.024)"><path d="M3040.06-35.794a12.1,12.1,0,0,0-5.493-9.471,3.859,3.859,0,0,0-3.9-.38v0l-2.387,1.525,8.087,13.187,2.084-1.329h0A3.817,3.817,0,0,0,3040.06-35.794Z" transform="translate(-3026.833 46.017)" fill="#25242f"/><path d="M3038.752-35.286c0,3.478-2.458,4.88-5.49,3.129a12.09,12.09,0,0,1-5.494-9.471c0-3.481,2.458-4.88,5.494-3.131A12.106,12.106,0,0,1,3038.752-35.286Z" transform="translate(-3027.769 46.943)" fill="#393842"/><path d="M3036.192-37.476c0,2.5-1.763,3.5-3.937,2.246a8.684,8.684,0,0,1-3.938-6.794c0-2.5,1.763-3.5,3.938-2.246A8.684,8.684,0,0,1,3036.192-37.476Z" transform="translate(-3026.761 48.236)" fill="#a391b1"/></g></g><g transform="translate(3025.577 -31.821)"><g transform="translate(0.001)"><path d="M3013.384-5l2.732-.572L3014.5-43.109l-1.121.141Z" transform="translate(-2996.862 122.295)" fill="#489b49"/><path d="M3007.837-62.645v6.937l2.485-1.331,2.9-4.114Z" transform="translate(-3007.063 86.367)" fill="#54b24f"/><path d="M3036.046-30.253l-22.267-12.856,1.611,37.537,22.267,12.856Z" transform="translate(-2996.135 122.295)" fill="#35773a"/><path d="M3033.581-39.1l-15.016,8.67V-3.272L3029.467,3a3.461,3.461,0,0,0,3.117.139l37.094-21.429a.911.911,0,0,0,.513-.752,1.215,1.215,0,0,0-.752-1.031L3036.7-39A3.44,3.44,0,0,0,3033.581-39.1Z" transform="translate(-2987.334 129.071)" fill="url(#f)"/><path d="M3010.606-28.252v.034c0,.341.239.684.753.994l7.131,4.114V-33.26l-7.369,4.253A.911.911,0,0,0,3010.606-28.252Z" transform="translate(-3001.968 140.406)" fill="#3f8543"/><path d="M3009.411-58.95l3.394,81.85v.034l7.884-.24V-9.926l14.708,8.5V22.283l51.63-1.509,3.394-81.85Z" transform="translate(-3004.168 89.253)" fill="url(#g)"/><path d="M3009.526-51.864l13.261-7.657,55.377-1.445,11.737,6.777-.415,9.363-38.073,21.979c-2.047,1.184-5.661,1.033-8.029-.332l-33.44-19.308Z" transform="translate(-3003.957 89.455)" fill="#2c7032"/><path d="M3007.565-46.849l4.667-.105,39.373-19.952c2.051-1.181,5.665-1.033,8.032.335L3090.591-48.7l8.475-.19v6.578h-.026a2.352,2.352,0,0,1-1.357,2.007l-42.664,24.631c-2.05,1.184-5.662,1.033-8.029-.332l-5.692-3.288-1.976-4.153-29.8-17.2a3.231,3.231,0,0,1-1.933-2.663h-.023Z" transform="translate(-3007.563 77.065)" fill="url(#h)"/><path d="M3055.021-17.982l42.664-24.631c2.05-1.184,1.789-3.271-.576-4.636l-37.469-21.633c-2.368-1.366-5.981-1.516-8.032-.332l-42.661,24.631c-2.05,1.184-1.789,3.271.576,4.636l37.469,21.633C3049.359-16.949,3052.97-16.8,3055.021-17.982Z" transform="translate(-3007.564 72.817)" fill="#6dc253"/><path d="M3051.035-21.439a3.445,3.445,0,0,0,1.513-.267l38.634-22.306a1.22,1.22,0,0,0,.61-1.178c-.034-.375,0-3.248,0-3.248l-40.62-20.8a5.472,5.472,0,0,0-2.575-.6,3.417,3.417,0,0,0-1.511.27L3008.45-47.268a1.231,1.231,0,0,0,0,2.129l.21.119,39.8,22.979A5.464,5.464,0,0,0,3051.035-21.439Z" transform="translate(-3007.063 73.129)" fill="#54b24f"/><path d="M3051.035-22.6a3.387,3.387,0,0,0,1.513-.27l38.634-22.3a1.229,1.229,0,0,0,0-2.129l-40.012-23.1a5.472,5.472,0,0,0-2.575-.6,3.417,3.417,0,0,0-1.511.27L3008.45-48.425a1.228,1.228,0,0,0,0,2.126l40.012,23.1A5.464,5.464,0,0,0,3051.035-22.6Z" transform="translate(-3007.063 71.001)" fill="#6dc253"/><path d="M3035.322-49.539l8.1-4.679c2-1.155,2.235-2.89.526-3.878l-.625-.361L3027.98-49.6l.625.361A7.475,7.475,0,0,0,3035.322-49.539Z" transform="translate(-2970.018 94.071)" fill="#2c7032"/><g transform="translate(55.258 69.754)"><path d="M3036.529-39.3a.751.751,0,0,1-.008.6.274.274,0,0,1-.077.125l-5.621,3.245.258-4.667,3.515-2.027Z" transform="translate(-3020.049 54.546)" fill="#c1e3e4"/><path d="M3031.764-38.3l-3.858,2.229a.672.672,0,0,1-.7.079l2.43-5.329,3.239.565Z" transform="translate(-3026.702 55.821)" fill="#c1e3e4"/><path d="M3034.225-36.614l-4.96,4.094L3028.5-37.6l1.238.213,2.224-4.86a4.715,4.715,0,0,1,1.763-2.072l3.656-2.109-4.395,9.6Z" transform="translate(-3024.312 46.431)" fill="#c1e3e4"/><path d="M3030.774-40.776l2.064-4.574a1.684,1.684,0,0,1,.647-.781l.023-.014c.048-.026.1-.054.119-.04l2.538,3.566-3.518,4.469Z" transform="translate(-3020.139 46.877)" fill="#c1e3e4"/><path d="M3031.647-36.693l1.4-6.328,4.818-1.553-1.345,1.706,1.229,1.709a2.594,2.594,0,0,1-.065,2.359l-1.823,4.4-2.864-4Z" transform="translate(-3018.534 49.846)" fill="#c1e3e4"/><path d="M3033.87-39.3l.1-1.783L3037.285-39l-3.776,6.172.1-1.786-3.521,2.033c-.687.4-1.3.324-1.59-.187l-1.47-2.578Z" transform="translate(-3027.028 56.266)" fill="#c1e3e4"/></g><path d="M3010.55-56.85l3.7,4.826,1.886-1.6Z" transform="translate(-3002.073 97.025)" fill="#165f1d"/><path d="M3014.254-54.711l3.7,4.826,1.886-1.6Z" transform="translate(-2995.262 100.958)" fill="#165f1d"/><path d="M3010-57.166l3.7,4.826,1.554.9-3.7-4.826Z" transform="translate(-3003.079 96.444)" fill="#35773a"/><path d="M3013.707-55.027l3.7,4.826,1.554.9-3.7-4.826Z" transform="translate(-2996.268 100.376)" fill="#35773a"/></g><g transform="translate(0 103.024)"><path d="M3019.852-24.489a12.1,12.1,0,0,0-5.49-9.471,3.859,3.859,0,0,0-3.9-.38l0,0-2.385,1.525,8.085,13.187,2.084-1.329h0A3.81,3.81,0,0,0,3019.852-24.489Z" transform="translate(-3006.627 34.712)" fill="#25242f"/><path d="M3018.548-23.981c0,3.478-2.459,4.88-5.494,3.129a12.1,12.1,0,0,1-5.491-9.471c0-3.481,2.458-4.883,5.491-3.131A12.1,12.1,0,0,1,3018.548-23.981Z" transform="translate(-3007.564 35.637)" fill="#393842"/><path d="M3015.986-26.171c0,2.5-1.763,3.5-3.938,2.243a8.673,8.673,0,0,1-3.937-6.791c0-2.5,1.763-3.5,3.938-2.246A8.679,8.679,0,0,1,3015.986-26.171Z" transform="translate(-3006.558 36.931)" fill="#a391b1"/></g></g></g></g></svg>