<svg xmlns="http://www.w3.org/2000/svg" width="488.315" height="503.737" viewBox="0 0 488.315 503.737"><g transform="translate(-1274.236 -322)"><g transform="translate(1737.731 -1052.024) rotate(77)" opacity="0.296"><circle cx="203.58" cy="203.58" r="203.58" transform="translate(1338.815 377.617)" fill="#fff"/><g transform="translate(1327.435 358.35)"><path d="M1332.162,527.576a4.8,4.8,0,0,1-1.265-.167,4.719,4.719,0,0,1-3.287-5.816c26.618-96.111,114.942-163.242,214.784-163.242a4.726,4.726,0,1,1,0,9.452c-95.61,0-180.182,64.28-205.68,156.306A4.716,4.716,0,0,1,1332.162,527.576Z" transform="translate(-1327.435 -358.35)" fill="#fff"/></g></g><g transform="translate(2964.421 1068.05) rotate(180)"><path d="M1606.086,436.383a3.668,3.668,0,1,1,3.667,3.667A3.666,3.666,0,0,1,1606.086,436.383Zm-11.5,2.495a3.676,3.676,0,1,1,4.182-3.06,3.642,3.642,0,0,1-3.612,3.1A5.188,5.188,0,0,1,1594.582,438.877Zm-14.818-3.519a3.649,3.649,0,1,1,1.118.183A4.1,4.1,0,0,1,1579.764,435.358Zm-14.087-5.8a3.637,3.637,0,1,1,1.649.4A3.557,3.557,0,0,1,1565.676,429.562Zm-13.025-7.926a3.654,3.654,0,1,1,2.146.7A3.666,3.666,0,0,1,1552.651,421.636ZM1541.02,411.8a3.672,3.672,0,1,1,5.21-.017,3.747,3.747,0,0,1-2.623,1.079A3.631,3.631,0,0,1,1541.02,411.8Zm-9.957-11.5a3.683,3.683,0,1,1,2.949,1.483A3.7,3.7,0,0,1,1531.063,400.3Zm-8.053-12.915a3.671,3.671,0,1,1,4.951,1.56,3.8,3.8,0,0,1-1.7.4A3.651,3.651,0,0,1,1523.01,387.388Zm-5.963-14.015a3.693,3.693,0,1,1,3.485,2.495A3.657,3.657,0,0,1,1517.047,373.373Zm-3.688-14.785a3.665,3.665,0,1,1,4.219,3.009,3.24,3.24,0,0,1-.6.055A3.661,3.661,0,0,1,1513.359,358.589ZM1512,343.417a3.668,3.668,0,0,1,7.335-.072,3.648,3.648,0,0,1-3.612,3.706A3.693,3.693,0,0,1,1512,343.417Zm4.109-11.024a3.671,3.671,0,1,1,.532.038A4.74,4.74,0,0,1,1516.112,332.394Zm2.66-14.415a3.674,3.674,0,1,1,1.079.161A3.738,3.738,0,0,1,1518.772,317.979Zm4.879-13.85a3.655,3.655,0,1,1,1.615.382A3.733,3.733,0,0,1,1523.651,304.129Zm6.986-12.9a3.666,3.666,0,1,1,5.117-.9,3.642,3.642,0,0,1-3,1.56A3.592,3.592,0,0,1,1530.637,291.231Zm8.9-11.665a3.669,3.669,0,1,1,2.55,1.028A3.619,3.619,0,0,1,1539.537,279.566Zm10.581-10.144a3.666,3.666,0,1,1,5.155.714,3.733,3.733,0,0,1-2.219.735A3.685,3.685,0,0,1,1550.118,269.422Zm12.035-8.385a3.653,3.653,0,1,1,3.247,1.946A3.679,3.679,0,0,1,1562.153,261.038Zm13.187-6.417a3.662,3.662,0,1,1,4.662,2.257,3.484,3.484,0,0,1-1.194.217A3.675,3.675,0,0,1,1575.339,254.621Zm14.033-4.275a3.664,3.664,0,1,1,4.258,2.97,3.857,3.857,0,0,1-.659.055A3.654,3.654,0,0,1,1589.372,250.346Zm14.512-2.019a3.668,3.668,0,1,1,3.761,3.578h-.094A3.687,3.687,0,0,1,1603.885,248.327Z" transform="translate(0 0)" fill="#3264ce"/><path d="M1591.3,402.28a3.668,3.668,0,1,1,3.667,3.65A3.667,3.667,0,0,1,1591.3,402.28Zm-11.614,2.163a3.658,3.658,0,1,1,.718.072A3.184,3.184,0,0,1,1579.689,404.443ZM1564.981,400a3.663,3.663,0,1,1,1.394.276A3.675,3.675,0,0,1,1564.981,400Zm-13.556-7.263a3.644,3.644,0,1,1,2.036.625A3.648,3.648,0,0,1,1551.425,392.74Zm-11.87-9.74a3.684,3.684,0,1,1,2.588,1.062A3.641,3.641,0,0,1,1539.555,383Zm-9.778-11.869a3.676,3.676,0,1,1,5.1,1.012,3.722,3.722,0,0,1-5.1-1.012Zm-7.245-13.556a3.664,3.664,0,1,1,4.789,1.985,3.515,3.515,0,0,1-1.411.293A3.673,3.673,0,0,1,1522.531,357.574Zm-4.475-14.691a3.666,3.666,0,1,1,4.313,2.881,3.172,3.172,0,0,1-.718.072A3.684,3.684,0,0,1,1518.056,342.883Zm-1.5-15.3a3.67,3.67,0,1,1,3.672,3.667A3.666,3.666,0,0,1,1516.552,327.584Zm4.369-10.968a3.65,3.65,0,1,1,.714.072A4.512,4.512,0,0,1,1520.92,316.616Zm3.54-14.236a3.663,3.663,0,1,1,1.394.276A3.7,3.7,0,0,1,1524.46,302.379Zm6.273-13.259a3.671,3.671,0,1,1,5.082-1.011,3.716,3.716,0,0,1-3.047,1.632A3.6,3.6,0,0,1,1530.733,289.121Zm8.729-11.78a3.671,3.671,0,1,1,5.176-5.206,3.7,3.7,0,0,1,.017,5.189,3.673,3.673,0,0,1-5.193.017Zm10.845-9.868a3.677,3.677,0,1,1,3.043,1.615A3.683,3.683,0,0,1,1550.307,267.473Zm12.562-7.577a3.667,3.667,0,1,1,4.807,1.985,3.94,3.94,0,0,1-1.411.272A3.656,3.656,0,0,1,1562.869,259.9Zm13.794-4.951a3.676,3.676,0,1,1,7.207-1.449,3.658,3.658,0,0,1-2.9,4.309,3.141,3.141,0,0,1-.714.076A3.668,3.668,0,0,1,1576.663,254.945Zm14.508-2.163a3.67,3.67,0,1,1,3.672,3.667A3.673,3.673,0,0,1,1591.171,252.782Z" transform="translate(14.783 14.771)" fill="#3264ce"/><path d="M1576.281,367.612a3.668,3.668,0,1,1,3.667,3.667A3.68,3.68,0,0,1,1576.281,367.612Zm-11.41,1.725a3.744,3.744,0,1,1,.935.106A4.125,4.125,0,0,1,1564.87,369.337Zm-14.088-5.78a3.682,3.682,0,1,1,1.815.476A3.672,3.672,0,0,1,1550.782,363.558Zm-12.107-9.209a3.658,3.658,0,1,1,2.567,1.062A3.6,3.6,0,0,1,1538.675,354.349Zm-9.374-11.98a3.675,3.675,0,1,1,5.027,1.283,3.628,3.628,0,0,1-1.853.514A3.688,3.688,0,0,1,1529.3,342.369Zm-5.963-13.994a3.668,3.668,0,1,1,4.513,2.533,3.772,3.772,0,0,1-.99.144A3.663,3.663,0,0,1,1523.338,328.375Zm-2.163-15.061a3.67,3.67,0,1,1,3.706,3.612A3.671,3.671,0,0,1,1521.175,313.314Zm4.4-10.658a3.672,3.672,0,1,1,.9.11A3.957,3.957,0,0,1,1525.578,302.656Zm4.348-13.629a3.671,3.671,0,1,1,4.989-1.432,3.653,3.653,0,0,1-3.209,1.891A3.692,3.692,0,0,1,1529.926,289.027ZM1537.647,277a3.667,3.667,0,1,1,5.171-.111,3.68,3.68,0,0,1-5.171.111Zm10.514-9.689a3.67,3.67,0,1,1,5.044,1.232,3.591,3.591,0,0,1-1.908.531A3.676,3.676,0,0,1,1548.161,267.307Zm12.656-6.638a3.67,3.67,0,1,1,4.568,2.478,3.549,3.549,0,0,1-1.045.145A3.679,3.679,0,0,1,1560.816,260.669Zm13.938-3.158a3.671,3.671,0,1,1,3.782,3.561h-.11A3.673,3.673,0,0,1,1574.755,257.512Z" transform="translate(29.806 29.793)" fill="#3264ce"/></g><g transform="translate(1315.864 111.419)"><g transform="translate(63.974 354.478)"><path d="M306.222,415.7l-63.75-15.511s-2.548-45.475-42.434-45.475H79.173S41.535,365.9,42.828,400.193l-2.048,173.9,203.092,7.1V425.424l30.5,10.879,7.253,10.877,8.531,134.014,49.485-7.1V453.585S341.7,420.486,306.222,415.7Z" transform="translate(-40.78 -351.091)" fill="#fff"/><circle cx="23.569" cy="23.569" r="23.569" transform="translate(242.657)" fill="#fff"/></g><g transform="translate(59.366 350.581)"><path d="M199.631,407.866a28.642,28.642,0,1,0-28.643-28.641A28.674,28.674,0,0,0,199.631,407.866Zm0-44.931a16.288,16.288,0,1,1-16.289,16.289A16.307,16.307,0,0,1,199.631,362.935Z" transform="translate(70.419 -350.581)"/><path d="M320.972,416.357l-.005.02c-2.4-.669-13.241-3.357-68.807-16.417a50.273,50.273,0,0,0-50.2-49.379H88.483a50.294,50.294,0,0,0-50.238,50.238V578.325a6.314,6.314,0,0,0,6.258,6.256H245.947a6.312,6.312,0,0,0,6.256-6.256V435.465l16.879,5.681a11.275,11.275,0,0,1,7.9,10.064l9.095,127.631a6.177,6.177,0,0,0,6.154,5.74c.149,0,.3-.005.446-.016a6.178,6.178,0,0,0,5.723-6.6l-9.093-127.609a23.5,23.5,0,0,0-16.4-20.95l-42.652-14.362a3.672,3.672,0,0,1,1.87-7.094c32.475,7.618,81.731,19.235,85.251,20.227.1.033.2.064.3.093a21.914,21.914,0,0,1,16.046,21.049V578.4a6.178,6.178,0,1,0,12.356,0V449.316A34.308,34.308,0,0,0,320.972,416.357Zm-104.829-9.839a16.023,16.023,0,0,0,10.288,20.27l13.418,4.516V572.225H50.6V400.818a37.926,37.926,0,0,1,37.882-37.884h113.48a37.936,37.936,0,0,1,37.693,34.09c-1.566-.369-3.13-.735-4.757-1.117A15.979,15.979,0,0,0,216.143,406.518Z" transform="translate(-38.246 -350.581)"/><path d="M191.976,428.378a6.181,6.181,0,0,0-5.951,6.4l2.912,80.166a6.178,6.178,0,0,0,6.171,5.954c.075,0,.153,0,.227,0a6.182,6.182,0,0,0,5.95-6.4l-2.912-80.166A6.142,6.142,0,0,0,191.976,428.378Z" transform="translate(82.726 -286.897)"/><path d="M128.314,363.4H92.533a11.806,11.806,0,0,0-11.79,11.792v35.78a11.806,11.806,0,0,0,11.79,11.794h35.781a11.807,11.807,0,0,0,11.794-11.794v-35.78A11.806,11.806,0,0,0,128.314,363.4Zm1.086,47.571a1.087,1.087,0,0,1-1.086,1.086H92.533a1.084,1.084,0,0,1-1.082-1.086v-35.78a1.083,1.083,0,0,1,1.082-1.084h35.781a1.086,1.086,0,0,1,1.086,1.084Z" transform="translate(-3.457 -340.085)"/></g><g transform="translate(12.447 573.702)"><line x2="365.02" transform="translate(5.439 5.438)" fill="#fff"/><path d="M382.9,484.147H17.886a5.439,5.439,0,1,1,0-10.879H382.9a5.439,5.439,0,1,1,0,10.879Z" transform="translate(-12.447 -473.268)"/></g></g><g transform="translate(1229.034 147.119)"><g transform="translate(217.488 432)"><g transform="translate(15.712)"><path d="M237.961,436.106a18.468,18.468,0,0,1,4.05-2.126c3.362-1.312,12.54-4.66,21.558,2.2l7.79,11.389,5.338-3.082-5.745,18.074-18.525-4.063,5.632-3.251-4.9-8.479s-4.821-9.858-15.2-10.658" transform="translate(-230.104 -432)" fill="#fff" stroke="#000" stroke-linecap="round" stroke-linejoin="round" stroke-width="5"/><path d="M238.993,435.567c-1.319,1.34-7.857,11.762-7.857,11.762l13.159,7.663,7.5-12.338A18.855,18.855,0,0,0,238.993,435.567Z" transform="translate(-231.136 -431.46)" fill="#fff" stroke="#000" stroke-linecap="round" stroke-linejoin="round" stroke-width="5"/></g><g transform="translate(0 25.226)"><path d="M230.412,495.71a18.491,18.491,0,0,1-3.866-2.444c-2.817-2.255-10.306-8.531-8.878-19.768l5.969-12.44-5.338-3.083,18.525-4.063,5.743,18.074-5.632-3.251-4.9,8.479s-6.126,9.1-1.628,18.5" transform="translate(-217.488 -453.912)" fill="#fff" stroke="#000" stroke-linecap="round" stroke-linejoin="round" stroke-width="5"/><path d="M228.927,492.141c1.821.473,14.116.923,14.116.923l.056-15.227-14.435-.326A18.857,18.857,0,0,0,228.927,492.141Z" transform="translate(-216.004 -450.343)" fill="#fff" stroke="#000" stroke-linecap="round" stroke-linejoin="round" stroke-width="5"/></g><g transform="translate(33.509 32.154)"><path d="M286,470.949a18.465,18.465,0,0,1-.183,4.57c-.543,3.568-2.235,13.191-12.68,17.572l-13.76,1.052v6.164L246.595,486.3l12.781-14.012v6.5h9.791s10.947.754,16.831-7.839" transform="translate(-246.595 -458.263)" fill="#fff" stroke="#000" stroke-linecap="round" stroke-linejoin="round" stroke-width="5"/><path d="M283.38,472.615c-.5-1.812-6.257-12.686-6.257-12.686l-13.216,7.565,6.935,12.664A18.853,18.853,0,0,0,283.38,472.615Z" transform="translate(-243.977 -459.93)" fill="#fff" stroke="#000" stroke-linecap="round" stroke-linejoin="round" stroke-width="5"/></g></g></g><g transform="translate(1418.567 2582.289) rotate(-90)"><path d="M1820.938,199.782a3.409,3.409,0,0,1-2.41-.994l-23.948-23.949a3.406,3.406,0,0,1,4.814-4.819l21.544,21.539,21.539-21.539a3.407,3.407,0,0,1,4.818,4.819l-23.953,23.949A3.406,3.406,0,0,1,1820.938,199.782Z" transform="translate(-0.001)" fill="#7195e0"/><path d="M1820.938,205.4a3.414,3.414,0,0,1-2.41-1l-23.948-23.948a3.406,3.406,0,0,1,4.814-4.819l21.544,21.544,21.539-21.544a3.407,3.407,0,0,1,4.818,4.819L1823.342,204.4A3.411,3.411,0,0,1,1820.938,205.4Z" transform="translate(-0.001 23.909)" fill="#7195e0"/><path d="M1820.938,210.573a3.409,3.409,0,0,1-2.41-.994l-23.948-23.949a3.406,3.406,0,0,1,4.814-4.819l21.544,21.539,21.539-21.539a3.407,3.407,0,0,1,4.818,4.819l-23.953,23.949A3.406,3.406,0,0,1,1820.938,210.573Z" transform="translate(-0.001 45.982)" fill="#7195e0"/></g></g></svg>