<svg xmlns="http://www.w3.org/2000/svg" width="206.694" height="155.274" viewBox="0 0 206.694 155.274"><g transform="translate(-12.447 -323.976)"><path d="M196.577,478a52.008,52.008,0,0,0-4.847-59.37,59.237,59.237,0,0,0,10.232-47.293c-6.881-32.441-39.4-53.025-72.641-45.975a62.09,62.09,0,0,0-38.712,25.958A76.033,76.033,0,0,0,32.467,478Z" fill="#84bd00"/><path d="M186.738,388.252l-35.054-8.529s-1.4-25.005-23.333-25.005H61.891s-20.7,6.147-19.985,25.005L40.78,475.345l111.674,3.9V393.6l16.771,5.982,3.988,5.981,4.691,73.69,27.21-3.9V409.082S206.244,390.882,186.738,388.252Z" fill="#fff"/><circle cx="12.96" cy="12.96" r="12.96" transform="translate(174.209 352.724)" fill="#fff"/><path d="M186.738,382.08a15.749,15.749,0,1,0-15.75-15.749A15.767,15.767,0,0,0,186.738,382.08Zm0-24.706a8.956,8.956,0,1,1-8.957,8.957A8.967,8.967,0,0,1,186.738,357.374Z"/><path d="M193.708,386.749l0,.011c-1.319-.368-7.281-1.846-37.835-9.027a27.643,27.643,0,0,0-27.6-27.152H65.87A27.655,27.655,0,0,0,38.246,378.2V475.81a3.472,3.472,0,0,0,3.441,3.44H152.454a3.471,3.471,0,0,0,3.44-3.44V397.256l9.281,3.124a6.2,6.2,0,0,1,4.344,5.534l5,70.18a3.4,3.4,0,0,0,3.384,3.156c.082,0,.164,0,.245-.009a3.4,3.4,0,0,0,3.147-3.63l-5-70.168a12.924,12.924,0,0,0-9.016-11.52l-23.453-7.9a2.019,2.019,0,0,1,1.028-3.9c17.857,4.189,44.941,10.577,46.877,11.122.055.018.109.035.165.051a12.05,12.05,0,0,1,8.823,11.574v70.981a3.4,3.4,0,0,0,6.794,0V404.872A18.865,18.865,0,0,0,193.708,386.749Zm-57.642-5.41a8.81,8.81,0,0,0,5.657,11.146l7.378,2.483v77.488H45.04V378.2a20.854,20.854,0,0,1,20.83-20.831h62.4a20.86,20.86,0,0,1,20.726,18.745l-2.616-.614A8.786,8.786,0,0,0,136.066,381.339Z"/><path d="M189.3,428.377a3.4,3.4,0,0,0-3.272,3.518l1.6,44.081a3.4,3.4,0,0,0,3.393,3.274l.125,0a3.4,3.4,0,0,0,3.272-3.519l-1.6-44.081A3.377,3.377,0,0,0,189.3,428.377Z"/><path d="M106.9,363.4H87.226a6.492,6.492,0,0,0-6.483,6.484V389.56a6.492,6.492,0,0,0,6.483,6.485H106.9a6.492,6.492,0,0,0,6.485-6.485V369.886A6.492,6.492,0,0,0,106.9,363.4Zm.6,26.158a.6.6,0,0,1-.6.6H87.226a.6.6,0,0,1-.6-.6V369.886a.6.6,0,0,1,.6-.6H106.9a.6.6,0,0,1,.6.6Z"/><line x2="200.713" transform="translate(15.438 476.258)" fill="#fff"/><path d="M216.15,479.25H15.438a2.991,2.991,0,1,1,0-5.982H216.15a2.991,2.991,0,1,1,0,5.982Z"/></g></svg>