<svg id="Layer_1" data-name="Layer 1" xmlns="http://www.w3.org/2000/svg" xmlns:xlink="http://www.w3.org/1999/xlink" viewBox="0 0 600 600"><defs><linearGradient id="_ÂÁ_Ï_ÌÌ_È_ËÂÌÚ_866" x1="4926.72" y1="362.59" x2="4717.9" y2="362.59" gradientTransform="matrix(-1, 0, 0, 1, 5002.96, 0)" gradientUnits="userSpaceOnUse"><stop offset="0.31" stop-color="#2e6078"/><stop offset="0.38" stop-color="#2e617a"/><stop offset="0.4" stop-color="#2f6581"/><stop offset="0.42" stop-color="#316d8c"/><stop offset="0.42" stop-color="#316d8d"/><stop offset="0.43" stop-color="#327396"/><stop offset="0.46" stop-color="#3481aa"/><stop offset="0.49" stop-color="#368ab7"/><stop offset="0.52" stop-color="#368dbb"/><stop offset="0.89" stop-color="#3588b3"/><stop offset="0.92" stop-color="#3481a9"/><stop offset="0.97" stop-color="#31708f"/><stop offset="1" stop-color="#2f637b"/></linearGradient><linearGradient id="_ÂÁ_Ï_ÌÌ_È_ËÂÌÚ_866-2" x1="4926.72" y1="251.55" x2="4717.9" y2="251.55" xlink:href="#_ÂÁ_Ï_ÌÌ_È_ËÂÌÚ_866"/><linearGradient id="_ÂÁ_Ï_ÌÌ_È_ËÂÌÚ_5" x1="4698.6" y1="158.13" x2="4937.39" y2="158.13" gradientTransform="matrix(-1, 0, 0, 1, 5002.96, 0)" gradientUnits="userSpaceOnUse"><stop offset="0.03" stop-color="#2f637b"/><stop offset="0.05" stop-color="#31708f"/><stop offset="0.1" stop-color="#3481a9"/><stop offset="0.12" stop-color="#3588b3"/><stop offset="0.48" stop-color="#368dbb"/><stop offset="0.51" stop-color="#368ab7"/><stop offset="0.54" stop-color="#3481aa"/><stop offset="0.57" stop-color="#327396"/><stop offset="0.58" stop-color="#316d8d"/><stop offset="0.58" stop-color="#316d8c"/><stop offset="0.6" stop-color="#2f6581"/><stop offset="0.62" stop-color="#2e617a"/><stop offset="0.69" stop-color="#2e6078"/></linearGradient><linearGradient id="_ÂÁ_Ï_ÌÌ_È_ËÂÌÚ_219" x1="511.15" y1="356.22" x2="302.33" y2="356.22" gradientUnits="userSpaceOnUse"><stop offset="0" stop-color="#f7b643"/><stop offset="0.04" stop-color="#efbe3c"/><stop offset="0.11" stop-color="#e5c833"/><stop offset="0.48" stop-color="#e9d034"/><stop offset="0.51" stop-color="#e7cc34"/><stop offset="0.54" stop-color="#e1bf32"/><stop offset="0.57" stop-color="#d6ab30"/><stop offset="0.58" stop-color="#d2a32f"/><stop offset="0.59" stop-color="#d09a2c"/><stop offset="0.61" stop-color="#ce8f28"/><stop offset="0.63" stop-color="#cc8826"/><stop offset="0.69" stop-color="#cc8625"/></linearGradient><linearGradient id="_ÂÁ_Ï_ÌÌ_È_ËÂÌÚ_219-2" x1="4467.36" y1="235.21" x2="4706.16" y2="235.21" gradientTransform="matrix(-1, 0, 0, 1, 5002.96, 0)" xlink:href="#_ÂÁ_Ï_ÌÌ_È_ËÂÌÚ_219"/><linearGradient id="_ÂÁ_Ï_ÌÌ_È_ËÂÌÚ_2" x1="4851.22" y1="526.81" x2="4642.4" y2="526.81" gradientTransform="matrix(-1, 0, 0, 1, 5002.96, 0)" gradientUnits="userSpaceOnUse"><stop offset="0.31" stop-color="#3f8543"/><stop offset="0.38" stop-color="#408744"/><stop offset="0.4" stop-color="#438e45"/><stop offset="0.42" stop-color="#489949"/><stop offset="0.42" stop-color="#489a49"/><stop offset="0.43" stop-color="#4ca34b"/><stop offset="0.46" stop-color="#56b751"/><stop offset="0.49" stop-color="#5cc454"/><stop offset="0.52" stop-color="#5ec855"/><stop offset="0.89" stop-color="#5ac052"/><stop offset="0.92" stop-color="#56b650"/><stop offset="0.97" stop-color="#4a9c49"/><stop offset="1" stop-color="#418844"/></linearGradient><linearGradient id="linear-gradient" x1="4851.22" y1="415.76" x2="4642.41" y2="415.76" gradientTransform="matrix(-1, 0, 0, 1, 5002.96, 0)" gradientUnits="userSpaceOnUse"><stop offset="0.31" stop-color="#3f8543"/><stop offset="0.38" stop-color="#408744"/><stop offset="0.4" stop-color="#438e45"/><stop offset="0.42" stop-color="#489949"/><stop offset="0.42" stop-color="#489a49"/><stop offset="0.42" stop-color="#4b9d4a"/><stop offset="0.45" stop-color="#5eb14f"/><stop offset="0.49" stop-color="#69be52"/><stop offset="0.52" stop-color="#6dc253"/><stop offset="0.89" stop-color="#6dc253"/><stop offset="0.92" stop-color="#66b850"/><stop offset="0.97" stop-color="#519e4a"/><stop offset="1" stop-color="#418844"/></linearGradient><linearGradient id="linear-gradient-2" x1="4623.1" y1="322.35" x2="4861.9" y2="322.35" gradientTransform="matrix(-1, 0, 0, 1, 5002.96, 0)" gradientUnits="userSpaceOnUse"><stop offset="0.03" stop-color="#418844"/><stop offset="0.05" stop-color="#519e4a"/><stop offset="0.1" stop-color="#66b850"/><stop offset="0.12" stop-color="#6dc253"/><stop offset="0.48" stop-color="#6dc253"/><stop offset="0.51" stop-color="#69be52"/><stop offset="0.55" stop-color="#5eb14f"/><stop offset="0.58" stop-color="#4b9d4a"/><stop offset="0.58" stop-color="#489a49"/><stop offset="0.58" stop-color="#489949"/><stop offset="0.6" stop-color="#438e45"/><stop offset="0.62" stop-color="#408744"/><stop offset="0.69" stop-color="#3f8543"/></linearGradient></defs><circle cx="335" cy="247" r="218.67" style="fill:#84bd00"/><polygon points="88.79 379.46 96.2 377.91 91.83 275.99 88.79 276.38 88.79 379.46" style="fill:#316e8e"/><polygon points="46.03 125.41 46.03 144.24 52.78 140.63 60.66 129.46 46.03 125.41" style="fill:#347ea5"/><polygon points="152.29 310.9 91.83 275.99 96.2 377.91 156.66 412.81 152.29 310.9" style="fill:#27556a"/><path d="M169.49,305.28l-40.77,23.54v73.72l29.6,17a9.42,9.42,0,0,0,8.47.37L267.5,361.77a2.47,2.47,0,0,0,1.4-2,3.3,3.3,0,0,0-2-2.8L178,305.55C175.45,304.16,171.72,304,169.49,305.28Z" style="fill:url(#_ÂÁ_Ï_ÌÌ_È_ËÂÌÚ_866)"/><path d="M67.38,365.5v.09c0,.93.65,1.86,2.05,2.7l19.36,11.17V351.91l-20,11.54A2.49,2.49,0,0,0,67.38,365.5Z" style="fill:#2e6078"/><polygon points="58.17 143.27 67.38 365.5 67.38 365.59 88.79 364.94 88.79 276.38 128.72 299.46 128.72 363.82 268.9 359.73 278.11 137.5 58.17 143.27" style="fill:url(#_ÂÁ_Ï_ÌÌ_È_ËÂÌÚ_866-2)"/><path d="M59.05,163.06l36-20.78,150.36-3.93,31.87,18.4-1.13,25.42L172.78,241.85c-5.57,3.21-15.38,2.8-21.8-.91l-90.8-52.42Z" style="fill:#1e4c63"/><path d="M43.94,143l12.67-.28,106.9-54.17c5.57-3.21,15.38-2.8,21.8.91L269.36,138l23-.51v17.85h-.07c0,2.05-1.17,4-3.68,5.46L172.78,227.68c-5.57,3.21-15.38,2.81-21.8-.9l-15.46-8.93-5.36-11.28L49.25,159.86c-3.57-2.06-5.3-4.72-5.25-7.23h-.06Z" style="fill:url(#_ÂÁ_Ï_ÌÌ_È_ËÂÌÚ_5)"/><path d="M172.78,209.88,288.61,143c5.56-3.22,4.86-8.88-1.57-12.59L185.31,71.69c-6.42-3.71-16.23-4.12-21.8-.91L47.68,137.66c-5.56,3.21-4.86,8.87,1.57,12.58L151,209C157.4,212.69,167.21,213.09,172.78,209.88Z" style="fill:#4094bb"/><path d="M163.32,201.34a9.27,9.27,0,0,0,4.1-.73l104.9-60.56a3.31,3.31,0,0,0,1.65-3.19c-.09-1,0-8.82,0-8.82L163.68,71.56a14.85,14.85,0,0,0-7-1.64,9.23,9.23,0,0,0-4.1.73L47.7,131.21a3.34,3.34,0,0,0,0,5.78l.57.33,108.06,62.39A14.85,14.85,0,0,0,163.32,201.34Z" style="fill:#347ea5"/><path d="M163.32,192.42a9.27,9.27,0,0,0,4.1-.73l104.9-60.56a3.33,3.33,0,0,0,0-5.77L163.68,62.64a14.85,14.85,0,0,0-7-1.64,9.23,9.23,0,0,0-4.1.73L47.7,122.29a3.34,3.34,0,0,0,0,5.78l108.63,62.72A14.85,14.85,0,0,0,163.32,192.42Z" style="fill:#4094bb"/><path d="M221.23,181.9l22-12.7c5.43-3.13,6.07-7.85,1.43-10.52l-1.7-1L201.3,181.75l1.7,1C207.64,185.41,215.81,185,221.23,181.9Z" style="fill:#1e4c63"/><path d="M238.7,291.79a2,2,0,0,1,0,1.64.82.82,0,0,1-.21.34l-15.27,8.81.71-12.68,9.54-5.5Z" style="fill:#d6cedc"/><path d="M207.7,297.94,197.22,304a1.82,1.82,0,0,1-1.9.22l6.6-14.47,8.79,1.54Z" style="fill:#d6cedc"/><path d="M220.87,277l-13.46,11.11-2.07-13.79,3.36.58,6-13.2a12.86,12.86,0,0,1,4.78-5.63l9.93-5.73-11.93,26.08Z" style="fill:#d6cedc"/><path d="M222.83,267l5.6-12.42a4.66,4.66,0,0,1,1.76-2.12l.06,0c.13-.08.26-.15.33-.12l6.89,9.69-9.56,12.13Z" style="fill:#d6cedc"/><path d="M229.56,286.1l3.79-17.19,13.08-4.21-3.65,4.63,3.33,4.64c1,1.35.9,3.8-.17,6.41L241,292.33l-7.78-10.86Z" style="fill:#d6cedc"/><path d="M212.53,296.45l.27-4.84,9,5.64L211.55,314l.27-4.86-9.55,5.52c-1.87,1.08-3.53.88-4.32-.51l-4-7Z" style="fill:#d6cedc"/><polygon points="66.95 170.08 77 183.18 82.12 178.84 66.95 170.08" style="fill:#083652"/><polygon points="95.5 186.56 105.55 199.66 110.67 195.32 95.5 186.56" style="fill:#083652"/><polygon points="62.73 167.64 72.78 180.75 77 183.18 66.95 170.08 62.73 167.64" style="fill:#27556a"/><polygon points="91.28 184.13 101.33 197.23 105.55 199.66 95.5 186.56 91.28 184.13" style="fill:#27556a"/><path d="M79.83,368.47c0-9.45-6.67-21-14.9-25.71-4.15-2.4-7.89-2.61-10.6-1h0l-6.48,4.15,22,35.8,5.65-3.61h0C78.16,376.51,79.83,373.2,79.83,368.47Z" style="fill:#25242f"/><path d="M73.75,372.36c0,9.45-6.68,13.25-14.91,8.5s-14.91-16.27-14.91-25.72,6.67-13.25,14.91-8.5S73.75,362.91,73.75,372.36Z" style="fill:#393842"/><path d="M69.53,369.92c0,6.78-4.79,9.51-10.69,6.1s-10.69-11.67-10.69-18.44,4.78-9.51,10.69-6.1S69.53,363.15,69.53,369.92Z" style="fill:#cdc6bc"/><polygon points="320.03 456.54 327.44 454.99 323.07 353.07 320.03 353.46 320.03 456.54" style="fill:#a1680d"/><polygon points="277.27 202.49 277.27 221.32 284.01 217.71 291.9 206.54 277.27 202.49" style="fill:#54b24f"/><polygon points="383.53 387.98 323.07 353.07 327.44 454.99 387.9 489.89 383.53 387.98" style="fill:#c3761c"/><path d="M289.41,220.35l9.21,222.23v.09c0,.93.65,1.86,2.05,2.7L320,456.54V353.46L360,376.54V479.62l29.6,17A9.42,9.42,0,0,0,398,497l100.71-58.18a2.47,2.47,0,0,0,1.39-2l9.22-222.23Z" style="fill:url(#_ÂÁ_Ï_ÌÌ_È_ËÂÌÚ_219)"/><path d="M290.29,240.14l36-20.78,150.36-3.93,31.86,18.4-1.12,25.42L404,318.93c-5.57,3.21-15.38,2.8-21.8-.91l-90.8-52.42Z" style="fill:#b77922"/><path d="M275.18,220.11l12.67-.28,106.9-54.17c5.57-3.21,15.38-2.8,21.8.9l84.05,48.53,23-.52v17.86h-.07c0,2-1.17,4-3.68,5.45L404,304.76c-5.57,3.21-15.38,2.81-21.8-.91l-15.46-8.92-5.37-11.28-80.9-46.71c-3.57-2.06-5.3-4.72-5.25-7.23h-.06Z" style="fill:url(#_ÂÁ_Ï_ÌÌ_È_ËÂÌÚ_219-2)"/><path d="M404,287l115.83-66.87c5.56-3.22,4.86-8.88-1.57-12.59L416.55,148.77c-6.42-3.71-16.23-4.12-21.8-.91L278.92,214.74c-5.56,3.21-4.86,8.87,1.57,12.58l101.73,58.74C388.64,289.77,398.45,290.17,404,287Z" style="fill:#f1d03e"/><path d="M394.55,278.42a9.29,9.29,0,0,0,4.11-.73l104.9-60.56a3.31,3.31,0,0,0,1.65-3.2c-.09-1,0-8.81,0-8.81L394.92,148.64a14.88,14.88,0,0,0-7-1.64,9.23,9.23,0,0,0-4.1.73L278.94,208.29a3.33,3.33,0,0,0,0,5.78l.57.33,108.06,62.39A14.84,14.84,0,0,0,394.55,278.42Z" style="fill:#deba32"/><path d="M394.55,269.5a9.29,9.29,0,0,0,4.11-.73l104.9-60.56a3.33,3.33,0,0,0,0-5.77L394.92,139.72a14.88,14.88,0,0,0-7-1.64,9.23,9.23,0,0,0-4.1.73L278.94,199.37a3.33,3.33,0,0,0,0,5.78l108.63,62.72A15,15,0,0,0,394.55,269.5Z" style="fill:#f1d03e"/><path d="M452.47,259l22-12.7c5.43-3.13,6.07-7.85,1.43-10.53l-1.7-1-41.66,24,1.7,1C438.88,262.49,447,262.12,452.47,259Z" style="fill:#b77922"/><path d="M469.94,368.87a2.06,2.06,0,0,1,0,1.64.7.7,0,0,1-.21.33l-15.27,8.82.71-12.68,9.54-5.5Z" style="fill:#ffffd9"/><path d="M438.93,375l-10.47,6.05a1.82,1.82,0,0,1-1.9.22l6.6-14.47,8.79,1.54Z" style="fill:#ffffd9"/><path d="M452.11,354.12l-13.46,11.11-2.07-13.8,3.36.59,6-13.2a12.8,12.8,0,0,1,4.78-5.63l9.93-5.73-11.93,26.08Z" style="fill:#ffffd9"/><path d="M454.07,344l5.6-12.41a4.66,4.66,0,0,1,1.76-2.12l.06,0c.13-.08.26-.15.32-.12l6.9,9.69-9.56,12.13Z" style="fill:#ffffd9"/><path d="M460.8,363.18,464.59,346l13.08-4.21L474,346.41l3.33,4.64c1,1.34.9,3.8-.18,6.41l-4.94,12-7.78-10.86Z" style="fill:#ffffd9"/><path d="M443.77,373.53l.27-4.84,9,5.64-10.25,16.76.27-4.85-9.55,5.52c-1.87,1.08-3.53.88-4.32-.51l-4-7Z" style="fill:#ffffd9"/><polygon points="298.19 247.16 308.24 260.26 313.36 255.92 298.19 247.16" style="fill:#a1680d"/><polygon points="326.73 263.64 336.79 276.74 341.91 272.4 326.73 263.64" style="fill:#a1680d"/><polygon points="293.97 244.72 304.02 257.82 308.24 260.26 298.19 247.16 293.97 244.72" style="fill:#c0802b"/><polygon points="322.51 261.2 332.57 274.31 336.79 276.74 326.73 263.64 322.51 261.2" style="fill:#c0802b"/><path d="M311.07,445.55c0-9.45-6.67-21-14.91-25.71-4.14-2.4-7.89-2.61-10.59-1h0l-6.48,4.15,22,35.8,5.65-3.61h0C309.4,453.59,311.07,450.28,311.07,445.55Z" style="fill:#25242f"/><path d="M305,449.44c0,9.45-6.68,13.25-14.91,8.5s-14.91-16.27-14.91-25.72,6.67-13.25,14.91-8.5S305,440,305,449.44Z" style="fill:#393842"/><path d="M300.77,447c0,6.78-4.79,9.51-10.69,6.1s-10.69-11.67-10.69-18.44,4.78-9.51,10.69-6.1S300.77,440.23,300.77,447Z" style="fill:#a391b1"/><polygon points="164.29 543.68 171.7 542.12 167.33 440.21 164.29 440.59 164.29 543.68" style="fill:#489b49"/><polygon points="121.53 289.62 121.53 308.46 128.27 304.84 136.16 293.67 121.53 289.62" style="fill:#54b24f"/><polygon points="227.78 475.12 167.33 440.21 171.7 542.12 232.16 577.03 227.78 475.12" style="fill:#35773a"/><path d="M245,469.49,204.22,493v73.72l29.6,17c2.51,1.49,6.33,1.59,8.47.38L343,526a2.47,2.47,0,0,0,1.39-2,3.3,3.3,0,0,0-2-2.79l-88.9-51.38C250.94,468.38,247.22,468.19,245,469.49Z" style="fill:url(#_ÂÁ_Ï_ÌÌ_È_ËÂÌÚ_2)"/><path d="M142.88,529.72v.09c0,.93.65,1.86,2.05,2.7l19.36,11.17V516.12l-20,11.55A2.47,2.47,0,0,0,142.88,529.72Z" style="fill:#3f8543"/><polygon points="133.66 307.49 142.88 529.72 142.88 529.81 164.29 529.16 164.29 440.59 204.22 463.68 204.22 528.04 344.39 523.94 353.61 301.72 133.66 307.49" style="fill:url(#linear-gradient)"/><path d="M134.55,327.28l36-20.79,150.36-3.92L352.77,321l-1.13,25.41L248.27,406.06c-5.56,3.22-15.37,2.81-21.8-.9l-90.79-52.42Z" style="fill:#2c7032"/><path d="M119.44,307.25l12.67-.28L239,252.8c5.56-3.21,15.37-2.81,21.8.9l84,48.52,23-.51v17.86h-.07c0,2.05-1.17,4-3.69,5.45L248.27,391.9c-5.56,3.21-15.37,2.8-21.8-.91L211,382.07l-5.37-11.28-80.9-46.71c-3.57-2.06-5.31-4.72-5.25-7.23h-.06Z" style="fill:url(#linear-gradient-2)"/><path d="M248.27,374.1,364.1,307.22c5.57-3.21,4.86-8.87-1.56-12.58L260.81,235.9c-6.43-3.71-16.24-4.11-21.8-.9L123.18,301.87c-5.56,3.22-4.86,8.88,1.57,12.59l101.72,58.73C232.9,376.9,242.71,377.31,248.27,374.1Z" style="fill:#6dc253"/><path d="M238.81,365.56a9.29,9.29,0,0,0,4.11-.73l104.89-60.56a3.31,3.31,0,0,0,1.66-3.2c-.1-1,0-8.82,0-8.82L239.18,235.78a14.88,14.88,0,0,0-7-1.64,9.23,9.23,0,0,0-4.1.73l-104.9,60.56a3.34,3.34,0,0,0,0,5.78l.58.33,108.06,62.38A14.84,14.84,0,0,0,238.81,365.56Z" style="fill:#54b24f"/><path d="M238.81,356.64a9.29,9.29,0,0,0,4.11-.73l104.89-60.56a3.33,3.33,0,0,0,0-5.78L239.18,226.86a14.88,14.88,0,0,0-7-1.64,9.23,9.23,0,0,0-4.1.73l-104.9,60.56a3.34,3.34,0,0,0,0,5.78L231.83,355A14.84,14.84,0,0,0,238.81,356.64Z" style="fill:#6dc253"/><path d="M296.73,346.12l22-12.7c5.43-3.13,6.07-7.85,1.42-10.53l-1.69-1L276.8,346l1.7,1C283.14,349.62,291.3,349.26,296.73,346.12Z" style="fill:#2c7032"/><path d="M314.2,456a2,2,0,0,1,0,1.63.73.73,0,0,1-.2.34l-15.27,8.81.71-12.67,9.54-5.51Z" style="fill:#c1e3e4"/><path d="M283.19,462.16l-10.47,6a1.79,1.79,0,0,1-1.9.21L277.41,454l8.8,1.54Z" style="fill:#c1e3e4"/><path d="M296.37,441.26l-13.46,11.11-2.07-13.8,3.36.58,6-13.19a12.69,12.69,0,0,1,4.78-5.63L305,414.6,293,440.68Z" style="fill:#c1e3e4"/><path d="M298.33,431.16l5.6-12.41a4.6,4.6,0,0,1,1.76-2.12l.06,0c.13-.07.26-.15.32-.11l6.89,9.68-9.55,12.13Z" style="fill:#c1e3e4"/><path d="M305.06,450.31l3.79-17.18,13.08-4.21-3.65,4.63,3.33,4.64c1,1.34.9,3.8-.18,6.41l-4.94,11.94-7.78-10.86Z" style="fill:#c1e3e4"/><path d="M288,460.67l.27-4.85,9,5.65-10.25,16.76.27-4.85-9.56,5.52c-1.87,1.08-3.52.88-4.32-.51l-4-7Z" style="fill:#c1e3e4"/><polygon points="142.44 334.3 152.5 347.4 157.62 343.06 142.44 334.3" style="fill:#165f1d"/><polygon points="170.99 350.78 181.05 363.88 186.17 359.54 170.99 350.78" style="fill:#165f1d"/><polygon points="138.22 331.86 148.28 344.96 152.5 347.4 142.44 334.3 138.22 331.86" style="fill:#35773a"/><polygon points="166.77 348.34 176.83 361.44 181.05 363.88 170.99 350.78 166.77 348.34" style="fill:#35773a"/><path d="M155.33,532.69c0-9.45-6.67-21-14.91-25.72-4.14-2.39-7.89-2.61-10.59-1h0l-6.47,4.14,22,35.81,5.66-3.61h0C153.66,540.73,155.33,537.42,155.33,532.69Z" style="fill:#25242f"/><path d="M149.25,536.58c0,9.44-6.68,13.25-14.91,8.5s-14.91-16.27-14.91-25.72,6.67-13.25,14.91-8.5S149.25,527.13,149.25,536.58Z" style="fill:#393842"/><path d="M145,534.14c0,6.78-4.79,9.51-10.69,6.1s-10.7-11.67-10.7-18.44,4.79-9.51,10.7-6.1S145,527.37,145,534.14Z" style="fill:#a391b1"/></svg>