<svg xmlns="http://www.w3.org/2000/svg" width="163.267" height="46.75" viewBox="0 0 163.267 46.75"><g transform="translate(-627.768 -1019.635)"><path d="M628.211,1055l5.117-1.653s.649-.407,1.118.476a13.327,13.327,0,0,0,1.217,1.974,7.1,7.1,0,0,0,2.818,2.113,8.508,8.508,0,0,0,3.674.807,11.739,11.739,0,0,0,3.173-.553,7.16,7.16,0,0,0,3.174-2.017,4.846,4.846,0,0,0,1.307-3.32,6.671,6.671,0,0,0-.253-1.56,8.638,8.638,0,0,0-1.862-2.517,8.88,8.88,0,0,1-2.012-2.77,6.135,6.135,0,0,1-.456-2.366,6.775,6.775,0,0,1,1.563-4.228c.554-.758.9-1.312,1.157-1.711a2.442,2.442,0,0,0,.35-1.311,4.407,4.407,0,0,0-1.91-3.626,7.467,7.467,0,0,0-4.432-1.356,8.252,8.252,0,0,0-3.27.652,6.66,6.66,0,0,0-2.571,1.914,11.192,11.192,0,0,0-1.073,1.564,1.181,1.181,0,0,1-1.47.393,41.527,41.527,0,0,1-4.282-1.617,1,1,0,0,1-.574-1.438,14.291,14.291,0,0,1,2.618-3.885,14.526,14.526,0,0,1,4.733-3.271,15.511,15.511,0,0,1,5.992-1.157,15.72,15.72,0,0,1,5.035.807,13.92,13.92,0,0,1,4.378,2.313,12.414,12.414,0,0,1,3.072,3.776,10.948,10.948,0,0,1,1.108,4.934,10.467,10.467,0,0,1-2.872,7.2,12.018,12.018,0,0,1,4.384,9.312,10.819,10.819,0,0,1-1.259,5.185,12.628,12.628,0,0,1-3.372,4.077,15.794,15.794,0,0,1-4.883,2.619,17.547,17.547,0,0,1-5.54.9,15.46,15.46,0,0,1-6.4-1.307,13.869,13.869,0,0,1-4.981-3.625,14.951,14.951,0,0,1-2.831-4.714s-.451-.77.311-1.017" transform="translate(0 0.724)" fill="#fff"/><path d="M691.229,1025.025a3.834,3.834,0,0,1,3.9-3.852,3.876,3.876,0,0,1,3.951,3.852,3.765,3.765,0,0,1-1.15,2.8c-2.251,2.452-6.953.7-6.7-2.8" transform="translate(9.384 0.228)" fill="#fff"/><path d="M683.159,1050.808c0,.55-.3.8-.849.8h-5.152c-.55,0-.851-.251-.851-.8V1031.85a.766.766,0,0,1,.849-.852h5.151a.768.768,0,0,1,.852.852v2c1.749-2.25,3.7-3.348,5.855-3.348a6.493,6.493,0,0,1,2.7.45c.4.148.551.549.4,1.2l-1.1,4.4c-.15.551-.549.7-1.2.5a10.785,10.785,0,0,0-2.8-.4,5.8,5.8,0,0,0-3.851,1.4Z" transform="translate(7.178 1.607)" fill="#fff"/><path d="M691.567,1031.786a.766.766,0,0,1,.849-.852h5.153a.767.767,0,0,1,.849.852v18.958c0,.55-.3.8-.848.8h-5.153c-.55,0-.849-.25-.849-.8v-18.958Z" transform="translate(9.435 1.671)" fill="#fff"/><path d="M707.776,1051.543a1.079,1.079,0,0,1-1.2-.8l-7.405-18.409c-.349-.949,0-1.4,1.05-1.4h4.6a1.634,1.634,0,0,1,1.753,1.1l4.251,12.557,4.252-12.506a1.611,1.611,0,0,1,1.7-1.151h4.253c1.051,0,1.4.45,1.051,1.4l-7.4,18.411a1.147,1.147,0,0,1-1.2.8Z" transform="translate(10.54 1.671)" fill="#fff"/><path d="M731.044,1052.106c-7.854,0-12.356-3.95-12.356-10.8a12.914,12.914,0,0,1,.6-4.042,10.368,10.368,0,0,1,.457-1.156c1.685-3.6,5.287-5.606,10.146-5.606a10.238,10.238,0,0,1,7.3,2.648,9.185,9.185,0,0,1,2.75,7,10.789,10.789,0,0,1-.147,1.9c-.052.351-.35.551-.9.551H725.891c.55,2.751,2.6,4.253,5.754,4.254a20.123,20.123,0,0,0,6.5-1.355c.652-.2,1.052-.048,1.2.5l1.1,3.352a.786.786,0,0,1-.4,1.051,19.924,19.924,0,0,1-9,1.7m-5.152-12.906h7.552c-.348-2.4-1.6-3.6-3.7-3.6-1.95,0-3.3,1.349-3.851,3.6" transform="translate(13.446 1.607)" fill="#fff"/><path d="M746.646,1050.805c0,.55-.3.8-.851.8l-5.154,0c-.549,0-.849-.25-.849-.8v-18.958a.764.764,0,0,1,.848-.851l5.154,0a.769.769,0,0,1,.852.852v2c1.748-2.249,3.7-3.349,5.852-3.348a6.565,6.565,0,0,1,2.7.45c.4.148.55.549.4,1.2l-1.1,4.4c-.15.55-.55.7-1.2.5a10.773,10.773,0,0,0-2.8-.4,5.81,5.81,0,0,0-3.85,1.4Z" transform="translate(16.567 1.606)" fill="#fff"/><path d="M765.305,1045.7c0-1.15-.8-1.551-4.2-2.2-4.953-.95-7.406-3.1-7.405-6.455,0-3.951,3.5-6.551,9.156-6.55a17.987,17.987,0,0,1,8.753,1.948.772.772,0,0,1,.4,1.149l-1.2,3.053c-.25.7-.8.848-1.553.5a15.232,15.232,0,0,0-6.25-1.75c-1.351,0-2.052.449-2.052,1.3,0,1,.849,1.4,4.454,2.253,4.951,1,7.1,2.752,7.1,6.353,0,4.551-3.254,6.8-9.8,6.8a19.878,19.878,0,0,1-9.057-1.85,1.025,1.025,0,0,1-.5-1.449l1.153-2.953c.249-.6.649-.75,1.3-.45a17.255,17.255,0,0,0,7.353,1.8c1.553,0,2.354-.5,2.352-1.5" transform="translate(18.525 1.606)" fill="#fff"/><path d="M674.975,1019.635a1.117,1.117,0,0,0-.712.256l-3.617,2.638a3.423,3.423,0,0,0-1.407,2.77v8.908a9.576,9.576,0,0,0-6.3-2.2c-5.6,0-9.2,4-9.2,10.8,0,7.2,3.7,10.806,9.154,10.806a8.549,8.549,0,0,0,6.352-2.453v1.151c0,.55.3.8.851.8h5.2a.8.8,0,0,0,.8-.8v-31.563a1.117,1.117,0,0,0-1.117-1.117m-5.736,26.127a5.845,5.845,0,0,1-4.253,2.2c-2.6,0-4.051-1.951-4.051-5.153,0-3.151,1.45-5.153,4-5.153a5.821,5.821,0,0,1,4.3,2.1Z" transform="translate(3.84)" fill="#fff"/></g></svg>