<svg xmlns="http://www.w3.org/2000/svg" width="158.044" height="172.842" viewBox="0 0 158.044 172.842"><g transform="translate(135.752 42.745)"><path d="M599.51,412.91" transform="translate(-599.51 -412.91)" fill="#ffb500"/></g><g transform="translate(4.569 4.563)"><path d="M725.717,441.831v-2.986A32.549,32.549,0,0,0,693.172,406.3H609.345A32.545,32.545,0,0,0,576.8,438.844V569.957a.058.058,0,0,0,.058.058h148.8a.06.06,0,0,0,.064-.058V458.086" transform="translate(-576.8 -406.3)" fill="#ffb500"/></g><g transform="translate(0 0)"><path d="M729.426,578.352H580.63a4.665,4.665,0,0,1-4.621-4.621V442.617a37.151,37.151,0,0,1,37.108-37.107h83.822a37.153,37.153,0,0,1,37.114,37.107V573.731A4.67,4.67,0,0,1,729.426,578.352Zm-144.29-9.127h139.79V442.617a28.014,28.014,0,0,0-27.987-27.981H613.117a28.013,28.013,0,0,0-27.981,27.981Z" transform="translate(-576.009 -405.51)"/></g><g transform="translate(61.04 21.176)"><path d="M617.763,409.176H591.336a4.756,4.756,0,0,0-4.76,4.754v26.433a4.759,4.759,0,0,0,4.76,4.754h26.427a4.754,4.754,0,0,0,4.754-4.754V413.93a4.75,4.75,0,0,0-4.754-4.754" transform="translate(-586.576 -409.176)" fill="#fff"/></g><g transform="translate(57.089 17.219)"><path d="M621.03,452.346H594.6a8.719,8.719,0,0,1-8.705-8.711V417.2a8.716,8.716,0,0,1,8.705-8.711H621.03a8.717,8.717,0,0,1,8.711,8.711v26.433A8.721,8.721,0,0,1,621.03,452.346ZM594.6,416.4a.8.8,0,0,0-.8.8v26.433a.8.8,0,0,0,.8.8H621.03a.8.8,0,0,0,.8-.8V417.2a.8.8,0,0,0-.8-.8Z" transform="translate(-585.892 -408.491)"/></g></svg>