<svg xmlns="http://www.w3.org/2000/svg" width="158.044" height="172.842" viewBox="0 0 158.044 172.842"><g transform="translate(4.569 4.563)"><path d="M686.566,377.844A32.548,32.548,0,0,0,654.021,345.3H570.194a32.548,32.548,0,0,0-32.545,32.544V508.957a.058.058,0,0,0,.058.058H686.5a.059.059,0,0,0,.063-.058V397.086" transform="translate(-537.649 -345.3)" fill="#0053bd"/></g><g transform="translate(0 0)"><path d="M690.275,517.352h-148.8a4.665,4.665,0,0,1-4.621-4.621V381.617a37.151,37.151,0,0,1,37.108-37.107h83.828A37.151,37.151,0,0,1,694.9,381.617V512.73A4.666,4.666,0,0,1,690.275,517.352Zm-144.29-9.127h139.79V381.617a28.013,28.013,0,0,0-27.981-27.981H573.966a28.013,28.013,0,0,0-27.981,27.981Z" transform="translate(-536.858 -344.51)"/></g><g transform="translate(43.302 27.057)"><path d="M603.064,373.368H557c-6.648,0-12.466-5.124-12.645-11.766a12.091,12.091,0,0,1,12.085-12.408H602.5c6.648,0,12.471,5.124,12.644,11.766a12.087,12.087,0,0,1-12.084,12.408" transform="translate(-544.354 -349.194)" fill="#fff"/></g><g transform="translate(39.35 23.106)"><path d="M606.338,380.592H560.271c-8.924,0-16.37-7.007-16.6-15.619a16.04,16.04,0,0,1,16.036-16.463h46.061c8.93,0,16.376,7.007,16.6,15.619a16.041,16.041,0,0,1-16.03,16.463Zm-46.627-24.174a8.129,8.129,0,0,0-8.128,8.347c.115,4.367,4.009,7.92,8.688,7.92h46.067a8.129,8.129,0,0,0,8.128-8.347c-.115-4.367-4.015-7.919-8.693-7.919Z" transform="translate(-543.67 -348.51)"/></g></svg>