<svg xmlns="http://www.w3.org/2000/svg" width="158.038" height="172.842" viewBox="0 0 158.038 172.842"><g transform="translate(4.546 4.563)"><path d="M687.134,441.831v-2.986A32.545,32.545,0,0,0,654.589,406.3H570.767a32.545,32.545,0,0,0-32.544,32.544V569.957a.053.053,0,0,0,.052.058h148.8a.058.058,0,0,0,.058-.058V458.086" transform="translate(-538.223 -406.3)" fill="#008341"/></g><g transform="translate(0 0)"><path d="M690.853,578.352h-148.8a4.66,4.66,0,0,1-4.616-4.621V442.617a37.146,37.146,0,0,1,37.1-37.107h83.827a37.151,37.151,0,0,1,37.108,37.107V573.731A4.665,4.665,0,0,1,690.853,578.352Zm-144.29-9.127H686.347V442.617a28.013,28.013,0,0,0-27.981-27.981H574.538a28.008,28.008,0,0,0-27.975,27.981Z" transform="translate(-537.436 -405.51)"/></g><g transform="translate(61.046 21.176)"><path d="M583.945,427.146a17.97,17.97,0,1,0-17.971,17.97,17.968,17.968,0,0,0,17.971-17.97" transform="translate(-548.004 -409.176)" fill="#fff"/></g><g transform="translate(57.095 17.219)"><path d="M569.242,452.346a21.927,21.927,0,1,1,21.928-21.927A21.948,21.948,0,0,1,569.242,452.346Zm0-35.947a14.016,14.016,0,1,0,14.02,14.019A14.032,14.032,0,0,0,569.242,416.4Z" transform="translate(-547.32 -408.491)"/></g></svg>