<svg xmlns="http://www.w3.org/2000/svg" xmlns:xlink="http://www.w3.org/1999/xlink" width="180.627" height="213.122" viewBox="0 0 180.627 213.122"><defs><linearGradient id="a" x1="0.276" y1="1.335" x2="0.742" y2="-0.399" gradientUnits="objectBoundingBox"><stop offset="0.086" stop-color="#6ab559"/><stop offset="0.229" stop-color="#7bc767"/><stop offset="0.501" stop-color="#96e57e"/><stop offset="0.734" stop-color="#a7f88c"/><stop offset="0.898" stop-color="#adff91"/></linearGradient></defs><g transform="translate(-954.466 171.852)"><g transform="translate(1024.696 23.912)"><path d="M978.49-93.467a13.512,13.512,0,0,1,6.133-10.58c1.707-.985,3.248-1.073,4.359-.427l0,0,2.663,1.7-9.033,14.731-2.327-1.485v0C979.177-90.16,978.49-91.522,978.49-93.467Z" transform="translate(-978.49 104.886)" fill="#25242f"/><path d="M979.347-92.918c0,3.885,2.745,5.452,6.133,3.5A13.512,13.512,0,0,0,991.613-100c0-3.888-2.745-5.452-6.133-3.5A13.512,13.512,0,0,0,979.347-92.918Z" transform="translate(-976.842 105.937)" fill="#393842"/><path d="M979.94-95.387c0,2.789,1.97,3.911,4.4,2.508a9.692,9.692,0,0,0,4.4-7.586c0-2.789-1.968-3.911-4.4-2.508A9.7,9.7,0,0,0,979.94-95.387Z" transform="translate(-975.701 107.404)" fill="#cdc6bc"/></g><g transform="translate(958.333 -17.082)"><path d="M969.5-107.49a13.511,13.511,0,0,0-6.133-10.58c-1.7-.985-3.245-1.073-4.359-.427v0l-2.663,1.7,9.03,14.731,2.327-1.485v0C968.81-104.183,969.5-105.545,969.5-107.49Z" transform="translate(-954.726 118.91)" fill="#25242f"/><path d="M968.058-106.941c0,3.885-2.748,5.452-6.133,3.5a13.515,13.515,0,0,1-6.136-10.58c0-3.888,2.748-5.452,6.136-3.5A13.52,13.52,0,0,1,968.058-106.941Z" transform="translate(-955.789 119.96)" fill="#393842"/><path d="M965.18-109.41c0,2.789-1.967,3.911-4.4,2.508a9.7,9.7,0,0,1-4.4-7.586c0-2.789,1.97-3.911,4.4-2.508A9.692,9.692,0,0,1,965.18-109.41Z" transform="translate(-954.647 121.427)" fill="#929a88"/></g><g transform="translate(1110.139 -25.761)"><path d="M1007.718-110.459a13.512,13.512,0,0,1,6.133-10.58c1.7-.985,3.245-1.073,4.359-.427v0l2.666,1.7-9.033,14.731-2.327-1.485v0C1008.405-107.152,1007.718-108.514,1007.718-110.459Z" transform="translate(-1007.718 121.878)" fill="#25242f"/><path d="M1008.574-109.91c0,3.885,2.748,5.452,6.136,3.5a13.52,13.52,0,0,0,6.133-10.58c0-3.888-2.748-5.452-6.133-3.5A13.515,13.515,0,0,0,1008.574-109.91Z" transform="translate(-1006.072 122.929)" fill="#393842"/><path d="M1009.168-112.379c0,2.789,1.97,3.911,4.4,2.508a9.692,9.692,0,0,0,4.4-7.586c0-2.789-1.967-3.911-4.4-2.508A9.7,9.7,0,0,0,1009.168-112.379Z" transform="translate(-1004.929 124.396)" fill="#cdc6bc"/></g><path d="M978.174-67.092l87.1-50.29,2.457-4.973-87.1,50.29Z" transform="translate(45.597 95.201)" fill="url(#a)"/><g transform="translate(1035.824 -171.255)"><path d="M1068.921-113.772l-5.17,73.379-9.6-5.541L1051.7-40.96l-49.326-28.478-2.428-7.793L990.4-82.74l-5.17-79.348Z" transform="translate(-976.647 190.035)" fill="#416d48"/><path d="M1069.4-72.178l-87.1,50.29,5.16-73.385,87.1-50.29Z" transform="translate(-982.297 221.82)" fill="#529d41"/><path d="M985.235-162.088l.279,4.282,44.25,25.548,18.8,20.456,19.431,11.218.443-6.292-19.874-11.474-19.969-20.407Z" transform="translate(-976.647 190.035)" fill="#385e3e"/><path d="M1011.45-114.389l-12.009-6.934a5.2,5.2,0,0,1-2.172-4.148V-155.14l16.353,9.442v29.669C1013.622-114.43,1012.649-113.7,1011.45-114.389Z" transform="translate(-953.5 203.398)" fill="#303c3e"/><path d="M1060.3-130.353c-19.133-27.816-47.326-44.09-66.462-38.372-5.04,1.506-8.6,11.766-8.6,21.6h0l83.66,48.3h0C1068.9-110.293,1065.343-123.024,1060.3-130.353Z" transform="translate(-976.636 175.08)" fill="#417a48"/><path d="M986.26-151.1c.663-8.185,3.759-15.368,7.352-16.438,8.758-2.619,19.943-.389,31.493,6.279s22.741,17.356,31.5,30.09c3.932,5.712,6.806,15.593,7.376,24.939Z" transform="translate(-974.674 177.499)" fill="#416d48"/><path d="M1052.692-124.73l-68.429-39.508v4.643l68.429,39.508Z" transform="translate(-978.516 185.901)" fill="#417a48"/><path d="M1027.663-135.385l-20.766-11.99v3.175l20.766,11.99Z" transform="translate(-934.983 218.335)" fill="#417a48"/><path d="M1020.464-133.323,1001.6-154.181l-1.157,2.216,18.863,20.858Z" transform="translate(-947.393 205.243)" fill="#417a48"/><path d="M995.22-165.1l-5.747,14.585,25.679,43.415c2.768,4.6,6.992,7.373,10.1,6.639h0c4.046-.956,4.525-7.364,1-13.407l-14.283-24.48,3.867-5.028Z" transform="translate(-968.495 184.248)" fill="#518557"/><path d="M1004.077-143.061c0,1.584-1.116,2.222-2.5,1.424a5.5,5.5,0,0,1-2.5-4.309c0-1.584,1.117-2.222,2.5-1.427A5.508,5.508,0,0,1,1004.077-143.061Z" transform="translate(-950.015 217.679)" fill="#414f52"/><path d="M1074.879-85.385l-15.552-16.667-3.193,4.037-67.14-70.761-2.592-2.872-1.724,3.871L1057.2-91.348l3.16-4.5,15.5,16.635,1.125-4.087Z" transform="translate(-977.714 171.648)" fill="#518557"/></g><g transform="translate(954.466 -171.852)"><path d="M1024.74-108.072l-68.429-39.508-1.844,1.592,70.273,42.559Z" transform="translate(-954.466 218.538)" fill="#416d48"/><path d="M1039.125-96.569l-5.17,73.379-9.6-5.541-2.457,4.973L972.576-52.236l-2.428-7.793-9.54-5.508-5.17-79.348Z" transform="translate(-952.597 223.72)" fill="#2b5b31"/><path d="M955.439-144.885l.279,4.282,44.25,25.548,18.8,20.456,19.43,11.218.443-6.292-19.874-11.474L998.8-121.555Z" transform="translate(-952.597 223.72)" fill="#154324"/><path d="M981.654-97.186l-12.009-6.934a5.193,5.193,0,0,1-2.172-4.148v-29.669l16.353,9.439v29.672C983.826-97.229,982.853-96.493,981.654-97.186Z" transform="translate(-929.45 237.084)" fill="#303c3e"/><path d="M1030.506-113.149c-19.134-27.816-47.326-44.093-66.462-38.372-5.04,1.505-8.6,11.766-8.6,21.6h0l83.663,48.3v0C1039.106-93.089,1035.548-105.823,1030.506-113.149Z" transform="translate(-952.588 208.764)" fill="#3b703c"/><path d="M956.464-133.895c.661-8.185,3.76-15.368,7.35-16.441,8.758-2.616,19.946-.386,31.5,6.282s22.738,17.356,31.5,30.09c3.932,5.709,6.8,15.59,7.375,24.939Z" transform="translate(-950.624 211.184)" fill="#2b5b31"/><path d="M959.136-137.253c.45-5.572,2.029-10.676,4.125-13.708-3.35,1.6-6.168,8.454-6.8,16.216l77.72,44.87c-.088-1.427-.246-2.865-.435-4.3Z" transform="translate(-950.624 212.034)" fill="#6dc253"/><path d="M1022.9-107.527l-68.429-39.508v4.643l68.429,39.508Z" transform="translate(-954.466 219.585)" fill="#3b703c"/><path d="M997.868-118.182,977.1-130.171V-127l20.767,11.99Z" transform="translate(-910.933 252.019)" fill="#3b703c"/><path d="M990.669-116.12l-18.863-20.858-1.157,2.216L989.511-113.9Z" transform="translate(-923.343 238.927)" fill="#3b703c"/><g transform="translate(2.943 0.598)"><path d="M1046.053-33.009,1028.4-51.762l-3.193,4.037-67.141-70.761-2.591-2.872,87.1-50.29,69.732,73.633,3.193-4.037L1133.157-83.3Z" transform="translate(-955.473 171.648)" fill="#6dc253"/></g><path d="M1041.413-169.609c8.252-5.221,30.125-2.28,52.8,19.028,27.246,25.6,33.478,43.669,30.526,66.892l-83.216,48.045-7.861-27.564-76.08-57.926S1040.3-168.9,1041.413-169.609Z" transform="translate(-948.472 171.852)" fill="#529d41"/><path d="M956.918-150.646c4.937-8.209,29.631-7.677,55.359,16.5,27.246,25.6,33.478,43.669,30.526,66.892l-15.57-16.075-1.614.351-1.561,3.093Z" transform="translate(-949.751 203.463)" fill="#3b703c"/><path d="M965.424-147.894l-5.747,14.585,25.679,43.415c2.768,4.593,6.993,7.373,10.1,6.639h0c4.046-.956,4.526-7.367,1-13.406l-14.284-24.48,3.868-5.028Z" transform="translate(-944.445 217.933)" fill="#6dc253"/><path d="M974.281-125.857c0,1.582-1.117,2.222-2.5,1.424a5.508,5.508,0,0,1-2.5-4.312c0-1.582,1.117-2.222,2.5-1.424A5.5,5.5,0,0,1,974.281-125.857Z" transform="translate(-925.965 251.363)" fill="#414f52"/><path d="M964.382-147.135l-5.747,14.585,25.679,43.415c2.769,4.6,6.993,7.373,10.1,6.639h0c4.046-.956,4.526-7.364,1-13.406l-14.284-24.48,3.865-5.028Z" transform="translate(-946.449 219.393)" fill="#3b703c"/><path d="M973.241-125.1c0,1.584-1.12,2.222-2.5,1.424a5.506,5.506,0,0,1-2.5-4.309c0-1.584,1.12-2.222,2.5-1.427A5.511,5.511,0,0,1,973.241-125.1Z" transform="translate(-927.971 252.824)" fill="#414f52"/><path d="M1045.083-68.183l-15.552-16.667-3.193,4.037L959.2-151.573l-2.592-2.872-1.723,3.871L1027.4-74.145l3.16-4.5,15.5,16.635,1.125-4.087Z" transform="translate(-953.664 205.333)" fill="#3b703c"/></g><path d="M1073.177-137.339l-87.1,50.29,1.125-4.087,87.1-50.29Z" transform="translate(60.791 58.521)" fill="#5fb54c"/><g transform="translate(983.377 -167.153)"><path d="M1063.494-93.589l-5.8,3.338c-.4-18.139-8.542-34.2-31.186-55.467-15.316-14.395-30.245-20.408-40.88-21.171l5.82-3.356c10.632.781,25.562,6.776,40.862,21.171C1054.938-127.824,1063.073-111.743,1063.494-93.589Z" transform="translate(-923.449 170.245)" fill="#154324"/><path d="M1056.028-92.969c-1.012-18.476-10.273-34.37-31.487-54.3-12.284-11.541-25.895-19.057-37.942-21.054l2.327-1.342c6.124.523,21.5,3.645,39.752,20.814,21.168,19.882,30.137,35.56,30.783,53.906Z" transform="translate(-921.575 171.364)" fill="#3b703c"/><path d="M1058.177-90.517l-5.8,3.338c-.421-18.139-8.542-34.218-31.172-55.485-15.316-14.395-30.262-20.39-40.895-21.153l5.8-3.356c10.632.778,25.579,6.776,40.9,21.171C1049.635-124.738,1057.771-108.656,1058.177-90.517Z" transform="translate(-933.675 176.153)" fill="#154324"/><path d="M1050.715-89.9c-1.029-18.5-10.281-34.4-31.473-54.313-12.275-11.536-25.9-19.046-37.963-21.042l2.318-1.339c6.127.523,21.51,3.645,39.781,20.814,21.176,19.9,30.14,35.577,30.765,53.906Z" transform="translate(-931.805 177.273)" fill="#3b703c"/><path d="M1052.851-87.453l-5.8,3.353c-.406-18.136-8.545-34.215-31.172-55.482-15.318-14.395-30.248-20.393-40.88-21.171l5.8-3.353c10.632.778,25.562,6.791,40.88,21.168C1044.306-121.656,1052.444-105.592,1052.851-87.453Z" transform="translate(-943.892 182.052)" fill="#154324"/><path d="M1045.394-86.819c-1.015-18.481-10.27-34.379-31.476-54.307-12.269-11.53-25.886-19.048-37.953-21.054l2.327-1.345c6.116.523,21.475,3.642,39.763,20.814,21.177,19.917,30.143,35.595,30.768,53.909Z" transform="translate(-942.028 183.17)" fill="#3b703c"/><path d="M1047.531-84.379l-5.8,3.353c-.4-18.136-8.542-34.218-31.169-55.482-15.318-14.395-30.266-20.408-40.88-21.171l5.8-3.356c10.632.778,25.562,6.776,40.88,21.171C1038.989-118.6,1047.127-102.518,1047.531-84.379Z" transform="translate(-954.118 187.959)" fill="#154324"/><path d="M1040.071-83.747c-1.012-18.481-10.27-34.378-31.473-54.307-12.287-11.544-25.9-19.063-37.948-21.057l2.318-1.342c6.121.523,21.5,3.645,39.766,20.814,21.176,19.9,30.139,35.58,30.768,53.906Z" transform="translate(-952.251 189.078)" fill="#3b703c"/><path d="M1042.24-81.325l-5.8,3.356c-.4-18.139-8.542-34.221-31.186-55.485-15.333-14.395-30.262-20.393-40.895-21.171l5.8-3.338c10.632.763,25.577,6.759,40.895,21.171C1033.7-115.528,1041.836-99.464,1042.24-81.325Z" transform="translate(-964.356 193.867)" fill="#154324"/><path d="M1034.774-80.693C1033.76-99.18,1024.5-115.074,1003.284-135c-12.278-11.527-25.895-19.043-37.953-21.051l2.309-1.33c6.125.512,21.5,3.616,39.784,20.814,21.185,19.9,30.154,35.571,30.783,53.892Z" transform="translate(-962.483 194.987)" fill="#3b703c"/></g><g transform="translate(986.186 -30.043)" opacity="0.5"><path d="M966.5-115.158a.845.845,0,0,0-.029.7.291.291,0,0,0,.085.146l6.7,3.871v-5.472l-4.189-2.418Z" transform="translate(-963.212 132.99)" fill="#c1e3e4"/><path d="M971.989-113.98l4.6,2.657a.841.841,0,0,0,.857.1l-2.628-6.268-4.025.623Z" transform="translate(-954.79 134.598)" fill="#c1e3e4"/><path d="M971.454-111.8l5.826,4.856,1.286-5.949-1.541.237-2.4-5.721a5.23,5.23,0,0,0-2.029-2.447l-4.359-2.517,4.753,11.307Z" transform="translate(-959.704 123.343)" fill="#c1e3e4"/><path d="M973.4-116.694l-2.227-5.385a1.882,1.882,0,0,0-.742-.918l-.029-.018c-.059-.032-.114-.067-.143-.05l-3.371,4.151,4.028,5.274Z" transform="translate(-962.289 123.871)" fill="#c1e3e4"/><path d="M972.9-111.949l-1.286-7.431-5.826-1.874,1.538,2.014-1.628,1.988a2.923,2.923,0,0,0-.082,2.765l1.944,5.18,3.8-4.654Z" transform="translate(-965.317 127.361)" fill="#c1e3e4"/><path d="M973.244-115.14v-2.093l-4.227,2.4,4.227,7.279v-2.1l4.2,2.421c.821.474,1.576.4,1.97-.2l1.988-3Z" transform="translate(-958.2 135.095)" fill="#c1e3e4"/></g></g></svg>