<svg xmlns="http://www.w3.org/2000/svg" width="180.625" height="213.122" viewBox="0 0 180.625 213.122"><g transform="translate(-902.324 127.731)"><g transform="translate(972.553 68.031)"><path d="M926.348-49.346a13.524,13.524,0,0,1,6.133-10.579c1.707-.985,3.248-1.073,4.359-.427h0l2.663,1.7L930.473-43.92,928.146-45.4h0C927.035-46.036,926.348-47.4,926.348-49.346Z" transform="translate(-926.348 60.765)" fill="#25242f"/><path d="M927.2-48.8c0,3.888,2.745,5.455,6.133,3.5a13.516,13.516,0,0,0,6.133-10.579c0-3.888-2.745-5.455-6.133-3.5A13.516,13.516,0,0,0,927.2-48.8Z" transform="translate(-924.7 61.816)" fill="#393842"/><path d="M927.8-51.264c0,2.786,1.97,3.908,4.4,2.508a9.7,9.7,0,0,0,4.4-7.589c0-2.786-1.97-3.908-4.4-2.508A9.7,9.7,0,0,0,927.8-51.264Z" transform="translate(-923.559 63.284)" fill="#cdc6bc"/></g><g transform="translate(906.193 27.037)"><path d="M917.358-63.369a13.519,13.519,0,0,0-6.136-10.579c-1.7-.985-3.245-1.073-4.356-.427h0l-2.663,1.7,9.033,14.728,2.327-1.485h0C916.668-60.059,917.358-61.425,917.358-63.369Z" transform="translate(-902.586 74.788)" fill="#25242f"/><path d="M915.914-62.82c0,3.888-2.748,5.455-6.133,3.5a13.515,13.515,0,0,1-6.133-10.58c0-3.888,2.745-5.455,6.133-3.5A13.524,13.524,0,0,1,915.914-62.82Z" transform="translate(-903.648 75.839)" fill="#393842"/><path d="M913.04-65.288c0,2.786-1.97,3.909-4.4,2.508a9.7,9.7,0,0,1-4.4-7.589c0-2.786,1.97-3.908,4.4-2.508A9.7,9.7,0,0,1,913.04-65.288Z" transform="translate(-902.507 77.307)" fill="#929a88"/></g><g transform="translate(1057.996 18.358)"><path d="M955.576-66.338a13.516,13.516,0,0,1,6.133-10.58c1.707-.985,3.248-1.073,4.358-.424l0,0,2.663,1.7L959.7-60.912,957.374-62.4h0C956.263-63.029,955.576-64.394,955.576-66.338Z" transform="translate(-955.576 77.757)" fill="#25242f"/><path d="M956.432-65.789c0,3.888,2.748,5.455,6.136,3.5A13.517,13.517,0,0,0,968.7-72.87c0-3.888-2.745-5.455-6.133-3.5A13.519,13.519,0,0,0,956.432-65.789Z" transform="translate(-953.93 78.808)" fill="#393842"/><path d="M957.026-68.257c0,2.786,1.97,3.908,4.4,2.508a9.693,9.693,0,0,0,4.4-7.589c0-2.786-1.967-3.908-4.4-2.508A9.7,9.7,0,0,0,957.026-68.257Z" transform="translate(-952.787 80.275)" fill="#cdc6bc"/></g><path d="M926.032-22.97l87.1-50.289,2.457-4.973-87.1,50.289Z" transform="translate(45.597 95.201)" fill="#333"/><g transform="translate(983.682 -127.133)"><path d="M1016.778-69.651l-5.17,73.378-9.6-5.541-2.457,4.973L950.229-25.318,947.8-33.111l-9.539-5.508-5.17-79.348Z" transform="translate(-924.505 145.913)" fill="#416d48"/><path d="M1017.259-28.057l-87.1,50.289,5.16-73.384,87.1-50.289Z" transform="translate(-930.155 177.698)" fill="#999"/><path d="M933.092-117.966l.279,4.282,44.25,25.548,18.8,20.456,19.431,11.218.443-6.292L996.418-74.229,976.45-94.637Z" transform="translate(-924.505 145.913)" fill="#385e3e"/><path d="M959.308-70.267,947.3-77.2a5.2,5.2,0,0,1-2.172-4.148v-29.669l16.353,9.439v29.672C961.48-70.311,960.506-69.574,959.308-70.267Z" transform="translate(-901.359 159.277)" fill="#303c3e"/><path d="M1008.157-86.23c-19.133-27.815-47.326-44.092-66.462-38.372-5.04,1.506-8.6,11.766-8.6,21.6h0l83.66,48.3h0C1016.758-66.173,1013.2-78.9,1008.157-86.23Z" transform="translate(-924.494 130.958)" fill="#417a48"/><path d="M934.119-106.976c.66-8.185,3.756-15.368,7.349-16.441,8.758-2.616,19.946-.386,31.5,6.282s22.738,17.356,31.5,30.09c3.929,5.709,6.8,15.59,7.372,24.939Z" transform="translate(-922.531 133.377)" fill="#416d48"/><path d="M1000.549-80.609,932.12-120.116v4.643l68.429,39.507Z" transform="translate(-926.374 141.779)" fill="#417a48"/><path d="M975.521-91.263l-20.767-11.99v3.175l20.767,11.99Z" transform="translate(-882.841 174.213)" fill="#417a48"/><path d="M968.322-89.2,949.46-110.059l-1.157,2.216,18.862,20.858Z" transform="translate(-895.251 161.121)" fill="#417a48"/><path d="M943.078-120.975l-5.747,14.584,25.679,43.414c2.768,4.593,7,7.373,10.1,6.639h0c4.049-.956,4.525-7.367,1-13.406L959.823-94.227l3.868-5.028Z" transform="translate(-916.353 140.127)" fill="#518557"/><path d="M951.938-98.941c0,1.584-1.12,2.222-2.5,1.427a5.511,5.511,0,0,1-2.5-4.312c0-1.584,1.12-2.222,2.5-1.424A5.507,5.507,0,0,1,951.938-98.941Z" transform="translate(-897.874 173.557)" fill="#414f52"/><path d="M1022.736-41.264l-15.552-16.667-3.193,4.037-67.139-70.76-2.592-2.872-1.723,3.871,72.516,76.428,3.161-4.5,15.5,16.635,1.125-4.087Z" transform="translate(-925.572 127.526)" fill="#518557"/></g><g transform="translate(902.325 -127.731)"><path d="M972.6-63.95l-68.428-39.507-1.845,1.592L972.6-59.307Z" transform="translate(-902.324 174.416)" fill="#333"/><path d="M986.982-52.448l-5.17,73.378-9.6-5.54-2.456,4.973L920.433-8.115l-2.428-7.793-9.539-5.508-5.17-79.348Z" transform="translate(-900.455 179.598)" fill="#4d4d4d"/><path d="M903.3-100.764l.279,4.282,44.25,25.548,18.8,20.456L986.053-39.26l.443-6.292L966.622-57.027,946.653-77.434Z" transform="translate(-900.455 179.598)" fill="#333"/><path d="M929.512-53.064,917.5-60a5.192,5.192,0,0,1-2.172-4.145V-93.815l16.353,9.439v29.669C931.684-53.108,930.71-52.374,929.512-53.064Z" transform="translate(-877.309 192.962)" fill="#303c3e"/><path d="M978.361-69.029c-19.133-27.813-47.326-44.09-66.462-38.372-5.04,1.508-8.6,11.769-8.6,21.6h0l83.66,48.3h0C986.962-48.969,983.4-61.7,978.361-69.029Z" transform="translate(-900.445 164.642)" fill="#666"/><path d="M904.322-89.775c.664-8.182,3.759-15.365,7.352-16.438,8.759-2.619,19.946-.386,31.5,6.282s22.737,17.356,31.5,30.087c3.932,5.712,6.806,15.593,7.375,24.942Z" transform="translate(-898.482 167.062)" fill="#333"/><path d="M906.994-93.132c.45-5.575,2.029-10.676,4.125-13.707-3.35,1.6-6.168,8.454-6.8,16.213l77.719,44.873c-.088-1.427-.246-2.865-.436-4.3Z" transform="translate(-898.482 167.913)" fill="#b3b3b3"/><path d="M970.753-63.406l-68.429-39.507v4.643l68.429,39.507Z" transform="translate(-902.324 175.463)" fill="#666"/><path d="M945.725-74.06,924.959-86.05v3.175l20.767,11.99Z" transform="translate(-858.791 207.897)" fill="#1a1a1a"/><path d="M938.526-72,919.664-92.857l-1.158,2.216,18.863,20.858Z" transform="translate(-871.201 194.805)" fill="#1a1a1a"/><g transform="translate(2.943 0.598)"><path d="M993.91,11.112,976.255-7.642,973.062-3.6l-67.14-70.761-2.591-2.872,87.1-50.289,69.731,73.633,3.193-4.037,17.655,18.754Z" transform="translate(-903.331 127.526)" fill="#b3b3b3"/></g><path d="M989.27-125.486c8.252-5.224,30.125-2.28,52.8,19.028,27.245,25.6,33.478,43.669,30.525,66.891L989.381,8.475l-7.861-27.561-76.08-57.929S988.162-124.782,989.27-125.486Z" transform="translate(-896.33 127.731)" fill="gray"/><path d="M904.776-106.522c4.938-8.212,29.631-7.68,55.359,16.5,27.245,25.6,33.478,43.669,30.526,66.891L975.09-39.207l-1.613.348-1.561,3.1Z" transform="translate(-897.609 159.34)" fill="#1b1b19"/><path d="M913.282-103.773l-5.747,14.584,25.678,43.417c2.769,4.593,7,7.37,10.1,6.636h0c4.046-.956,4.525-7.364,1-13.4L930.027-77.022l3.868-5.028Z" transform="translate(-892.303 173.81)" fill="#b3b3b3"/><path d="M922.139-81.738c0,1.584-1.117,2.222-2.5,1.427a5.5,5.5,0,0,1-2.5-4.312c0-1.584,1.117-2.222,2.5-1.424A5.5,5.5,0,0,1,922.139-81.738Z" transform="translate(-873.824 207.241)" fill="#414f52"/><path d="M912.24-103.013l-5.747,14.584,25.679,43.414c2.768,4.593,6.993,7.373,10.1,6.639h0c4.046-.956,4.525-7.367,1-13.406l-14.283-24.48,3.864-5.031Z" transform="translate(-894.307 175.271)" fill="#666"/><path d="M921.1-80.979c0,1.584-1.12,2.222-2.5,1.427a5.511,5.511,0,0,1-2.5-4.312c0-1.584,1.119-2.222,2.5-1.424A5.506,5.506,0,0,1,921.1-80.979Z" transform="translate(-875.83 208.701)" fill="#414f52"/><path d="M992.94-24.061,977.389-40.728,974.2-36.691l-67.139-70.76-2.591-2.872-1.724,3.871,72.517,76.428,3.16-4.5,15.5,16.635,1.125-4.087Z" transform="translate(-901.522 161.211)" fill="#666"/></g><path d="M1021.035-93.217l-87.1,50.289,1.125-4.087,87.1-50.289Z" transform="translate(60.79 58.52)" fill="gray"/><g transform="translate(931.235 -123.031)"><path d="M1011.352-49.47l-5.8,3.341c-.406-18.139-8.545-34.2-31.189-55.47-15.315-14.392-30.245-20.408-40.877-21.168l5.817-3.356c10.632.778,25.562,6.776,40.862,21.171C1002.793-83.7,1010.929-67.624,1011.352-49.47Z" transform="translate(-871.305 126.123)" fill="#4d4d4d"/><path d="M1003.889-48.848c-1.014-18.478-10.276-34.37-31.49-54.3-12.284-11.541-25.9-19.057-37.942-21.054l2.327-1.342c6.125.523,21.5,3.642,39.751,20.814,21.171,19.881,30.14,35.556,30.783,53.906Z" transform="translate(-869.433 127.242)" fill="#666"/><path d="M1006.034-46.4l-5.8,3.338c-.421-18.136-8.542-34.218-31.168-55.482-15.318-14.394-30.265-20.393-40.9-21.153l5.8-3.356c10.632.778,25.579,6.776,40.9,21.168C997.492-80.616,1005.631-64.538,1006.034-46.4Z" transform="translate(-881.533 132.031)" fill="#4d4d4d"/><path d="M998.573-45.776c-1.029-18.5-10.281-34.4-31.473-54.312-12.275-11.535-25.9-19.048-37.962-21.042l2.318-1.339c6.127.523,21.513,3.645,39.78,20.811,21.177,19.9,30.14,35.577,30.768,53.909Z" transform="translate(-879.664 133.151)" fill="#666"/><path d="M1000.708-43.332l-5.8,3.356c-.406-18.139-8.542-34.218-31.171-55.485-15.318-14.392-30.245-20.39-40.88-21.168l5.8-3.356c10.635.778,25.561,6.791,40.88,21.171C992.166-77.532,1000.3-61.469,1000.708-43.332Z" transform="translate(-891.75 137.928)" fill="#4d4d4d"/><path d="M993.25-42.7c-1.014-18.484-10.27-34.378-31.475-54.309-12.269-11.53-25.886-19.045-37.951-21.051l2.324-1.345c6.115.523,21.475,3.642,39.763,20.814,21.177,19.917,30.142,35.594,30.768,53.906Z" transform="translate(-889.884 139.048)" fill="#666"/><path d="M995.388-40.261l-5.8,3.356c-.4-18.139-8.542-34.217-31.168-55.485-15.318-14.394-30.262-20.408-40.88-21.168l5.8-3.356c10.632.778,25.562,6.776,40.88,21.168C986.846-74.478,994.984-58.4,995.388-40.261Z" transform="translate(-901.976 143.837)" fill="#4d4d4d"/><path d="M987.931-39.626C986.917-58.11,977.658-74,956.456-93.935c-12.287-11.544-25.9-19.06-37.948-21.057l2.321-1.339c6.118.523,21.492,3.645,39.763,20.811,21.177,19.9,30.14,35.58,30.768,53.909Z" transform="translate(-900.108 144.956)" fill="#666"/><path d="M990.1-37.206l-5.8,3.356c-.4-18.136-8.542-34.218-31.186-55.485-15.333-14.392-30.262-20.39-40.895-21.168l5.8-3.338c10.632.76,25.576,6.759,40.895,21.168C981.555-71.406,989.694-55.342,990.1-37.206Z" transform="translate(-912.214 149.745)" fill="#4d4d4d"/><path d="M982.634-36.569c-1.014-18.487-10.275-34.384-31.493-54.309-12.278-11.524-25.9-19.04-37.954-21.051l2.309-1.33c6.124.515,21.5,3.616,39.784,20.814,21.188,19.9,30.157,35.574,30.783,53.891Z" transform="translate(-910.341 150.863)" fill="#666"/></g></g></svg>