<svg xmlns="http://www.w3.org/2000/svg" xmlns:xlink="http://www.w3.org/1999/xlink" width="34" height="34" viewBox="0 0 34 34"><defs><clipPath id="a"><rect width="34" height="34" fill="none"/></clipPath></defs><g transform="translate(34) rotate(90)"><rect width="34" height="34" transform="translate(0 0)" fill="#90bb39"/><g transform="translate(0 0)"><g clip-path="url(#a)"><path d="M52.1,41.394a1.1,1.1,0,0,1-.776-1.874l8.907-8.907-8.907-8.907a1.1,1.1,0,0,1,1.552-1.552l9.683,9.684a1.1,1.1,0,0,1,0,1.552l-9.683,9.684a1.1,1.1,0,0,1-.776.321" transform="translate(-35.008 -13.613)" fill="#fff"/><path d="M26.071,41.393A1.1,1.1,0,0,1,25.3,39.52L34.2,30.612,25.3,21.7a1.1,1.1,0,1,1,1.552-1.552l9.683,9.684a1.1,1.1,0,0,1,0,1.552l-9.683,9.684a1.094,1.094,0,0,1-.776.321" transform="translate(-17.142 -13.612)" fill="#fff"/></g></g></g></svg>