<svg xmlns="http://www.w3.org/2000/svg" width="111" height="60" viewBox="0 0 111 60"><g transform="translate(-1244 -588)"><g transform="translate(722 298)"><path d="M2,2V19H19V2H2M0,0H21V21H0Z" transform="translate(573 290)" fill="#e2dfd9"/><path d="M2,2V20H19V2H2M0,0H21V22H0Z" transform="translate(573 309)" fill="#e2dfd9"/><path d="M2,2V19H19V2H2M0,0H21V21H0Z" transform="translate(573 329)" fill="#e2dfd9"/><path d="M2,2V19H20V2H2M0,0H22V21H0Z" transform="translate(592 290)" fill="#e2dfd9"/><path d="M2,2V20H20V2H2M0,0H22V22H0Z" transform="translate(592 309)" fill="#e2dfd9"/><path d="M2,2V19H20V2H2M0,0H22V21H0Z" transform="translate(592 329)" fill="#e2dfd9"/><path d="M2,2V19H19V2H2M0,0H21V21H0Z" transform="translate(612 290)" fill="#e2dfd9"/><path d="M2,2V20H19V2H2M0,0H21V22H0Z" transform="translate(612 309)" fill="#e2dfd9"/><path d="M2,2V19H19V2H2M0,0H21V21H0Z" transform="translate(612 329)" fill="#e2dfd9"/></g><g transform="translate(556.752 55.305)"><g transform="translate(719.811 549.696)"><path d="M143.823,141.575a1.5,1.5,0,0,1-1.016-.4c-5.329-4.914-13.927-7.848-23-7.848s-17.669,2.934-23,7.848a1.5,1.5,0,1,1-2.034-2.205,31.429,31.429,0,0,1,10.863-6.31,44.192,44.192,0,0,1,28.337,0,31.431,31.431,0,0,1,10.864,6.31,1.5,1.5,0,0,1-1.017,2.6Z" transform="translate(-95.793 -128.473)" fill="#90bb39"/><path d="M0,16.123a1.5,1.5,0,0,1-1.42-1.018,1.5,1.5,0,0,1,.938-1.9L9.012,9.977,5.786.483a1.5,1.5,0,0,1,.938-1.9,1.5,1.5,0,0,1,1.9.938l3.709,10.914a1.5,1.5,0,0,1-.938,1.9L.483,16.043A1.5,1.5,0,0,1,0,16.123Z" transform="translate(39.959 0) rotate(8)" fill="#90bb39"/></g></g><path d="M2,2V21H21V2H2M0,0H23V23H0Z" transform="translate(1244 607)"/></g></svg>