<svg xmlns="http://www.w3.org/2000/svg" xmlns:xlink="http://www.w3.org/1999/xlink" width="51.113" height="51.113" viewBox="0 0 51.113 51.113"><defs><clipPath id="a"><rect width="51.113" height="51.114" fill="#84bd00"/></clipPath></defs><g clip-path="url(#a)"><path d="M25.556,51.114A25.557,25.557,0,1,1,51.113,25.557,25.586,25.586,0,0,1,25.556,51.114m0-40.417a14.86,14.86,0,1,0,14.86,14.86A14.877,14.877,0,0,0,25.556,10.7" fill="#e2dfd9"/><path d="M25.556,51.114A25.557,25.557,0,1,1,51.113,25.557a5.348,5.348,0,1,1-10.7,0,14.86,14.86,0,1,0-14.86,14.86,5.348,5.348,0,1,1,0,10.7" fill="#84bd00"/></g></svg>