<svg xmlns="http://www.w3.org/2000/svg" width="35.795" height="41.819" viewBox="0 0 35.795 41.819"><g transform="translate(-32.647 -25.52)"><path d="M67.44,29.414H54.84V28.408a2.892,2.892,0,0,0-2.888-2.888H49.137a2.892,2.892,0,0,0-2.888,2.888v1.006h-12.6a1,1,0,0,0-1,1v4.066a1,1,0,0,0,1,1h1.627l2.787,29.681a2.388,2.388,0,0,0,2.387,2.174H60.638a2.388,2.388,0,0,0,2.387-2.174l2.787-29.681H67.44a1,1,0,0,0,1-1V30.416A1,1,0,0,0,67.44,29.414ZM63.8,35.484,61.03,64.977a.391.391,0,0,1-.391.357H40.451a.391.391,0,0,1-.391-.357L37.29,35.484Zm-15.546-6.07V28.408a.885.885,0,0,1,.884-.884h2.814a.885.885,0,0,1,.884.884v1.006Zm18.184,2V33.48H34.652V31.419Z" fill="#1a1818"/><path d="M52.8,61.513A1.489,1.489,0,0,1,54.292,63c0,.021,0,.041,0,.062l.963,15.643a1,1,0,0,0,1,.94l.062,0a1,1,0,0,0,.939-1.062L56.3,62.959a3.5,3.5,0,0,0-3.492-3.45,1,1,0,1,0,0,2Z" transform="translate(-11.06 -19.626)" fill="#1a1818"/><path d="M71.223,61.513c.314,0,.432,0,.432,1.488V78.645a1,1,0,0,0,2,0V63c0-1.134,0-3.492-2.436-3.492a1,1,0,1,0,0,2Z" transform="translate(-21.696 -19.626)" fill="#1a1818"/><path d="M86.826,79.645l.062,0a1,1,0,0,0,1-.94l.964-15.643c0-.021,0-.041,0-.062a1.49,1.49,0,0,1,1.488-1.488,1,1,0,1,0,0-2,3.5,3.5,0,0,0-3.492,3.468l-.962,15.606a1,1,0,0,0,.939,1.062Z" transform="translate(-30.741 -19.626)" fill="#1a1818"/></g></svg>