<svg xmlns="http://www.w3.org/2000/svg" width="68.87" height="79.35" viewBox="0 0 68.87 79.35"><g transform="translate(0.674 1.144)"><path d="M1.383,1.383H30V30H1.383V19.43H7.477V11.953H1.383ZM0,0V13.336H6.094v4.71H0V31.383H31.383V19.43h6.094V11.953H31.383V0Z" transform="translate(18.189 23.345)" fill="#1a1818"/><g transform="matrix(0.809, -0.588, 0.588, 0.809, 0, 21.506)"><g transform="translate(0 0)"><path d="M34.615,7.443a1.5,1.5,0,0,1-1.017-.4C29.833,3.573,23.743,1.5,17.308,1.5S4.782,3.573,1.017,7.045A1.5,1.5,0,0,1-1.1,6.96a1.5,1.5,0,0,1,.086-2.12A23.072,23.072,0,0,1,6.958.2a31.178,31.178,0,0,1,10.35-1.7A31.178,31.178,0,0,1,27.658.2,23.073,23.073,0,0,1,35.633,4.84a1.5,1.5,0,0,1-1.017,2.6Z" transform="translate(0 2.418)" fill="#90bb39"/><path d="M0,12.039a1.5,1.5,0,0,1-1.42-1.018,1.5,1.5,0,0,1,.938-1.9l6.446-2.19L3.773.483a1.5,1.5,0,0,1,.938-1.9,1.5,1.5,0,0,1,1.9.938L9.286,7.383a1.5,1.5,0,0,1-.938,1.9L.483,11.959A1.5,1.5,0,0,1,0,12.039Z" transform="translate(28.799 0) rotate(8)" fill="#90bb39"/></g></g><g transform="translate(67.356 58.907) rotate(150)"><g transform="translate(0 0)"><path d="M34.615,7.443a1.5,1.5,0,0,1-1.017-.4C29.833,3.573,23.743,1.5,17.308,1.5S4.782,3.573,1.017,7.045A1.5,1.5,0,0,1-1.1,6.96a1.5,1.5,0,0,1,.086-2.12A23.072,23.072,0,0,1,6.958.2a31.178,31.178,0,0,1,10.35-1.7A31.177,31.177,0,0,1,27.658.2,23.073,23.073,0,0,1,35.633,4.84a1.5,1.5,0,0,1-1.017,2.6Z" transform="translate(0 2.418)" fill="#90bb39"/><path d="M0,12.039a1.5,1.5,0,0,1-1.42-1.018,1.5,1.5,0,0,1,.938-1.9l6.446-2.19L3.773.483a1.5,1.5,0,0,1,.938-1.9,1.5,1.5,0,0,1,1.9.938L9.286,7.383a1.5,1.5,0,0,1-.938,1.9L.483,11.959A1.5,1.5,0,0,1,0,12.039Z" transform="translate(28.799 0) rotate(8)" fill="#90bb39"/></g></g></g></svg>