<svg xmlns="http://www.w3.org/2000/svg" width="80.965" height="62.896" viewBox="0 0 80.965 62.896"><g transform="translate(-5067.912 -10139.142)"><g transform="translate(5142.174 10204.499) rotate(-135)"><path d="M0,14.46a1.5,1.5,0,0,1-1.061-.439,1.5,1.5,0,0,1,0-2.121L4.359,6.48l-5.42-5.42a1.5,1.5,0,0,1,0-2.121,1.5,1.5,0,0,1,2.121,0l6.48,6.48a1.5,1.5,0,0,1,0,2.121l-6.48,6.48A1.5,1.5,0,0,1,0,14.46Z" transform="translate(10.676 0)" fill="#90bb39"/><path d="M17.091,1.5H0A1.5,1.5,0,0,1-1.5,0,1.5,1.5,0,0,1,0-1.5H17.091a1.5,1.5,0,0,1,1.5,1.5A1.5,1.5,0,0,1,17.091,1.5Z" transform="translate(0 6.48)" fill="#90bb39"/></g><g transform="translate(5132.67 10145.845) rotate(135)"><path d="M0,14.46a1.5,1.5,0,0,1-1.061-.439,1.5,1.5,0,0,1,0-2.121L4.359,6.48l-5.42-5.42a1.5,1.5,0,0,1,0-2.121,1.5,1.5,0,0,1,2.121,0l6.48,6.48a1.5,1.5,0,0,1,0,2.121l-6.48,6.48A1.5,1.5,0,0,1,0,14.46Z" transform="translate(10.676 0)" fill="#90bb39"/><path d="M17.091,1.5H0A1.5,1.5,0,0,1-1.5,0,1.5,1.5,0,0,1,0-1.5H17.091a1.5,1.5,0,0,1,1.5,1.5A1.5,1.5,0,0,1,17.091,1.5Z" transform="translate(0 6.48)" fill="#90bb39"/></g><g transform="translate(5069.412 10174.003)"><path d="M771,467.389a1.5,1.5,0,0,1-1.061-2.561l5.419-5.419-5.419-5.42a1.5,1.5,0,0,1,2.121-2.121l6.48,6.48a1.5,1.5,0,0,1,0,2.121l-6.48,6.48A1.5,1.5,0,0,1,771,467.389Z" transform="translate(-760.324 -452.929)" fill="#90bb39"/><path d="M17.091,1.5H0A1.5,1.5,0,0,1-1.5,0,1.5,1.5,0,0,1,0-1.5H17.091a1.5,1.5,0,0,1,1.5,1.5A1.5,1.5,0,0,1,17.091,1.5Z" transform="translate(0 6.48)" fill="#90bb39"/></g><path d="M13.75,37.744h1.357v4.744H13.75Zm2.75,0h1.436v4.744H16.5ZM31.606,20.832l3.48,3.48h-3.48Zm.707-1.264h3.48v3.48ZM1.393,7.53h28.82V36.35H1.393V25.705H6.416v-7.53H1.393ZM12.317,0V6.137H0V19.568H5.023v4.744H0V37.744H12.357V43.88H19.33V37.744H31.606V25.705h5.58v-7.53h-5.58V6.137H19.29V0Z" transform="translate(5092.782 10157.976)" fill="#1a1818"/></g></svg>