<svg xmlns="http://www.w3.org/2000/svg" width="23.632" height="23.633" viewBox="0 0 23.632 23.633"><g transform="translate(-472.1 -904.562)"><path d="M489.217,904.562h-10.6a6.514,6.514,0,0,0-6.514,6.515v10.6a6.514,6.514,0,0,0,6.514,6.515h10.6a6.515,6.515,0,0,0,6.515-6.515v-10.6A6.515,6.515,0,0,0,489.217,904.562Zm4.6,17.091a4.632,4.632,0,0,1-4.632,4.632H478.641a4.632,4.632,0,0,1-4.632-4.632V911.1a4.632,4.632,0,0,1,4.632-4.632H489.19a4.632,4.632,0,0,1,4.632,4.632Z" fill="#84bd00"/><path d="M483.916,910.151a6.228,6.228,0,1,0,6.228,6.227A6.227,6.227,0,0,0,483.916,910.151Zm0,10.289a4.062,4.062,0,1,1,4.062-4.062A4.061,4.061,0,0,1,483.916,920.44Z" fill="#84bd00"/><path d="M491.752,909.943a1.4,1.4,0,1,1-1.4-1.4A1.4,1.4,0,0,1,491.752,909.943Z" fill="#84bd00"/></g></svg>