<svg xmlns="http://www.w3.org/2000/svg" width="68" height="68" viewBox="0 0 68 68"><g transform="translate(-573 -290)"><path d="M2,2V22H22V2H2M0,0H24V24H0Z" transform="translate(573 290)" fill="#e2dfd9"/><path d="M2,2V22H22V2H2M0,0H24V24H0Z" transform="translate(573 312)" fill="#e2dfd9"/><path d="M2,2V22H22V2H2M0,0H24V24H0Z" transform="translate(573 334)" fill="#e2dfd9"/><path d="M2,2V22H22V2H2M0,0H24V24H0Z" transform="translate(595 290)" fill="#e2dfd9"/><path d="M2,2V22H22V2H2M0,0H24V24H0Z" transform="translate(595 312)" fill="#e2dfd9"/><path d="M2,2V22H22V2H2M0,0H24V24H0Z" transform="translate(595 334)" fill="#e2dfd9"/><path d="M2,2V22H22V2H2M0,0H24V24H0Z" transform="translate(617 290)" fill="#e2dfd9"/><path d="M2,2V22H22V2H2M0,0H24V24H0Z" transform="translate(617 312)" fill="#e2dfd9"/><path d="M2,2V22H22V2H2M0,0H24V24H0Z" transform="translate(617 334)" fill="#e2dfd9"/></g></svg>