<svg xmlns="http://www.w3.org/2000/svg" width="141.991" height="54.909" viewBox="0 0 141.991 54.909"><g transform="translate(-335.213 -967.281)"><path d="M398.746,975.411h-4.541v-2.66h12.126v2.66h-4.524v13.309h-3.061Z" transform="translate(-3.338 -0.31)" fill="#fff"/><path d="M409.256,972.462h9.935v2.661h-6.87v3.865h6.334v2.659h-6.334v4.122h6.87v2.662h-9.935Zm3.381-2.659a35.978,35.978,0,0,0,3.243-2.134l1.142,1.775a23.907,23.907,0,0,1-3.309,1.989Z" transform="translate(-4.19 -0.022)" fill="#fff"/><path d="M422.369,977.12c0-2.926,1.729-4.628,5.761-4.628a18.8,18.8,0,0,1,4.412.53l-.342,2.617a23.777,23.777,0,0,0-3.968-.406c-2.114,0-2.8.719-2.8,2.414v6.144c0,1.7.682,2.422,2.8,2.422a25.019,25.019,0,0,0,3.968-.4l.342,2.611a18.7,18.7,0,0,1-4.412.53c-4.032,0-5.761-1.711-5.761-4.634Z" transform="translate(-4.932 -0.295)" fill="#fff"/><path d="M438.859,976.61v12.11h-3V972.75h4.1l6.154,12.132V972.75H449.1v15.97h-4.081Z" transform="translate(-5.696 -0.309)" fill="#fff"/><rect width="3.074" height="15.97" transform="translate(446.82 972.44)" fill="#fff"/><path d="M459.992,977.12c0-2.926,1.728-4.628,5.779-4.628a18.848,18.848,0,0,1,4.4.53l-.344,2.617a23.915,23.915,0,0,0-3.968-.406c-2.117,0-2.8.719-2.8,2.414v6.144c0,1.7.687,2.422,2.8,2.422a25.173,25.173,0,0,0,3.968-.4l.344,2.611a18.748,18.748,0,0,1-4.4.53c-4.051,0-5.779-1.711-5.779-4.634Z" transform="translate(-7.061 -0.295)" fill="#fff"/><path d="M484.985,984.038c0,2.651-1.559,4.914-6.138,4.914s-6.126-2.263-6.126-4.914v-6.63c0-2.659,1.552-4.916,6.126-4.916s6.138,2.258,6.138,4.916Zm-9.2-.172c0,1.509.776,2.421,3.062,2.421s3.072-.911,3.072-2.421v-6.291c0-1.508-.779-2.417-3.072-2.417s-3.062.91-3.062,2.417Z" transform="translate(-7.782 -0.295)" fill="#fff"/><path d="M400.371,1008.819h7.3v1.272H398.94V994.119h1.431Z" transform="translate(-3.606 -1.519)" fill="#fff"/><rect width="1.439" height="15.972" transform="translate(407.334 992.6)" fill="#fff"/><path d="M422,1010.323a14.015,14.015,0,0,1-4.581-.767l.272-1.147a15.859,15.859,0,0,0,4.359.639c2.774,0,3.525-.81,3.525-2.846,0-2.469-.023-2.738-3.63-3.56-3.925-.88-4.355-1.576-4.355-4.794,0-2.609.975-3.977,5.042-3.977a16.915,16.915,0,0,1,4.185.549l-.171,1.2a19.859,19.859,0,0,0-3.977-.475c-3.206,0-3.645.763-3.645,2.762,0,2.589.071,2.7,3.491,3.547,4.256,1.052,4.5,1.653,4.5,4.673,0,2.616-.9,4.2-5.014,4.2" transform="translate(-4.652 -1.505)" fill="#fff"/><path d="M431.694,1010.09V994.119h6.087c2.188,0,3.476,1.035,3.476,3.143v1.922a2.5,2.5,0,0,1-1.844,2.591,2.771,2.771,0,0,1,2.359,2.975v2.082c0,2.208-1.631,3.258-3.73,3.258Zm8.118-13.015c0-1.108-.626-1.707-2.011-1.707h-4.675v5.922h4.188c1.779,0,2.5-.91,2.5-2.174Zm.513,7.727c0-1.351-.8-2.264-2.67-2.264h-4.529v6.3h4.941c1.535,0,2.259-.737,2.259-2.01Z" transform="translate(-5.46 -1.519)" fill="#fff"/><path d="M451.247,1010.324c-4.167,0-5.674-2.022-5.674-4.75v-6.956c0-2.733,1.507-4.749,5.674-4.749s5.664,2.016,5.664,4.749v6.956c0,2.728-1.5,4.75-5.664,4.75m4.236-4.8v-6.855c0-2.279-1.121-3.526-4.236-3.526s-4.241,1.247-4.241,3.526v6.855c0,2.277,1.125,3.526,4.241,3.526s4.236-1.249,4.236-3.526" transform="translate(-6.245 -1.505)" fill="#fff"/><path d="M470.5,1005.9H462.95l-1.511,4.193h-1.411l5.65-15.971h2.114l5.642,15.971h-1.406Zm-7.106-1.22h6.667l-3.335-9.738Z" transform="translate(-7.063 -1.519)" fill="#fff"/><path d="M335.213,967.281v23.04c0,20.751,22.662,31.869,22.662,31.869s22.735-11.118,22.735-31.869v-23.04Zm12.437,14.485h4.081l0,17.053h-4.1Zm12.267-4.519v26.116c0,3.389-2.739,5.136-6.12,5.136s-6.158-1.48-6.158-4.355h.01a2.043,2.043,0,0,1,4.086,0c0,2.092.166,3.507,2.061,3.507,2.036,0,2.036-1.415,2.036-4.288V977.247c0-3.388,2.739-5.141,6.125-5.141s6.146,1.478,6.146,4.351a2.042,2.042,0,1,1-4.085,0c0-2.084-.164-3.5-2.061-3.5-2.041,0-2.041,1.426-2.041,4.292M370,984.618h-1.9v14.213h-4.085V984.618h-1.89v-2.852H370Z" fill="#fff" fill-rule="evenodd"/></g></svg>