<svg xmlns="http://www.w3.org/2000/svg" width="71.539" height="145.178" viewBox="0 0 71.539 145.178"><g transform="translate(108.155 -904.585)"><g transform="translate(-82.214 904.585)"><path d="M-52.079,934.3s-.555-20.75-38.8-27.34v80.814s37.89-5.865,38.8-53.92" transform="translate(94.28 -902.927)" fill="#fff"/><path d="M-92.883,993.392V904.585l3.973.685c38.553,6.641,41.4,27.463,41.608,30.306h.015c0,.068,0,.132,0,.2,0,.041,0,.07,0,.09h-.005c-1.107,50.062-41.269,56.858-41.676,56.921Zm6.794-80.662v72.351c9.167-2.913,31.13-13.59,32-49.155C-54.262,934.07-56.579,919.023-86.089,912.73Z" transform="translate(92.883 -904.585)"/></g><g transform="translate(-108.155 935.419)"><path d="M-41.41,923.239v-.447s-.785,29.323-64.745,29.323v81.532c63.96,0,64.745-29.323,64.745-29.323Z" transform="translate(109.552 -922.7)" fill="#fff"/><path d="M-104.758,1037.081h-3.4V948.755h3.4c59.96,0,61.341-25.755,61.348-26.017l6.794.092v81.532C-36.653,1005.785-38.255,1037.081-104.758,1037.081Zm3.4-81.561v74.738c56.617-.951,57.944-25.732,57.951-25.988V937.364C-51.021,945.823-67.158,954.953-101.361,955.521Z" transform="translate(108.155 -922.738)"/></g></g></svg>