<svg xmlns="http://www.w3.org/2000/svg" width="48.614" height="43.405" viewBox="0 0 48.614 43.405"><g transform="translate(144 -841)"><g transform="translate(-144 855.758)"><path d="M-120.8,874.439c-11.765,0-21.7-5.566-21.7-12.153V851h43.405v11.285C-99.095,868.872-109.033,874.439-120.8,874.439Z" transform="translate(145.104 -848.396)" fill="#fff"/><path d="M-100.595,854.709v8.681c0,4.507-8.167,9.549-19.1,9.549s-19.1-5.042-19.1-9.549v-8.681h38.2m5.209-5.209H-144v13.89c0,8.15,10.883,14.758,24.307,14.758s24.307-6.608,24.307-14.758V849.5Z" transform="translate(144 -849.5)"/></g><g transform="translate(-144 841)"><ellipse cx="21.703" cy="12.153" rx="21.703" ry="12.153" transform="translate(2.604 2.604)" fill="#fff"/><path d="M-119.693,846.209c10.931,0,19.1,5.042,19.1,9.549s-8.167,9.549-19.1,9.549-19.1-5.042-19.1-9.549,8.167-9.549,19.1-9.549m0-5.209C-133.117,841-144,847.608-144,855.758s10.883,14.758,24.307,14.758,24.307-6.608,24.307-14.758S-106.269,841-119.693,841Z" transform="translate(144 -841)"/></g></g></svg>