<svg xmlns="http://www.w3.org/2000/svg" width="20.236" height="19.961" viewBox="0 0 20.236 19.961"><g transform="translate(-531.316 -905.448)"><path d="M551.552,917.83v7.579h-4.394v-7.07c0-1.776-.635-2.988-2.226-2.988a2.4,2.4,0,0,0-2.253,1.606,3,3,0,0,0-.146,1.071v7.381h-4.394s.059-11.975,0-13.215h4.394v1.872c-.009.015-.021.029-.029.044h.029v-.044a4.365,4.365,0,0,1,3.96-2.183c2.891,0,5.059,1.889,5.059,5.947Zm-20.236,7.579h4.393V912.194h-4.393Zm0,0,4.524-17.7a2.262,2.262,0,1,1-2.262-2.261A2.261,2.261,0,0,1,535.84,907.709Z" fill="#84bd00"/></g></svg>