<svg xmlns="http://www.w3.org/2000/svg" width="178.384" height="271.495" viewBox="0 0 178.384 271.495"><g transform="translate(5.745 6.78)"><path d="M1.1,886.231V747.8H-.012V713.2l-31.013-61.026V635.437s0-8.692-12.713-8.692H-125.3s-9.59.316-9.786,12.871v15.207l-30.711,55.832V884.57Z" transform="translate(165.792 -626.745)" fill="#fff"/></g><g transform="translate(0 0)"><path d="M-165.6,895.576a2.453,2.453,0,0,1-2.451-2.454V715.815a2.449,2.449,0,0,1,.26-1.1l29.84-59.677V639.434a15.37,15.37,0,0,1,15.35-15.353h87.486a15.37,15.37,0,0,1,15.35,15.353v15.607l29.837,59.677a2.454,2.454,0,0,1,.26,1.112L9.189,893.137a2.454,2.454,0,0,1-2.451,2.438Zm162.43-13.5V723.581H-94.35v158.49Zm-104.684,0V723.581h-46.694v158.49ZM-7.339,710.079l-23.347-46.694h-89.589l23.35,46.694Zm-104.684,0L-131.2,671.727l-19.178,38.351Zm78.759-60.2V639.434a1.849,1.849,0,0,0-1.848-1.848H-122.6a1.849,1.849,0,0,0-1.848,1.848v10.445Z" transform="translate(168.049 -624.081)"/></g></svg>