<svg xmlns="http://www.w3.org/2000/svg" xmlns:xlink="http://www.w3.org/1999/xlink" width="193.395" height="191.839" viewBox="0 0 193.395 191.839"><defs><linearGradient id="a" y1="0.5" x2="1" y2="0.5" gradientUnits="objectBoundingBox"><stop offset="0.243" stop-color="#c7c9d3"/><stop offset="0.38" stop-color="#c7c9d3"/><stop offset="0.435" stop-color="#c9cbd4"/><stop offset="0.466" stop-color="#d1d1db"/><stop offset="0.472" stop-color="#d4d4dd"/><stop offset="0.732" stop-color="#d4d4dd"/><stop offset="0.889" stop-color="#d4d4dd"/></linearGradient></defs><g transform="translate(-860.302 -467)"><circle cx="76.698" cy="76.698" r="76.698" transform="translate(900.302 467)" fill="#84bd00"/><circle cx="48.349" cy="48.349" r="48.349" transform="translate(860.302 518.512)" fill="#84bd00"/><g transform="translate(-2450.986 317.12)"><g transform="translate(3422.447 187.355)"><path d="M3407,203.528c-9.883-5.7-25.854-5.733-35.676-.065s-9.769,14.891.114,20.6,25.854,5.733,35.676.064S3416.886,209.233,3407,203.528Z" transform="translate(-3363.995 -126.8)" fill="#e3e5ef" style="mix-blend-mode:multiply;isolation:isolate"/><path d="M3408.06,211.727h0c.028,2.958-1.759,5.9-5.393,8.24-.255.162-.511.309-.784.475a25.416,25.416,0,0,1-6.854,2.643c-7.712,1.841-16.937.928-23.225-2.7-.312-.181-.6-.364-.895-.547-3.554-2.313-5.341-5.212-5.377-8.111v-.072c0-2.881,1.751-5.761,5.232-8.059.291-.2.619-.4.946-.583,6.29-3.629,15.569-4.485,23.317-2.571a24.962,24.962,0,0,1,6.762,2.625c.313.183.6.348.877.529,3.389,2.208,5.176,4.923,5.4,7.657Z" transform="translate(-3361.573 -126.454)" fill="#8f4728"/><path d="M3401.885,206.55c-8.278,4.779-21.745,4.756-30.079-.054s-8.373-12.586-.092-17.367,21.745-4.756,30.079.054S3410.166,201.768,3401.885,206.55Z" transform="translate(-3361.573 -148.387)" fill="#8f4728"/><rect width="42.53" height="35.821" transform="translate(3.957 49.451)" fill="#8f4728"/><path d="M3399.683,203.047c-7.728-4.462-20.217-4.485-27.895-.049s-7.642,11.644.088,16.106,20.216,4.482,27.894.049S3407.413,207.509,3399.683,203.047Z" transform="translate(-3360.745 -126.081)" fill="#ba6038"/><path d="M3407.678,208.728l-18.979,1-17.756.949-5.413.291c0-14.218,13.49-16.005,13.49-33.726h7.784Z" transform="translate(-3361.573 -161.518)" fill="#8f4728"/><path d="M3368.332,208.722l13.119-31.477h8.815c0,17.723,13.48,19.495,13.48,33.72Z" transform="translate(-3357.146 -161.515)" fill="#8f4728"/><path d="M3384.125,176.825a12.257,12.257,0,0,0-11.09-.021c-3.051,1.764-3.035,4.629.036,6.4a12.259,12.259,0,0,0,11.087.021C3387.212,181.465,3387.2,178.6,3384.125,176.825Z" transform="translate(-3353.319 -164.288)" fill="#8f4728"/><path d="M3386.437,175.476v6.545H3370.76v-7.8Z" transform="translate(-3353.313 -166.295)" fill="#8f4728"/><path d="M3394.7,175.477V178.1c-.4,1.256-1.423,2.5-3.884,2.914A15.755,15.755,0,0,1,3380.787,180c0,.637-.018,1.313-.036,2.022-.108,5.743-.6,12.89-2.935,16.735-2.626,4.32-6.27,10.811-6.834,16.17a3.671,3.671,0,0,0-.039.529,1.526,1.526,0,0,0-.018.291c-.237,4.01-.22,16.353-.163,27.691.036,2.827.055,5.578.072,8.132.036,3.1.054,5.87.072,8.111-3.554-2.313-5.341-5.212-5.377-8.111V215.745c0-14.218,13.49-16.005,13.49-33.726v-7.8Z" transform="translate(-3361.573 -166.295)" fill="#e3e5ef" style="mix-blend-mode:multiply;isolation:isolate"/><path d="M3384.125,174.287a12.257,12.257,0,0,0-11.09-.021c-3.051,1.764-3.035,4.629.036,6.4a12.251,12.251,0,0,0,11.087.018C3387.212,178.927,3387.2,176.061,3384.125,174.287Z" transform="translate(-3353.319 -168.295)" fill="#d3d6e6"/><path d="M3387.5,173.422l-4.678-.067a14.177,14.177,0,0,0-7.371-.111l-4.934-.072-.013,4.506v.021h0c.016,1.251.849,2.5,2.507,3.461a13.28,13.28,0,0,0,12.018.021c1.664-.959,2.483-2.221,2.469-3.482h0Z" transform="translate(-3353.721 -168.517)" fill="#f80"/><path d="M3384.993,172.593a13.288,13.288,0,0,0-12.021-.021c-3.309,1.911-3.29,5.016.039,6.94a13.28,13.28,0,0,0,12.018.021C3388.338,177.622,3388.321,174.517,3384.993,172.593Z" transform="translate(-3353.722 -171.146)" fill="#ffb800"/><path d="M3375.577,177.245s-.761,12.5,1.292,20.983c1.383,5.712,3.663,14.215,8.416,12.15,2.9-1.259-1.935-8.23-3.418-10.208C3380.274,198.042,3377.174,192.131,3375.577,177.245Z" transform="translate(-3345.924 -161.515)" fill="#1f0d06" style="mix-blend-mode:screen;isolation:isolate"/><path d="M3384.605,194.123v34.254c-.255.162-.511.309-.784.475a25.416,25.416,0,0,1-6.854,2.643V198.99Z" transform="translate(-3343.514 -134.865)" fill="#1f0d06" style="mix-blend-mode:screen;isolation:isolate"/></g><g transform="translate(3344.826 160.88)"><ellipse cx="14.262" cy="24.703" rx="14.262" ry="24.703" transform="translate(0 155.163) rotate(-89.689)" fill="#e3e5ef" style="mix-blend-mode:multiply;isolation:isolate"/><ellipse cx="13.07" cy="22.639" rx="13.07" ry="22.639" transform="translate(2.023 147.066) rotate(-89.689)" fill="#ad5a38"/><path d="M3373.273,230.159c-8.815,5.088-22.7,3.716-31.566-1.406s-9.365-12.049-.553-17.138,23.149-5.063,32.019.057S3382.086,225.071,3373.273,230.159Z" transform="translate(-3332.482 -86.767)" fill="#c47251"/><path d="M3348.886,215.542c-4.877-.01-8.82,2.267-8.8,5.083s3.982,7.763,8.859,7.771,8.82-4.923,8.807-7.74S3353.766,215.55,3348.886,215.542Z" transform="translate(-3324.134 -74.569)" fill="#c47251"/><path d="M3354.221,212.688c-4.877-.008-8.82,2.267-8.8,5.083s5.5,6.974,10.381,6.984a7.191,7.191,0,0,0,7.286-6.95C3363.067,214.989,3359.1,212.7,3354.221,212.688Z" transform="translate(-3315.71 -79.076)" fill="#c47251"/><path d="M3343.653,211.958c4.88-.01,8.82,2.267,8.8,5.083s-5.5,6.974-10.378,6.981a7.187,7.187,0,0,1-7.286-6.95C3334.811,214.256,3338.776,211.966,3343.653,211.958Z" transform="translate(-3332.482 -80.228)" fill="#c47251"/><path d="M3344.7,211.83c-5.534-.01-10.007,2.574-9.988,5.769s4.519,5.792,10.053,5.8,10.007-2.571,9.989-5.767S3350.232,211.84,3344.7,211.83Z" transform="translate(-3332.616 -80.431)" fill="#c47251"/><rect width="45.278" height="63.405" transform="translate(2.093 70.714)" fill="#c47251"/><ellipse cx="13.071" cy="22.64" rx="13.071" ry="22.64" transform="translate(2.021 83.662) rotate(-89.689)" fill="#c77254"/><path d="M3370.483,183.972c-8.029-4.634-21.007-4.658-28.986-.052s-7.938,12.1.093,16.735,21,4.658,28.983.052S3378.511,188.609,3370.483,183.972Z" transform="translate(-3331.304 -129.93)" fill="#b96845"/><g transform="translate(2.093)"><path d="M3373.8,180.307c-8.982-5.772-23.5-5.8-32.426-.064s-8.879,16.346.1,22.115,23.8,6.344,32.429.067C3381.255,197.073,3382.782,186.079,3373.8,180.307Z" transform="translate(-3334.709 -137.071)" fill="#c47251"/><path d="M3379.989,209.024c0-32.137-17.612-30.205-17.612-44.2h-10.059c0,14-17.609,13.388-17.609,44.658l22.639,1.117Z" transform="translate(-3334.709 -154.659)" fill="#c47251"/><path d="M3362.579,176.441c-5.671-3.275-14.84-3.291-20.475-.039s-5.609,8.549.064,11.822,14.837,3.291,20.475.039S3368.251,179.716,3362.579,176.441Z" transform="translate(-3329.679 -140.206)" fill="#c47251"/><path d="M3350.06,163.806a7.775,7.775,0,0,0-7.032-.013c-1.937,1.119-1.927,2.938.022,4.062a7.778,7.778,0,0,0,7.033.013C3352.017,166.748,3352.007,164.93,3350.06,163.806Z" transform="translate(-3323.86 -157.598)" fill="#d3d6e6"/><path d="M3351.606,164.2a9.606,9.606,0,0,0-8.693-.018c-2.395,1.382-2.381,3.629.028,5.021a9.614,9.614,0,0,0,8.693.015C3354.025,167.839,3354.014,165.593,3351.606,164.2Z" transform="translate(-3324.578 -157.289)" fill="#f80"/><rect width="12.293" height="5.865" transform="translate(16.548 3.549)" fill="#f80"/><path d="M3351.606,161.927a9.614,9.614,0,0,0-8.693-.015c-2.395,1.382-2.381,3.629.028,5.021a9.614,9.614,0,0,0,8.693.015C3354.025,165.566,3354.014,163.319,3351.606,161.927Z" transform="translate(-3324.578 -160.88)" fill="#ffb800"/></g><path d="M3352.555,213.961c.01,1.795-2.5,3.247-5.617,3.242s-5.643-1.467-5.653-3.262,2.507-3.25,5.617-3.244S3352.547,212.163,3352.555,213.961Z" transform="translate(-3322.234 -82.221)" fill="#b2603d"/><path d="M3352.789,219.911c-3.112-.005-5.646-1.467-5.653-3.262s2.5-3.25,5.617-3.244,5.643,1.467,5.652,3.262S3355.9,219.916,3352.789,219.911Z" transform="translate(-3312.996 -77.945)" fill="#b2603d"/><path d="M3341.321,219.935c-.011-1.8,2.5-3.25,5.617-3.244s5.643,1.467,5.652,3.265-2.506,3.25-5.617,3.242S3341.329,221.73,3341.321,219.935Z" transform="translate(-3322.176 -72.755)" fill="#b2603d"/><path d="M3341.668,216.149c-.008-1.511,2.107-2.734,4.725-2.729s4.746,1.233,4.754,2.744-2.107,2.734-4.726,2.729S3341.679,217.657,3341.668,216.149Z" transform="translate(-3321.628 -77.92)" fill="#b2603d"/><path d="M3341.087,213.219c3.112.005,5.645,1.467,5.653,3.265s-2.5,3.25-5.617,3.244-5.643-1.467-5.653-3.265S3337.974,213.214,3341.087,213.219Z" transform="translate(-3331.415 -78.237)" fill="#b2603d"/><path d="M3356.389,183.065a45.839,45.839,0,0,0-5.648-7.827c-2.339-2.79-4.7-5.473-5.137-7.146s-.8,3.391-.8,6.12,2.218,7.286,3.572,11.951c1.823,6.3,1.514,31.348,6.994,28.057C3361.413,210.591,3359.52,188.537,3356.389,183.065Z" transform="translate(-3316.681 -150.018)" fill="#1f0d06" style="mix-blend-mode:screen;isolation:isolate"/><path d="M3348.006,190.769s3.605,4.578,3.389,8.454,0,53.45,0,53.45.5,7.575-2.065,8.281c4.577-.887,7.824-.343,7.345-7.484s0-56.831,0-59.062-1.888-5.751-2.826-5.87S3351.676,191.826,3348.006,190.769Z" transform="translate(-3311.62 -117.214)" fill="#1f0d06" style="mix-blend-mode:screen;isolation:isolate"/></g><g transform="translate(3383.885 167.994)"><path d="M3399.181,220.354c.037,3.43-2.014,6.845-6.161,9.573-.355.24-.732.48-1.124.7a27.933,27.933,0,0,1-4.608,2.1c-9.012,3.172-20.787,2.747-29.148-1.264-.58-.291-1.16-.58-1.707-.905-4.9-2.832-7.355-6.52-7.389-10.205v-.085c0-3.685,2.421-7.373,7.285-10.19.581-.34,1.179-.647,1.811-.954,8.346-3.943,20.122-4.3,29.148-1.042a27.893,27.893,0,0,1,4.5,2.066c.426.255.836.5,1.228.769C3397.1,213.631,3399.148,216.991,3399.181,220.354Z" transform="translate(-3349.043 -96.943)" fill="#6cab3c"/><path d="M3399.181,206.492v.085c0,3.685-2.422,7.373-7.285,10.19-9.218,5.305-23.877,5.578-33.757.836-.58-.291-1.16-.58-1.707-.905-4.9-2.832-7.355-6.52-7.389-10.205a7.591,7.591,0,0,1,.067-1.094c.392-3.36,2.8-6.638,7.218-9.181.564-.322,1.146-.632,1.741-.9a27.06,27.06,0,0,1,2.51-1.06c.033-.015.051-.015.085-.034a41.311,41.311,0,0,1,26.981.119,28.172,28.172,0,0,1,4.146,1.947,15.863,15.863,0,0,1,6.11,5.733A9.132,9.132,0,0,1,3399.181,206.492Z" transform="translate(-3349.043 -118.833)" fill="#6cab3c"/><rect width="50.14" height="35.753" transform="translate(0 87.659)" fill="#6cab3c"/><path d="M3389.417,210.12c-9.108-5.259-23.832-5.287-32.887-.059s-9.007,13.728.1,18.989,23.836,5.284,32.888.057S3398.529,215.381,3389.417,210.12Z" transform="translate(-3347.894 -96.501)" fill="#59992b"/><path d="M3398.7,239.687l-21.914.5-18.175.392-9.5.222h-.067c0-16.126,17.476-38.891,17.476-71.2h7.61l23.773,67.82Z" transform="translate(-3349.043 -154.23)" fill="#6cab3c"/><path d="M3351.779,238.592,3368.9,169.6h8.617c0,34.29,17.349,53.708,17.349,72.284Z" transform="translate(-3344.722 -154.227)" fill="#6cab3c"/><path d="M3379.909,190.1c-6.283-3.629-16.436-3.647-22.678-.041s-6.21,9.465.07,13.094,16.436,3.644,22.68.041S3386.191,193.724,3379.909,190.1Z" transform="translate(-3343.474 -126.176)" fill="#6cab3c"/><path d="M3371.144,167.868v6.4h-15.325v-7.629l1.588.12Z" transform="translate(-3338.343 -158.901)" fill="#6cab3c"/><path d="M3368.806,174.268c.118,7.288-.99,16.008-1.826,25.189-.173,1.859-.324,3.737-.461,5.615a101.408,101.408,0,0,1-2.987,17.341c-.972,3.959-2.032,7.832-2.935,11.809a.2.2,0,0,0-.018.1c-.7,2.971-1.3,5.991-1.741,9.148-.085.58-.152,1.179-.223,1.774-.051.428-.1.872-.136,1.315a68.112,68.112,0,0,0-.341,6.842v40.021c-.58-.291-1.16-.58-1.707-.905-4.9-2.832-7.355-6.52-7.389-10.205V246.56a7.591,7.591,0,0,1,.067-1.094h-.067c0-16.126,17.476-38.891,17.476-71.2v-7.629l1.586.119A40.9,40.9,0,0,1,3368.806,174.268Z" transform="translate(-3349.043 -158.901)" fill="#e3e5ef" style="mix-blend-mode:multiply;isolation:isolate"/><path d="M3368.883,166.708a11.982,11.982,0,0,0-10.84-.018c-2.981,1.723-2.969,4.524.033,6.257a11.99,11.99,0,0,0,10.84.021C3371.9,171.244,3371.884,168.441,3368.883,166.708Z" transform="translate(-3338.349 -160.852)" fill="#d3d6e6"/><path d="M3372.178,170.043h0l-.1-4.181h-4.258a13.726,13.726,0,0,0-8,0h-4.261v4.181h0c.013,1.222.828,2.445,2.45,3.379a12.978,12.978,0,0,0,11.747.023C3371.391,172.506,3372.19,171.276,3372.178,170.043Z" transform="translate(-3338.743 -161.067)" fill="#f80"/><path d="M3369.73,165.053a12.992,12.992,0,0,0-11.75-.021c-3.233,1.867-3.216,4.9.039,6.783a12.978,12.978,0,0,0,11.747.021C3373,169.969,3372.985,166.933,3369.73,165.053Z" transform="translate(-3338.743 -163.639)" fill="#ffb800"/><path d="M3373.718,237.266s-4.124-.539-7.822-9.114c-2.131-4.944-1.562-8.4-3.129-18.424s-2.132-39.742-2.132-39.742,2.132,26.541,5.547,39.3,5.974,16.1,7.536,19.938S3374.821,236.353,3373.718,237.266Z" transform="translate(-3330.741 -153.617)" fill="#0c1709" style="mix-blend-mode:screen;isolation:isolate"/><path d="M3369.6,199.653v40.1c-.355.24-.732.48-1.124.7a27.933,27.933,0,0,1-4.608,2.1V204.244Z" transform="translate(-3325.628 -106.772)" fill="#0c1709" style="mix-blend-mode:screen;isolation:isolate"/></g><g transform="translate(3326.977 253.342)"><path d="M3365.972,226.018c.017,2.888-1.869,5.792-5.673,7.982-7.59,4.382-19.936,4.364-27.562-.052a.7.7,0,0,1-.187-.119c-3.684-2.174-5.535-4.993-5.571-7.812v-.085c0-2.767,1.768-5.535,5.318-7.693.1-.067.219-.134.338-.2,7.593-4.382,19.938-4.364,27.58.052C3364.018,220.28,3365.937,223.148,3365.972,226.018Z" transform="translate(-3326.974 -168.261)" fill="#e3e5ef"/><path d="M3360.3,220.923c-7.587,4.382-19.931,4.361-27.566-.049s-7.678-11.536-.088-15.918,19.933-4.359,27.569.052S3367.889,216.542,3360.3,220.923Z" transform="translate(-3326.977 -188.91)" fill="#e3e5ef"/><path d="M3365.972,216.812c0,7.471-22.96,9.22-33.643,5.212-3.244-1.2-5.352-2.937-5.352-5.212,0-1.292.5-8.17,5.692-12.926,2.886-2.649,7.25-4.653,13.806-4.653C3364.766,199.234,3365.972,214.587,3365.972,216.812Z" transform="translate(-3326.974 -192.781)" fill="#e3e5ef"/><path d="M3353.843,201.731c-5.744-3.317-15.022-3.332-20.73-.039s-5.676,8.653.064,11.969,15.025,3.332,20.729.036S3359.586,205.044,3353.843,201.731Z" transform="translate(-3324.016 -192.784)" fill="#e3e5ef"/><path d="M3352.772,201.127c-5.424-3.131-14.189-3.146-19.58-.036s-5.362,8.173.062,11.306,14.189,3.146,19.58.034S3358.2,204.258,3352.772,201.127Z" transform="translate(-3323.517 -193.516)" fill="#c3c7dd"/><rect width="38.992" height="33.727" transform="translate(0.005 24.03)" fill="#e3e5ef"/><path d="M3358.349,217.844c-7.082-4.09-18.53-4.111-25.568-.046s-7,10.672.08,14.762,18.53,4.108,25.568.046S3365.431,221.931,3358.349,217.844Z" transform="translate(-3326.11 -168.262)" fill="#c3c7dd"/><path d="M3339.242,203.179a14.328,14.328,0,0,0-6.623,10.5c-.019.085-.019.186-.033.289-.121,1.171-.2,2.987-.256,5.212-.137,5.434-.1,13.382-.033,20.735.033,2.736.066,5.367.1,7.778.052,3.108.1,5.826.152,7.812-3.684-2.174-5.535-4.993-5.571-7.812V213.964c0-1.292.5-8.17,5.692-12.926Z" transform="translate(-3326.974 -189.932)" fill="#e3e5ef" style="mix-blend-mode:multiply;isolation:isolate"/><path d="M3358.162,205.958v-2.037l-.466,0a8.858,8.858,0,0,0-3.858-3.93c-5.741-3.314-15.022-3.332-20.73-.036a8.564,8.564,0,0,0-3.863,4.031h-.387V205.8q0,.124,0,.248v.162h.013c.129,2.071,1.556,4.126,4.3,5.712,5.744,3.317,15.025,3.332,20.729.039,2.866-1.656,4.284-3.83,4.259-6Z" transform="translate(-3324.01 -195.525)" fill="#f80"/><path d="M3353.843,199.229c-5.744-3.314-15.022-3.332-20.73-.036s-5.676,8.653.064,11.967,15.025,3.332,20.729.039S3359.586,202.545,3353.843,199.229Z" transform="translate(-3324.016 -196.732)" fill="#ffb800"/></g><g transform="translate(3413.418 258.954)"><path d="M3401.411,267.3l-40.917-23.623V208.011l81.578.147v35.667Z" transform="translate(-3360.494 -184.535)" fill="#9c6d47"/><path d="M3401.411,246.007l-40.917-23.623,40.661-23.476,40.917,23.623Z" transform="translate(-3360.494 -198.908)" fill="#fedf9e"/><path d="M3421.294,210.3l-32.915,4.64-1.021.614-6.725,18.223-6.98-27.12Z" transform="translate(-3339.717 -186.676)" fill="#d1a375"/><path d="M3408.135,214.033l-13.037-7.527-34.6,3.883,40.917,23.623Z" transform="translate(-3360.494 -186.912)" fill="#ffe5b0"/><path d="M3387.666,215.175l-14.451-8.468,1.8-.2,13.037,7.527Z" transform="translate(-3340.409 -186.912)" fill="#d1a375"/><path d="M3401.411,231.634V267.3l-40.917-23.623V208.011Z" transform="translate(-3360.494 -184.535)" fill="#a87f5e"/><path d="M3373.653,218.887l13.037,7.527,34.6-3.883-40.917-23.623Z" transform="translate(-3339.717 -198.908)" fill="#ffe5b0"/><path d="M3400.386,198.908l-6.961,19.33-32.444,4,32.789-3.679Z" transform="translate(-3359.725 -198.908)" fill="#d1a375"/><path d="M3376.359,266.283V231.544l40.661-23.476v34.739Z" transform="translate(-3335.443 -184.445)" fill="#d6ac78"/><path d="M3376.359,232.057v-.513l40.661-23.476v.513Z" transform="translate(-3335.443 -184.445)" fill="#fedf9e"/></g><g transform="translate(3361.85 255.332)"><path d="M3372.76,237.73c7.068-4.083,7.032-10.718-.08-14.827s-18.61-4.126-25.68-.044-7.033,10.718.08,14.824S3365.689,241.81,3372.76,237.73Z" transform="translate(-3338.568 -162.281)" fill="#d7d6d6"/><path d="M3374.413,238.026c7.557-4.361,7.518-11.456-.086-15.845s-19.892-4.413-27.447-.052-7.519,11.458.085,15.848S3366.856,242.39,3374.413,238.026Z" transform="translate(-3339.334 -163.763)" fill="#ab3030"/><ellipse cx="12.266" cy="21.246" rx="12.266" ry="21.246" transform="translate(0 75.22) rotate(-89.689)" fill="#e04141"/><rect width="42.49" height="44.942" transform="translate(0.067 18.128)" fill="#e04141"/><path d="M3376.838,220.743c8.271-4.774,8.229-12.542-.092-17.346s-21.775-4.83-30.046-.054-8.229,12.542.093,17.346S3368.568,225.519,3376.838,220.743Z" transform="translate(-3340.458 -193.915)" fill="#f55151"/><path d="M3374.413,218.033c7.557-4.361,7.518-11.456-.086-15.845s-19.892-4.413-27.447-.049-7.519,11.456.085,15.845S3366.856,222.4,3374.413,218.033Z" transform="translate(-3339.334 -195.329)" fill="#f66"/><path d="M3372.76,216.039c7.068-4.08,7.032-10.718-.08-14.824s-18.61-4.129-25.68-.046-7.033,10.718.08,14.824S3365.689,220.121,3372.76,216.039Z" transform="translate(-3338.568 -196.531)" fill="url(#a)"/><path d="M3372.76,215.423c7.068-4.083,7.032-10.718-.08-14.827s-18.61-4.126-25.68-.046-7.033,10.718.08,14.827S3365.689,219.5,3372.76,215.423Z" transform="translate(-3338.568 -197.504)" fill="#f1f1f6"/><path d="M3374,212.118a12.141,12.141,0,0,1-2.952,2.3c-6.574,3.791-17.249,3.768-23.843-.041a13.093,13.093,0,0,1-2.953-2.282c-3.433-3.683-2.491-8.371,2.868-11.471,6.574-3.789,17.251-3.768,23.845.041C3376.34,203.788,3377.364,208.456,3374,212.118Z" transform="translate(-3337.768 -197.04)" fill="#d4d4dd"/><path d="M3374.6,207.585a5.5,5.5,0,0,1-1.109,3.224,12.141,12.141,0,0,1-2.952,2.3c-6.574,3.791-17.249,3.768-23.843-.041a13.093,13.093,0,0,1-2.953-2.282,5.45,5.45,0,0,1-1.191-3.327c0-2.262,1.612-4.438,4.479-6.112a23.181,23.181,0,0,1,11.431-2.723,23.488,23.488,0,0,1,11.574,2.765C3372.966,203.085,3374.6,205.282,3374.6,207.585Z" transform="translate(-3337.261 -195.732)" fill="#ececf5"/><path d="M3353.905,254.142V211.217s4.186-1.682,5.4-4.057V250.1A14.872,14.872,0,0,1,3353.905,254.142Z" transform="translate(-3319.33 -182.256)" fill="#731010" style="mix-blend-mode:screen;isolation:isolate"/><g transform="translate(18.363 3.334)"><path d="M3351.842,208.061a20.237,20.237,0,0,0,11.283-.036c1.314-.348,2.1-1.168,1.848-1.994a8.677,8.677,0,0,0-4.271-4.743,20.754,20.754,0,0,0-8.216-2.466,4.1,4.1,0,0,0-3.451,1.068c-1.862,2.344-1.893,4.761-.062,6.515a7.34,7.34,0,0,0,1.273.921A10.373,10.373,0,0,0,3351.842,208.061Z" transform="translate(-3347.619 -198.797)" fill="#f1f1f6"/><path d="M3351.707,207.473a18.1,18.1,0,0,0,10.087-.034c1.176-.309,1.874-1.044,1.653-1.779a7.766,7.766,0,0,0-3.817-4.24,18.556,18.556,0,0,0-7.345-2.205,3.673,3.673,0,0,0-3.085.954c-1.663,2.1-1.691,4.255-.054,5.823a6.32,6.32,0,0,0,1.137.823A9.41,9.41,0,0,0,3351.707,207.473Z" transform="translate(-3347.119 -198.172)" fill="#ececf5"/><path d="M3353.343,204.522l-3.141-1.813c-1.13-.65-.985-1.8.316-2.551h0a4.936,4.936,0,0,1,4.418-.183l3.142,1.813c1.127.652.984,1.8-.317,2.551h0A4.92,4.92,0,0,1,3353.343,204.522Z" transform="translate(-3344.744 -197.628)" fill="#555252"/><g transform="translate(1.358 1.882)"><path d="M3360.4,201.712l-2.674-1.553a3.21,3.21,0,0,0-3,.157l-5.877,3.832c-.57.371-.784.825-.669,1.256a.04.04,0,0,0,0,.059,1.294,1.294,0,0,0,.609.668l1.259.727a3.957,3.957,0,0,0,3.458-.018l6.623-3.4a1.348,1.348,0,0,0,.748-.725A.807.807,0,0,0,3360.4,201.712Zm-5.737,1.179a.947.947,0,0,1-.374-.374.718.718,0,0,1,.313-.333l.689-.451a2.327,2.327,0,0,1,2.161-.021l1.081.629a1.006,1.006,0,0,1,.392.353.981.981,0,0,1-.434.413l-.766.392a2.328,2.328,0,0,1-2.043-.018Zm-3.186,1.553a1.151,1.151,0,0,1,.412-.392,2.284,2.284,0,0,1,1.1-.276,1.7,1.7,0,0,1,.864.2l.766.433a.6.6,0,0,1,.276.273,1.135,1.135,0,0,1-.413.395,2.378,2.378,0,0,1-1.119.276,1.668,1.668,0,0,1-.846-.2l-.767-.431A.638.638,0,0,1,3351.478,204.443Z" transform="translate(-3348.144 -199.002)" fill="#d7d6d6" style="mix-blend-mode:multiply;isolation:isolate"/><path d="M3360.875,202.087a.941.941,0,0,0-.473-.531L3357.728,200a2.02,2.02,0,0,0-.294-.137h-.021a3.42,3.42,0,0,0-2.082.021,2.037,2.037,0,0,0-.608.273l-5.877,3.832a1.636,1.636,0,0,0-.669.787.04.04,0,0,0,0,.059,1.031,1.031,0,0,0,.609,1.158l1.259.727a4.023,4.023,0,0,0,3.458-.039l6.623-3.4C3360.774,202.972,3361.029,202.5,3360.875,202.087Zm-6.389,2.357a2.347,2.347,0,0,1-1.119.276,1.694,1.694,0,0,1-.846-.2l-.767-.433a.625.625,0,0,1-.275-.276,1.174,1.174,0,0,1,.412-.392,2.284,2.284,0,0,1,1.1-.276,1.7,1.7,0,0,1,.864.2l.766.433a.615.615,0,0,1,.276.276A1.152,1.152,0,0,1,3354.486,204.444Zm4.05-2.731a1,1,0,0,1,.392.353.981.981,0,0,1-.434.413l-.766.395a2.327,2.327,0,0,1-2.043-.021l-1.021-.588a.963.963,0,0,1-.374-.374.711.711,0,0,1,.313-.335l.689-.451a2.334,2.334,0,0,1,2.161-.021Z" transform="translate(-3348.145 -199.23)" fill="#d4d4dd"/><path d="M3360.4,201.38l-2.674-1.553a3.21,3.21,0,0,0-3,.157l-5.877,3.832c-.57.374-.784.825-.669,1.259a.04.04,0,0,0,0,.059,1.313,1.313,0,0,0,.609.668l1.259.727a3.958,3.958,0,0,0,3.458-.021l6.623-3.4a1.351,1.351,0,0,0,.748-.727A.807.807,0,0,0,3360.4,201.38Zm-5.737,1.181a.963.963,0,0,1-.374-.374.711.711,0,0,1,.313-.335l.689-.451a2.334,2.334,0,0,1,2.161-.021l1.081.629a1,1,0,0,1,.392.353.981.981,0,0,1-.434.413l-.766.395a2.327,2.327,0,0,1-2.043-.021Zm-3.186,1.55a1.174,1.174,0,0,1,.412-.392,2.284,2.284,0,0,1,1.1-.276,1.7,1.7,0,0,1,.864.2l.766.433a.615.615,0,0,1,.276.276,1.152,1.152,0,0,1-.413.392,2.347,2.347,0,0,1-1.119.276,1.694,1.694,0,0,1-.846-.2l-.767-.433A.625.625,0,0,1,3351.478,204.111Z" transform="translate(-3348.144 -199.526)" fill="#f1f1f6"/><path d="M3358.752,201.467l-2.594-1.511h-.021l-.2-.119a1.617,1.617,0,0,0-.9-.175,1.945,1.945,0,0,0-.924.273l-.06.041-4.618,3.123c-.627.413-.648,1.021-.039,1.375l1.336.769a2.8,2.8,0,0,0,2.378-.021l5.463-2.713a.759.759,0,0,0,.471-.529A.484.484,0,0,0,3358.752,201.467Zm-5.542,3.066a2.347,2.347,0,0,1-1.119.276,1.694,1.694,0,0,1-.846-.2l-.767-.433a.625.625,0,0,1-.275-.276,1.174,1.174,0,0,1,.412-.392,2.284,2.284,0,0,1,1.1-.276,1.7,1.7,0,0,1,.864.2l.766.433a.615.615,0,0,1,.276.276A1.152,1.152,0,0,1,3353.21,204.533Zm4.008-1.965-.766.395a2.327,2.327,0,0,1-2.043-.021l-1.021-.588a.963.963,0,0,1-.374-.374.711.711,0,0,1,.313-.335l.689-.451a2.334,2.334,0,0,1,2.161-.021l1.081.629a1,1,0,0,1,.392.353A.981.981,0,0,1,3357.218,202.568Z" transform="translate(-3346.87 -199.319)" fill="#ececf5"/><path d="M3355.2,201.673a1,1,0,0,0-.392-.353l-1.081-.629a2.334,2.334,0,0,0-2.161.021l-.689.451a.711.711,0,0,0-.313.335.609.609,0,0,1,.313-.807l.689-.451a2.334,2.334,0,0,1,2.161-.021l1.081.629C3355.2,201.064,3355.338,201.4,3355.2,201.673Z" transform="translate(-3344.42 -198.836)" fill="#d4d4dd"/><path d="M3352.9,202.238a.615.615,0,0,0-.276-.276l-.766-.433a1.7,1.7,0,0,0-.864-.2,2.284,2.284,0,0,0-1.1.276,1.174,1.174,0,0,0-.412.392c-.157-.273,0-.609.412-.864a2.282,2.282,0,0,1,1.1-.273,1.678,1.678,0,0,1,.864.2l.766.431A.537.537,0,0,1,3352.9,202.238Z" transform="translate(-3346.142 -197.416)" fill="#d4d4dd"/><path d="M3349.973,202.452a1.148,1.148,0,0,1-1.037,0,.316.316,0,0,1,0-.6,1.142,1.142,0,0,1,1.034,0A.316.316,0,0,1,3349.973,202.452Z" transform="translate(-3347.24 -196.049)" fill="#d4d4dd"/></g></g></g></g></g></svg>