<svg xmlns="http://www.w3.org/2000/svg" width="192.694" height="155.274" viewBox="0 0 192.694 155.274"><g transform="translate(-296.447 -323.976)"><circle cx="73.698" cy="73.698" r="73.698" transform="translate(335.605 323.976)" fill="#84bd00"/><line x2="186.713" transform="translate(299.438 476.258)" fill="#fff"/><path d="M486.15,479.25H299.438a2.991,2.991,0,1,1,0-5.982H486.15a2.991,2.991,0,1,1,0,5.982Z"/><path d="M337.983,368.4v6.119a26.064,26.064,0,0,0-18.129,24.744v65.094A11.679,11.679,0,0,0,331.5,476h33.665a11.679,11.679,0,0,0,11.645-11.645V399.261a26.068,26.068,0,0,0-18.13-24.745V368.4" fill="#fff" stroke="#000" stroke-linecap="round" stroke-linejoin="round" stroke-width="6.264"/><path d="M3.319,0H22.788a3.319,3.319,0,0,1,3.319,3.319v10.44a0,0,0,0,1,0,0H0a0,0,0,0,1,0,0V3.319A3.319,3.319,0,0,1,3.319,0Z" transform="translate(335.739 353.302)" fill="#fff" stroke="#000" stroke-linecap="round" stroke-linejoin="round" stroke-width="6.264"/><path d="M463.949,476V419.16H434.617V404.953L421.883,379.9v-6.871s0-3.57-5.22-3.57H383.175s-3.937.13-4.018,5.285v6.244l-12.609,22.925v71.41Z" fill="#fff"/><g stroke-linecap="round" stroke-linejoin="round"><path d="M 466.3604431152344 477.7664489746094 L 465.7340087890625 477.7664489746094 L 413.31298828125 477.7664489746094 L 411.5469970703125 477.7664489746094 L 365.0329895019531 477.7664489746094 L 364.4065551757812 477.7664489746094 L 364.4065551757812 477.1400146484375 L 364.4065551757812 404.3370056152344 L 364.4065551757812 404.1891174316406 L 364.4726867675781 404.0568542480469 L 376.7655639648438 379.4721069335938 L 376.7655639648438 372.9750061035156 C 376.7655639648438 369.7088012695312 379.4223327636719 367.0515747070312 382.68798828125 367.0515747070312 L 418.6090087890625 367.0515747070312 C 421.8752136230469 367.0515747070312 424.5324401855469 369.7088012695312 424.5324401855469 372.9750061035156 L 424.5324401855469 379.4721069335938 L 436.8243408203125 404.0568542480469 L 436.8904418945312 404.1891479492188 L 436.8904418945312 404.3370056152344 L 436.8904418945312 416.486572265625 L 444.383544921875 416.486572265625 L 447.8605346679688 398.9392395019531 L 447.8619079589844 398.9322204589844 L 447.8634643554688 398.9252014160156 C 448.8315734863281 394.5654602050781 452.6264953613281 391.5205688476562 457.0920104980469 391.5205688476562 L 463.7869873046875 391.5205688476562 L 464.4134216308594 391.5205688476562 L 464.4134216308594 392.1470031738281 L 464.4134216308594 395.6780090332031 L 464.4134216308594 396.304443359375 L 463.7869873046875 396.304443359375 L 457.0920104980469 396.304443359375 C 454.8896484375 396.304443359375 453.0164184570312 397.8047790527344 452.5340576171875 399.9540710449219 L 449.2749938964844 416.486572265625 L 465.7340087890625 416.486572265625 L 466.3604431152344 416.486572265625 L 466.3604431152344 417.1130065917969 L 466.3604431152344 477.1400146484375 L 466.3604431152344 477.7664489746094 Z M 452.2364196777344 472.9825744628906 L 461.5765686035156 472.9825744628906 L 461.5765686035156 421.2704467773438 L 452.2364196777344 421.2704467773438 L 452.2364196777344 472.9825744628906 Z M 415.7044372558594 472.9825744628906 L 447.4525756835938 472.9825744628906 L 447.4525756835938 421.2704467773438 L 415.7044372558594 421.2704467773438 L 415.7044372558594 472.9825744628906 Z M 393.9074401855469 472.9825744628906 L 410.9205627441406 472.9825744628906 L 410.9205627441406 417.1130065917969 L 410.9205627441406 416.486572265625 L 411.5469970703125 416.486572265625 L 432.1065673828125 416.486572265625 L 432.1065673828125 407.1454467773438 L 427.43701171875 407.1454467773438 L 393.9074401855469 407.1454467773438 L 393.9074401855469 472.9825744628906 Z M 369.1904296875 472.9825744628906 L 389.1235656738281 472.9825744628906 L 389.1235656738281 407.1454467773438 L 369.1904296875 407.1454467773438 L 369.1904296875 472.9825744628906 Z M 392.994140625 402.361572265625 L 428.7439880371094 402.361572265625 L 430.6283874511719 402.361572265625 L 420.661865234375 382.428466796875 L 383.0276184082031 382.428466796875 L 392.994140625 402.361572265625 Z M 370.6686096191406 402.361572265625 L 387.6453857421875 402.361572265625 L 379.1570129394531 385.384765625 L 370.6686096191406 402.361572265625 Z M 381.5494689941406 377.6445617675781 L 419.7485656738281 377.6445617675781 L 419.7485656738281 372.9750061035156 C 419.7485656738281 372.3466491699219 419.2373657226562 371.83544921875 418.6090087890625 371.83544921875 L 382.68798828125 371.83544921875 C 382.0602111816406 371.83544921875 381.5494689941406 372.3466491699219 381.5494689941406 372.9750061035156 L 381.5494689941406 377.6445617675781 Z" stroke="none"/><path d="M 382.68798828125 367.6780090332031 C 379.7680053710938 367.6780090332031 377.3919982910156 370.0549926757812 377.3919982910156 372.9750061035156 L 377.3919982910156 379.6199951171875 L 365.0329895019531 404.3370056152344 L 365.0329895019531 477.1400146484375 L 465.7340087890625 477.1400146484375 L 465.7340087890625 417.1130065917969 L 448.5130004882812 417.1130065917969 L 451.9209899902344 399.8250122070312 C 452.4649963378906 397.3840026855469 454.5920104980469 395.6780090332031 457.0920104980469 395.6780090332031 L 463.7869873046875 395.6780090332031 L 463.7869873046875 392.1470031738281 L 457.0920104980469 392.1470031738281 C 452.9240112304688 392.1470031738281 449.3789978027344 394.989990234375 448.4750061035156 399.0610046386719 L 444.8980102539062 417.1130065917969 L 436.2640075683594 417.1130065917969 L 436.2640075683594 404.3370056152344 L 423.906005859375 379.6199951171875 L 423.906005859375 372.9750061035156 C 423.906005859375 370.0549926757812 421.5289916992188 367.6780090332031 418.6090087890625 367.6780090332031 L 382.68798828125 367.6780090332031 M 420.375 378.27099609375 L 380.9230041503906 378.27099609375 L 380.9230041503906 372.9750061035156 C 380.9230041503906 372.0020141601562 381.7149963378906 371.2090148925781 382.68798828125 371.2090148925781 L 418.6090087890625 371.2090148925781 C 419.5820007324219 371.2090148925781 420.375 372.0020141601562 420.375 372.9750061035156 L 420.375 378.27099609375 M 431.6419982910156 402.9880065917969 L 427.43701171875 402.9880065917969 L 428.7439880371094 402.9880065917969 L 428.7439880371094 406.5190124511719 L 432.7330017089844 406.5190124511719 L 432.7330017089844 417.1130065917969 L 411.5469970703125 417.1130065917969 L 411.5469970703125 473.6090087890625 L 393.281005859375 473.6090087890625 L 393.281005859375 406.5190124511719 L 428.7439880371094 406.5190124511719 L 427.43701171875 406.5190124511719 L 427.43701171875 402.9880065917969 L 392.6069946289062 402.9880065917969 L 382.0140075683594 381.802001953125 L 421.0490112304688 381.802001953125 L 431.6419982910156 402.9880065917969 M 388.6589965820312 402.9880065917969 L 369.6549987792969 402.9880065917969 L 379.1570129394531 383.9840087890625 L 388.6589965820312 402.9880065917969 M 389.75 473.6090087890625 L 368.5639953613281 473.6090087890625 L 368.5639953613281 406.5190124511719 L 389.75 406.5190124511719 L 389.75 473.6090087890625 M 448.0790100097656 473.6090087890625 L 415.0780029296875 473.6090087890625 L 415.0780029296875 420.6440124511719 L 448.0790100097656 420.6440124511719 L 448.0790100097656 473.6090087890625 M 462.2030029296875 473.6090087890625 L 451.6099853515625 473.6090087890625 L 451.6099853515625 420.6440124511719 L 462.2030029296875 420.6440124511719 L 462.2030029296875 473.6090087890625 M 382.68798828125 366.4251403808594 L 418.6090087890625 366.4251403808594 C 422.2206115722656 366.4251403808594 425.1588745117188 369.3634033203125 425.1588745117188 372.9750061035156 L 425.1588745117188 379.3242492675781 L 437.3846130371094 403.7767333984375 C 437.4716186523438 403.95068359375 437.5168762207031 404.1425170898438 437.5168762207031 404.3370056152344 L 437.5168762207031 415.8601379394531 L 443.8690185546875 415.8601379394531 L 447.2460327148438 398.8174743652344 C 447.2478942871094 398.8080749511719 447.2498474121094 398.7987365722656 447.2519226074219 398.7893981933594 C 448.2841491699219 394.1407775878906 452.33056640625 390.8941345214844 457.0920104980469 390.8941345214844 L 463.7869873046875 390.8941345214844 C 464.4789428710938 390.8941345214844 465.0398559570312 391.4550476074219 465.0398559570312 392.1470031738281 L 465.0398559570312 395.6780090332031 C 465.0398559570312 396.3699645996094 464.4789428710938 396.9308776855469 463.7869873046875 396.9308776855469 L 457.0920104980469 396.9308776855469 C 455.1876831054688 396.9308776855469 453.5675048828125 398.2265625 453.1470031738281 400.0835571289062 L 450.0369567871094 415.8601379394531 L 465.7340087890625 415.8601379394531 C 466.4259643554688 415.8601379394531 466.9868774414062 416.4210510253906 466.9868774414062 417.1130065917969 L 466.9868774414062 477.1400146484375 C 466.9868774414062 477.8319702148438 466.4259643554688 478.3928833007812 465.7340087890625 478.3928833007812 L 365.0329895019531 478.3928833007812 C 364.3410339355469 478.3928833007812 363.7801208496094 477.8319702148438 363.7801208496094 477.1400146484375 L 363.7801208496094 404.3370056152344 C 363.7801208496094 404.1425170898438 363.8254089355469 403.9506530761719 363.9123840332031 403.7767028808594 L 376.1391296386719 379.32421875 L 376.1391296386719 372.9750061035156 C 376.1391296386719 369.3634033203125 379.0769348144531 366.4251403808594 382.68798828125 366.4251403808594 Z M 419.1221313476562 377.0181274414062 L 419.1221313476562 372.9750061035156 C 419.1221313476562 372.6920776367188 418.8919372558594 372.4618835449219 418.6090087890625 372.4618835449219 L 382.68798828125 372.4618835449219 C 382.4056091308594 372.4618835449219 382.1758728027344 372.6920776367188 382.1758728027344 372.9750061035156 L 382.1758728027344 377.0181274414062 L 419.1221313476562 377.0181274414062 Z M 420.2746887207031 383.0548706054688 L 384.0411987304688 383.0548706054688 L 393.3813171386719 401.7351379394531 L 429.6147766113281 401.7351379394531 L 420.2746887207031 383.0548706054688 Z M 386.6317749023438 401.7351379394531 L 379.1570129394531 386.7855529785156 L 371.6821899414062 401.7351379394531 L 386.6317749023438 401.7351379394531 Z M 388.4971008300781 407.7718811035156 L 369.8168640136719 407.7718811035156 L 369.8168640136719 472.3561401367188 L 388.4971008300781 472.3561401367188 L 388.4971008300781 407.7718811035156 Z M 427.43701171875 407.7718811035156 L 394.5338745117188 407.7718811035156 L 394.5338745117188 472.3561401367188 L 410.2941284179688 472.3561401367188 L 410.2941284179688 417.1130065917969 C 410.2941284179688 416.4210510253906 410.8550415039062 415.8601379394531 411.5469970703125 415.8601379394531 L 431.4801330566406 415.8601379394531 L 431.4801330566406 407.7718811035156 L 427.43701171875 407.7718811035156 Z M 446.8261413574219 421.8968811035156 L 416.3308715820312 421.8968811035156 L 416.3308715820312 472.3561401367188 L 446.8261413574219 472.3561401367188 L 446.8261413574219 421.8968811035156 Z M 460.9501342773438 421.8968811035156 L 452.8628540039062 421.8968811035156 L 452.8628540039062 472.3561401367188 L 460.9501342773438 472.3561401367188 L 460.9501342773438 421.8968811035156 Z" stroke="none" fill="#000"/></g></g></svg>