<svg xmlns="http://www.w3.org/2000/svg" xmlns:xlink="http://www.w3.org/1999/xlink" viewBox="0 0 600 600"><defs><linearGradient id="_ÂÁ_Ï_ÌÌ_È_ËÂÌÚ_6" x1="172.91" y1="362.76" x2="275.65" y2="362.76" gradientUnits="userSpaceOnUse"><stop offset="0.24" stop-color="#c7c9d3"/><stop offset="0.38" stop-color="#c7c9d3"/><stop offset="0.44" stop-color="#c9cbd5"/><stop offset="0.47" stop-color="#d1d2db"/><stop offset="0.47" stop-color="#d4d4dd"/><stop offset="0.73" stop-color="#d4d4dd"/><stop offset="0.89" stop-color="#d4d4dd"/></linearGradient></defs><g style="isolation:isolate"><g id="Layer_1" data-name="Layer 1"><circle cx="349.89" cy="244.73" r="218.67" style="fill:#84bd00"/><circle cx="137.44" cy="298.47" r="103.07" style="fill:#84bd00"/><path d="M457.1,353.36c-28-16.14-73.15-16.22-100.93-.18s-27.64,42.13.31,58.27,73.15,16.22,100.93.18S485.05,369.5,457.1,353.36Z" style="fill:#e3e5ef;mix-blend-mode:multiply"/><path d="M466.94,377.53h0c.08,8.38-5,16.7-15.26,23.31-.72.47-1.44.88-2.22,1.35a71.41,71.41,0,0,1-19.39,7.47c-21.81,5.21-47.91,2.63-65.7-7.63-.88-.52-1.7-1-2.53-1.55-10.06-6.55-15.11-14.75-15.21-23v-.2c0-8.15,4.95-16.3,14.8-22.8.82-.57,1.75-1.13,2.68-1.65,17.79-10.26,44-12.69,66-7.27A70.23,70.23,0,0,1,449.2,353c.87.51,1.7,1,2.47,1.49,9.59,6.24,14.65,13.93,15.27,21.66Z" style="fill:#8f4728"/><path d="M449.47,300.83c-23.42,13.53-61.52,13.46-85.09-.15s-23.7-35.61-.27-49.13,61.52-13.46,85.1.15S472.9,287.31,449.47,300.83Z" style="fill:#8f4728"/><rect x="346.62" y="276.19" width="120.32" height="101.34" style="fill:#8f4728"/><path d="M445.58,354c-21.86-12.62-57.19-12.68-78.92-.14s-21.61,32.94.25,45.57,57.2,12.68,78.92.14S467.45,366.66,445.58,354Z" style="fill:#ba6038"/><path d="M465.85,269.85l-53.68,2.83-50.24,2.68-15.31.83c0-40.23,38.16-45.28,38.16-95.41h22Z" style="fill:#8f4728"/><path d="M367.06,269.84l37.12-89h24.94c0,50.14,38.14,55.15,38.14,95.4Z" style="fill:#8f4728"/><path d="M422.58,171.76c-8.69-5-22.74-5-31.37-.06s-8.6,13.1.09,18.12,22.74,5,31.37.05S431.27,176.78,422.58,171.76Z" style="fill:#8f4728"/><polygon points="429.13 162.26 429.13 180.78 384.78 180.78 384.78 158.71 429.13 162.26" style="fill:#8f4728"/><path d="M429.13,162.26v7.43c-1.13,3.56-4,7.07-11,8.25-15.63,2.74-21.77-.57-28.37-2.89,0,1.81,0,3.72-.1,5.73-.31,16.24-1.7,36.46-8.3,47.34C374,240.35,363.64,258.71,362,273.87a12.16,12.16,0,0,0-.11,1.49,4.36,4.36,0,0,0-.05.83c-.67,11.35-.62,46.26-.46,78.34.1,8,.15,15.78.2,23,.11,8.77.16,16.61.21,23-10.06-6.55-15.11-14.75-15.21-23V276.19c0-40.23,38.16-45.28,38.16-95.41V158.7Z" style="fill:#e3e5ef;mix-blend-mode:multiply"/><path d="M422.58,153.24c-8.69-5-22.74-5-31.37-.06s-8.6,13.1.09,18.12,22.74,5,31.37,0S431.27,158.26,422.58,153.24Z" style="fill:#d3d6e6"/><path d="M431,150.17,417.74,150a40.06,40.06,0,0,0-20.85-.31l-13.95-.21,0,12.75v.06h0c0,3.54,2.4,7.08,7.09,9.78,9.42,5.44,24.64,5.47,34,.07,4.69-2.72,7-6.28,7-9.85h0Z" style="fill:#f80"/><path d="M423.89,140.39c-9.42-5.44-24.64-5.47-34-.07s-9.31,14.2.11,19.64,24.64,5.46,34,.06S433.31,145.82,423.89,140.39Z" style="fill:#ffb800"/><path d="M419.32,180.79s-2.16,35.36,3.65,59.36c3.91,16.16,10.36,40.22,23.81,34.38,8.19-3.56-5.47-23.28-9.67-28.88C432.6,239.63,423.83,222.91,419.32,180.79Z" style="fill:#1f0d06;mix-blend-mode:screen"/><path d="M451.67,303.94v96.9c-.72.47-1.44.88-2.22,1.35a71.41,71.41,0,0,1-19.39,7.47v-92Z" style="fill:#1f0d06;mix-blend-mode:screen"/><ellipse cx="185.93" cy="460.39" rx="40.35" ry="69.89" transform="translate(-275.47 643.82) rotate(-89.69)" style="fill:#e3e5ef;mix-blend-mode:multiply"/><ellipse cx="185.8" cy="440.83" rx="36.98" ry="64.05" transform="translate(-256.03 624.23) rotate(-89.69)" style="fill:#ad5a38"/><path d="M231.22,467.06c-24.93,14.39-64.21,10.51-89.3-4S115.43,429,140.36,414.6s65.49-14.33,90.58.16S256.16,452.66,231.22,467.06Z" style="fill:#c47251"/><path d="M185.85,460.21c-13.8,0-24.95,6.42-24.91,14.38s11.27,22,25.07,22,25-13.93,24.91-21.9S199.65,460.24,185.85,460.21Z" style="fill:#c47251"/><path d="M224.78,439.39c-13.8,0-25,6.42-24.91,14.38s15.56,19.73,29.36,19.76a20.33,20.33,0,0,0,20.61-19.67C249.8,445.9,238.58,439.42,224.78,439.39Z" style="fill:#c47251"/><path d="M147.43,434.06c13.8,0,24.95,6.42,24.91,14.38S156.78,468.17,143,468.2a20.34,20.34,0,0,1-20.62-19.67C122.41,440.57,133.63,434.09,147.43,434.06Z" style="fill:#c47251"/><path d="M150,433.13c-15.66,0-28.32,7.28-28.27,16.32s12.79,16.39,28.44,16.42,28.32-7.28,28.27-16.32S165.67,433.16,150,433.13Z" style="fill:#c47251"/><rect x="121.75" y="261.45" width="128.1" height="179.38" style="fill:#c47251"/><ellipse cx="185.79" cy="261.45" rx="36.98" ry="64.05" transform="translate(-76.66 445.82) rotate(-89.69)" style="fill:#c77254"/><path d="M226.66,214.28c-22.71-13.11-59.42-13.18-82-.14s-22.46,34.22.25,47.34,59.43,13.18,82,.15S249.38,227.4,226.66,214.28Z" style="fill:#b96845"/><path d="M232.34,183.71c-25.42-16.33-66.49-16.41-91.74-.19s-25.12,46.25.29,62.58,67.33,17.94,91.73.18C253.43,231.14,257.75,200,232.34,183.71Z" style="fill:#c47251"/><path d="M249.84,215.19c0-90.92-49.82-85.45-49.82-125H171.57c0,39.6-49.83,37.87-49.83,126.34l64.05,3.16Z" style="fill:#c47251"/><path d="M214.83,163.9c-16.05-9.27-42-9.31-57.93-.11S141,188,157.08,197.24s42,9.31,57.93.1S230.87,173.16,214.83,163.9Z" style="fill:#c47251"/><path d="M195.87,79c-5.51-3.18-14.42-3.2-19.9,0s-5.45,8.3.07,11.48,14.41,3.2,19.89,0S201.38,82.13,195.87,79Z" style="fill:#d3d6e6"/><path d="M198.21,81c-6.81-3.94-17.82-4-24.59,0s-6.74,10.27.07,14.2,17.83,4,24.6.05S205,84.88,198.21,81Z" style="fill:#f80"/><rect x="168.56" y="71.43" width="34.78" height="16.59" style="fill:#f80"/><path d="M198.21,64.35c-6.81-3.93-17.82-3.95-24.59,0s-6.74,10.27.07,14.2,17.83,3.95,24.6,0S205,68.29,198.21,64.35Z" style="fill:#ffb800"/><path d="M201.61,434.09c0,5.08-7.09,9.19-15.9,9.18s-16-4.15-16-9.24,7.09-9.19,15.89-9.17S201.58,429,201.61,434.09Z" style="fill:#b2603d"/><path d="M228.4,463c-8.81,0-16-4.15-16-9.23s7.08-9.19,15.89-9.18,16,4.15,16,9.24S237.21,463,228.4,463Z" style="fill:#b2603d"/><path d="M170,477.77c0-5.08,7.08-9.19,15.89-9.17s16,4.15,16,9.23S194.78,487,186,487,170,482.86,170,477.77Z" style="fill:#b2603d"/><path d="M172.52,452.45c0-4.28,6-7.73,13.37-7.72s13.42,3.49,13.44,7.77-6,7.73-13.36,7.71S172.55,456.72,172.52,452.45Z" style="fill:#b2603d"/><path d="M143.19,443.27c8.81,0,16,4.15,16,9.23s-7.09,9.19-15.9,9.18-16-4.15-16-9.24S134.39,443.25,143.19,443.27Z" style="fill:#b2603d"/><path d="M228.16,154.89c-4.37-7.64-7.47-12-16-22.16-6.62-7.88-13.29-15.48-14.53-20.21s-2.27,9.6-2.27,17.32,6.28,20.61,10.1,33.81c5.16,17.81,4.29,88.68,19.79,79.37C242.37,232.76,237,170.37,228.16,154.89Z" style="fill:#1f0d06;mix-blend-mode:screen"/><path d="M218.77,269.48s10.19,13,9.58,23.92,0,151.21,0,151.21S229.75,466,222.5,468c13-2.51,22.14-1,20.79-21.17s0-160.78,0-167.09-5.34-16.27-8-16.61S229.15,272.47,218.77,269.48Z" style="fill:#1f0d06;mix-blend-mode:screen"/><path d="M368.18,430.66c.09,9.7-5.7,19.36-17.43,27.08-1,.68-2.08,1.36-3.19,2a78.19,78.19,0,0,1-13,5.94c-25.5,9-58.81,7.78-82.47-3.57-1.64-.82-3.28-1.64-4.83-2.56-13.85-8-20.81-18.44-20.9-28.87v-.24c0-10.43,6.85-20.86,20.61-28.83,1.65-1,3.34-1.83,5.12-2.7,23.61-11.15,56.93-12.17,82.47-2.95a79.41,79.41,0,0,1,12.74,5.85c1.21.72,2.37,1.4,3.48,2.17C362.29,411.64,368.08,421.15,368.18,430.66Z" style="fill:#6cab3c"/><path d="M368.18,329.51v.24c0,10.43-6.86,20.86-20.62,28.82-26.07,15-67.54,15.79-95.5,2.37-1.64-.82-3.28-1.64-4.83-2.56-13.85-8-20.81-18.44-20.9-28.87a22.4,22.4,0,0,1,.19-3.09c1.11-9.51,7.92-18.78,20.42-26,1.6-.91,3.24-1.78,4.93-2.55a75.61,75.61,0,0,1,7.1-3,1.7,1.7,0,0,1,.24-.09c23.17-8.45,53.11-8.31,76.33.33a79.52,79.52,0,0,1,11.73,5.51c8.21,4.73,14,10.28,17.29,16.22A25.92,25.92,0,0,1,368.18,329.51Z" style="fill:#6cab3c"/><rect x="226.33" y="329.51" width="141.85" height="101.15" style="fill:#6cab3c"/><path d="M343.8,403c-25.77-14.88-67.43-14.95-93-.16s-25.48,38.83.29,53.72,67.43,14.95,93,.16S369.58,417.83,343.8,403Z" style="fill:#59992b"/><path d="M366.83,323.28l-62,1.4-51.42,1.11-26.89.63h-.19c0-45.63,49.44-110,49.44-201.43H297.3l67.26,191.87Z" style="fill:#6cab3c"/><path d="M246.3,320.19,294.73,125h24.38c0,97,49.08,151.94,49.08,204.49Z" style="fill:#6cab3c"/><path d="M329.4,262.35c-17.77-10.26-46.49-10.31-64.15-.11s-17.57,26.78.2,37,46.49,10.31,64.16.12S347.18,272.61,329.4,262.35Z" style="fill:#6cab3c"/><polygon points="319.12 106.89 319.12 124.99 275.77 124.99 275.77 103.41 280.26 103.75 319.12 106.89" style="fill:#6cab3c"/><path d="M282.24,125c.34,20.62-2.8,45.29-5.17,71.26-.48,5.27-.92,10.58-1.3,15.89-1.26,17.62-4.64,33.55-8.45,49.05-2.75,11.2-5.75,22.16-8.31,33.41a.75.75,0,0,0,0,.29c-2,8.4-3.67,16.95-4.93,25.88-.24,1.64-.43,3.33-.63,5-.14,1.21-.29,2.46-.38,3.72a191.8,191.8,0,0,0-1,19.36V462.09c-1.64-.82-3.28-1.64-4.83-2.56-13.85-8-20.81-18.44-20.9-28.87V329.51a22.4,22.4,0,0,1,.19-3.09h-.19c0-45.63,49.44-110,49.44-201.43V103.41l4.49.34A115.69,115.69,0,0,1,282.24,125Z" style="fill:#e3e5ef;mix-blend-mode:multiply"/><path d="M312.71,98.08c-8.49-4.9-22.22-4.93-30.66,0s-8.4,12.8.09,17.7,22.22,4.93,30.67.06S321.2,103,312.71,98.08Z" style="fill:#d3d6e6"/><path d="M320.92,106.91h0l-.27-11.83H308.61a38.86,38.86,0,0,0-22.63,0H273.92v11.83h0c0,3.46,2.35,6.92,6.93,9.56,9.21,5.32,24.09,5.34,33.24.06C318.69,113.88,321,110.39,320.92,106.91Z" style="fill:#f80"/><path d="M314,85.52c-9.2-5.32-24.09-5.34-33.23-.06s-9.11,13.87.1,19.19,24.09,5.34,33.24.06S323.2,90.83,314,85.52Z" style="fill:#ffb800"/><path d="M347.92,318.16s-11.67-1.52-22.13-25.78c-6-14-4.43-23.78-8.85-52.12s-6-112.44-6-112.44,6,75.09,15.69,111.17,16.9,45.55,21.33,56.41S351,315.58,347.92,318.16Z" style="fill:#0c1709;mix-blend-mode:screen"/><path d="M350.75,344.28V457.74c-1,.68-2.08,1.36-3.19,2a78.19,78.19,0,0,1-13,5.94V357.27Z" style="fill:#0c1709;mix-blend-mode:screen"/><path d="M175.65,486.37c0,8.17-5.28,16.39-16,22.58-21.48,12.4-56.41,12.35-78-.14a2.09,2.09,0,0,1-.53-.34c-10.42-6.15-15.66-14.12-15.76-22.1v-.24c0-7.83,5-15.66,15-21.76.29-.19.63-.39,1-.58,21.48-12.39,56.41-12.35,78,.15C170.13,470.13,175.56,478.25,175.65,486.37Z" style="fill:#e3e5ef"/><path d="M159.6,413.54c-21.47,12.4-56.39,12.34-78-.14s-21.72-32.63-.25-45,56.39-12.33,78,.14S181.07,401.15,159.6,413.54Z" style="fill:#e3e5ef"/><path d="M175.65,391c0,21.14-64.95,26.08-95.17,14.75-9.18-3.42-15.14-8.32-15.14-14.75,0-3.66,1.4-23.11,16.1-36.57,8.17-7.49,20.51-13.16,39.06-13.16C172.24,341.23,175.65,384.66,175.65,391Z" style="fill:#e3e5ef"/><path d="M149.71,348.28c-16.24-9.38-42.5-9.43-58.64-.11S75,372.65,91.25,382s42.5,9.43,58.65.11S166,357.66,149.71,348.28Z" style="fill:#e3e5ef"/><path d="M148.09,344.5c-15.34-8.85-40.14-8.9-55.39-.1s-15.17,23.13.17,32,40.15,8.9,55.39.1S163.44,353.36,148.09,344.5Z" style="fill:#c3c7dd"/><rect x="65.34" y="390.96" width="110.31" height="95.42" style="fill:#e3e5ef"/><path d="M156.54,463.24c-20-11.57-52.43-11.63-72.34-.13s-19.81,30.19.23,41.76,52.42,11.63,72.33.13S176.57,474.81,156.54,463.24Z" style="fill:#c3c7dd"/><path d="M100,360.45a40.56,40.56,0,0,0-18.74,29.69c0,.24,0,.53-.09.82-.34,3.31-.58,8.45-.72,14.75-.39,15.37-.29,37.85-.1,58.66.1,7.73.19,15.18.29,22,.14,8.8.29,16.48.43,22.1-10.42-6.15-15.66-14.12-15.76-22.1V391c0-3.66,1.4-23.11,16.1-36.57Z" style="fill:#e3e5ef;mix-blend-mode:multiply"/><path d="M162,352.49v-5.77h-1.32c-1.79-4.07-5.4-7.93-10.92-11.12-16.24-9.38-42.5-9.43-58.64-.11-5.64,3.26-9.25,7.23-10.94,11.41H79V352c0,.23,0,.47,0,.7v.46h0c.37,5.86,4.4,11.68,12.17,16.16,16.25,9.38,42.5,9.43,58.65.11,8.1-4.68,12.11-10.83,12-17Z" style="fill:#f80"/><path d="M149.71,330c-16.24-9.38-42.5-9.43-58.64-.11s-16.07,24.48.18,33.86,42.5,9.43,58.65.11S166,339.42,149.71,330Z" style="fill:#ffb800"/><polygon points="425.63 573 309.88 506.17 309.88 405.26 540.67 405.68 540.67 506.58 425.63 573" style="fill:#9c6d47"/><polygon points="425.63 472.1 309.88 405.26 424.91 338.85 540.67 405.68 425.63 472.1" style="fill:#fedf9e"/><polygon points="540.67 405.68 447.55 418.81 444.66 420.54 425.63 472.1 405.89 395.37 540.67 405.68" style="fill:#d1a375"/><polygon points="444.66 415.57 407.77 394.28 309.88 405.26 425.63 472.1 444.66 415.57" style="fill:#ffe5b0"/><polygon points="443.57 418.81 402.69 394.85 407.77 394.28 444.66 415.57 443.57 418.81" style="fill:#d1a375"/><polygon points="425.63 472.1 425.63 573 309.88 506.17 309.88 405.26 425.63 472.1" style="fill:#a87f5e"/><polygon points="405.89 395.37 442.77 416.67 540.67 405.68 424.91 338.85 405.89 395.37" style="fill:#ffe5b0"/><polygon points="424.91 338.85 405.22 393.54 313.43 404.87 406.19 394.46 424.91 338.85" style="fill:#d1a375"/><polygon points="425.63 570.38 425.63 472.1 540.67 405.68 540.67 503.96 425.63 570.38" style="fill:#d6ac78"/><polygon points="425.63 473.55 425.63 472.1 540.67 405.68 540.67 407.13 425.63 473.55" style="fill:#fedf9e"/><path d="M260.72,542.06c20-11.55,19.89-30.33-.23-41.95s-52.65-11.67-72.65-.13-19.89,30.33.23,41.94S240.72,553.6,260.72,542.06Z" style="fill:#d7d6d6"/><path d="M263.23,538.7c21.37-12.34,21.27-32.41-.24-44.83s-56.28-12.48-77.66-.14-21.26,32.41.25,44.83S241.85,551,263.23,538.7Z" style="fill:#ab3030"/><ellipse cx="224.28" cy="507.03" rx="34.7" ry="60.11" transform="translate(-283.96 728.56) rotate(-89.69)" style="fill:#e04141"/><rect x="164.18" y="379.89" width="120.21" height="127.15" style="fill:#e04141"/><path d="M266.91,404.5c23.4-13.51,23.28-35.48-.26-49.07s-61.6-13.67-85-.16-23.28,35.48.26,49.08S243.52,418,266.91,404.5Z" style="fill:#f55151"/><path d="M263.23,392.84C284.6,380.5,284.5,360.42,263,348s-56.28-12.49-77.66-.14-21.26,32.41.25,44.83S241.85,405.18,263.23,392.84Z" style="fill:#f66"/><path d="M260.72,383.8c20-11.55,19.89-30.33-.23-41.95s-52.65-11.67-72.65-.13-19.89,30.33.23,41.94S240.72,395.34,260.72,383.8Z" style="fill:url(#_ÂÁ_Ï_ÌÌ_È_ËÂÌÚ_6)"/><path d="M260.72,379.3c20-11.55,19.89-30.33-.23-41.95s-52.65-11.67-72.65-.13-19.89,30.33.23,41.95S240.72,390.84,260.72,379.3Z" style="fill:#f1f1f6"/><path d="M266.48,371.26a34.55,34.55,0,0,1-8.35,6.52c-18.6,10.72-48.8,10.66-67.46-.12a37.28,37.28,0,0,1-8.35-6.46c-9.71-10.42-7-23.69,8.11-32.45,18.6-10.72,48.8-10.66,67.46.12C273.11,347.69,276,360.9,266.48,371.26Z" style="fill:#d4d4dd"/><path d="M269.62,362.14a15.6,15.6,0,0,1-3.14,9.12,34.55,34.55,0,0,1-8.35,6.52c-18.6,10.72-48.8,10.66-67.46-.12a37.28,37.28,0,0,1-8.35-6.46,15.42,15.42,0,0,1-3.37-9.41c0-6.4,4.56-12.56,12.67-17.3,8.59-5,20.08-7.7,32.34-7.7,12.43,0,24,2.79,32.75,7.82C265,349.41,269.62,355.63,269.62,362.14Z" style="fill:#ececf5"/><path d="M261.81,532V410.53s11.84-4.75,15.28-11.47V520.55S272.47,526.91,261.81,532Z" style="fill:#731010;mix-blend-mode:screen"/><path d="M227.88,364.24c8.6,3,20.44,2.94,31.93-.1,3.71-1,5.93-3.3,5.23-5.63-1.49-4.91-5.5-9.62-12.09-13.42s-14.74-6.12-23.24-7c-4-.41-8.06.87-9.76,3-5.27,6.63-5.36,13.47-.18,18.43a21.1,21.1,0,0,0,3.6,2.61A29.16,29.16,0,0,0,227.88,364.24Z" style="fill:#f1f1f6"/><path d="M228.92,364.35c7.68,2.67,18.27,2.63,28.54-.09,3.32-.88,5.3-3,4.67-5-1.32-4.39-4.91-8.6-10.8-12A52.53,52.53,0,0,0,230.56,341c-3.61-.36-7.21.78-8.73,2.7-4.71,5.93-4.79,12-.16,16.47a18.38,18.38,0,0,0,3.22,2.33A25.73,25.73,0,0,0,228.92,364.35Z" style="fill:#ececf5"/><path d="M240.26,357.54l-8.88-5.13c-3.19-1.84-2.79-5.09.89-7.21h0c3.69-2.13,9.31-2.36,12.5-.52l8.89,5.13c3.19,1.84,2.79,5.09-.9,7.22h0C249.08,359.15,243.45,359.39,240.26,357.54Z" style="fill:#555252"/><path d="M254.45,351l-7.56-4.4a9.08,9.08,0,0,0-8.5.45l-16.62,10.84c-1.62,1.06-2.23,2.33-1.89,3.56a.09.09,0,0,0,0,.16,3.58,3.58,0,0,0,1.72,1.89l3.56,2.06c2.5,1.5,6.78,1.45,9.78,0l18.74-9.62a3.8,3.8,0,0,0,2.11-2.06C256.18,352.81,255.73,351.75,254.45,351Zm-16.23,3.33a2.79,2.79,0,0,1-1.06-1.05,2.09,2.09,0,0,1,.89-.95l1.95-1.28a6.61,6.61,0,0,1,6.12-.05l3,1.78a1.09,1.09,0,1,1-.11,2.16l-2.17,1.11a6.55,6.55,0,0,1-5.78-.05Zm-9,4.39a3.36,3.36,0,0,1,1.16-1.11,6.47,6.47,0,0,1,3.12-.78,4.81,4.81,0,0,1,2.44.56l2.17,1.22a1.71,1.71,0,0,1,.78.78,3.15,3.15,0,0,1-1.17,1.11,6.7,6.7,0,0,1-3.17.78,4.85,4.85,0,0,1-2.39-.55L230,359.53A1.69,1.69,0,0,1,229.22,358.75Z" style="fill:#d7d6d6;mix-blend-mode:multiply"/><path d="M255.79,351.44a2.65,2.65,0,0,0-1.34-1.5l-7.56-4.39a6,6,0,0,0-.83-.39H246a9.64,9.64,0,0,0-5.89.06,6,6,0,0,0-1.72.77l-16.62,10.84a4.61,4.61,0,0,0-1.89,2.23.09.09,0,0,0,0,.16c-.34,1.17.22,2.39,1.72,3.28l3.56,2.06c2.5,1.45,6.78,1.39,9.78-.11l18.74-9.62C255.51,353.94,256.23,352.61,255.79,351.44Zm-18.07,6.67a6.7,6.7,0,0,1-3.17.78,4.85,4.85,0,0,1-2.39-.55L230,357.11a1.69,1.69,0,0,1-.77-.78,3.36,3.36,0,0,1,1.16-1.11,6.47,6.47,0,0,1,3.12-.78,4.81,4.81,0,0,1,2.44.56l2.17,1.22a1.71,1.71,0,0,1,.78.78A3.15,3.15,0,0,1,237.72,358.11Zm11.45-7.72a1.09,1.09,0,1,1-.11,2.16l-2.17,1.12a6.59,6.59,0,0,1-5.78-.06l-2.89-1.67a2.73,2.73,0,0,1-1.06-1.05,2.09,2.09,0,0,1,.89-.95l1.95-1.28a6.61,6.61,0,0,1,6.12-.05Z" style="fill:#d4d4dd"/><path d="M254.45,348.61l-7.56-4.4a9.08,9.08,0,0,0-8.5.45L221.77,355.5c-1.62,1.06-2.23,2.33-1.89,3.56a.09.09,0,0,0,0,.16,3.58,3.58,0,0,0,1.72,1.89l3.56,2.06c2.5,1.5,6.78,1.45,9.78-.05l18.74-9.62a3.8,3.8,0,0,0,2.11-2.06C256.18,350.39,255.73,349.33,254.45,348.61Zm-16.23,3.33a2.73,2.73,0,0,1-1.06-1.05,2.09,2.09,0,0,1,.89-.95l1.95-1.28a6.61,6.61,0,0,1,6.12-.05l3,1.78a1.09,1.09,0,1,1-.11,2.16l-2.17,1.12a6.59,6.59,0,0,1-5.78-.06Zm-9,4.39a3.36,3.36,0,0,1,1.16-1.11,6.47,6.47,0,0,1,3.12-.78,4.81,4.81,0,0,1,2.44.56l2.17,1.22a1.71,1.71,0,0,1,.78.78,3.15,3.15,0,0,1-1.17,1.11,6.7,6.7,0,0,1-3.17.78,4.85,4.85,0,0,1-2.39-.55L230,357.11A1.69,1.69,0,0,1,229.22,356.33Z" style="fill:#f1f1f6"/><path d="M253.4,349.44l-7.34-4.28H246l-.55-.33a4.57,4.57,0,0,0-2.56-.5,5.42,5.42,0,0,0-2.61.78l-.17.11-13.06,8.83c-1.78,1.17-1.84,2.9-.11,3.9l3.78,2.16a7.9,7.9,0,0,0,6.72-.05l15.46-7.67a2.14,2.14,0,0,0,1.33-1.5A1.37,1.37,0,0,0,253.4,349.44Zm-15.68,8.67a6.7,6.7,0,0,1-3.17.78,4.85,4.85,0,0,1-2.39-.55L230,357.11a1.69,1.69,0,0,1-.77-.78,3.36,3.36,0,0,1,1.16-1.11,6.47,6.47,0,0,1,3.12-.78,4.81,4.81,0,0,1,2.44.56l2.17,1.22a1.71,1.71,0,0,1,.78.78A3.15,3.15,0,0,1,237.72,358.11Zm11.34-5.56-2.17,1.12a6.59,6.59,0,0,1-5.78-.06l-2.89-1.67a2.73,2.73,0,0,1-1.06-1.05,2.09,2.09,0,0,1,.89-.95l1.95-1.28a6.61,6.61,0,0,1,6.12-.05l3,1.78a1.09,1.09,0,1,1-.11,2.16Z" style="fill:#ececf5"/><path d="M250.29,351.39a2.83,2.83,0,0,0-1.12-1l-3-1.78a6.61,6.61,0,0,0-6.12.05l-1.95,1.28a2.09,2.09,0,0,0-.89.95,1.72,1.72,0,0,1,.89-2.28l1.95-1.28a6.61,6.61,0,0,1,6.12-.06l3,1.78C250.29,349.66,250.67,350.61,250.29,351.39Z" style="fill:#d4d4dd"/><path d="M238.89,357a1.71,1.71,0,0,0-.78-.78L235.94,355a4.81,4.81,0,0,0-2.44-.56,6.47,6.47,0,0,0-3.12.78,3.36,3.36,0,0,0-1.16,1.11c-.45-.77,0-1.72,1.16-2.44a6.47,6.47,0,0,1,3.12-.78,4.81,4.81,0,0,1,2.44.56l2.17,1.22A1.51,1.51,0,0,1,238.89,357Z" style="fill:#d4d4dd"/><path d="M227.51,361.47a3.22,3.22,0,0,1-2.93,0,.89.89,0,0,1,0-1.69,3.22,3.22,0,0,1,2.93,0C228.31,360.25,228.32,361,227.51,361.47Z" style="fill:#d4d4dd"/></g></g></svg>