<svg xmlns="http://www.w3.org/2000/svg" width="492.216" height="477.368" viewBox="0 0 492.216 477.368"><g transform="translate(-1270.392 -336.542)"><g transform="translate(-101.03 299.01) rotate(-11)" opacity="0.296"><circle cx="203.58" cy="203.58" r="203.58" transform="translate(1338.815 377.617)" fill="#fff"/><g transform="translate(1327.435 358.35)"><path d="M1332.162,527.576a4.8,4.8,0,0,1-1.265-.167,4.719,4.719,0,0,1-3.287-5.816c26.618-96.111,114.942-163.242,214.784-163.242a4.726,4.726,0,1,1,0,9.452c-95.61,0-180.182,64.28-205.68,156.306A4.716,4.716,0,0,1,1332.162,527.576Z" transform="translate(-1327.435 -358.35)" fill="#fff"/></g></g><g transform="translate(-54.292 390.767)"><rect width="6.237" height="24.241" transform="translate(1715.917 223.475)" fill="#fada9a"/><rect width="6.237" height="24.239" transform="translate(1680.754 232.276) rotate(-24)" fill="#fada9a"/><rect width="6.236" height="24.24" transform="translate(1652.21 254.616) rotate(-48.002)" fill="#fada9a"/><rect width="6.238" height="24.239" transform="translate(1635.221 286.636) rotate(-72)" fill="#fada9a"/><rect width="24.241" height="6.237" transform="matrix(0.995, -0.104, 0.104, 0.995, 1632.072, 316.594)" fill="#fada9a"/><rect width="24.24" height="6.238" transform="translate(1642.033 351.445) rotate(-29.995)" fill="#fada9a"/><rect width="24.241" height="6.237" transform="translate(1665.307 379.235) rotate(-54)" fill="#fada9a"/><rect width="24.241" height="6.236" transform="translate(1697.871 395.152) rotate(-77.99)" fill="#fada9a"/><rect width="6.236" height="24.24" transform="translate(1729.058 372.739) rotate(-11.997)" fill="#fada9a"/><rect width="6.238" height="24.241" transform="translate(1753.469 363.289) rotate(-35.998)" fill="#fada9a"/><rect width="6.238" height="24.24" transform="translate(1771.927 344.728) rotate(-60)" fill="#fada9a"/><rect width="6.237" height="24.24" transform="translate(1781.24 320.264) rotate(-84)" fill="#fada9a"/><rect width="24.241" height="6.237" transform="translate(1777.869 288.194) rotate(-17.997)" fill="#fada9a"/><rect width="24.239" height="6.237" transform="matrix(0.743, -0.669, 0.669, 0.743, 1763.673, 266.199)" fill="#fada9a"/><rect width="24.239" height="6.237" transform="translate(1741.761 251.883) rotate(-66)" fill="#fada9a"/></g><g transform="translate(1363.607 -62.769)"><g transform="translate(217.488 432)"><g transform="translate(29.408)"><path d="M237.961,439.686a34.564,34.564,0,0,1,7.581-3.98c6.292-2.457,23.473-8.723,40.351,4.109l14.582,21.318,9.992-5.768L299.714,489.2l-34.673-7.6,10.541-6.085-9.162-15.87s-9.025-18.452-28.459-19.949" transform="translate(-223.254 -432)" fill="#fff" stroke="#000" stroke-linecap="round" stroke-linejoin="round" stroke-width="7"/><path d="M245.843,435.567c-2.469,2.508-14.707,22.016-14.707,22.016l24.63,14.342L269.8,448.832A35.292,35.292,0,0,0,245.843,435.567Z" transform="translate(-231.136 -427.881)" fill="#fff" stroke="#000" stroke-linecap="round" stroke-linejoin="round" stroke-width="7"/></g><g transform="translate(0 47.216)"><path d="M241.678,532.147a34.609,34.609,0,0,1-7.236-4.575c-5.273-4.221-19.29-15.967-16.618-37L229,467.287,219,461.516l34.673-7.6,10.75,33.831-10.541-6.085-9.162,15.87s-11.466,17.04-3.047,34.619" transform="translate(-217.488 -453.912)" fill="#fff" stroke="#000" stroke-linecap="round" stroke-linejoin="round" stroke-width="7"/><path d="M230.34,504.894c3.409.886,26.422,1.728,26.422,1.728l.106-28.5-27.019-.61A35.3,35.3,0,0,0,230.34,504.894Z" transform="translate(-206.151 -426.659)" fill="#fff" stroke="#000" stroke-linecap="round" stroke-linejoin="round" stroke-width="7"/></g><g transform="translate(62.72 60.184)"><path d="M320.348,470.949a34.558,34.558,0,0,1-.343,8.555c-1.017,6.678-4.183,24.69-23.733,32.891l-25.754,1.969V525.9l-23.923-26.226,23.923-26.226v12.173h18.327s20.49,1.411,31.5-14.672" transform="translate(-246.595 -447.205)" fill="#fff" stroke="#000" stroke-linecap="round" stroke-linejoin="round" stroke-width="7"/><path d="M300.356,483.674c-.937-3.392-11.711-23.744-11.711-23.744l-24.737,14.159,12.981,23.7A35.288,35.288,0,0,0,300.356,483.674Z" transform="translate(-226.603 -459.93)" fill="#fff" stroke="#000" stroke-linecap="round" stroke-linejoin="round" stroke-width="7"/></g></g></g><g transform="translate(1933.553 140.629)"><g transform="translate(-600.553 569.198)"><line x2="354.97" transform="translate(5.685 5.685)" fill="#fff"/><path d="M-239.9,469.641H-594.867a5.686,5.686,0,0,1-5.686-5.686,5.686,5.686,0,0,1,5.686-5.686H-239.9a5.686,5.686,0,0,1,5.686,5.686A5.686,5.686,0,0,1-239.9,469.641Z" transform="translate(600.553 -458.268)"/></g><g transform="translate(-562.009 335.17)"><g transform="translate(0 28.7)"><path d="M-542.68,353.4v11.633a49.552,49.552,0,0,0-34.466,47.042V535.827a22.2,22.2,0,0,0,22.139,22.139h64a22.2,22.2,0,0,0,22.139-22.139l0-123.754a49.56,49.56,0,0,0-34.468-47.044V353.4" transform="translate(583.102 -347.444)" fill="#fff"/><path d="M-488.181,566.745l-64,0a28.128,28.128,0,0,1-28.1-28.1V414.9a55.159,55.159,0,0,1,34.468-51.213V356.22a5.954,5.954,0,0,1,5.954-5.954,5.954,5.954,0,0,1,5.954,5.954v11.633a5.953,5.953,0,0,1-4.145,5.671A43.328,43.328,0,0,0-568.368,414.9V538.648a16.2,16.2,0,0,0,16.186,16.186h64A16.2,16.2,0,0,0-472,538.648V414.9a43.33,43.33,0,0,0-30.321-41.371,5.952,5.952,0,0,1-4.146-5.671V356.22a5.955,5.955,0,0,1,5.956-5.954,5.954,5.954,0,0,1,5.954,5.954v7.462A55.163,55.163,0,0,1-460.086,414.9l0,123.752A28.127,28.127,0,0,1-488.181,566.745Z" transform="translate(580.279 -350.266)"/></g><g transform="translate(30.2)"><path d="M3.319,0H46.313a3.319,3.319,0,0,1,3.319,3.319V26.157a0,0,0,0,1,0,0H0a0,0,0,0,1,0,0V3.319A3.319,3.319,0,0,1,3.319,0Z" transform="translate(5.956 5.955)" fill="#fff"/><path d="M-558.438,373.237a5.956,5.956,0,0,1-4.211-1.743,5.961,5.961,0,0,1-1.745-4.211V347.434a12.279,12.279,0,0,1,12.266-12.264h37.012a12.28,12.28,0,0,1,12.266,12.264v19.848a5.955,5.955,0,0,1-5.956,5.954Zm49.631-5.954h0Zm-43.322-20.2a.355.355,0,0,0-.356.354v13.894l37.723,0V347.434a.355.355,0,0,0-.356-.354Z" transform="translate(564.394 -335.17)"/></g><path d="M-345.277,557.014V448.952h-55.765v-27.01L-425.251,374.3V361.242s0-6.787-9.924-6.787h-63.666s-7.485.247-7.639,10.048v11.871l-23.972,43.584V555.719Z" transform="translate(625.181 -317.791)" fill="#fff"/><g transform="translate(89.467 30.903)"><path d="M-531.4,562.538a1.191,1.191,0,0,1-1.19-1.192V422.937a1.18,1.18,0,0,1,.126-.532l23.369-46.74V363.313a11.273,11.273,0,0,1,11.26-11.261h68.291a11.273,11.273,0,0,1,11.261,11.261v12.352l23.371,46.74a1.2,1.2,0,0,1,.125.532v23.1h14.243l6.612-33.36a17.871,17.871,0,0,1,17.55-14.1h12.728a1.191,1.191,0,0,1,1.192,1.19v6.713a1.193,1.193,0,0,1-1.192,1.192h-12.728a8.828,8.828,0,0,0-8.667,6.953l-6.194,31.415h31.291a1.191,1.191,0,0,1,1.19,1.192V561.346a1.191,1.191,0,0,1-1.19,1.192Zm183.545-9.1V455.129h-17.759v98.313Zm-26.852,0V455.129h-60.358v98.313Zm-69.453,0V447.226a1.191,1.191,0,0,1,1.19-1.192h39.088V428.277h-72.622V553.441Zm-41.439,0V428.277h-37.9V553.441Zm78.906-134.26-18.947-37.9h-71.55l18.949,37.9Zm-81.715,0-16.139-32.276-16.137,32.276Zm61.031-46.991v-8.878a2.17,2.17,0,0,0-2.165-2.167h-68.291A2.17,2.17,0,0,0-500,363.313v8.878Z" transform="translate(533.785 -350.86)"/><path d="M-428.982,353.807a10.084,10.084,0,0,1,10.07,10.07v12.633l23.495,46.991v24.289H-379l6.8-34.32a16.684,16.684,0,0,1,16.382-13.145h12.728v6.713h-12.728a10.016,10.016,0,0,0-9.831,7.884l-6.479,32.867h32.74V561.911H-530.838V423.5l23.5-46.991V363.878a10.082,10.082,0,0,1,10.068-10.07h68.291m-71.647,20.139h75V363.878a3.363,3.363,0,0,0-3.357-3.357h-68.291a3.362,3.362,0,0,0-3.356,3.357v10.068m22.213,46.991H-412.2v6.713h-64.936V555.2h34.727V447.791h40.278V427.65h-7.584v-6.713h5.51l-20.139-40.278h-74.212l20.139,40.278m-43.635,0h36.13l-18.065-36.13-18.065,36.13M-524.125,555.2h40.278V427.65h-40.278V555.2m157.883,0H-346.1V454.5h-20.139V555.2m-69.453,0h62.74V454.5h-62.74V555.2m6.713-203.773h-68.291a12.466,12.466,0,0,0-12.451,12.453v12.07l-23.245,46.489a2.382,2.382,0,0,0-.251,1.065v138.41a2.382,2.382,0,0,0,2.382,2.382H-339.39a2.382,2.382,0,0,0,2.382-2.382V447.791a2.382,2.382,0,0,0-2.382-2.382h-29.842l5.918-30.023a7.631,7.631,0,0,1,7.494-5.964h12.728a2.382,2.382,0,0,0,2.382-2.382v-6.713a2.382,2.382,0,0,0-2.382-2.382h-12.728a19.05,19.05,0,0,0-18.707,15.01l-6.432,32.455h-12.076V423.5a2.382,2.382,0,0,0-.251-1.065l-23.244-46.489v-12.07a12.466,12.466,0,0,0-12.453-12.453Zm-69.265,20.139v-7.686a.974.974,0,0,1,.973-.975h68.291a.976.976,0,0,1,.975.975v7.686Zm3.546,11.477h68.886l17.757,35.515h-68.886L-494.7,383.041Zm-23.5,35.515,14.211-28.422,14.211,28.422Zm108.484,11.475h5.2v15.376h-37.9a2.382,2.382,0,0,0-2.382,2.382V552.816h-29.962V430.032Zm-112.029,0h35.514V552.816h-35.514V430.032Zm157.883,26.852h15.375v95.932h-15.375V456.884Zm-69.453,0h57.976v95.932h-57.976V456.884Z" transform="translate(533.22 -351.425)"/></g></g></g></g></svg>