<svg xmlns="http://www.w3.org/2000/svg" xmlns:xlink="http://www.w3.org/1999/xlink" viewBox="0 0 600 600"><defs><linearGradient id="_ÂÁ_Ï_ÌÌ_È_ËÂÌÚ_2200" x1="1723.59" y1="483.48" x2="1902.46" y2="173.66" gradientTransform="matrix(-1, 0, 0, 1, 2109.57, 0)" gradientUnits="userSpaceOnUse"><stop offset="0.02" stop-color="#251a29"/><stop offset="0.11" stop-color="#251a29"/><stop offset="0.14" stop-color="#312536"/><stop offset="0.16" stop-color="#35293b"/><stop offset="0.18" stop-color="#35293b"/><stop offset="0.18" stop-color="#35293b"/><stop offset="0.2" stop-color="#392d3e"/><stop offset="0.23" stop-color="#423746"/><stop offset="0.93" stop-color="#423746"/></linearGradient><linearGradient id="_ÂÁ_Ï_ÌÌ_È_ËÂÌÚ_6" x1="391.65" y1="300.7" x2="422.54" y2="300.7" gradientUnits="userSpaceOnUse"><stop offset="0.24" stop-color="#c7c9d3"/><stop offset="0.38" stop-color="#c7c9d3"/><stop offset="0.44" stop-color="#c9cbd5"/><stop offset="0.47" stop-color="#d1d2db"/><stop offset="0.47" stop-color="#d4d4dd"/><stop offset="0.73" stop-color="#d4d4dd"/><stop offset="0.89" stop-color="#d4d4dd"/></linearGradient><linearGradient id="_ÂÁ_Ï_ÌÌ_È_ËÂÌÚ_6-2" x1="160.65" y1="240.95" x2="216.59" y2="240.95" xlink:href="#_ÂÁ_Ï_ÌÌ_È_ËÂÌÚ_6"/><linearGradient id="_ÂÁ_Ï_ÌÌ_È_ËÂÌÚ_6-3" x1="160.65" y1="234.9" x2="216.59" y2="234.9" xlink:href="#_ÂÁ_Ï_ÌÌ_È_ËÂÌÚ_6"/></defs><g style="isolation:isolate"><g id="Layer_1" data-name="Layer 1"><circle cx="307" cy="245.73" r="218.67" style="fill:#84bd00"/><polygon points="505.13 407.62 186.65 223.74 186.65 302.86 505.13 486.74 505.13 407.62" style="fill:#3b4c49"/><polygon points="533.42 423.95 393.12 504.95 393.12 573 533.42 492 533.42 423.95" style="fill:#554d4e"/><polygon points="533.42 344.83 393.12 425.83 393.12 504.95 533.42 423.95 533.42 344.83" style="fill:#342c2d"/><polygon points="533.42 423.95 186.65 223.74 186.65 154.2 533.42 354.41 533.42 423.95" style="fill:#cdcfdb"/><path d="M197.85,179c4.77-2.75,10.64-2.39,16.55,1l291,168c11.9,6.87,21.22,24.53,21.22,40.21,0,8.9-3.14,15.82-8.63,19l-140.29,81L55,261.91Z" style="fill:url(#_ÂÁ_Ï_ÌÌ_È_ËÂÌÚ_2200)"/><polygon points="533.42 423.95 545.65 416.89 545.65 347.35 533.42 354.41 533.42 423.95" style="fill:#6c748f"/><polygon points="533.42 354.41 545.65 347.35 198.88 147.13 186.65 154.19 533.42 354.41" style="fill:#dddfeb"/><polygon points="393.12 504.95 46.35 304.74 46.35 372.79 393.12 573 393.12 504.95" style="fill:#6b6164"/><path d="M363.14,432.47l-291-168c-10.64-6.14-19.26.38-19.26,14.55h0c0,14.18,8.62,30.65,19.26,36.79l291,168c10.63,6.14,19.25-.38,19.25-14.55h0C382.39,455.08,373.77,438.61,363.14,432.47Z" style="fill:#5f5967"/><path d="M361.16,487.23l-291-168C58.24,312.34,48.92,294.68,48.92,279c0-8.9,3.14-15.82,8.63-19,4.77-2.75,10.65-2.39,16.55,1l291,168c11.9,6.87,21.23,24.53,21.23,40.21,0,8.9-3.15,15.82-8.63,19a13.72,13.72,0,0,1-6.92,1.83A19.36,19.36,0,0,1,361.16,487.23Zm-291-219.35c-2.37-1.37-5.8-2.66-8.64-1s-4.68,6.23-4.68,12.14c0,12.68,7.91,28,17.27,33.36l291,168c2.37,1.37,5.8,2.66,8.64,1s4.68-6.23,4.68-12.14c0-12.68-7.91-28-17.28-33.36Z" style="fill:#281f32"/><path d="M91.39,301.24c0,10.24-7.24,14.37-16.17,9.22s-16.16-17.64-16.16-27.89,7.23-14.37,16.16-9.21S91.39,291,91.39,301.24Z" style="fill:#423746"/><path d="M86.65,298.51c0,7.24-5.12,10.16-11.43,6.51s-11.43-12.47-11.43-19.71,5.12-10.17,11.43-6.52S86.65,291.26,86.65,298.51Z" style="fill:#372b3b"/><path d="M376.15,465.65c0,10.25-7.24,14.37-16.17,9.22S343.82,457.23,343.82,447s7.24-14.37,16.16-9.21S376.15,455.41,376.15,465.65Z" style="fill:#423746"/><ellipse cx="217.6" cy="374.11" rx="13.16" ry="22.79" transform="translate(-159.07 160.97) rotate(-30.31)" style="fill:#423746"/><path d="M229.06,380.73c0,7.24-5.11,10.16-11.43,6.52s-11.43-12.48-11.43-19.72,5.12-10.16,11.43-6.52S229.06,373.49,229.06,380.73Z" style="fill:#372b3b"/><path d="M371.41,462.92c0,7.24-5.11,10.16-11.43,6.51S348.55,457,348.55,449.72s5.12-10.16,11.43-6.52S371.41,455.67,371.41,462.92Z" style="fill:#372b3b"/><polygon points="393.12 504.95 46.35 304.74 46.35 235.19 393.12 435.41 393.12 504.95" style="fill:#cdcfdb"/><polygon points="393.12 435.41 405.35 428.35 58.58 228.13 46.35 235.19 393.12 435.41" style="fill:#dddfeb"/><polygon points="393.12 504.95 405.35 497.89 405.35 428.35 393.12 435.41 393.12 504.95" style="fill:#6c748f"/><g style="mix-blend-mode:multiply"><path d="M218.45,241.56l-55.94.63v2.35h0c0,4.12,2.79,8.23,8.25,11.38,10.95,6.33,28.66,6.36,39.55.07,5.47-3.15,8.17-7.3,8.13-11.45h0Z" style="fill:#ccc"/><path d="M210.32,255.41c-10.89,6.28-28.6,6.25-39.55-.08-5.46-3.15-8.21-7.26-8.25-11.38h0v-1.76h0v2.35h0c0,4.12,2.79,8.23,8.25,11.38,10.95,6.33,28.66,6.36,39.55.07,5.47-3.15,8.17-7.3,8.13-11.45h0V244h0C218.49,248.1,215.79,252.25,210.32,255.41Z" style="fill:#ccc"/><path d="M162.51,242.74v.06h0c0,4.12,2.79,8.23,8.25,11.38,10.95,6.33,28.66-4,39.55-10.28,5.47-3.16,8.17,3,8.13-1.1h0v-.61H162.51Z" style="fill:#ccc"/><path d="M210.32,253.64c10.89-6.29,10.83-16.51-.12-22.84s-28.67-16.71-39.56-10.43-10.83,26.87.13,33.2S199.43,259.93,210.32,253.64Z" style="fill:#ccc"/><ellipse cx="190.48" cy="242.19" rx="15.54" ry="26.92" transform="translate(-52.73 431.35) rotate(-89.69)" style="fill:#ccc"/><path d="M208.68,232.32c-10.11-5.84-26.46-5.87-36.51-.07s-10,15.24.11,21.08c4.43,2.55,10.05-6.36,15.81-6,.72,0,1.44.06,2.17.06,6.71.06,13.43,9,18.53,6C218.84,247.59,218.79,238.16,208.68,232.32Z" style="fill:#ccc"/><path d="M207.17,234.28c-9.28-5.35-24.26-5.38-33.48-.06s-9.17,3.62.1,9,24.27,5.38,33.48.06S216.44,239.64,207.17,234.28Z" style="fill:#ccc"/><ellipse cx="190.48" cy="243.43" rx="13.19" ry="22.84" transform="translate(-53.98 432.59) rotate(-89.69)" style="fill:#ccc"/><path d="M190.62,245.06c-5.92,0-11.47,9-15.64,6.62-4-2.28-6.14-5.24-6.14-8.33s2.15-6,6-8.24a31.53,31.53,0,0,1,15.46-3.67A31.87,31.87,0,0,1,206,235.17c4,2.29,6.14,5.25,6.14,8.34s-2.14,6-6,8.23c-4.1,2.37-9.59-6.68-15.45-6.68Z" style="fill:#ccc"/><path d="M190.62,255.42a31.39,31.39,0,0,1-15.39-3.67c-3.89-2.25-6-5.17-6-8.21s2.11-5.89,5.94-8.1a31,31,0,0,1,15.21-3.61,31.28,31.28,0,0,1,15.39,3.67c3.9,2.25,6,5.16,6,8.2s-2.11,5.89-5.94,8.1c-4,2.33-9.44-6.74-15.21-6.74Z" style="fill:#ccc"/><path d="M203.39,236.58c-7.17-4.15-18.77-4.17-25.9-.05s-7.09,10.81.08,14.95,18.77,4.17,25.9.05S210.56,240.72,203.39,236.58Z" style="fill:#ccc"/><ellipse cx="190.48" cy="243.43" rx="10.25" ry="17.76" transform="translate(-53.98 432.59) rotate(-89.69)" style="fill:#ccc"/><path d="M190.59,252.48a24.46,24.46,0,0,1-12-2.86c-3-1.73-4.64-4-4.64-6.26s1.62-4.47,4.56-6.17a26.56,26.56,0,0,1,23.92.05c3,1.73,4.64,3.95,4.64,6.25s-1.62,4.47-4.56,6.17a24.17,24.17,0,0,1-11.89,2.82Z" style="fill:#ccc"/><path d="M190.59,252.48a23.89,23.89,0,0,1-11.76-2.8c-2.92-1.69-4.53-3.86-4.53-6.11s1.58-4.37,4.46-6a26,26,0,0,1,23.37.05c2.92,1.69,4.53,3.86,4.53,6.11s-1.58,4.37-4.45,6a23.74,23.74,0,0,1-11.62,2.75Z" style="fill:#ccc"/><path d="M190.57,251.12a19.61,19.61,0,0,1-9.64-2.3c-2.4-1.38-3.72-3.16-3.72-5s1.3-3.59,3.65-4.95a21.31,21.31,0,0,1,19.18,0c2.39,1.38,3.71,3.16,3.71,5s-1.29,3.59-3.65,5a19.49,19.49,0,0,1-9.53,2.26Z" style="fill:#ccc"/><path d="M190.56,250.25a18.34,18.34,0,0,1-9.06-2.16c-2.26-1.3-3.5-3-3.5-4.71s1.22-3.37,3.44-4.65a18.21,18.21,0,0,1,9-2.13,18.52,18.52,0,0,1,9.07,2.16c2.25,1.31,3.49,3,3.49,4.72s-1.22,3.37-3.43,4.65a18.26,18.26,0,0,1-9,2.12Z" style="fill:#ccc"/><path d="M208.31,234.1l-1.2-.69a3.85,3.85,0,0,0-3.3,0l-6.33,3.23c-.62.32-.86.77-.71,1.17a.91.91,0,0,0,.45.5l2.55,1.49a3.09,3.09,0,0,0,2.87-.17l5.61-3.64a1.54,1.54,0,0,0,.64-.76v0A1,1,0,0,0,208.31,234.1ZM199,238.19a1.18,1.18,0,0,1-.38-.35,1,1,0,0,1,.42-.4l.73-.37a2.26,2.26,0,0,1,1.95,0l1,.57a.68.68,0,0,1,.35.34.75.75,0,0,1-.3.33l-.67.42a2.21,2.21,0,0,1-2.05,0Zm6.34-1.65a2.33,2.33,0,0,1-1.08.26,1.59,1.59,0,0,1-.79-.17l-.73-.43a.57.57,0,0,1-.27-.26,1.11,1.11,0,0,1,.4-.37,2.16,2.16,0,0,1,1-.27,1.61,1.61,0,0,1,.82.19l.74.43a.57.57,0,0,1,.26.25A1.11,1.11,0,0,1,205.34,236.54Z" style="fill:#ccc;mix-blend-mode:multiply"/><path d="M208.89,234.45v-.06a1.19,1.19,0,0,0-.58-.66l-1.2-.69a3.82,3.82,0,0,0-3.3,0l-6.33,3.24a1.3,1.3,0,0,0-.71.7c-.14.36,0,.71.45,1l2.55,1.48a3.11,3.11,0,0,0,2.87-.15l5.61-3.66C208.78,235.29,209,234.86,208.89,234.45Zm-3.15.9a1.11,1.11,0,0,1-.4.37,2.34,2.34,0,0,1-1.08.27,1.71,1.71,0,0,1-.79-.17l-.73-.43a.58.58,0,0,1-.27-.27,1.11,1.11,0,0,1,.4-.37,2.15,2.15,0,0,1,1-.26,1.6,1.6,0,0,1,.82.18l.74.43A.63.63,0,0,1,205.74,235.35Zm-6.7,1.28.73-.38a2.22,2.22,0,0,1,1.95,0l1,.56a.72.72,0,0,1,.35.34.82.82,0,0,1-.3.34l-.67.41a2.19,2.19,0,0,1-2.05,0l-1-.6a1.32,1.32,0,0,1-.38-.36A.94.94,0,0,1,199,236.63Z" style="fill:#ccc"/><path d="M208.31,233.28l-1.2-.69a3.82,3.82,0,0,0-3.3,0l-6.33,3.23c-.62.31-.86.77-.71,1.16a.9.9,0,0,0,.45.51l2.55,1.48a3.06,3.06,0,0,0,2.87-.17l5.61-3.64a1.57,1.57,0,0,0,.64-.75v-.06A1,1,0,0,0,208.31,233.28Zm-9.31,4.1a1.32,1.32,0,0,1-.38-.36.94.94,0,0,1,.42-.39l.73-.38a2.22,2.22,0,0,1,1.95,0l1,.56a.72.72,0,0,1,.35.34.82.82,0,0,1-.3.34l-.67.41a2.19,2.19,0,0,1-2.05,0Zm6.34-1.66a2.34,2.34,0,0,1-1.08.27,1.71,1.71,0,0,1-.79-.17l-.73-.43a.58.58,0,0,1-.27-.27,1.11,1.11,0,0,1,.4-.37,2.15,2.15,0,0,1,1-.26,1.6,1.6,0,0,1,.82.18l.74.43a.63.63,0,0,1,.26.25A1.11,1.11,0,0,1,205.34,235.72Z" style="fill:#ccc"/><path d="M206.51,234.37l-1.28-.73a2.59,2.59,0,0,0-2.27,0l-5.22,2.57a.82.82,0,0,0-.47.51.52.52,0,0,0,.3.5l2.69,1.54a1.45,1.45,0,0,0,.86.17,1.86,1.86,0,0,0,.88-.26l4.47-3C207.07,235.27,207.09,234.69,206.51,234.37Zm-3.76,3.16-.67.41a2.19,2.19,0,0,1-2.05,0l-1-.6a1.32,1.32,0,0,1-.38-.36.94.94,0,0,1,.42-.39l.73-.38a2.22,2.22,0,0,1,1.95,0l1,.56a.72.72,0,0,1,.35.34A.82.82,0,0,1,202.75,237.53Zm2.59-1.81a2.34,2.34,0,0,1-1.08.27,1.71,1.71,0,0,1-.79-.17l-.73-.43a.58.58,0,0,1-.27-.27,1.11,1.11,0,0,1,.4-.37,2.15,2.15,0,0,1,1-.26,1.6,1.6,0,0,1,.82.18l.74.43a.63.63,0,0,1,.26.25A1.11,1.11,0,0,1,205.34,235.72Z" style="fill:#ccc"/><path d="M203.05,237.19a.72.72,0,0,0-.35-.34l-1-.56a2.22,2.22,0,0,0-1.95,0l-.73.38a.94.94,0,0,0-.42.39c-.15-.3,0-.62.42-.85l.73-.37a2.22,2.22,0,0,1,1.95,0l1,.56C203.07,236.61,203.19,236.91,203.05,237.19Z" style="fill:#ccc"/><path d="M205.74,235.35a.63.63,0,0,0-.26-.25l-.74-.43a1.6,1.6,0,0,0-.82-.18,2.15,2.15,0,0,0-1,.26,1.11,1.11,0,0,0-.4.37c-.15-.26,0-.58.4-.82a2.16,2.16,0,0,1,1-.27,1.61,1.61,0,0,1,.82.19l.74.43A.5.5,0,0,1,205.74,235.35Z" style="fill:#ccc"/><path d="M206.31,233.17a1.08,1.08,0,0,1,1,0c.28.16.28.42,0,.57a1.06,1.06,0,0,1-1,0C206,233.58,206,233.33,206.31,233.17Z" style="fill:#ccc"/></g><g style="mix-blend-mode:multiply"><path d="M433.8,349.48l-35.55.4v1.5h0c0,2.61,1.77,5.23,5.24,7.23,7,4,18.22,4,25.14.05,3.47-2,5.19-4.65,5.16-7.28h0Z" style="fill:#ccc"/><path d="M428.64,358.28c-6.92,4-18.18,4-25.14,0-3.47-2-5.22-4.62-5.24-7.24h0v-1.12h0v1.5h0c0,2.61,1.77,5.23,5.24,7.23,7,4,18.22,4,25.14.05,3.47-2,5.19-4.65,5.16-7.28h0V351h0C433.83,353.64,432.11,356.28,428.64,358.28Z" style="fill:#ccc"/><path d="M398.25,350.23v0h0c0,2.62,1.77,5.23,5.24,7.24,7,4,18.22-2.55,25.14-6.54,3.47-2,5.19,1.94,5.16-.7h0v-.39H398.25Z" style="fill:#ccc"/><path d="M428.64,357.16c6.92-4,6.88-10.49-.08-14.51S410.34,332,403.42,336s-6.89,17.07.08,21.09S421.72,361.15,428.64,357.16Z" style="fill:#ccc"/><ellipse cx="416.03" cy="349.88" rx="9.88" ry="17.11" transform="translate(63.9 764) rotate(-89.69)" style="fill:#ccc"/><path d="M427.59,343.61c-6.42-3.71-16.81-3.73-23.2,0s-6.36,9.68.07,13.39c2.81,1.63,6.38-4,10.05-3.83.45,0,.92,0,1.38,0,4.26,0,8.53,5.71,11.78,3.83C434.05,353.32,434,347.32,427.59,343.61Z" style="fill:#ccc"/><path d="M426.63,344.86c-5.89-3.4-15.42-3.42-21.27,0s-5.83,2.3.06,5.7,15.42,3.42,21.28,0S432.53,348.26,426.63,344.86Z" style="fill:#ccc"/><ellipse cx="416.03" cy="350.67" rx="8.38" ry="14.52" transform="translate(63.11 764.79) rotate(-89.69)" style="fill:#ccc"/><path d="M416.12,351.71c-3.76,0-7.3,5.74-9.94,4.21s-3.91-3.34-3.91-5.3,1.37-3.81,3.84-5.23a20,20,0,0,1,9.83-2.34,20.21,20.21,0,0,1,9.94,2.37c2.52,1.45,3.9,3.34,3.9,5.3s-1.36,3.8-3.84,5.23-6.09-4.24-9.82-4.24Z" style="fill:#ccc"/><path d="M416.12,358.29a19.92,19.92,0,0,1-9.78-2.33c-2.48-1.43-3.84-3.29-3.84-5.22s1.34-3.74,3.77-5.15a19.7,19.7,0,0,1,9.67-2.29,20,20,0,0,1,9.78,2.33c2.48,1.43,3.84,3.28,3.84,5.21s-1.34,3.75-3.78,5.15-6-4.28-9.66-4.28Z" style="fill:#ccc"/><path d="M424.23,346.32c-4.56-2.64-11.93-2.65-16.46,0s-4.51,6.87.05,9.5,11.93,2.64,16.46,0S428.79,349,424.23,346.32Z" style="fill:#ccc"/><ellipse cx="416.03" cy="350.67" rx="6.52" ry="11.29" transform="matrix(0.01, -1, 1, 0.01, 63.11, 764.79)" style="fill:#ccc"/><path d="M416.1,356.42a15.51,15.51,0,0,1-7.65-1.82c-1.9-1.1-2.95-2.51-2.95-4s1-2.84,2.9-3.92a16.9,16.9,0,0,1,15.2,0c1.9,1.09,2.95,2.51,2.95,4s-1,2.84-2.9,3.92a15.3,15.3,0,0,1-7.55,1.79Z" style="fill:#ccc"/><path d="M416.1,356.42a15.14,15.14,0,0,1-7.47-1.78c-1.86-1.07-2.89-2.45-2.89-3.88s1-2.78,2.84-3.83a15,15,0,0,1,7.38-1.75,15.17,15.17,0,0,1,7.47,1.78c1.86,1.07,2.88,2.45,2.88,3.88s-1,2.78-2.83,3.83a15,15,0,0,1-7.38,1.75Z" style="fill:#ccc"/><path d="M416.08,355.56A12.45,12.45,0,0,1,410,354.1c-1.53-.88-2.37-2-2.37-3.19s.83-2.28,2.33-3.14a12.25,12.25,0,0,1,6.05-1.44,12.49,12.49,0,0,1,6.13,1.46c1.52.88,2.36,2,2.36,3.19s-.82,2.27-2.32,3.14a12.29,12.29,0,0,1-6.06,1.44Z" style="fill:#ccc"/><path d="M416.08,355a11.66,11.66,0,0,1-5.76-1.38c-1.44-.82-2.23-1.89-2.23-3s.78-2.14,2.19-3a11.59,11.59,0,0,1,5.69-1.35,11.8,11.8,0,0,1,5.77,1.37c1.43.83,2.22,1.9,2.22,3s-.77,2.14-2.18,3a11.63,11.63,0,0,1-5.7,1.35Z" style="fill:#ccc"/><path d="M427.36,344.74l-.76-.44a2.45,2.45,0,0,0-2.1,0l-4,2.06c-.4.2-.55.49-.46.74a.66.66,0,0,0,.29.32l1.62.94a2,2,0,0,0,1.83-.11l3.56-2.31a1,1,0,0,0,.41-.48v0A.62.62,0,0,0,427.36,344.74Zm-5.92,2.6a.74.74,0,0,1-.24-.22.55.55,0,0,1,.27-.25l.46-.24a1.42,1.42,0,0,1,1.24,0l.62.36a.53.53,0,0,1,.23.21.62.62,0,0,1-.19.22l-.43.26a1.36,1.36,0,0,1-1.3,0Zm4-1a1.47,1.47,0,0,1-.69.17,1.09,1.09,0,0,1-.5-.11l-.46-.27a.35.35,0,0,1-.17-.17.72.72,0,0,1,.25-.24,1.35,1.35,0,0,1,.67-.16,1.05,1.05,0,0,1,.52.11l.47.28c.08.05.14.09.16.15A.58.58,0,0,1,425.47,346.29Z" style="fill:#ccc;mix-blend-mode:multiply"/><path d="M427.73,345v0a.77.77,0,0,0-.37-.42l-.76-.44a2.45,2.45,0,0,0-2.1,0l-4,2.06a.81.81,0,0,0-.46.45.48.48,0,0,0,.29.6l1.62.95a2,2,0,0,0,1.83-.1l3.56-2.32C427.66,345.5,427.8,345.22,427.73,345Zm-2,.57a.58.58,0,0,1-.25.24,1.47,1.47,0,0,1-.69.17,1.09,1.09,0,0,1-.5-.11l-.46-.27a.35.35,0,0,1-.17-.17.72.72,0,0,1,.25-.24,1.47,1.47,0,0,1,.67-.16,1,1,0,0,1,.52.12l.47.27A.39.39,0,0,1,425.72,345.53Zm-4.25.82.46-.24a1.42,1.42,0,0,1,1.24,0l.62.36a.53.53,0,0,1,.23.21.55.55,0,0,1-.19.22l-.43.26a1.36,1.36,0,0,1-1.3,0l-.66-.38a.74.74,0,0,1-.24-.22A.55.55,0,0,1,421.47,346.35Z" style="fill:#ccc"/><path d="M427.36,344.22l-.76-.44a2.45,2.45,0,0,0-2.1,0l-4,2.06c-.4.2-.55.49-.46.74a.62.62,0,0,0,.29.32l1.62.94a1.93,1.93,0,0,0,1.83-.11l3.56-2.31a1,1,0,0,0,.41-.48v0A.62.62,0,0,0,427.36,344.22Zm-5.92,2.6a.74.74,0,0,1-.24-.22.55.55,0,0,1,.27-.25l.46-.24a1.42,1.42,0,0,1,1.24,0l.62.36a.53.53,0,0,1,.23.21.55.55,0,0,1-.19.22l-.43.26a1.36,1.36,0,0,1-1.3,0Zm4-1.05a1.47,1.47,0,0,1-.69.17,1.09,1.09,0,0,1-.5-.11l-.46-.27a.35.35,0,0,1-.17-.17.72.72,0,0,1,.25-.24,1.47,1.47,0,0,1,.67-.16,1,1,0,0,1,.52.12l.47.27a.39.39,0,0,1,.16.15A.58.58,0,0,1,425.47,345.77Z" style="fill:#ccc"/><path d="M426.21,344.91l-.81-.46a1.62,1.62,0,0,0-1.44,0l-3.32,1.64a.54.54,0,0,0-.3.32.34.34,0,0,0,.19.32l1.71,1a.94.94,0,0,0,.55.1,1.23,1.23,0,0,0,.56-.16l2.84-1.91C426.57,345.49,426.58,345.12,426.21,344.91Zm-2.38,2-.43.26a1.36,1.36,0,0,1-1.3,0l-.66-.38a.74.74,0,0,1-.24-.22.55.55,0,0,1,.27-.25l.46-.24a1.42,1.42,0,0,1,1.24,0l.62.36a.53.53,0,0,1,.23.21A.55.55,0,0,1,423.83,346.92Zm1.64-1.15a1.47,1.47,0,0,1-.69.17,1.09,1.09,0,0,1-.5-.11l-.46-.27a.35.35,0,0,1-.17-.17.72.72,0,0,1,.25-.24,1.47,1.47,0,0,1,.67-.16,1,1,0,0,1,.52.12l.47.27a.39.39,0,0,1,.16.15A.58.58,0,0,1,425.47,345.77Z" style="fill:#ccc"/><path d="M424,346.7a.53.53,0,0,0-.23-.21l-.62-.36a1.42,1.42,0,0,0-1.24,0l-.46.24a.55.55,0,0,0-.27.25c-.09-.19,0-.4.27-.54l.46-.24a1.42,1.42,0,0,1,1.24,0l.62.36C424,346.33,424.1,346.52,424,346.7Z" style="fill:#ccc"/><path d="M425.72,345.53a.39.39,0,0,0-.16-.15l-.47-.27a1,1,0,0,0-.52-.12,1.47,1.47,0,0,0-.67.16.72.72,0,0,0-.25.24c-.1-.17,0-.37.25-.52a1.36,1.36,0,0,1,.67-.17,1.05,1.05,0,0,1,.52.12l.47.27A.31.31,0,0,1,425.72,345.53Z" style="fill:#ccc"/><path d="M426.09,344.15a.7.7,0,0,1,.63,0,.19.19,0,0,1,0,.36.7.7,0,0,1-.63,0A.19.19,0,0,1,426.09,344.15Z" style="fill:#ccc"/></g><g style="mix-blend-mode:multiply"><ellipse cx="342.64" cy="309.93" rx="18.8" ry="10.86" transform="translate(-62.6 531.83) rotate(-70.84)" style="fill:#ccc"/><path d="M354.23,299.79c1.64,8.3-3.17,18.84-9.57,24.44s-12,4.13-13.62-4.17,2.23-19.55,8.64-25.15S352.6,291.5,354.23,299.79Z" style="fill:#ccc"/><path d="M348,311.75c-1.32,3.83-.59,7.54,1.63,8.29s7.17-1.05,8.49-4.88-1.51-8.26-3.72-9S349.34,307.92,348,311.75Z" style="fill:#ccc"/><path d="M345.94,299c-1.32,3.83-.59,7.54,1.63,8.29s7-2.46,8.27-6.29a6,6,0,0,0-3.51-7.59C350.12,292.63,347.25,295.13,345.94,299Z" style="fill:#ccc"/><path d="M337.12,320c1.3-3.84,4.15-6.33,6.36-5.56s4,6.2,2.7,10a6,6,0,0,1-7.42,3.86C336.55,327.52,335.81,323.78,337.12,320Z" style="fill:#ccc"/><path d="M337.1,319.14c-1.49,4.35-.66,8.56,1.85,9.4s5.77-2,7.27-6.34.66-8.56-1.86-9.4S338.6,314.79,337.1,319.14Z" style="fill:#ccc"/><rect x="298.91" y="275.09" width="37.61" height="52.67" transform="translate(-70.2 504.69) rotate(-71.15)" style="fill:#ccc"/><ellipse cx="292.8" cy="292.91" rx="18.81" ry="10.86" transform="translate(-80 473.32) rotate(-70.84)" style="fill:#ccc"/><path d="M283.57,277.08c-5.8,5.07-9.3,15.26-7.82,22.77s7.38,9.48,13.18,4.42,9.3-15.26,7.82-22.77S289.37,272,283.57,277.08Z" style="fill:#ccc"/><path d="M275.61,272.6c-6.95,5.51-10.87,16.92-8.75,25.47s10.46,11.37,17.41,5.86,11.37-17,8.75-25.47C290.79,271.24,282.56,267.09,275.61,272.6Z" style="fill:#ccc"/><path d="M286,270.73c-25.26-8.63-28.47,5.73-39.47,2L245.41,276l-.43,1.27-1.13,3.32c11,3.76,5.79,17.43,30.37,25.83l7-17.5Z" style="fill:#ccc"/><path d="M268.45,275.59c-4.1,3.58-6.57,10.78-5.53,16.08s5.21,6.7,9.31,3.13,6.57-10.79,5.53-16.09S272.54,272,268.45,275.59Z" style="fill:#ccc"/><path d="M243.05,272.79a6.46,6.46,0,0,0-1.9,5.53c.36,1.82,1.79,2.3,3.2,1.07a6.46,6.46,0,0,0,1.89-5.52C245.89,272.05,244.45,271.57,243.05,272.79Z" style="fill:#ccc"/><path d="M243.82,272.33a8,8,0,0,0-2.34,6.83c.44,2.25,2.21,2.85,4,1.33a8,8,0,0,0,2.35-6.83C247.33,271.41,245.56,270.81,243.82,272.33Z" style="fill:#ccc"/><rect x="237.22" y="273.19" width="10.21" height="4.87" transform="translate(-96.82 415.87) rotate(-71.15)" style="fill:#ccc"/><path d="M239.21,270.76a8,8,0,0,0-2.34,6.83c.44,2.25,2.21,2.84,3.95,1.32a8,8,0,0,0,2.35-6.82C242.72,269.83,241,269.24,239.21,270.76Z" style="fill:#ccc"/><path d="M342.26,304.9c1.42.47,1.89,2.84,1.05,5.28s-2.67,4-4.09,3.57-1.88-2.84-1-5.29S340.85,304.42,342.26,304.9Z" style="fill:#ccc"/><path d="M352.85,300.2c-.84,2.44-2.67,4-4.09,3.56s-1.88-2.84-1-5.28,2.67-4,4.08-3.57S353.68,297.75,352.85,300.2Z" style="fill:#ccc"/><path d="M351.4,317.83c-1.41-.48-1.88-2.85-1-5.29s2.67-4,4.08-3.57,1.88,2.84,1,5.29S352.82,318.3,351.4,317.83Z" style="fill:#ccc"/><path d="M344.61,314.72c-1.19-.4-1.59-2.39-.88-4.45s2.24-3.4,3.43-3,1.58,2.39.88,4.45S345.79,315.12,344.61,314.72Z" style="fill:#ccc"/><path d="M339.27,322c.84-2.45,2.67-4.05,4.08-3.57s1.89,2.84,1,5.29-2.67,4-4.09,3.56S338.43,324.44,339.27,322Z" style="fill:#ccc"/><path d="M267.21,271a38,38,0,0,0-7.67,2.33c-2.82,1.1-5.56,2.23-7,2.13s2.45,1.54,4.6,2.27,6.32.21,10.35.4c5.44.26,25.05,7.22,23.93,2C290.19,274.47,272.35,270,267.21,271Z" style="fill:#ccc;mix-blend-mode:screen"/><path d="M298.16,284.51s4.56-1.6,7.55-.39,42,14.34,42,14.34,6.08,1.65,5.95,3.85c.53-3.84,1.83-6.24-3.91-7.78s-44.67-15.26-46.43-15.86-5-.06-5.37.65S300,281.91,298.16,284.51Z" style="fill:#ccc;mix-blend-mode:screen"/></g><path d="M418.05,354.62c6-3.48,6-9.12-.07-12.62s-15.83-3.51-21.84,0-6,9.11.07,12.61S412,358.09,418.05,354.62Z" style="fill:#d7d6d6"/><path d="M418.81,353.61c6.43-3.71,6.39-9.75-.07-13.48s-16.93-3.76-23.35-.05-6.4,9.75.07,13.49S412.38,357.32,418.81,353.61Z" style="fill:#ab3030"/><ellipse cx="407.1" cy="344.09" rx="10.43" ry="18.07" transform="translate(60.81 749.31) rotate(-89.69)" style="fill:#e04141"/><rect x="389.02" y="305.85" width="36.15" height="38.23" style="fill:#e04141"/><path d="M419.92,313.25c7-4.06,7-10.66-.08-14.75s-18.53-4.11-25.56-.05-7,10.67.08,14.76S412.88,317.32,419.92,313.25Z" style="fill:#f55151"/><path d="M418.81,309.75c6.43-3.71,6.39-9.75-.07-13.48s-16.93-3.76-23.35,0-6.4,9.75.07,13.49S412.38,313.46,418.81,309.75Z" style="fill:#f66"/><path d="M418.05,307c6-3.47,6-9.12-.07-12.61s-15.83-3.51-21.84,0-6,9.12.07,12.61S412,310.5,418.05,307Z" style="fill:url(#_ÂÁ_Ï_ÌÌ_È_ËÂÌÚ_6)"/><path d="M418.05,305.68c6-3.48,6-9.12-.07-12.62s-15.83-3.51-21.84,0-6,9.12.07,12.62S412,309.15,418.05,305.68Z" style="fill:#f1f1f6"/><path d="M419.79,303.26a10.39,10.39,0,0,1-2.52,2c-5.59,3.22-14.67,3.2-20.28,0a10.89,10.89,0,0,1-2.51-1.94c-2.92-3.13-2.12-7.12,2.44-9.76,5.59-3.22,14.67-3.2,20.28,0C421.78,296.17,422.65,300.14,419.79,303.26Z" style="fill:#d4d4dd"/><path d="M420.73,300.52a4.7,4.7,0,0,1-.94,2.74,10.39,10.39,0,0,1-2.52,2c-5.59,3.22-14.67,3.2-20.28,0a10.89,10.89,0,0,1-2.51-1.94,4.61,4.61,0,0,1-1-2.83c0-1.92,1.37-3.77,3.81-5.2a21.71,21.71,0,0,1,19.57,0C419.34,296.69,420.73,298.56,420.73,300.52Z" style="fill:#ececf5"/><path d="M418.38,351.58V315.07s3.56-1.43,4.6-3.45v36.53A12.62,12.62,0,0,1,418.38,351.58Z" style="fill:#731010;mix-blend-mode:screen"/><path d="M408.18,301.15a17.26,17.26,0,0,0,9.6,0c1.12-.3,1.78-1,1.57-1.7a7.36,7.36,0,0,0-3.63-4,17.76,17.76,0,0,0-7-2.1,3.5,3.5,0,0,0-2.94.91c-1.58,2-1.61,4.05-.05,5.54a6,6,0,0,0,1.08.78A8.94,8.94,0,0,0,408.18,301.15Z" style="fill:#f1f1f6"/><path d="M408.49,301.18a15.32,15.32,0,0,0,8.58,0c1-.26,1.6-.88,1.41-1.51a6.61,6.61,0,0,0-3.25-3.61,15.81,15.81,0,0,0-6.25-1.87,3.1,3.1,0,0,0-2.62.81c-1.42,1.78-1.44,3.62-.05,4.95a5.62,5.62,0,0,0,1,.7A7.45,7.45,0,0,0,408.49,301.18Z" style="fill:#ececf5"/><path d="M411.9,299.13l-2.67-1.54c-1-.55-.84-1.53.27-2.17h0a4.17,4.17,0,0,1,3.76-.15l2.67,1.54c1,.55.84,1.53-.27,2.17h0A4.17,4.17,0,0,1,411.9,299.13Z" style="fill:#555252"/><path d="M416.17,297.18l-2.27-1.33a2.74,2.74,0,0,0-2.56.14l-5,3.26c-.48.32-.67.7-.57,1.07a0,0,0,0,0,0,.05,1.15,1.15,0,0,0,.52.57l1.07.61a3.33,3.33,0,0,0,2.94,0l5.64-2.89a1.15,1.15,0,0,0,.63-.62A.68.68,0,0,0,416.17,297.18Zm-4.88,1a.81.81,0,0,1-.32-.32.6.6,0,0,1,.27-.28l.58-.39a2,2,0,0,1,1.84,0l.92.53a.84.84,0,0,1,.34.3.9.9,0,0,1-.37.35l-.65.34a2,2,0,0,1-1.74,0Zm-2.71,1.32a1,1,0,0,1,.35-.34,2,2,0,0,1,.94-.23,1.41,1.41,0,0,1,.73.17l.66.37a.51.51,0,0,1,.23.23.94.94,0,0,1-.35.33,2,2,0,0,1-.95.24,1.4,1.4,0,0,1-.72-.17l-.66-.37A.51.51,0,0,1,408.58,299.5Z" style="fill:#d7d6d6;mix-blend-mode:multiply"/><path d="M416.57,297.3a.78.78,0,0,0-.4-.45l-2.27-1.32a1.17,1.17,0,0,0-.25-.12h0a2.9,2.9,0,0,0-1.77,0,1.75,1.75,0,0,0-.52.23l-5,3.26a1.46,1.46,0,0,0-.57.67,0,0,0,0,0,0,.05.88.88,0,0,0,.52,1l1.07.62a3.44,3.44,0,0,0,2.94,0l5.64-2.89C416.49,298.05,416.7,297.65,416.57,297.3Zm-5.43,2a2,2,0,0,1-.95.23,1.4,1.4,0,0,1-.72-.17l-.66-.36a.58.58,0,0,1-.23-.24.94.94,0,0,1,.35-.33,2,2,0,0,1,.94-.24,1.41,1.41,0,0,1,.73.17l.66.37a.51.51,0,0,1,.23.23A1,1,0,0,1,411.14,299.31Zm3.44-2.33a1,1,0,0,1,.34.3.84.84,0,0,1-.37.35l-.65.34a2,2,0,0,1-1.74,0l-.87-.5a.81.81,0,0,1-.32-.32.6.6,0,0,1,.27-.28l.58-.39a2,2,0,0,1,1.84,0Z" style="fill:#d4d4dd"/><path d="M416.17,296.45l-2.27-1.32a2.71,2.71,0,0,0-2.56.13l-5,3.26c-.48.32-.67.7-.57,1.07a0,0,0,0,0,0,.05,1.15,1.15,0,0,0,.52.57l1.07.62a3.37,3.37,0,0,0,2.94,0l5.64-2.89a1.15,1.15,0,0,0,.63-.62A.68.68,0,0,0,416.17,296.45Zm-4.88,1a.81.81,0,0,1-.32-.32.6.6,0,0,1,.27-.28l.58-.39a2,2,0,0,1,1.84,0l.92.53a1,1,0,0,1,.34.3.84.84,0,0,1-.37.35l-.65.34a2,2,0,0,1-1.74,0Zm-2.71,1.32a.94.94,0,0,1,.35-.33,2,2,0,0,1,.94-.24,1.41,1.41,0,0,1,.73.17l.66.37a.51.51,0,0,1,.23.23,1,1,0,0,1-.35.34,2,2,0,0,1-.95.23,1.4,1.4,0,0,1-.72-.17l-.66-.36A.58.58,0,0,1,408.58,298.77Z" style="fill:#f1f1f6"/><path d="M415.85,296.7l-2.2-1.29h0l-.17-.1a1.33,1.33,0,0,0-.77-.15,1.7,1.7,0,0,0-.78.23l-.05,0-3.93,2.66c-.54.35-.55.86,0,1.17l1.13.65a2.38,2.38,0,0,0,2,0l4.65-2.31a.6.6,0,0,0,.4-.45C416.14,297,416.05,296.82,415.85,296.7Zm-4.71,2.61a2,2,0,0,1-.95.23,1.4,1.4,0,0,1-.72-.17l-.66-.36a.58.58,0,0,1-.23-.24.94.94,0,0,1,.35-.33,2,2,0,0,1,.94-.24,1.41,1.41,0,0,1,.73.17l.66.37a.51.51,0,0,1,.23.23A1,1,0,0,1,411.14,299.31Zm3.41-1.68-.65.34a2,2,0,0,1-1.74,0l-.87-.5a.81.81,0,0,1-.32-.32.6.6,0,0,1,.27-.28l.58-.39a2,2,0,0,1,1.84,0l.92.53a1,1,0,0,1,.34.3A.84.84,0,0,1,414.55,297.63Z" style="fill:#ececf5"/><path d="M414.92,297.28a1,1,0,0,0-.34-.3l-.92-.53a2,2,0,0,0-1.84,0l-.58.39a.6.6,0,0,0-.27.28.51.51,0,0,1,.27-.68l.58-.39a2,2,0,0,1,1.84,0l.92.53C414.92,296.76,415,297.05,414.92,297.28Z" style="fill:#d4d4dd"/><path d="M411.49,299a.51.51,0,0,0-.23-.23l-.66-.37a1.41,1.41,0,0,0-.73-.17,2,2,0,0,0-.94.24.94.94,0,0,0-.35.33c-.13-.23,0-.52.35-.73a1.85,1.85,0,0,1,.94-.24,1.41,1.41,0,0,1,.73.17l.66.37A.45.45,0,0,1,411.49,299Z" style="fill:#d4d4dd"/><path d="M408.07,300.32a.94.94,0,0,1-.88,0c-.25-.14-.25-.36,0-.5a1,1,0,0,1,.89,0A.27.27,0,0,1,408.07,300.32Z" style="fill:#d4d4dd"/><ellipse cx="342.64" cy="301.16" rx="18.8" ry="10.86" transform="translate(-54.32 525.94) rotate(-70.84)" style="fill:#ad5a38"/><path d="M354.23,291c1.64,8.29-3.17,18.84-9.57,24.44s-12,4.12-13.62-4.17,2.23-19.56,8.64-25.15S352.6,282.74,354.23,291Z" style="fill:#c47251"/><path d="M348,303c-1.32,3.83-.59,7.54,1.63,8.28s7.17-1,8.49-4.88-1.51-8.25-3.72-9S349.34,299.16,348,303Z" style="fill:#c47251"/><path d="M345.94,290.2c-1.32,3.83-.59,7.54,1.63,8.28s7-2.45,8.27-6.28a6,6,0,0,0-3.51-7.59C350.12,283.86,347.25,286.37,345.94,290.2Z" style="fill:#c47251"/><path d="M337.12,311.18c1.3-3.84,4.15-6.32,6.36-5.55s4,6.19,2.7,10a6,6,0,0,1-7.42,3.86C336.55,318.75,335.81,315,337.12,311.18Z" style="fill:#c47251"/><path d="M337.1,310.38c-1.49,4.35-.66,8.55,1.85,9.4s5.77-2,7.27-6.35.66-8.55-1.86-9.4S338.6,306,337.1,310.38Z" style="fill:#c47251"/><rect x="298.91" y="266.32" width="37.61" height="52.67" transform="translate(-61.9 498.76) rotate(-71.15)" style="fill:#c47251"/><ellipse cx="292.8" cy="284.15" rx="18.81" ry="10.86" transform="translate(-71.72 467.43) rotate(-70.84)" style="fill:#c77254"/><path d="M283.57,268.31c-5.8,5.07-9.3,15.27-7.82,22.77s7.38,9.49,13.18,4.42,9.3-15.26,7.82-22.76S289.37,263.25,283.57,268.31Z" style="fill:#b96845"/><path d="M275.61,263.84c-6.95,5.51-10.87,16.91-8.75,25.47s10.46,11.37,17.41,5.86,11.37-17,8.75-25.48C290.79,262.48,282.56,258.33,275.61,263.84Z" style="fill:#c47251"/><path d="M286,262c-25.26-8.63-28.47,5.74-39.47,2l-1.14,3.32-.43,1.26-1.13,3.32c11,3.76,5.79,17.44,30.37,25.83l7-17.49Z" style="fill:#c47251"/><path d="M268.45,266.82c-4.1,3.58-6.57,10.78-5.53,16.09s5.21,6.7,9.31,3.12,6.57-10.78,5.53-16.08S272.54,263.24,268.45,266.82Z" style="fill:#c47251"/><path d="M243.05,264a6.45,6.45,0,0,0-1.9,5.53c.36,1.82,1.79,2.3,3.2,1.07a6.47,6.47,0,0,0,1.89-5.53C245.89,263.28,244.45,262.8,243.05,264Z" style="fill:#d3d6e6"/><path d="M243.82,263.57a8,8,0,0,0-2.34,6.83c.44,2.25,2.21,2.84,4,1.32a8,8,0,0,0,2.35-6.82C247.33,262.64,245.56,262.05,243.82,263.57Z" style="fill:#f80"/><rect x="237.22" y="264.42" width="10.21" height="4.87" transform="translate(-88.53 409.94) rotate(-71.15)" style="fill:#f80"/><path d="M239.21,262a7.93,7.93,0,0,0-2.34,6.82c.44,2.26,2.21,2.85,3.95,1.33a8,8,0,0,0,2.35-6.83C242.72,261.07,241,260.48,239.21,262Z" style="fill:#ffb800"/><path d="M342.26,296.13c1.42.48,1.89,2.84,1.05,5.29s-2.67,4-4.09,3.57-1.88-2.85-1-5.29S340.85,295.66,342.26,296.13Z" style="fill:#b2603d"/><path d="M352.85,291.43c-.84,2.45-2.67,4-4.09,3.57s-1.88-2.84-1-5.29,2.67-4,4.08-3.56S353.68,289,352.85,291.43Z" style="fill:#b2603d"/><path d="M351.4,309.06c-1.41-.47-1.88-2.84-1-5.28s2.67-4,4.08-3.57,1.88,2.84,1,5.28S352.82,309.54,351.4,309.06Z" style="fill:#b2603d"/><path d="M344.61,306c-1.19-.4-1.59-2.39-.88-4.44s2.24-3.4,3.43-3,1.58,2.39.88,4.44S345.79,306.35,344.61,306Z" style="fill:#b2603d"/><path d="M339.27,313.23c.84-2.44,2.67-4,4.08-3.57s1.89,2.85,1,5.29-2.67,4-4.09,3.57S338.43,315.68,339.27,313.23Z" style="fill:#b2603d"/><path d="M267.21,262.26a38.14,38.14,0,0,0-7.67,2.34c-2.82,1.09-5.56,2.22-7,2.12s2.45,1.54,4.6,2.27,6.32.22,10.35.41c5.44.25,25.05,7.22,23.93,2C290.19,265.7,272.35,261.27,267.21,262.26Z" style="fill:#1f0d06;mix-blend-mode:screen"/><path d="M298.16,275.75s4.56-1.61,7.55-.4,42,14.35,42,14.35,6.08,1.64,5.95,3.85c.53-3.84,1.83-6.25-3.91-7.79s-44.67-15.25-46.43-15.85-5-.06-5.37.65S300,273.15,298.16,275.75Z" style="fill:#1f0d06;mix-blend-mode:screen"/><path d="M216.59,226.52H160.65v12.71h0c0,4.11,2.79,8.23,8.25,11.38,11,6.33,28.66,6.36,39.55.07,5.47-3.15,8.17-7.3,8.13-11.45h0Z" style="fill:#e04141"/><path d="M211.16,237.36s-3.29,3.47-10.67,5V252s6.82-1.78,10.67-5.22Z" style="fill:#731010;mix-blend-mode:screen"/><path d="M208.46,250.09c-10.89,6.29-28.6,6.26-39.55-.07-5.46-3.15-8.21-7.26-8.25-11.38h0V226.52h0v12.71h0c0,4.11,2.79,8.23,8.25,11.38,11,6.33,28.66,6.36,39.55.07,5.47-3.15,8.17-7.3,8.13-11.45h0v-.59h0C216.63,242.79,213.93,246.94,208.46,250.09Z" style="fill:url(#_ÂÁ_Ï_ÌÌ_È_ËÂÌÚ_6-2)"/><path d="M160.65,227.07v.06h0c0,4.12,2.79,8.23,8.25,11.38,11,6.33,28.66,6.36,39.55.08,5.47-3.16,8.17-7.31,8.13-11.46h0v-.61H160.65Z" style="fill:url(#_ÂÁ_Ï_ÌÌ_È_ËÂÌÚ_6-3)"/><path d="M208.46,238c10.89-6.29,10.83-16.51-.12-22.84s-28.67-6.35-39.56-.07-10.83,16.51.13,22.84S197.57,244.26,208.46,238Z" style="fill:#f1f1f6"/><ellipse cx="188.62" cy="226.52" rx="15.54" ry="26.92" transform="translate(-38.91 413.91) rotate(-89.69)" style="fill:#d4d4dd"/><path d="M206.82,216.65c-10.11-5.84-26.46-5.87-36.51-.07s-10,15.24.11,21.08A36.23,36.23,0,0,0,186.23,242c.72,0,1.44,0,2.17.06,6.71.06,13.43-1.38,18.53-4.32C217,231.92,216.93,222.49,206.82,216.65Z" style="fill:#ececf5"/><path d="M205.31,218.62c-9.27-5.36-24.26-5.39-33.48-.07s-9.17,14,.11,19.33,24.26,5.38,33.47.06S214.58,224,205.31,218.62Z" style="fill:#d4d4dd"/><ellipse cx="188.62" cy="227.76" rx="13.19" ry="22.84" transform="translate(-40.16 415.14) rotate(-89.69)" style="fill:#f1f1f6"/><path d="M188.77,239.75A31.88,31.88,0,0,1,173.12,236c-4-2.29-6.14-5.25-6.14-8.34s2.15-6,6-8.24a31.53,31.53,0,0,1,15.46-3.67,31.84,31.84,0,0,1,15.64,3.73c4,2.29,6.14,5.25,6.14,8.34s-2.14,6-6,8.24a31.51,31.51,0,0,1-15.45,3.67Z" style="fill:#cfcece"/><path d="M188.76,239.75a31.39,31.39,0,0,1-15.39-3.67c-3.89-2.25-6-5.17-6-8.21s2.11-5.89,5.94-8.1a34,34,0,0,1,30.6.06c3.9,2.25,6,5.16,6,8.2s-2.11,5.89-5.94,8.1a30.92,30.92,0,0,1-15.2,3.62Z" style="fill:#ececf5"/><path d="M201.53,220.91c-7.17-4.14-18.77-4.17-25.9,0s-7.09,10.81.08,14.95,18.77,4.17,25.9.05S208.71,225.05,201.53,220.91Z" style="fill:#d4d4dd"/><ellipse cx="188.62" cy="227.76" rx="10.25" ry="17.76" transform="translate(-40.16 415.14) rotate(-89.69)" style="fill:#f1f1f6"/><path d="M188.73,236.81a24.46,24.46,0,0,1-12-2.86c-3-1.73-4.64-3.95-4.64-6.26s1.62-4.47,4.56-6.16a26.6,26.6,0,0,1,23.92,0c3,1.73,4.64,4,4.64,6.25s-1.62,4.48-4.56,6.17a24.17,24.17,0,0,1-11.89,2.82Z" style="fill:#cfcece"/><path d="M188.73,236.81A23.89,23.89,0,0,1,177,234c-2.92-1.69-4.53-3.85-4.53-6.11s1.58-4.37,4.46-6a26,26,0,0,1,23.37,0c2.92,1.69,4.53,3.86,4.53,6.11s-1.58,4.37-4.45,6a23.74,23.74,0,0,1-11.62,2.75Z" style="fill:#ececf5"/><path d="M188.71,235.45a19.61,19.61,0,0,1-9.64-2.3c-2.4-1.38-3.72-3.16-3.72-5s1.3-3.58,3.66-4.95a19.42,19.42,0,0,1,9.52-2.26,19.65,19.65,0,0,1,9.65,2.3c2.39,1.39,3.72,3.17,3.72,5s-1.3,3.59-3.66,4.95a19.38,19.38,0,0,1-9.53,2.26Z" style="fill:#d4d4dd"/><path d="M188.71,234.58a18.46,18.46,0,0,1-9.07-2.15c-2.26-1.31-3.5-3-3.5-4.72s1.22-3.37,3.44-4.65a18.21,18.21,0,0,1,9-2.13,18.52,18.52,0,0,1,9.07,2.16c2.25,1.31,3.5,3,3.5,4.72s-1.23,3.37-3.44,4.65a18.26,18.26,0,0,1-9,2.12Z" style="fill:#f1f1f6"/><path d="M206.45,218.43l-1.2-.69a3.82,3.82,0,0,0-3.3,0L195.62,221c-.62.32-.86.77-.71,1.17a.88.88,0,0,0,.45.5l2.55,1.49a3.09,3.09,0,0,0,2.87-.17l5.61-3.64a1.57,1.57,0,0,0,.64-.75v-.06A1,1,0,0,0,206.45,218.43Zm-9.31,4.09a1,1,0,0,1-.37-.35.93.93,0,0,1,.41-.4l.73-.37a2.22,2.22,0,0,1,2,0l1,.56a.8.8,0,0,1,.36.34.78.78,0,0,1-.31.33l-.67.42a2.21,2.21,0,0,1-2.05,0Zm6.35-1.65a2.41,2.41,0,0,1-1.09.27,1.71,1.71,0,0,1-.79-.17l-.73-.44a.53.53,0,0,1-.27-.26,1.11,1.11,0,0,1,.4-.37,2.16,2.16,0,0,1,1.05-.27,1.61,1.61,0,0,1,.82.19l.74.43a.57.57,0,0,1,.26.25A1.16,1.16,0,0,1,203.49,220.87Z" style="fill:#d7d6d6;mix-blend-mode:multiply"/><path d="M207,218.78v-.06a1.15,1.15,0,0,0-.58-.65l-1.2-.7a3.82,3.82,0,0,0-3.3,0l-6.33,3.25a1.26,1.26,0,0,0-.71.69.78.78,0,0,0,.45,1l2.55,1.48a3.11,3.11,0,0,0,2.87-.15l5.61-3.66C206.92,219.62,207.15,219.19,207,218.78Zm-3.15.9a1.29,1.29,0,0,1-.39.38,2.53,2.53,0,0,1-1.09.26,1.71,1.71,0,0,1-.79-.17l-.73-.43a.58.58,0,0,1-.27-.27,1.11,1.11,0,0,1,.4-.37,2.15,2.15,0,0,1,1.05-.26,1.6,1.6,0,0,1,.82.18l.74.44A.56.56,0,0,1,203.88,219.68Zm-6.7,1.28.73-.38a2.22,2.22,0,0,1,2,0l1,.56a.34.34,0,0,1,0,.68l-.67.41a2.19,2.19,0,0,1-2.05,0l-1-.6a1.16,1.16,0,0,1-.37-.36A.87.87,0,0,1,197.18,221Z" style="fill:#d4d4dd"/><path d="M206.45,217.62l-1.2-.7a3.82,3.82,0,0,0-3.3,0l-6.33,3.23c-.62.32-.86.77-.71,1.16a.9.9,0,0,0,.45.51l2.55,1.48a3.06,3.06,0,0,0,2.87-.17l5.61-3.64a1.57,1.57,0,0,0,.64-.75v-.06A.94.94,0,0,0,206.45,217.62Zm-9.31,4.09a1.16,1.16,0,0,1-.37-.36.87.87,0,0,1,.41-.39l.73-.38a2.22,2.22,0,0,1,2,0l1,.56a.34.34,0,0,1,0,.68l-.67.41a2.19,2.19,0,0,1-2.05,0Zm6.35-1.65a2.53,2.53,0,0,1-1.09.26,1.71,1.71,0,0,1-.79-.17l-.73-.43a.58.58,0,0,1-.27-.27,1.11,1.11,0,0,1,.4-.37,2.15,2.15,0,0,1,1.05-.26,1.6,1.6,0,0,1,.82.18l.74.44a.56.56,0,0,1,.26.24A1.29,1.29,0,0,1,203.49,220.06Z" style="fill:#f1f1f6"/><path d="M204.65,218.7l-1.28-.73a2.58,2.58,0,0,0-2.27,0l-5.22,2.57a.82.82,0,0,0-.47.51.54.54,0,0,0,.3.51l2.69,1.53a1.45,1.45,0,0,0,.86.17,1.75,1.75,0,0,0,.88-.26l4.47-3C205.21,219.6,205.23,219,204.65,218.7Zm-3.76,3.16-.67.41a2.19,2.19,0,0,1-2.05,0l-1-.6a1.16,1.16,0,0,1-.37-.36.87.87,0,0,1,.41-.39l.73-.38a2.22,2.22,0,0,1,2,0l1,.56a.34.34,0,0,1,0,.68Zm2.6-1.8a2.53,2.53,0,0,1-1.09.26,1.71,1.71,0,0,1-.79-.17l-.73-.43a.58.58,0,0,1-.27-.27,1.11,1.11,0,0,1,.4-.37,2.15,2.15,0,0,1,1.05-.26,1.6,1.6,0,0,1,.82.18l.74.44a.56.56,0,0,1,.26.24A1.29,1.29,0,0,1,203.49,220.06Z" style="fill:#d4d4dd"/><path d="M201.2,221.52a.85.85,0,0,0-.36-.34l-1-.56a2.22,2.22,0,0,0-2,0l-.73.38a.87.87,0,0,0-.41.39c-.15-.3,0-.62.41-.84l.73-.38a2.22,2.22,0,0,1,2,0l1,.56C201.21,220.94,201.33,221.24,201.2,221.52Z" style="fill:#d4d4dd"/><path d="M203.88,219.68a.56.56,0,0,0-.26-.24l-.74-.44a1.6,1.6,0,0,0-.82-.18,2.15,2.15,0,0,0-1.05.26,1.11,1.11,0,0,0-.4.37c-.15-.26,0-.58.4-.82a2.15,2.15,0,0,1,1.05-.26,1.6,1.6,0,0,1,.82.18l.74.44A.48.48,0,0,1,203.88,219.68Z" style="fill:#d4d4dd"/><path d="M204.45,217.5a1.08,1.08,0,0,1,1,0c.28.16.28.42,0,.57a1.08,1.08,0,0,1-1,0C204.18,217.91,204.18,217.66,204.45,217.5Z" style="fill:#d4d4dd"/></g></g></svg>