<svg xmlns="http://www.w3.org/2000/svg" width="211" height="155" viewBox="0 0 211 155"><g transform="translate(336 -309)"><path d="M-193.627,430a73.442,73.442,0,0,0,17.132-47.248A73.752,73.752,0,0,0-250.247,309,73.752,73.752,0,0,0-324,382.752,73.442,73.442,0,0,0-306.868,430Z" fill="#84bd00"/><path d="M-148.689,432a43.7,43.7,0,0,0,10.194-28.114A43.886,43.886,0,0,0-182.381,360a43.885,43.885,0,0,0-43.885,43.886A43.7,43.7,0,0,0-216.072,432Z" fill="#84bd00"/><path d="M-298.963,352.5v8.257a18.129,18.129,0,0,0-12.61,17.211v45.279a8.124,8.124,0,0,0,8.1,8.1h23.417a8.124,8.124,0,0,0,8.1-8.1V377.968a18.134,18.134,0,0,0-12.611-17.212V352.5" fill="#fff" stroke="#000" stroke-linecap="round" stroke-linejoin="round" stroke-width="5"/><path d="M3.319,0H14.84a3.319,3.319,0,0,1,3.319,3.319V9.57a0,0,0,0,1,0,0H0a0,0,0,0,1,0,0V3.319A3.319,3.319,0,0,1,3.319,0Z" transform="translate(-300.524 342)" fill="#fff" stroke="#000" stroke-linecap="round" stroke-linejoin="round" stroke-width="5"/><path d="M-205.427,431.347V391.81h-.318v-9.882L-214.6,364.5v-4.779s0-2.483-3.631-2.483h-23.293s-2.739.09-2.8,3.676v4.343l-8.771,15.947v49.671Z" fill="#fff"/><g stroke-linecap="round" stroke-linejoin="round"><path d="M -204.2315216064453 432.8400268554688 L -204.927001953125 432.8400268554688 L -220.5639953613281 432.8400268554688 L -221.7920074462891 432.8400268554688 L -254.1470031738281 432.8400268554688 L -254.8470001220703 432.8400268554688 L -254.8470001220703 432.1400146484375 L -254.8470001220703 381.4989929199219 L -254.8470001220703 381.3337707519531 L -254.7731170654297 381.1859436035156 L -246.2509918212891 364.1407470703125 L -246.2509918212891 359.6839904785156 C -246.2509918212891 357.2666320800781 -244.2838897705078 355.2999877929688 -241.8659973144531 355.2999877929688 L -216.8800048828125 355.2999877929688 C -214.462646484375 355.2999877929688 -212.4960021972656 357.2666320800781 -212.4960021972656 359.6839904785156 L -212.4960021972656 364.1407470703125 L -203.9729156494141 381.1859436035156 L -203.8979339599609 381.3358764648438 L -203.8990173339844 381.5035400390625 L -204.2270050048828 432.1445617675781 L -204.2315216064453 432.8400268554688 Z M -233.7980041503906 428.9839782714844 L -207.7559967041016 428.9839782714844 L -207.7559967041016 383.7170104980469 L -210.7400054931641 383.7170104980469 L -233.7980041503906 383.7170104980469 L -233.7980041503906 428.9839782714844 Z M -250.9909973144531 428.9839782714844 L -237.6539916992188 428.9839782714844 L -237.6539916992188 383.7170104980469 L -250.9909973144531 383.7170104980469 L -250.9909973144531 428.9839782714844 Z M -234.5343475341797 379.8609924316406 L -209.8300018310547 379.8609924316406 L -208.9466552734375 379.8609924316406 L -215.6156158447266 366.5240173339844 L -241.2024078369141 366.5240173339844 L -234.5343475341797 379.8609924316406 Z M -249.7993316650391 379.8609924316406 L -238.8455810546875 379.8609924316406 L -244.3220520019531 368.9072570800781 L -249.7993316650391 379.8609924316406 Z M -242.3939971923828 362.6680297851562 L -216.3519897460938 362.6680297851562 L -216.3519897460938 359.6839904785156 C -216.3519897460938 359.3928527832031 -216.5888519287109 359.156005859375 -216.8800048828125 359.156005859375 L -241.8659973144531 359.156005859375 C -242.1571350097656 359.156005859375 -242.3939971923828 359.3928527832031 -242.3939971923828 359.6839904785156 L -242.3939971923828 362.6680297851562 Z" stroke="none"/><path d="M -241.8659973144531 356 C -243.8979949951172 356 -245.5509948730469 357.6530151367188 -245.5509948730469 359.6839904785156 L -245.5509948730469 364.3059997558594 L -254.1470031738281 381.4989929199219 L -254.1470031738281 432.1400146484375 L -204.927001953125 432.1400146484375 L -204.5989990234375 381.4989929199219 L -213.1959991455078 364.3059997558594 L -213.1959991455078 359.6839904785156 C -213.1959991455078 357.6530151367188 -214.8489990234375 356 -216.8800048828125 356 L -241.8659973144531 356 M -215.6519927978516 363.3680114746094 L -243.093994140625 363.3680114746094 L -243.093994140625 359.6839904785156 C -243.093994140625 359.0069885253906 -242.5429992675781 358.4559936523438 -241.8659973144531 358.4559936523438 L -216.8800048828125 358.4559936523438 C -216.2030029296875 358.4559936523438 -215.6519927978516 359.0069885253906 -215.6519927978516 359.6839904785156 L -215.6519927978516 363.3680114746094 M -207.8139953613281 380.5610046386719 L -210.7400054931641 380.5610046386719 L -209.8300018310547 380.5610046386719 L -209.8300018310547 383.0169982910156 L -207.0559997558594 383.0169982910156 L -207.0559997558594 429.6839904785156 L -234.4980010986328 429.6839904785156 L -234.4980010986328 383.0169982910156 L -209.8300018310547 383.0169982910156 L -210.7400054931641 383.0169982910156 L -210.7400054931641 380.5610046386719 L -234.9669952392578 380.5610046386719 L -242.3350067138672 365.8240051269531 L -215.1829986572266 365.8240051269531 L -207.8139953613281 380.5610046386719 M -237.7129974365234 380.5610046386719 L -250.9320068359375 380.5610046386719 L -244.3220062255859 367.3420104980469 L -237.7129974365234 380.5610046386719 M -236.9539947509766 429.6839904785156 L -251.6909942626953 429.6839904785156 L -251.6909942626953 383.0169982910156 L -236.9539947509766 383.0169982910156 L -236.9539947509766 429.6839904785156 M -241.8659973144531 354.6000061035156 L -216.8800048828125 354.6000061035156 C -214.0766754150391 354.6000061035156 -211.7960052490234 356.8806762695312 -211.7960052490234 359.6839904785156 L -211.7960052490234 363.9754638671875 L -203.3468170166016 380.8728637695312 C -203.2482299804688 381.0700073242188 -203.1976013183594 381.2876586914062 -203.1990356445312 381.508056640625 L -203.5270385742188 432.1490783691406 C -203.5320129394531 432.9187316894531 -204.1573486328125 433.5400085449219 -204.927001953125 433.5400085449219 L -254.1470031738281 433.5400085449219 C -254.9201965332031 433.5400085449219 -255.5469970703125 432.9132080078125 -255.5469970703125 432.1400146484375 L -255.5469970703125 381.4989929199219 C -255.5469970703125 381.2816772460938 -255.4963989257812 381.0673217773438 -255.3992156982422 380.8729248046875 L -246.9510040283203 363.9755249023438 L -246.9510040283203 359.6839904785156 C -246.9510040283203 356.8806762695312 -244.6698760986328 354.6000061035156 -241.8659973144531 354.6000061035156 Z M -217.0519866943359 359.8559875488281 L -241.6939849853516 359.8559875488281 L -241.6939849853516 361.968017578125 L -217.0519866943359 361.968017578125 L -217.0519866943359 359.8559875488281 Z M -216.0482177734375 367.2239990234375 L -240.0698394775391 367.2239990234375 L -234.1017150878906 379.1610107421875 L -210.0793151855469 379.1610107421875 L -216.0482177734375 367.2239990234375 Z M -239.9781646728516 379.1610107421875 L -244.3221130371094 370.4725036621094 L -248.6666870117188 379.1610107421875 L -239.9781646728516 379.1610107421875 Z M -238.3539886474609 384.4169921875 L -250.2909851074219 384.4169921875 L -250.2909851074219 428.2839965820312 L -238.3539886474609 428.2839965820312 L -238.3539886474609 384.4169921875 Z M -210.7400054931641 384.4169921875 L -233.0980072021484 384.4169921875 L -233.0980072021484 428.2839965820312 L -208.4559936523438 428.2839965820312 L -208.4559936523438 384.4169921875 L -210.7400054931641 384.4169921875 Z" stroke="none" fill="#000"/></g><rect width="37" height="53" transform="translate(-186.427 378)" fill="#fff" stroke="#000" stroke-linecap="round" stroke-linejoin="round" stroke-width="5"/><line y2="51" transform="translate(-162.427 379)" fill="none" stroke="#000" stroke-linecap="round" stroke-linejoin="round" stroke-width="5"/><path d="M-150.017,379.8l-5.606,11-5.606-11" fill="none" stroke="#000" stroke-linecap="round" stroke-linejoin="round" stroke-width="5"/><path d="M-142.5,464h-176A17.521,17.521,0,0,1-336,446.5,17.521,17.521,0,0,1-318.5,429h176A17.521,17.521,0,0,1-125,446.5,17.521,17.521,0,0,1-142.5,464Zm-176-29A11.513,11.513,0,0,0-330,446.5,11.513,11.513,0,0,0-318.5,458h176A11.513,11.513,0,0,0-131,446.5,11.513,11.513,0,0,0-142.5,435Z"/><circle cx="7.5" cy="7.5" r="7.5" transform="translate(-325 439)"/><circle cx="7.5" cy="7.5" r="7.5" transform="translate(-300.143 439)"/><circle cx="7.5" cy="7.5" r="7.5" transform="translate(-275.286 439)"/><circle cx="7.5" cy="7.5" r="7.5" transform="translate(-250.429 439)"/><circle cx="7.5" cy="7.5" r="7.5" transform="translate(-225.571 439)"/><circle cx="7.5" cy="7.5" r="7.5" transform="translate(-200.714 439)"/><circle cx="7.5" cy="7.5" r="7.5" transform="translate(-175.857 439)"/><circle cx="7.5" cy="7.5" r="7.5" transform="translate(-151 439)"/></g></svg>