<svg xmlns="http://www.w3.org/2000/svg" xmlns:xlink="http://www.w3.org/1999/xlink" width="183.645" height="180.484" viewBox="0 0 183.645 180.484"><defs><linearGradient id="a" x1="-16.462" y1="0.985" x2="-16.083" y2="-0.011" gradientUnits="objectBoundingBox"><stop offset="0.02" stop-color="#251a29"/><stop offset="0.114" stop-color="#251a29"/><stop offset="0.14" stop-color="#302436"/><stop offset="0.163" stop-color="#35293b"/><stop offset="0.176" stop-color="#35293b"/><stop offset="0.178" stop-color="#35293b"/><stop offset="0.204" stop-color="#382d3e"/><stop offset="0.226" stop-color="#423746"/><stop offset="0.927" stop-color="#423746"/></linearGradient><linearGradient id="b" y1="0.5" x2="1" y2="0.5" gradientUnits="objectBoundingBox"><stop offset="0.243" stop-color="#c7c9d3"/><stop offset="0.38" stop-color="#c7c9d3"/><stop offset="0.435" stop-color="#c9cbd4"/><stop offset="0.466" stop-color="#d1d1db"/><stop offset="0.472" stop-color="#d4d4dd"/><stop offset="0.732" stop-color="#d4d4dd"/><stop offset="0.889" stop-color="#d4d4dd"/></linearGradient></defs><g transform="translate(-1407.817 -480)"><circle cx="79.198" cy="79.198" r="79.198" transform="translate(1433.066 480)" fill="#84bd00"/><g transform="translate(539.041 369.965)"><g transform="translate(868.776 142.649)"><path d="M1019.995,228.685,909.412,164.839v27.473l110.583,63.846Z" transform="translate(-860.698 -138.239)" fill="#3b4c49"/><g transform="translate(120.406 96.118)"><path d="M1017.931,222.829l-48.714,28.125v23.627l48.714-28.125Z" transform="translate(-969.217 -222.829)" fill="#554d4e"/></g><g transform="translate(120.406 68.645)"><path d="M1017.931,199.912l-48.714,28.125V255.51l48.714-28.125Z" transform="translate(-969.217 -199.912)" fill="#342c2d"/></g><path d="M1029.818,238.361,909.412,168.843V144.695l120.406,69.518Z" transform="translate(-860.698 -142.243)" fill="#cdcfdb"/><path d="M920.88,151.988a5.608,5.608,0,0,1,5.747.352l101.047,58.341c4.133,2.386,7.371,8.518,7.371,13.961,0,3.092-1.092,5.5-3,6.6l-48.714,28.125L871.282,180.771Z" transform="translate(-868.278 -140.919)" fill="url(#a)"/><path d="M1009.853,227.24l4.247-2.452V200.64l-4.247,2.452Z" transform="translate(-840.733 -131.122)" fill="#6c748f"/><path d="M1029.818,214.62l4.247-2.452L913.659,142.649l-4.247,2.452Z" transform="translate(-860.698 -142.649)" fill="#dddfeb"/><g transform="translate(0 30.577)"><path d="M989.182,257.818,868.776,188.3v23.627l120.406,69.518Z" transform="translate(-868.776 -164.152)" fill="#6b6164"/><g transform="translate(0.891 7.98)"><path d="M978.4,235.1l-101.047-58.34c-3.692-2.133-6.685.131-6.685,5.053h0c0,4.922,2.992,10.642,6.685,12.773L978.4,252.929c3.692,2.131,6.684-.131,6.684-5.053h0C985.081,242.952,982.089,237.234,978.4,235.1Z" transform="translate(-869.291 -174.585)" fill="#5f5967"/><path d="M977.938,254.346l-101.046-58.34c-4.135-2.387-7.373-8.52-7.373-13.962,0-3.092,1.092-5.5,3-6.6a5.611,5.611,0,0,1,5.747.352l101.047,58.341c4.133,2.387,7.371,8.52,7.371,13.962,0,3.092-1.092,5.5-3,6.6a4.754,4.754,0,0,1-2.4.635A6.731,6.731,0,0,1,977.938,254.346ZM876.892,178.18a3.078,3.078,0,0,0-3-.354c-1.016.587-1.623,2.164-1.623,4.217,0,4.4,2.746,9.706,6,11.583l101.047,58.341a3.072,3.072,0,0,0,3,.352c1.017-.587,1.624-2.163,1.624-4.216,0-4.4-2.747-9.706-6-11.584Z" transform="translate(-869.519 -174.813)" fill="#281f32"/><path d="M883.682,189.018c0,3.558-2.513,4.991-5.613,3.2a12.369,12.369,0,0,1-5.614-9.681c0-3.557,2.514-4.991,5.614-3.2A12.368,12.368,0,0,1,883.682,189.018Z" transform="translate(-868.935 -174.067)" fill="#423746"/><path d="M881.765,187.72c0,2.515-1.778,3.528-3.969,2.262a8.742,8.742,0,0,1-3.969-6.846c0-2.515,1.776-3.528,3.969-2.262A8.745,8.745,0,0,1,881.765,187.72Z" transform="translate(-868.663 -173.716)" fill="#372b3b"/><path d="M966.163,236.639c0,3.558-2.513,4.991-5.614,3.2a12.371,12.371,0,0,1-5.613-9.681c0-3.558,2.514-4.99,5.613-3.2A12.366,12.366,0,0,1,966.163,236.639Z" transform="translate(-852.54 -164.601)" fill="#423746"/><ellipse cx="4.569" cy="7.913" rx="4.569" ry="7.913" transform="translate(50.633 35.729) rotate(-30.312)" fill="#423746"/><path d="M923.014,211.534c0,2.516-1.777,3.529-3.969,2.263a8.747,8.747,0,0,1-3.969-6.846c0-2.515,1.778-3.528,3.969-2.262A8.742,8.742,0,0,1,923.014,211.534Z" transform="translate(-860.463 -168.982)" fill="#372b3b"/><path d="M964.245,235.341c0,2.515-1.777,3.528-3.969,2.262a8.744,8.744,0,0,1-3.968-6.845c0-2.516,1.777-3.529,3.968-2.263A8.744,8.744,0,0,1,964.245,235.341Z" transform="translate(-852.267 -164.25)" fill="#372b3b"/></g><path d="M989.182,261.822,868.776,192.3V168.156l120.406,69.518Z" transform="translate(-868.776 -168.156)" fill="#cdcfdb"/></g><path d="M989.182,238.081l4.247-2.452L873.023,166.111l-4.247,2.452Z" transform="translate(-868.776 -137.986)" fill="#dddfeb"/><path d="M969.217,250.7l4.247-2.452V224.1l-4.247,2.452Z" transform="translate(-848.81 -126.458)" fill="#6c748f"/></g><g transform="translate(909.109 167.403)" style="mix-blend-mode:multiply;isolation:isolate"><path d="M921.845,170l-19.424.217v.818h0c.016,1.429.97,2.858,2.864,3.951a15.176,15.176,0,0,0,13.734.025c1.9-1.1,2.836-2.537,2.822-3.976h0Z" transform="translate(-902.421 -161.966)" fill="#ccc"/><path d="M919.022,174.771a15.183,15.183,0,0,1-13.734-.025c-1.894-1.094-2.848-2.523-2.864-3.952h0v-.613h0V171h0c.016,1.429.97,2.858,2.864,3.952a15.179,15.179,0,0,0,13.734.024c1.9-1.1,2.836-2.537,2.822-3.976h0v-.2h0C921.858,172.235,920.919,173.674,919.022,174.771Z" transform="translate(-902.421 -161.93)" fill="#ccc"/><path d="M902.422,170.372v.023h0c.016,1.429.97,2.858,2.864,3.952,3.8,2.2,9.953-1.389,13.734-3.572,1.9-1.1,2.836,1.061,2.822-.38h0v-.213H902.422Z" transform="translate(-902.421 -161.93)" fill="#ccc"/><path d="M919.022,175.525c3.781-2.183,3.762-5.733-.043-7.929s-9.953-5.8-13.734-3.622-3.761,9.329.043,11.525A15.176,15.176,0,0,0,919.022,175.525Z" transform="translate(-902.421 -163.298)" fill="#ccc"/><ellipse cx="5.397" cy="9.348" rx="5.397" ry="9.348" transform="matrix(0.005, -1, 1, 0.005, 0.335, 13.596)" fill="#ccc"/><path d="M918.328,167.575a14.013,14.013,0,0,0-12.678-.023c-3.49,2.015-3.472,5.291.041,7.319,1.536.887,3.486-2.208,5.487-2.094.251.014.5.02.754.023,2.329.019,4.664,3.118,6.436,2.094C921.857,172.88,921.84,169.6,918.328,167.575Z" transform="translate(-902.297 -162.752)" fill="#ccc"/><path d="M917.68,168.124a12.844,12.844,0,0,0-11.625-.02c-3.2,1.847-3.184,1.255.036,3.114a12.843,12.843,0,0,0,11.624.02C920.915,169.391,920.9,169.984,917.68,168.124Z" transform="translate(-902.174 -162.618)" fill="#ccc"/><ellipse cx="4.579" cy="7.931" rx="4.579" ry="7.931" transform="translate(1.757 13.217) rotate(-89.689)" fill="#ccc"/><path d="M911.818,171.8c-2.056,0-3.985,3.136-5.432,2.3a3.58,3.58,0,0,1-2.133-2.9,3.528,3.528,0,0,1,2.1-2.858,10.924,10.924,0,0,1,5.368-1.275,11.052,11.052,0,0,1,5.433,1.3,3.581,3.581,0,0,1,2.131,2.9,3.528,3.528,0,0,1-2.1,2.859c-1.425.822-3.331-2.321-5.367-2.321Z" transform="translate(-902.057 -162.549)" fill="#ccc"/><path d="M911.8,175.371a10.87,10.87,0,0,1-5.343-1.274,3.527,3.527,0,0,1-2.1-2.85,3.471,3.471,0,0,1,2.064-2.812,10.738,10.738,0,0,1,5.279-1.254,10.865,10.865,0,0,1,5.345,1.274,3.522,3.522,0,0,1,2.1,2.848,3.471,3.471,0,0,1-2.064,2.812c-1.4.809-3.276-2.341-5.279-2.341Z" transform="translate(-902.037 -162.527)" fill="#ccc"/><path d="M916.059,168.736a9.937,9.937,0,0,0-8.992-.017c-2.476,1.43-2.462,3.755.029,5.192a9.937,9.937,0,0,0,8.992.017C918.563,172.5,918.55,170.174,916.059,168.736Z" transform="translate(-901.865 -162.433)" fill="#ccc"/><ellipse cx="3.56" cy="6.166" rx="3.56" ry="6.166" transform="translate(3.527 12.208) rotate(-89.689)" fill="#ccc"/><path d="M911.514,174.206a8.5,8.5,0,0,1-4.177-.995,2.7,2.7,0,0,1-1.611-2.171,2.654,2.654,0,0,1,1.584-2.142,8.4,8.4,0,0,1,4.127-.979,8.5,8.5,0,0,1,4.178.995,2.7,2.7,0,0,1,1.611,2.171,2.654,2.654,0,0,1-1.584,2.142,8.4,8.4,0,0,1-4.127.979Z" transform="translate(-901.764 -162.38)" fill="#ccc"/><path d="M911.492,174.182a8.3,8.3,0,0,1-4.082-.972,2.636,2.636,0,0,1-1.574-2.122,2.594,2.594,0,0,1,1.548-2.093,8.2,8.2,0,0,1,4.033-.957,8.3,8.3,0,0,1,4.082.972,2.635,2.635,0,0,1,1.574,2.122,2.6,2.6,0,0,1-1.548,2.093,8.2,8.2,0,0,1-4.033.957Z" transform="translate(-901.742 -162.356)" fill="#ccc"/><path d="M911.317,173.6a6.809,6.809,0,0,1-3.348-.8,2.163,2.163,0,0,1-1.291-1.741,2.13,2.13,0,0,1,1.27-1.718,6.73,6.73,0,0,1,3.307-.784,6.814,6.814,0,0,1,3.349.8A2.162,2.162,0,0,1,915.9,171.1a2.128,2.128,0,0,1-1.269,1.717,6.73,6.73,0,0,1-3.307.785Z" transform="translate(-901.575 -162.252)" fill="#ccc"/><path d="M911.271,173.3a6.412,6.412,0,0,1-3.149-.749,2.034,2.034,0,0,1-1.214-1.638A2,2,0,0,1,908.1,169.3a6.326,6.326,0,0,1,3.111-.737,6.412,6.412,0,0,1,3.149.749,2.034,2.034,0,0,1,1.214,1.638,2,2,0,0,1-1.194,1.615,6.326,6.326,0,0,1-3.111.737Z" transform="translate(-901.529 -162.252)" fill="#ccc"/><g transform="translate(11.878 4.795)"><path d="M916.354,167.9l-.417-.241a1.332,1.332,0,0,0-1.147.013l-2.2,1.121c-.216.11-.3.267-.248.4a.334.334,0,0,0,.156.176l.887.514a1.063,1.063,0,0,0,1-.059l1.948-1.265a.54.54,0,0,0,.222-.26v-.019A.334.334,0,0,0,916.354,167.9Zm-3.233,1.421a.4.4,0,0,1-.131-.123.32.32,0,0,1,.144-.137l.254-.131a.768.768,0,0,1,.677.013l.339.2a.268.268,0,0,1,.123.117.286.286,0,0,1-.1.117l-.234.143a.757.757,0,0,1-.711.013Zm2.2-.573a.833.833,0,0,1-.379.091.579.579,0,0,1-.273-.059l-.254-.15a.208.208,0,0,1-.091-.091.38.38,0,0,1,.137-.131.757.757,0,0,1,.365-.091.571.571,0,0,1,.288.065l.254.15a.2.2,0,0,1,.091.085A.39.39,0,0,1,915.325,168.747Z" transform="translate(-912.33 -167.251)" fill="#ccc" style="mix-blend-mode:multiply;isolation:isolate"/><path d="M916.556,168.04v-.019a.414.414,0,0,0-.2-.228l-.417-.241a1.336,1.336,0,0,0-1.147.012l-2.2,1.128a.441.441,0,0,0-.248.241.268.268,0,0,0,.156.333l.887.514a1.086,1.086,0,0,0,1-.052l1.948-1.272C916.517,168.334,916.6,168.184,916.556,168.04Zm-1.095.313a.389.389,0,0,1-.137.131.833.833,0,0,1-.379.091.579.579,0,0,1-.273-.059l-.254-.15a.208.208,0,0,1-.091-.091.38.38,0,0,1,.137-.131.757.757,0,0,1,.364-.091.571.571,0,0,1,.288.066l.254.15A.19.19,0,0,1,915.461,168.353Zm-2.327.444.254-.131a.776.776,0,0,1,.677.013l.339.2a.269.269,0,0,1,.123.118.279.279,0,0,1-.1.117l-.234.144a.764.764,0,0,1-.711.013l-.359-.209a.412.412,0,0,1-.131-.125A.333.333,0,0,1,913.134,168.8Z" transform="translate(-912.33 -167.272)" fill="#ccc"/><path d="M916.354,167.662l-.417-.241a1.336,1.336,0,0,0-1.147.013l-2.2,1.121c-.216.11-.3.267-.248.4a.325.325,0,0,0,.156.176l.887.516a1.067,1.067,0,0,0,1-.059l1.948-1.265a.537.537,0,0,0,.222-.261v-.019A.335.335,0,0,0,916.354,167.662Zm-3.233,1.422a.412.412,0,0,1-.131-.125.333.333,0,0,1,.144-.137l.254-.131a.776.776,0,0,1,.677.013l.339.2a.268.268,0,0,1,.123.117.279.279,0,0,1-.1.117l-.234.144a.764.764,0,0,1-.711.013Zm2.2-.574a.833.833,0,0,1-.379.091.579.579,0,0,1-.273-.059l-.254-.15a.208.208,0,0,1-.091-.091.38.38,0,0,1,.137-.131.757.757,0,0,1,.365-.091.57.57,0,0,1,.288.066l.254.15a.192.192,0,0,1,.091.084A.39.39,0,0,1,915.325,168.51Z" transform="translate(-912.33 -167.298)" fill="#ccc"/><path d="M915.7,167.975l-.444-.254a.906.906,0,0,0-.789.006l-1.811.893a.28.28,0,0,0-.163.176.179.179,0,0,0,.1.175l.931.535a.533.533,0,0,0,.3.059.641.641,0,0,0,.307-.091l1.551-1.043C915.892,168.286,915.9,168.085,915.7,167.975Zm-1.3,1.094-.234.144a.764.764,0,0,1-.711.013l-.359-.209a.411.411,0,0,1-.131-.125.333.333,0,0,1,.144-.137l.254-.131a.776.776,0,0,1,.677.013l.339.2a.268.268,0,0,1,.123.117A.279.279,0,0,1,914.393,169.069Zm.9-.626a.833.833,0,0,1-.379.091.579.579,0,0,1-.273-.059l-.254-.15a.208.208,0,0,1-.091-.091.38.38,0,0,1,.137-.131.757.757,0,0,1,.365-.091.57.57,0,0,1,.288.066l.254.15a.191.191,0,0,1,.091.084A.39.39,0,0,1,915.293,168.443Z" transform="translate(-912.298 -167.232)" fill="#ccc"/><path d="M914.422,168.825a.268.268,0,0,0-.123-.117l-.339-.2a.776.776,0,0,0-.677-.013l-.254.131a.333.333,0,0,0-.144.137c-.052-.1,0-.215.144-.294l.254-.129a.768.768,0,0,1,.677.013l.339.2C914.43,168.622,914.468,168.728,914.422,168.825Z" transform="translate(-912.223 -167.105)" fill="#ccc"/><path d="M915.134,168.276a.191.191,0,0,0-.091-.084l-.254-.15a.571.571,0,0,0-.288-.066.757.757,0,0,0-.364.091.38.38,0,0,0-.137.131c-.053-.091,0-.2.137-.287a.757.757,0,0,1,.364-.091.57.57,0,0,1,.288.065l.254.15A.17.17,0,0,1,915.134,168.276Z" transform="translate(-912.002 -167.195)" fill="#ccc"/><path d="M915.12,167.576a.382.382,0,0,1,.344,0,.1.1,0,0,1,0,.2.38.38,0,0,1-.343,0A.105.105,0,0,1,915.12,167.576Z" transform="translate(-911.789 -167.251)" fill="#ccc"/></g></g><g transform="translate(990.963 207.804)" style="mix-blend-mode:multiply;isolation:isolate"><path d="M983.047,201.259,970.7,201.4v.519h0a3.1,3.1,0,0,0,1.82,2.513,9.649,9.649,0,0,0,8.728.016,3.031,3.031,0,0,0,1.793-2.528h0Z" transform="translate(-970.703 -196.153)" fill="#ccc"/><path d="M981.252,204.291a9.645,9.645,0,0,1-8.728-.016,3.1,3.1,0,0,1-1.82-2.511h0v-.39h0v.519h0a3.1,3.1,0,0,0,1.82,2.513,9.649,9.649,0,0,0,8.728.016,3.031,3.031,0,0,0,1.793-2.528h0v-.129h0A3.03,3.03,0,0,1,981.252,204.291Z" transform="translate(-970.703 -196.131)" fill="#ccc"/><path d="M970.7,201.5v.014h0a3.1,3.1,0,0,0,1.82,2.513c2.418,1.4,6.326-.883,8.728-2.27,1.207-.7,1.8.674,1.793-.242h0v-.135H970.7Z" transform="translate(-970.703 -196.131)" fill="#ccc"/><path d="M981.252,204.77c2.4-1.387,2.392-3.643-.026-5.038s-6.326-3.69-8.73-2.3-2.39,5.929.028,7.325A9.641,9.641,0,0,0,981.252,204.77Z" transform="translate(-970.703 -197)" fill="#ccc"/><ellipse cx="3.43" cy="5.941" rx="3.43" ry="5.941" transform="matrix(0.005, -1, 1, 0.005, 0.213, 8.641)" fill="#ccc"/><path d="M980.812,199.718a8.9,8.9,0,0,0-8.057-.014c-2.218,1.28-2.206,3.363.025,4.651.977.565,2.217-1.4,3.488-1.331q.239.013.478.014c1.48.012,2.965,1.982,4.09,1.331C983.055,203.089,983.044,201.007,980.812,199.718Z" transform="translate(-970.624 -196.653)" fill="#ccc"/><path d="M980.4,200.066a8.169,8.169,0,0,0-7.388-.013c-2.033,1.175-2.022.8.024,1.98a8.167,8.167,0,0,0,7.387.013C982.457,200.872,982.446,201.248,980.4,200.066Z" transform="translate(-970.545 -196.567)" fill="#ccc"/><ellipse cx="2.91" cy="5.04" rx="2.91" ry="5.04" transform="translate(1.116 8.4) rotate(-89.689)" fill="#ccc"/><path d="M976.675,202.4c-1.307,0-2.533,1.992-3.452,1.463a2.279,2.279,0,0,1-1.356-1.841,2.241,2.241,0,0,1,1.333-1.816,6.944,6.944,0,0,1,3.412-.81,7.019,7.019,0,0,1,3.452.824,2.275,2.275,0,0,1,1.355,1.84,2.241,2.241,0,0,1-1.333,1.816c-.905.523-2.116-1.475-3.411-1.475Z" transform="translate(-970.471 -196.524)" fill="#ccc"/><path d="M976.661,204.672a6.917,6.917,0,0,1-3.4-.809,2.24,2.24,0,0,1-1.333-1.811,2.2,2.2,0,0,1,1.311-1.786,6.825,6.825,0,0,1,3.355-.8,6.906,6.906,0,0,1,3.4.81,2.24,2.24,0,0,1,1.333,1.81,2.206,2.206,0,0,1-1.311,1.787c-.891.514-2.082-1.488-3.355-1.488Z" transform="translate(-970.458 -196.51)" fill="#ccc"/><path d="M979.37,200.455a6.318,6.318,0,0,0-5.716-.01c-1.573.907-1.564,2.386.018,3.3a6.315,6.315,0,0,0,5.716.011C980.961,202.847,980.953,201.37,979.37,200.455Z" transform="translate(-970.349 -196.45)" fill="#ccc"/><ellipse cx="2.262" cy="3.919" rx="2.262" ry="3.919" transform="translate(2.241 7.759) rotate(-89.689)" fill="#ccc"/><path d="M976.482,203.932a5.4,5.4,0,0,1-2.655-.632,1.714,1.714,0,0,1-1.024-1.38,1.688,1.688,0,0,1,1.007-1.362,5.334,5.334,0,0,1,2.623-.622,5.4,5.4,0,0,1,2.654.632,1.716,1.716,0,0,1,1.025,1.38,1.689,1.689,0,0,1-1.007,1.362,5.334,5.334,0,0,1-2.623.622Z" transform="translate(-970.285 -196.416)" fill="#ccc"/><path d="M976.467,203.916a5.285,5.285,0,0,1-2.594-.617,1.675,1.675,0,0,1-1-1.349,1.65,1.65,0,0,1,.983-1.331,5.217,5.217,0,0,1,2.563-.608,5.278,5.278,0,0,1,2.594.617,1.676,1.676,0,0,1,1,1.349,1.649,1.649,0,0,1-.983,1.331,5.219,5.219,0,0,1-2.564.608Z" transform="translate(-970.271 -196.401)" fill="#ccc"/><path d="M976.357,203.549a4.321,4.321,0,0,1-2.128-.507,1.373,1.373,0,0,1-.821-1.105,1.354,1.354,0,0,1,.807-1.092,4.7,4.7,0,0,1,4.23.008,1.374,1.374,0,0,1,.821,1.106,1.354,1.354,0,0,1-.807,1.091,4.284,4.284,0,0,1-2.1.5Z" transform="translate(-970.165 -196.335)" fill="#ccc"/><path d="M976.327,203.359a4.076,4.076,0,0,1-2-.476,1.294,1.294,0,0,1-.772-1.041,1.274,1.274,0,0,1,.759-1.027,4.421,4.421,0,0,1,3.979.008,1.291,1.291,0,0,1,.772,1.041,1.271,1.271,0,0,1-.759,1.026,4.027,4.027,0,0,1-1.977.469Z" transform="translate(-970.136 -196.335)" fill="#ccc"/><g transform="translate(7.549 3.048)"><path d="M979.557,199.924l-.265-.153a.844.844,0,0,0-.729.008l-1.4.712c-.137.071-.191.17-.158.257a.213.213,0,0,0,.1.113l.563.327a.679.679,0,0,0,.634-.038l1.238-.8a.342.342,0,0,0,.14-.165v-.013A.209.209,0,0,0,979.557,199.924Zm-2.055.9a.263.263,0,0,1-.083-.079.206.206,0,0,1,.091-.086l.162-.083a.5.5,0,0,1,.432.007l.215.125a.177.177,0,0,1,.079.074.188.188,0,0,1-.066.076l-.15.091a.489.489,0,0,1-.452.008Zm1.4-.364a.524.524,0,0,1-.24.058.369.369,0,0,1-.174-.037l-.162-.095a.128.128,0,0,1-.058-.059.249.249,0,0,1,.086-.083.488.488,0,0,1,.233-.058.366.366,0,0,1,.182.041l.162.1a.12.12,0,0,1,.058.054A.243.243,0,0,1,978.9,200.463Z" transform="translate(-977 -199.512)" fill="#ccc" style="mix-blend-mode:multiply;isolation:isolate"/><path d="M979.685,200.013V200a.261.261,0,0,0-.128-.145l-.265-.153a.849.849,0,0,0-.729.008l-1.4.717a.286.286,0,0,0-.158.153.17.17,0,0,0,.1.211l.563.327a.689.689,0,0,0,.634-.034l1.238-.807C979.661,200.2,979.711,200.1,979.685,200.013Zm-.7.2a.225.225,0,0,1-.087.083.51.51,0,0,1-.24.059.384.384,0,0,1-.174-.037l-.162-.1a.132.132,0,0,1-.057-.058.238.238,0,0,1,.086-.083.489.489,0,0,1,.233-.059.366.366,0,0,1,.182.042l.162.095A.126.126,0,0,1,978.99,200.212Zm-1.479.282.162-.083a.492.492,0,0,1,.432.008l.214.125a.178.178,0,0,1,.079.074.185.185,0,0,1-.066.074l-.15.091a.482.482,0,0,1-.452.008l-.228-.132a.263.263,0,0,1-.083-.079A.208.208,0,0,1,977.511,200.494Z" transform="translate(-977 -199.526)" fill="#ccc"/><path d="M979.557,199.773l-.265-.153a.853.853,0,0,0-.729.008l-1.4.713c-.137.07-.191.169-.158.257a.211.211,0,0,0,.1.111l.563.327a.676.676,0,0,0,.634-.037l1.238-.8a.344.344,0,0,0,.14-.167v-.012A.211.211,0,0,0,979.557,199.773Zm-2.055.9a.263.263,0,0,1-.083-.079.208.208,0,0,1,.091-.088l.162-.083a.491.491,0,0,1,.432.008l.215.125a.178.178,0,0,1,.079.074.185.185,0,0,1-.066.074l-.15.091a.482.482,0,0,1-.452.008Zm1.4-.366a.511.511,0,0,1-.24.059.384.384,0,0,1-.174-.037l-.162-.1a.132.132,0,0,1-.058-.058.238.238,0,0,1,.086-.083.489.489,0,0,1,.233-.059.366.366,0,0,1,.182.042l.162.095a.126.126,0,0,1,.058.054A.225.225,0,0,1,978.9,200.312Z" transform="translate(-977 -199.542)" fill="#ccc"/><path d="M979.14,199.972l-.282-.162a.578.578,0,0,0-.5,0l-1.152.568a.174.174,0,0,0-.1.111.113.113,0,0,0,.066.111l.592.34a.349.349,0,0,0,.191.037.416.416,0,0,0,.194-.059l.987-.662C979.264,200.17,979.268,200.042,979.14,199.972Zm-.828.7-.15.091a.482.482,0,0,1-.452.008l-.228-.132a.264.264,0,0,1-.083-.079.209.209,0,0,1,.091-.087l.162-.083a.491.491,0,0,1,.432.008l.215.125a.178.178,0,0,1,.079.074A.184.184,0,0,1,978.312,200.667Zm.57-.4a.51.51,0,0,1-.24.059.384.384,0,0,1-.174-.037l-.162-.1a.132.132,0,0,1-.058-.058.239.239,0,0,1,.086-.083.489.489,0,0,1,.233-.059.366.366,0,0,1,.182.042l.162.095a.126.126,0,0,1,.058.054A.225.225,0,0,1,978.882,200.269Z" transform="translate(-976.98 -199.5)" fill="#ccc"/><path d="M978.33,200.512a.178.178,0,0,0-.079-.074l-.215-.125a.491.491,0,0,0-.432-.008l-.162.083a.208.208,0,0,0-.091.087c-.032-.066,0-.137.091-.187l.162-.083a.491.491,0,0,1,.432.008l.215.125C978.334,200.384,978.359,200.45,978.33,200.512Z" transform="translate(-976.932 -199.419)" fill="#ccc"/><path d="M978.782,200.163a.127.127,0,0,0-.057-.054l-.162-.095a.366.366,0,0,0-.182-.042.489.489,0,0,0-.233.059.238.238,0,0,0-.086.083c-.034-.059,0-.128.086-.182a.489.489,0,0,1,.233-.059.366.366,0,0,1,.182.042l.162.095A.109.109,0,0,1,978.782,200.163Z" transform="translate(-976.791 -199.476)" fill="#ccc"/><path d="M978.773,199.718a.238.238,0,0,1,.218,0,.067.067,0,0,1,0,.126.238.238,0,0,1-.218,0A.066.066,0,0,1,978.773,199.718Z" transform="translate(-976.656 -199.512)" fill="#ccc"/></g></g><g transform="translate(934.892 184.588)" style="mix-blend-mode:multiply;isolation:isolate"><ellipse cx="6.529" cy="3.769" rx="6.529" ry="3.769" transform="translate(31.057 19.517) rotate(-70.835)" fill="#ccc"/><path d="M959.31,187.327c.567,2.879-1.1,6.542-3.325,8.485s-4.162,1.433-4.729-1.448a10.209,10.209,0,0,1,3-8.733C956.48,183.687,958.742,184.446,959.31,187.327Z" transform="translate(-918.522 -176.258)" fill="#ccc"/><path d="M956.193,190.659c-.457,1.331-.2,2.619.567,2.877a2.771,2.771,0,0,0,2.947-1.694,2.731,2.731,0,0,0-1.291-3.124C957.644,188.46,956.649,189.329,956.193,190.659Z" transform="translate(-917.56 -175.439)" fill="#ccc"/><path d="M955.587,186.956c-.457,1.329-.2,2.618.567,2.876s2.417-.851,2.873-2.182a2.073,2.073,0,0,0-1.218-2.636C957.038,184.755,956.045,185.624,955.587,186.956Z" transform="translate(-917.681 -176.176)" fill="#ccc"/><path d="M953.032,193.031c.452-1.332,1.441-2.195,2.208-1.929s1.391,2.152.939,3.484a2.073,2.073,0,0,1-2.576,1.34C952.836,195.66,952.58,194.364,953.032,193.031Z" transform="translate(-918.188 -174.966)" fill="#ccc"/><path d="M953.034,192.845c-.519,1.509-.231,2.971.642,3.264s2-.694,2.521-2.2.231-2.971-.643-3.264S953.552,191.334,953.034,192.845Z" transform="translate(-918.194 -175.058)" fill="#ccc"/><rect width="13.059" height="18.287" transform="translate(17.345 14.857) rotate(-71.148)" fill="#ccc"/><ellipse cx="6.53" cy="3.77" rx="6.53" ry="3.77" transform="translate(13.751 13.608) rotate(-70.835)" fill="#ccc"/><path d="M937.955,180.449a9.239,9.239,0,0,0-2.715,7.906c.513,2.607,2.562,3.294,4.576,1.534a9.236,9.236,0,0,0,2.715-7.9C942.017,179.377,939.969,178.69,937.955,180.449Z" transform="translate(-921.703 -177.268)" fill="#ccc"/><path d="M935.717,179.137a9.4,9.4,0,0,0-3.039,8.843c.732,2.971,3.633,3.948,6.045,2.034s3.95-5.905,3.04-8.845C940.988,178.665,938.13,177.223,935.717,179.137Z" transform="translate(-922.229 -177.51)" fill="#ccc"/><path d="M940.623,178.609c-8.772-3-9.885,1.991-13.706.687l-.394,1.153-.15.439-.393,1.153c3.82,1.3,2.013,6.054,10.547,8.968l2.416-6.074Z" transform="translate(-923.521 -177.634)" fill="#ccc"/><path d="M933.437,179.969a6.525,6.525,0,0,0-1.918,5.585c.362,1.843,1.81,2.328,3.232,1.085a6.529,6.529,0,0,0,1.919-5.585C936.307,179.213,934.86,178.727,933.437,179.969Z" transform="translate(-922.436 -177.306)" fill="#ccc"/><path d="M925.862,179.085A2.243,2.243,0,0,0,925.2,181c.125.632.622.8,1.11.372a2.239,2.239,0,0,0,.659-1.918C926.847,178.825,926.35,178.658,925.862,179.085Z" transform="translate(-923.681 -177.392)" fill="#ccc"/><path d="M926.114,178.961a2.772,2.772,0,0,0-.815,2.371c.155.782.768.988,1.373.46a2.772,2.772,0,0,0,.815-2.371C927.332,178.64,926.717,178.434,926.114,178.961Z" transform="translate(-923.663 -177.428)" fill="#ccc"/><rect width="3.546" height="1.691" transform="translate(0.556 4.08) rotate(-71.146)" fill="#ccc"/><path d="M924.778,178.505a2.772,2.772,0,0,0-.814,2.371c.155.782.768.988,1.373.46a2.768,2.768,0,0,0,.814-2.371C926,178.184,925.382,177.978,924.778,178.505Z" transform="translate(-923.928 -177.519)" fill="#ccc"/><path d="M954.745,188.349c.492.165.653.987.362,1.837s-.927,1.4-1.418,1.238-.653-.987-.362-1.835S954.254,188.185,954.745,188.349Z" transform="translate(-918.113 -175.51)" fill="#ccc"/><path d="M957.87,187.292c-.293.849-.927,1.4-1.418,1.24s-.653-.987-.362-1.837.927-1.4,1.418-1.238S958.162,186.443,957.87,187.292Z" transform="translate(-917.564 -176.084)" fill="#ccc"/><path d="M957.216,192.6c-.49-.165-.652-.987-.361-1.836s.927-1.4,1.417-1.238.653.987.362,1.835S957.707,192.769,957.216,192.6Z" transform="translate(-917.412 -175.275)" fill="#ccc"/><path d="M955.235,191.622c-.414-.138-.549-.83-.3-1.543s.779-1.181,1.193-1.042.549.83.3,1.544S955.648,191.761,955.235,191.622Z" transform="translate(-917.79 -175.372)" fill="#ccc"/><path d="M953.643,193.508c.291-.85.927-1.4,1.418-1.24s.653.987.361,1.835-.925,1.4-1.417,1.24S953.352,194.357,953.643,193.508Z" transform="translate(-918.051 -174.73)" fill="#ccc"/><path d="M933.608,178.542a13.267,13.267,0,0,0-2.664.813,8.178,8.178,0,0,1-2.429.736c-.5-.036.851.535,1.6.789a19.879,19.879,0,0,0,3.594.139c1.888.089,8.7,2.508,8.31.706C941.589,179.737,935.393,178.2,933.608,178.542Z" transform="translate(-923.038 -177.463)" fill="#ccc" style="mix-blend-mode:screen;isolation:isolate"/><path d="M941.724,182.791a4.543,4.543,0,0,1,2.622-.137c1.038.42,14.589,4.981,14.589,4.981s2.113.572,2.068,1.337c.185-1.333.635-2.169-1.358-2.7s-15.511-5.3-16.12-5.5a2.352,2.352,0,0,0-1.865.224C941.539,181.234,942.353,181.888,941.724,182.791Z" transform="translate(-920.406 -177.029)" fill="#ccc" style="mix-blend-mode:screen;isolation:isolate"/></g><g transform="translate(987.74 192.406)"><g transform="translate(0)"><g transform="translate(0)"><path d="M977.958,203.624c2.088-1.206,2.078-3.166-.024-4.379a8.384,8.384,0,0,0-7.585-.014c-2.087,1.206-2.078,3.166.024,4.379A8.384,8.384,0,0,0,977.958,203.624Z" transform="translate(-967.859 -181.337)" fill="#d7d6d6"/><path d="M978.282,203.392c2.232-1.289,2.22-3.384-.025-4.681a8.958,8.958,0,0,0-8.107-.014c-2.232,1.289-2.221,3.384.025,4.68A8.962,8.962,0,0,0,978.282,203.392Z" transform="translate(-967.92 -181.456)" fill="#ab3030"/><ellipse cx="3.623" cy="6.275" rx="3.623" ry="6.275" transform="translate(0 22.218) rotate(-89.689)" fill="#e04141"/><rect width="12.551" height="13.275" transform="translate(0.02 5.355)" fill="#e04141"/><path d="M978.757,191.793c2.443-1.411,2.43-3.705-.027-5.125a9.806,9.806,0,0,0-8.875-.016c-2.443,1.411-2.431,3.7.028,5.124A9.81,9.81,0,0,0,978.757,191.793Z" transform="translate(-968.01 -183.868)" fill="#f55151"/><path d="M978.282,190.688c2.232-1.289,2.22-3.384-.025-4.681a8.958,8.958,0,0,0-8.107-.014c-2.232,1.289-2.221,3.384.025,4.68A8.962,8.962,0,0,0,978.282,190.688Z" transform="translate(-967.92 -183.981)" fill="#f66"/><path d="M977.958,189.84c2.088-1.2,2.078-3.166-.024-4.379a8.38,8.38,0,0,0-7.585-.013c-2.087,1.2-2.078,3.166.024,4.379A8.38,8.38,0,0,0,977.958,189.84Z" transform="translate(-967.859 -184.077)" fill="url(#b)"/><path d="M977.958,189.448c2.088-1.2,2.078-3.166-.024-4.379a8.384,8.384,0,0,0-7.585-.013c-2.087,1.206-2.078,3.166.024,4.379A8.38,8.38,0,0,0,977.958,189.448Z" transform="translate(-967.859 -184.155)" fill="#f1f1f6"/><path d="M978.5,188.573a3.594,3.594,0,0,1-.872.68,7.789,7.789,0,0,1-7.043-.012,3.881,3.881,0,0,1-.873-.675c-1.014-1.087-.736-2.473.848-3.388a7.785,7.785,0,0,1,7.043.012C979.189,186.111,979.491,187.49,978.5,188.573Z" transform="translate(-967.795 -184.118)" fill="#d4d4dd"/><path d="M978.783,187.515a1.633,1.633,0,0,1-.327.953,3.593,3.593,0,0,1-.872.68,7.789,7.789,0,0,1-7.043-.012,3.877,3.877,0,0,1-.873-.675,1.608,1.608,0,0,1-.352-.983,2.246,2.246,0,0,1,1.323-1.805,6.855,6.855,0,0,1,3.376-.8,6.948,6.948,0,0,1,3.42.815A2.268,2.268,0,0,1,978.783,187.515Z" transform="translate(-967.755 -184.013)" fill="#ececf5"/></g><path d="M976.533,204.168V191.49a3.643,3.643,0,0,0,1.6-1.2v12.684A4.379,4.379,0,0,1,976.533,204.168Z" transform="translate(-966.32 -182.935)" fill="#731010" style="mix-blend-mode:screen;isolation:isolate"/></g><g transform="translate(5.424 0.985)"><path d="M973.785,187.713a5.986,5.986,0,0,0,3.334-.01c.387-.1.62-.345.545-.589a2.564,2.564,0,0,0-1.261-1.4,6.147,6.147,0,0,0-2.426-.729,1.213,1.213,0,0,0-1.02.315,1.333,1.333,0,0,0-.018,1.925,2.148,2.148,0,0,0,.376.271A2.97,2.97,0,0,0,973.785,187.713Z" transform="translate(-972.538 -184.977)" fill="#f1f1f6"/><path d="M973.854,187.674a5.351,5.351,0,0,0,2.979-.008c.348-.092.554-.309.488-.526a2.29,2.29,0,0,0-1.127-1.253,5.5,5.5,0,0,0-2.17-.651,1.082,1.082,0,0,0-.911.282,1.192,1.192,0,0,0-.016,1.72,1.836,1.836,0,0,0,.336.242A2.664,2.664,0,0,0,973.854,187.674Z" transform="translate(-972.498 -184.927)" fill="#ececf5"/><path d="M974.848,186.92l-.928-.536c-.333-.193-.291-.531.094-.754h0a1.457,1.457,0,0,1,1.3-.054l.928.536c.333.193.291.531-.093.754h0A1.457,1.457,0,0,1,974.848,186.92Z" transform="translate(-972.308 -184.883)" fill="#555252"/><g transform="translate(0.402 0.556)"><path d="M976.493,186.2l-.79-.458a.948.948,0,0,0-.888.046l-1.735,1.133c-.169.109-.233.243-.2.37a.011.011,0,0,0,0,.018.384.384,0,0,0,.18.2l.372.215a1.169,1.169,0,0,0,1.021-.006l1.956-1a.4.4,0,0,0,.221-.215A.238.238,0,0,0,976.493,186.2Zm-1.7.349a.275.275,0,0,1-.11-.11.223.223,0,0,1,.092-.1l.2-.133a.689.689,0,0,1,.638-.006l.32.186a.3.3,0,0,1,.116.1.3.3,0,0,1-.128.122l-.226.116a.691.691,0,0,1-.6-.006Zm-.941.458a.346.346,0,0,1,.122-.116.683.683,0,0,1,.325-.08.5.5,0,0,1,.255.058l.226.127a.188.188,0,0,1,.082.082.327.327,0,0,1-.122.116.691.691,0,0,1-.331.081.494.494,0,0,1-.249-.059l-.227-.127A.182.182,0,0,1,973.857,187.006Z" transform="translate(-972.873 -185.398)" fill="#d7d6d6" style="mix-blend-mode:multiply;isolation:isolate"/><path d="M976.632,186.26a.273.273,0,0,0-.139-.156l-.79-.459a.594.594,0,0,0-.086-.041h-.006a1.021,1.021,0,0,0-.616.006.628.628,0,0,0-.18.081l-1.735,1.132a.478.478,0,0,0-.2.233.01.01,0,0,0,0,.017.3.3,0,0,0,.18.343l.372.215a1.187,1.187,0,0,0,1.021-.012l1.956-1C976.6,186.521,976.679,186.382,976.632,186.26Zm-1.887.7a.691.691,0,0,1-.331.082.494.494,0,0,1-.249-.058l-.227-.128a.177.177,0,0,1-.081-.082.369.369,0,0,1,.122-.116.683.683,0,0,1,.325-.08.5.5,0,0,1,.255.058l.226.128a.181.181,0,0,1,.082.08A.327.327,0,0,1,974.746,186.957Zm1.2-.807a.322.322,0,0,1,.116.1.3.3,0,0,1-.128.122l-.227.116a.687.687,0,0,1-.6-.006l-.3-.174a.276.276,0,0,1-.11-.11.215.215,0,0,1,.092-.1l.2-.134a.689.689,0,0,1,.638-.006Z" transform="translate(-972.873 -185.417)" fill="#d4d4dd"/><path d="M976.493,185.988l-.79-.458a.945.945,0,0,0-.888.047l-1.735,1.132c-.169.11-.233.243-.2.372a.01.01,0,0,0,0,.017.384.384,0,0,0,.18.2l.372.215a1.165,1.165,0,0,0,1.021-.006l1.956-1a.4.4,0,0,0,.221-.215A.238.238,0,0,0,976.493,185.988Zm-1.7.349a.275.275,0,0,1-.11-.11.215.215,0,0,1,.092-.1l.2-.134a.689.689,0,0,1,.638-.006l.32.186a.322.322,0,0,1,.116.1.3.3,0,0,1-.128.122l-.226.116a.687.687,0,0,1-.6-.006Zm-.941.458a.368.368,0,0,1,.122-.116.682.682,0,0,1,.325-.08.5.5,0,0,1,.255.058l.226.128a.18.18,0,0,1,.082.08.327.327,0,0,1-.122.116.69.69,0,0,1-.331.081.494.494,0,0,1-.249-.058l-.227-.128A.177.177,0,0,1,973.857,186.795Z" transform="translate(-972.873 -185.44)" fill="#f1f1f6"/><path d="M976.281,186.059l-.766-.447h-.006l-.059-.035a.474.474,0,0,0-.266-.052.576.576,0,0,0-.273.08l-.018.012-1.363.923c-.186.121-.192.3-.012.406l.394.227a.828.828,0,0,0,.7-.006l1.614-.8a.226.226,0,0,0,.139-.157A.141.141,0,0,0,976.281,186.059Zm-1.638.905a.691.691,0,0,1-.331.081.494.494,0,0,1-.249-.058l-.227-.128a.177.177,0,0,1-.081-.082.369.369,0,0,1,.122-.116.682.682,0,0,1,.325-.08.5.5,0,0,1,.255.058l.227.128a.181.181,0,0,1,.081.08A.327.327,0,0,1,974.643,186.964Zm1.184-.58-.227.116a.687.687,0,0,1-.6-.006l-.3-.174a.275.275,0,0,1-.11-.11.215.215,0,0,1,.092-.1l.2-.134a.689.689,0,0,1,.638-.006l.32.186a.322.322,0,0,1,.116.1A.3.3,0,0,1,975.828,186.384Z" transform="translate(-972.771 -185.424)" fill="#ececf5"/><path d="M975.76,186.223a.323.323,0,0,0-.116-.1l-.32-.186a.689.689,0,0,0-.638.006l-.2.134a.215.215,0,0,0-.092.1.18.18,0,0,1,.092-.239l.2-.133a.689.689,0,0,1,.638-.006l.32.186C975.76,186.043,975.8,186.142,975.76,186.223Z" transform="translate(-972.575 -185.385)" fill="#d4d4dd"/><path d="M974.707,186.7a.18.18,0,0,0-.081-.08l-.227-.128a.5.5,0,0,0-.255-.058.682.682,0,0,0-.325.08.369.369,0,0,0-.122.116c-.046-.08,0-.18.122-.255a.682.682,0,0,1,.325-.08.5.5,0,0,1,.255.058l.227.127A.159.159,0,0,1,974.707,186.7Z" transform="translate(-972.713 -185.272)" fill="#d4d4dd"/><path d="M973.607,187.053a.339.339,0,0,1-.306,0,.094.094,0,0,1,0-.177.339.339,0,0,1,.306,0A.093.093,0,0,1,973.607,187.053Z" transform="translate(-972.8 -185.162)" fill="#d4d4dd"/></g></g></g><g transform="translate(934.892 181.545)"><ellipse cx="6.529" cy="3.769" rx="6.529" ry="3.769" transform="translate(31.057 19.517) rotate(-70.835)" fill="#ad5a38"/><path d="M959.31,184.788c.567,2.881-1.1,6.542-3.325,8.485s-4.162,1.433-4.729-1.447a10.207,10.207,0,0,1,3-8.733C956.48,181.149,958.742,181.908,959.31,184.788Z" transform="translate(-918.522 -173.72)" fill="#c47251"/><path d="M956.193,188.122c-.457,1.331-.2,2.618.567,2.877a2.774,2.774,0,0,0,2.947-1.694,2.734,2.734,0,0,0-1.291-3.125C957.644,185.922,956.649,186.791,956.193,188.122Z" transform="translate(-917.56 -172.901)" fill="#c47251"/><path d="M955.587,184.417c-.457,1.331-.2,2.618.567,2.877s2.417-.852,2.873-2.182a2.075,2.075,0,0,0-1.218-2.637C957.038,182.217,956.045,183.086,955.587,184.417Z" transform="translate(-917.681 -173.637)" fill="#c47251"/><path d="M953.032,190.493c.452-1.332,1.441-2.2,2.208-1.929s1.391,2.151.939,3.484a2.074,2.074,0,0,1-2.576,1.34C952.836,193.122,952.58,191.825,953.032,190.493Z" transform="translate(-918.188 -172.428)" fill="#c47251"/><path d="M953.034,190.306c-.519,1.51-.231,2.972.642,3.264s2-.693,2.521-2.2.231-2.972-.643-3.264S953.552,188.8,953.034,190.306Z" transform="translate(-918.194 -172.52)" fill="#c47251"/><rect width="13.059" height="18.287" transform="translate(17.345 14.857) rotate(-71.148)" fill="#c47251"/><ellipse cx="6.53" cy="3.77" rx="6.53" ry="3.77" transform="translate(13.751 13.608) rotate(-70.835)" fill="#c77254"/><path d="M937.955,177.911a9.238,9.238,0,0,0-2.715,7.906c.513,2.606,2.562,3.294,4.576,1.534a9.238,9.238,0,0,0,2.715-7.906C942.017,176.838,939.969,176.151,937.955,177.911Z" transform="translate(-921.703 -174.729)" fill="#b96845"/><path d="M935.717,176.6a9.408,9.408,0,0,0-3.039,8.845c.732,2.971,3.633,3.946,6.045,2.033s3.95-5.9,3.04-8.843C940.988,176.126,938.13,174.685,935.717,176.6Z" transform="translate(-922.229 -174.972)" fill="#c47251"/><path d="M940.623,176.07c-8.772-2.995-9.885,1.991-13.706.687l-.394,1.153-.15.439-.393,1.153c3.82,1.305,2.013,6.055,10.547,8.969l2.416-6.075Z" transform="translate(-923.521 -175.095)" fill="#c47251"/><path d="M933.437,177.431a6.525,6.525,0,0,0-1.918,5.585c.362,1.841,1.81,2.327,3.232,1.084a6.526,6.526,0,0,0,1.919-5.585C936.307,176.674,934.86,176.188,933.437,177.431Z" transform="translate(-922.436 -174.768)" fill="#c47251"/><path d="M925.862,176.547a2.24,2.24,0,0,0-.659,1.918c.125.633.622.8,1.11.373a2.24,2.24,0,0,0,.659-1.918C926.847,176.287,926.35,176.12,925.862,176.547Z" transform="translate(-923.681 -174.854)" fill="#d3d6e6"/><path d="M926.114,176.422a2.774,2.774,0,0,0-.815,2.371c.155.783.768.989,1.373.46a2.771,2.771,0,0,0,.815-2.371C927.332,176.1,926.717,175.9,926.114,176.422Z" transform="translate(-923.663 -174.889)" fill="#f80"/><rect width="3.546" height="1.691" transform="translate(0.556 4.08) rotate(-71.146)" fill="#f80"/><path d="M924.778,175.966a2.773,2.773,0,0,0-.814,2.371c.155.783.768.989,1.373.46a2.767,2.767,0,0,0,.814-2.371C926,175.645,925.382,175.439,924.778,175.966Z" transform="translate(-923.928 -174.98)" fill="#ffb800"/><path d="M954.745,185.811c.492.164.653.987.362,1.835s-.927,1.4-1.418,1.24-.653-.988-.362-1.837S954.254,185.645,954.745,185.811Z" transform="translate(-918.113 -172.971)" fill="#b2603d"/><path d="M957.87,184.754c-.293.849-.927,1.4-1.418,1.238s-.653-.987-.362-1.835.927-1.4,1.418-1.238S958.162,183.905,957.87,184.754Z" transform="translate(-917.564 -173.546)" fill="#b2603d"/><path d="M957.216,190.066c-.49-.164-.652-.987-.361-1.835s.927-1.4,1.417-1.238.653.987.362,1.835S957.707,190.231,957.216,190.066Z" transform="translate(-917.412 -172.736)" fill="#b2603d"/><path d="M955.235,189.084c-.414-.139-.549-.83-.3-1.544s.779-1.18,1.193-1.041.549.83.3,1.543S955.648,189.222,955.235,189.084Z" transform="translate(-917.79 -172.833)" fill="#b2603d"/><path d="M953.643,190.969c.291-.849.927-1.4,1.418-1.238s.653.987.361,1.835-.925,1.4-1.417,1.238S953.352,191.818,953.643,190.969Z" transform="translate(-918.051 -172.192)" fill="#b2603d"/><path d="M933.608,176a13.252,13.252,0,0,0-2.664.812,8.141,8.141,0,0,1-2.429.736c-.5-.036.851.535,1.6.79a19.88,19.88,0,0,0,3.594.139c1.888.089,8.7,2.508,8.31.7C941.589,177.2,935.393,175.66,933.608,176Z" transform="translate(-923.038 -174.924)" fill="#1f0d06" style="mix-blend-mode:screen;isolation:isolate"/><path d="M941.724,180.252a4.554,4.554,0,0,1,2.622-.137c1.038.421,14.589,4.982,14.589,4.982s2.113.571,2.068,1.335c.185-1.332.635-2.167-1.358-2.7s-15.511-5.3-16.12-5.5a2.343,2.343,0,0,0-1.865.224C941.539,178.7,942.353,179.349,941.724,180.252Z" transform="translate(-920.406 -174.491)" fill="#1f0d06" style="mix-blend-mode:screen;isolation:isolate"/></g><g transform="translate(908.464 164.606)"><path d="M921.306,165.642H901.883v4.414h0c.016,1.429.97,2.859,2.865,3.952a15.181,15.181,0,0,0,13.733.025c1.9-1.1,2.838-2.537,2.822-3.978h0Z" transform="translate(-901.883 -160.035)" fill="#e04141"/><path d="M917.125,168.782a7.36,7.36,0,0,1-3.705,1.736v3.342a10.628,10.628,0,0,0,3.705-1.814Z" transform="translate(-899.59 -159.411)" fill="#731010" style="mix-blend-mode:screen;isolation:isolate"/><path d="M918.482,173.828a15.177,15.177,0,0,1-13.733-.024c-1.9-1.094-2.85-2.523-2.865-3.954h0v-4.209h0v4.414h0c.016,1.429.97,2.859,2.865,3.952a15.181,15.181,0,0,0,13.733.025c1.9-1.1,2.838-2.537,2.822-3.978h0v-.205h0C921.32,171.292,920.381,172.733,918.482,173.828Z" transform="translate(-901.883 -160.035)" fill="url(#b)"/><path d="M901.883,165.833v.023h0c.016,1.429.97,2.859,2.865,3.952a15.174,15.174,0,0,0,13.733.025c1.9-1.1,2.838-2.537,2.822-3.978h0v-.213H901.883Z" transform="translate(-901.883 -160.035)" fill="url(#b)"/><path d="M918.482,170.549c3.781-2.183,3.762-5.734-.042-7.93a15.183,15.183,0,0,0-13.734-.025c-3.781,2.183-3.762,5.734.043,7.93A15.181,15.181,0,0,0,918.482,170.549Z" transform="translate(-901.883 -160.965)" fill="#f1f1f6"/><ellipse cx="5.397" cy="9.348" rx="5.397" ry="9.348" transform="matrix(0.005, -1, 1, 0.005, 0.335, 10.953)" fill="#d4d4dd"/><path d="M917.789,163.037a14.01,14.01,0,0,0-12.677-.024c-3.49,2.015-3.472,5.293.04,7.32a12.579,12.579,0,0,0,5.488,1.5q.376.02.754.022a12.943,12.943,0,0,0,6.435-1.5C921.318,168.341,921.3,165.064,917.789,163.037Z" transform="translate(-901.759 -160.857)" fill="#ececf5"/><path d="M917.141,163.586a12.845,12.845,0,0,0-11.623-.022c-3.2,1.847-3.184,4.853.036,6.712a12.851,12.851,0,0,0,11.625.02C920.377,168.45,920.361,165.444,917.141,163.586Z" transform="translate(-901.636 -160.722)" fill="#d4d4dd"/><ellipse cx="4.579" cy="7.931" rx="4.579" ry="7.931" transform="translate(1.756 10.574) rotate(-89.689)" fill="#f1f1f6"/><path d="M911.28,170.854a11.06,11.06,0,0,1-5.433-1.295,3.581,3.581,0,0,1-2.132-2.9,3.525,3.525,0,0,1,2.1-2.858,10.916,10.916,0,0,1,5.367-1.275,11.048,11.048,0,0,1,5.433,1.3,3.581,3.581,0,0,1,2.133,2.9,3.53,3.53,0,0,1-2.1,2.859,10.916,10.916,0,0,1-5.367,1.274Z" transform="translate(-901.519 -160.654)" fill="#cfcece"/><path d="M911.259,170.832a10.862,10.862,0,0,1-5.344-1.274,3.522,3.522,0,0,1-2.1-2.848,3.468,3.468,0,0,1,2.063-2.812,10.743,10.743,0,0,1,5.281-1.255,10.863,10.863,0,0,1,5.344,1.275,3.52,3.52,0,0,1,2.1,2.848,3.469,3.469,0,0,1-2.063,2.812,10.739,10.739,0,0,1-5.281,1.254Z" transform="translate(-901.499 -160.632)" fill="#ececf5"/><path d="M915.521,164.2a9.937,9.937,0,0,0-8.992-.017c-2.476,1.429-2.464,3.753.027,5.192a9.936,9.936,0,0,0,8.993.016C918.024,167.959,918.012,165.635,915.521,164.2Z" transform="translate(-901.327 -160.538)" fill="#d4d4dd"/><ellipse cx="3.56" cy="6.166" rx="3.56" ry="6.166" transform="translate(3.526 9.565) rotate(-89.689)" fill="#f1f1f6"/><path d="M910.976,169.666a8.5,8.5,0,0,1-4.177-.994,2.7,2.7,0,0,1-1.611-2.172,2.656,2.656,0,0,1,1.583-2.142,9.23,9.23,0,0,1,8.3.017,2.7,2.7,0,0,1,1.611,2.171,2.656,2.656,0,0,1-1.584,2.142,8.4,8.4,0,0,1-4.127.978Z" transform="translate(-901.226 -160.485)" fill="#cfcece"/><path d="M910.953,169.643a8.3,8.3,0,0,1-4.082-.971,2.64,2.64,0,0,1-1.574-2.122,2.6,2.6,0,0,1,1.548-2.094,8.217,8.217,0,0,1,4.033-.957,8.31,8.31,0,0,1,4.083.972,2.636,2.636,0,0,1,1.574,2.122,2.592,2.592,0,0,1-1.548,2.093,8.2,8.2,0,0,1-4.033.957Z" transform="translate(-901.205 -160.461)" fill="#ececf5"/><path d="M910.78,169.065a6.81,6.81,0,0,1-3.348-.8,2.163,2.163,0,0,1-1.292-1.741,2.128,2.128,0,0,1,1.27-1.717,6.738,6.738,0,0,1,3.309-.785,6.809,6.809,0,0,1,3.348.8,2.163,2.163,0,0,1,1.292,1.741,2.126,2.126,0,0,1-1.269,1.717,6.726,6.726,0,0,1-3.309.785Z" transform="translate(-901.037 -160.357)" fill="#d4d4dd"/><path d="M910.732,168.765a6.411,6.411,0,0,1-3.149-.749,2.037,2.037,0,0,1-1.214-1.638,2,2,0,0,1,1.194-1.615,6.334,6.334,0,0,1,3.112-.738,6.4,6.4,0,0,1,3.149.75,2.034,2.034,0,0,1,1.214,1.636,2,2,0,0,1-1.194,1.615,6.334,6.334,0,0,1-3.112.738Z" transform="translate(-900.991 -160.357)" fill="#f1f1f6"/><g transform="translate(11.877 2.152)"><path d="M915.815,163.36l-.417-.241a1.336,1.336,0,0,0-1.147.013l-2.2,1.121c-.215.111-.3.267-.248.4a.329.329,0,0,0,.157.176l.886.515a1.067,1.067,0,0,0,1-.059l1.949-1.265a.54.54,0,0,0,.222-.26v-.02A.336.336,0,0,0,915.815,163.36Zm-3.233,1.422a.405.405,0,0,1-.13-.125.329.329,0,0,1,.143-.137l.254-.131a.778.778,0,0,1,.679.013l.339.2a.287.287,0,0,1,.123.117.281.281,0,0,1-.1.117l-.235.144a.764.764,0,0,1-.711.013Zm2.2-.574a.828.828,0,0,1-.378.091.585.585,0,0,1-.275-.059l-.254-.15a.2.2,0,0,1-.091-.091.378.378,0,0,1,.137-.129.759.759,0,0,1,.366-.092.566.566,0,0,1,.287.066l.254.15a.2.2,0,0,1,.091.084A.369.369,0,0,1,914.785,164.208Z" transform="translate(-911.79 -162.713)" fill="#d7d6d6" style="mix-blend-mode:multiply;isolation:isolate"/><path d="M916.018,163.5v-.019a.418.418,0,0,0-.2-.229l-.417-.241a1.336,1.336,0,0,0-1.147.013l-2.2,1.128a.445.445,0,0,0-.248.241.267.267,0,0,0,.157.332l.886.514a1.083,1.083,0,0,0,1-.052l1.949-1.271C915.978,163.8,916.056,163.645,916.018,163.5Zm-1.1.313a.389.389,0,0,1-.137.131.827.827,0,0,1-.378.091.6.6,0,0,1-.275-.059l-.254-.15a.208.208,0,0,1-.091-.091.38.38,0,0,1,.137-.131.758.758,0,0,1,.366-.091.566.566,0,0,1,.287.065l.254.15A.2.2,0,0,1,914.922,163.815Zm-2.327.444.254-.131a.77.77,0,0,1,.678.013l.339.2a.28.28,0,0,1,.123.117.3.3,0,0,1-.1.117l-.235.143a.764.764,0,0,1-.711.013l-.358-.209a.4.4,0,0,1-.13-.123A.317.317,0,0,1,912.6,164.259Z" transform="translate(-911.791 -162.734)" fill="#d4d4dd"/><path d="M915.815,163.124l-.417-.241a1.336,1.336,0,0,0-1.147.012l-2.2,1.122c-.215.11-.3.267-.248.4a.338.338,0,0,0,.157.176l.886.514a1.067,1.067,0,0,0,1-.059l1.949-1.265a.54.54,0,0,0,.222-.26v-.019A.335.335,0,0,0,915.815,163.124Zm-3.233,1.421a.4.4,0,0,1-.13-.123.317.317,0,0,1,.143-.137l.254-.131a.77.77,0,0,1,.679.013l.339.2a.28.28,0,0,1,.123.117.3.3,0,0,1-.1.117l-.235.143a.764.764,0,0,1-.711.013Zm2.2-.573a.828.828,0,0,1-.378.091.6.6,0,0,1-.275-.059l-.254-.15a.208.208,0,0,1-.091-.091.38.38,0,0,1,.137-.131.758.758,0,0,1,.366-.091.566.566,0,0,1,.287.065l.254.15a.2.2,0,0,1,.091.085A.388.388,0,0,1,914.785,163.972Z" transform="translate(-911.79 -162.76)" fill="#f1f1f6"/><path d="M915.158,163.436l-.444-.254a.9.9,0,0,0-.788.007l-1.813.892a.283.283,0,0,0-.163.176.184.184,0,0,0,.1.176l.933.535a.542.542,0,0,0,.3.059.659.659,0,0,0,.306-.091l1.551-1.043C915.353,163.748,915.36,163.547,915.158,163.436Zm-1.3,1.1-.235.143a.764.764,0,0,1-.711.013l-.358-.209a.4.4,0,0,1-.13-.123.317.317,0,0,1,.143-.137l.254-.131a.77.77,0,0,1,.679.013l.339.2a.281.281,0,0,1,.123.117A.3.3,0,0,1,913.855,164.531Zm.9-.626a.828.828,0,0,1-.378.091.6.6,0,0,1-.275-.059l-.254-.15a.208.208,0,0,1-.091-.091.381.381,0,0,1,.137-.131.758.758,0,0,1,.366-.091.566.566,0,0,1,.287.065l.254.15a.2.2,0,0,1,.091.085A.387.387,0,0,1,914.754,163.906Z" transform="translate(-911.759 -162.693)" fill="#d4d4dd"/><path d="M913.884,164.287a.28.28,0,0,0-.123-.117l-.339-.2a.77.77,0,0,0-.678-.013l-.254.131a.317.317,0,0,0-.143.137c-.053-.1,0-.216.143-.294l.254-.131a.778.778,0,0,1,.678.013l.339.2C913.89,164.084,913.93,164.189,913.884,164.287Z" transform="translate(-911.684 -162.567)" fill="#d4d4dd"/><path d="M914.594,163.738a.2.2,0,0,0-.091-.085l-.254-.15a.565.565,0,0,0-.287-.065.758.758,0,0,0-.366.091.379.379,0,0,0-.137.131c-.051-.092,0-.2.137-.288a.758.758,0,0,1,.366-.091.566.566,0,0,1,.287.066l.254.15A.169.169,0,0,1,914.594,163.738Z" transform="translate(-911.463 -162.656)" fill="#d4d4dd"/><path d="M914.582,163.038a.379.379,0,0,1,.343,0,.105.105,0,0,1,0,.2.382.382,0,0,1-.344,0A.1.1,0,0,1,914.582,163.038Z" transform="translate(-911.25 -162.713)" fill="#d4d4dd"/></g></g></g></g></svg>