<?xml version="1.0" encoding="UTF-8"?><svg id="Layer_2" xmlns="http://www.w3.org/2000/svg" xmlns:xlink="http://www.w3.org/1999/xlink" viewBox="0 0 434.56 395.12"><defs><clipPath id="clippath"><rect y="171.94" width="434.56" height="223.18" style="fill:none;"/></clipPath><clipPath id="clippath-1"><rect y="171.94" width="434.56" height="223.18" style="fill:none;"/></clipPath><clipPath id="clippath-2"><path d="M259.87,253.18c-1.61-.01-2.92,1.28-2.94,2.89,0,.07,0,.14,0,.21l5.86,105.93c.12,1.73,1.54,3.08,3.28,3.1h47.58c1.73-.02,3.16-1.37,3.28-3.1l5.86-105.93c.1-1.61-1.12-2.99-2.72-3.09-.07,0-.14,0-.21,0h-59.99Z" style="fill:none;"/></clipPath><linearGradient id="linear-gradient" x1="-593.02" y1="581.44" x2="-592.99" y2="581.44" gradientTransform="translate(39166.53 65503.67) scale(66.05 -112.12)" gradientUnits="userSpaceOnUse"><stop offset="0" stop-color="#a2d85b"/><stop offset="1" stop-color="#7aad38"/></linearGradient><clipPath id="clippath-3"><rect y="171.94" width="434.56" height="223.18" style="fill:none;"/></clipPath><clipPath id="clippath-4"><rect x="256.98" y="257.73" width="65.73" height="10.13" style="fill:none;"/></clipPath><clipPath id="clippath-5"><path d="M322.15,267.86c.21-3.84-64.78-3.64-64.57,0l-.59-10.01,65.73-.11-.56,10.13Z" style="fill:none;"/></clipPath><linearGradient id="linear-gradient-2" x1="-593.02" y1="572.57" x2="-592.99" y2="572.57" gradientTransform="translate(38977.14 6061.19) scale(65.73 -10.13)" gradientUnits="userSpaceOnUse"><stop offset="0" stop-color="#fff"/><stop offset="1" stop-color="#b2b4c1"/></linearGradient><clipPath id="clippath-6"><path d="M287,181.58l-25.03,1.78c-1.56,.24-2.74,1.53-2.85,3.1l-2.04,27.47c-.13,1.94-.08,3.89,.15,5.82l3.3,21.3c.18,1.56,1.44,2.78,3,2.9h51.87c1.57-.12,2.83-1.33,3.03-2.89l3.52-21.12c.24-1.93,.29-3.87,.15-5.81l-2.25-27.67c-.12-1.57-1.31-2.86-2.87-3.1l-24.77-1.78c-.72-.05-1.68-.08-2.63-.08s-1.87,.03-2.59,.08" style="fill:none;"/></clipPath><linearGradient id="linear-gradient-3" x1="-593.01" y1="580.74" x2="-592.98" y2="580.74" gradientTransform="translate(38728.15 36476.06) scale(65.31 -62.44)" gradientUnits="userSpaceOnUse"><stop offset="0" stop-color="#ffab24"/><stop offset="1" stop-color="#ffbe5f"/></linearGradient><clipPath id="clippath-7"><rect y="171.94" width="434.56" height="223.18" style="fill:none;"/></clipPath><clipPath id="clippath-8"><rect x="257.01" y="181.5" width="65.17" height="62.44" style="fill:none;"/></clipPath><clipPath id="clippath-9"><rect x="257.06" y="185.09" width="65.07" height="58.86" style="fill:none;"/></clipPath><clipPath id="clippath-10"><path d="M255.8,248.63h68.13c1.18,0,2.14,.96,2.14,2.14h0v4.83c0,1.18-.96,2.13-2.14,2.13h-68.13c-1.18,0-2.14-.96-2.14-2.14v-4.83c0-1.18,.96-2.14,2.14-2.14h0Z" style="fill:none;"/></clipPath><linearGradient id="linear-gradient-4" x1="-593.07" y1="571.47" x2="-593.05" y2="571.47" gradientTransform="translate(42942.79 5454.7) scale(72.41 -9.1)" xlink:href="#linear-gradient"/><clipPath id="clippath-11"><path d="M287,185.98l-25.04,1.78c-1.56,.24-2.74,1.53-2.85,3.1l-1.91,25.94c0,.06,.01,.12,.02,.17l3.3,21.3c.18,1.56,1.44,2.78,3,2.9h51.87c1.57-.12,2.83-1.33,3.03-2.89l3.52-21.11s.01-.08,.01-.13l-2.11-26.18c-.12-1.57-1.31-2.86-2.87-3.1l-24.77-1.79c-.72-.05-1.68-.08-2.63-.08s-1.87,.03-2.59,.08" style="fill:none;"/></clipPath><clipPath id="clippath-12"><rect y="171.94" width="434.56" height="223.18" style="fill:none;"/></clipPath><clipPath id="clippath-13"><rect x="253.66" y="248.63" width="72.41" height="9.1" style="fill:none;"/></clipPath><clipPath id="clippath-14"><path d="M253.58,252.25h72.56c.47,0,.86,.38,.86,.85h0v3.77c0,.47-.38,.86-.86,.86h-72.56c-.47,0-.85-.38-.85-.85h0v-3.77c0-.47,.38-.86,.86-.86Z" style="fill:none;"/></clipPath><linearGradient id="linear-gradient-5" x1="-593.09" y1="564.3" x2="-593.07" y2="564.3" gradientTransform="translate(44048.19 3347.91) scale(74.27 -5.48)" xlink:href="#linear-gradient"/><clipPath id="clippath-15"><rect y="171.94" width="434.56" height="223.18" style="fill:none;"/></clipPath><clipPath id="clippath-16"><rect x="253.66" y="251.89" width="72.41" height=".73" style="fill:none;"/></clipPath><clipPath id="clippath-17"><rect x="253.66" y="248.26" width="72.41" height=".73" style="fill:none;"/></clipPath><clipPath id="clippath-18"><rect x="289.22" y="185.54" width="29.95" height="3.48" style="fill:none;"/></clipPath><clipPath id="clippath-19"><rect x="260" y="185.54" width="29.95" height="3.48" style="fill:none;"/></clipPath><clipPath id="clippath-20"><rect x="274.36" y="289.96" width="30.66" height="29.19" style="fill:none;"/></clipPath><clipPath id="clippath-21"><path d="M180.07,253.18c-1.61-.01-2.92,1.28-2.94,2.89,0,.07,0,.14,0,.21l5.86,105.93c.12,1.73,1.54,3.08,3.27,3.1h47.58c1.73-.02,3.16-1.37,3.27-3.1l5.86-105.93c.1-1.61-1.12-2.99-2.72-3.09-.07,0-.14,0-.21,0h-59.99Z" style="fill:none;"/></clipPath><linearGradient id="linear-gradient-6" x1="-591.81" x2="-591.79" gradientTransform="translate(39086.14 65503.67) scale(66.04 -112.12)" xlink:href="#linear-gradient"/><clipPath id="clippath-22"><rect y="171.94" width="434.56" height="223.18" style="fill:none;"/></clipPath><clipPath id="clippath-23"><rect x="177.18" y="257.73" width="65.73" height="10.13" style="fill:none;"/></clipPath><clipPath id="clippath-24"><path d="M242.35,267.86c.21-3.84-64.77-3.64-64.57,0l-.59-10.01,65.73-.11-.56,10.13Z" style="fill:none;"/></clipPath><linearGradient id="linear-gradient-7" x1="-591.8" x2="-591.78" gradientTransform="translate(38897.34 6061.19) scale(65.73 -10.13)" xlink:href="#linear-gradient-2"/><clipPath id="clippath-25"><path d="M176,248.63h68.13c1.18,0,2.14,.96,2.14,2.14h0v4.83c0,1.18-.96,2.13-2.14,2.13h-68.13c-1.18,0-2.14-.96-2.14-2.14v-4.83c0-1.18,.96-2.14,2.14-2.14h0Z" style="fill:none;"/></clipPath><linearGradient id="linear-gradient-8" x1="-591.97" y1="571.47" x2="-591.95" y2="571.47" gradientTransform="translate(42862.99 5454.7) scale(72.41 -9.1)" xlink:href="#linear-gradient"/><clipPath id="clippath-26"><rect y="171.94" width="434.56" height="223.18" style="fill:none;"/></clipPath><clipPath id="clippath-27"><rect x="173.86" y="251.89" width="72.41" height=".73" style="fill:none;"/></clipPath><clipPath id="clippath-28"><rect x="194.55" y="289.96" width="30.66" height="29.19" style="fill:none;"/></clipPath><clipPath id="clippath-29"><path d="M149.2,242.51c0,1.88,.5,3.42,1.1,3.42s1.1-1.54,1.1-3.42-.49-3.42-1.1-3.42-1.1,1.54-1.1,3.42" style="fill:none;"/></clipPath><linearGradient id="linear-gradient-9" x1="-510.74" y1="567.89" x2="-509.96" y2="567.89" gradientTransform="translate(1120.08 4128.55) scale(2.19 -6.84)" gradientUnits="userSpaceOnUse"><stop offset="0" stop-color="#34bfe0"/><stop offset="1" stop-color="#4591ff"/></linearGradient><clipPath id="clippath-30"><path d="M106.58,242.51c0,1.88,.49,3.42,1.1,3.42s1.1-1.54,1.1-3.42-.49-3.42-1.1-3.42-1.1,1.54-1.1,3.42" style="fill:none;"/></clipPath><linearGradient id="linear-gradient-10" x1="-491.41" x2="-490.63" gradientTransform="translate(1078.66 4128.55) scale(2.19 -6.84)" xlink:href="#linear-gradient-9"/><clipPath id="clippath-31"><rect y="171.94" width="434.56" height="223.18" style="fill:none;"/></clipPath><clipPath id="clippath-32"><path d="M99.23,253.18c-1.61-.01-2.92,1.28-2.94,2.88,0,.07,0,.14,0,.22l5.86,105.93c.12,1.73,1.54,3.08,3.27,3.1h47.59c1.73-.02,3.16-1.37,3.27-3.1l5.86-105.93c.1-1.61-1.11-2.99-2.72-3.09-.07,0-.14,0-.21,0h-60Z" style="fill:none;"/></clipPath><linearGradient id="linear-gradient-11" x1="-590.59" x2="-590.56" gradientTransform="translate(39004.12 65503.67) scale(66.04 -112.12)" xlink:href="#linear-gradient"/><clipPath id="clippath-33"><rect y="171.94" width="434.56" height="223.18" style="fill:none;"/></clipPath><clipPath id="clippath-34"><rect x="96.35" y="257.73" width="65.73" height="10.13" style="fill:none;"/></clipPath><clipPath id="clippath-35"><path d="M161.52,267.86c.21-3.84-64.78-3.64-64.58,0l-.59-10.01,65.73-.11-.56,10.13Z" style="fill:none;"/></clipPath><linearGradient id="linear-gradient-12" x1="-590.57" x2="-590.55" gradientTransform="translate(38816.51 6061.19) scale(65.73 -10.13)" xlink:href="#linear-gradient-2"/><clipPath id="clippath-36"><path d="M95.17,248.63h68.13c1.18,0,2.13,.96,2.13,2.14v4.83c0,1.18-.96,2.13-2.13,2.13H95.17c-1.18,0-2.14-.96-2.14-2.14v-4.83c0-1.18,.96-2.14,2.14-2.14h0Z" style="fill:none;"/></clipPath><linearGradient id="linear-gradient-13" x1="-590.86" y1="571.47" x2="-590.83" y2="571.47" gradientTransform="translate(42779.79 5454.7) scale(72.4 -9.1)" xlink:href="#linear-gradient"/><clipPath id="clippath-37"><path d="M95.17,248.63h68.13c1.18,0,2.13,.96,2.13,2.14v4.83c0,1.18-.96,2.13-2.13,2.13H95.17c-1.18,0-2.14-.96-2.14-2.14v-4.83c0-1.18,.96-2.14,2.14-2.14h0Z" style="fill:none;"/></clipPath><linearGradient id="linear-gradient-14" x1="-590.86" y1="571.47" x2="-590.83" y2="571.47" gradientTransform="translate(42779.79 5454.7) scale(72.4 -9.1)" xlink:href="#linear-gradient-9"/><clipPath id="clippath-38"><path d="M92.95,252.25h72.56c.47,0,.86,.38,.86,.85h0v3.77c0,.47-.38,.85-.85,.85H92.95c-.47,0-.85-.38-.85-.85h0v-3.77c0-.47,.38-.86,.86-.86Z" style="fill:none;"/></clipPath><linearGradient id="linear-gradient-15" x1="-590.93" y1="564.3" x2="-590.9" y2="564.3" gradientTransform="translate(43887.55 3347.91) scale(74.27 -5.48)" xlink:href="#linear-gradient-9"/><clipPath id="clippath-39"><rect y="171.94" width="434.56" height="223.18" style="fill:none;"/></clipPath><clipPath id="clippath-40"><rect x="93.03" y="251.89" width="72.4" height=".73" style="fill:none;"/></clipPath><clipPath id="clippath-41"><rect x="113.72" y="289.96" width="30.66" height="29.19" style="fill:none;"/></clipPath><clipPath id="clippath-42"><polygon points="104.1 242.44 96.36 248.63 161.59 248.63 153.84 242.44 104.1 242.44" style="fill:none;"/></clipPath><linearGradient id="linear-gradient-16" x1="-590.54" y1="566.36" x2="-590.52" y2="566.36" gradientTransform="translate(38526.56 3750.74) scale(65.24 -6.19)" xlink:href="#linear-gradient-9"/><clipPath id="clippath-43"><rect y="171.94" width="434.56" height="223.18" style="fill:none;"/></clipPath><clipPath id="clippath-44"><path d="M301.36,218.93c-3.37,1.75-4.21,6.8-4.9,10.23-.39,1.96-.9,3.9-1.51,5.81-.72,2-1.67,3.99-2.28,6.02-.48,1.08-.51,2.3-.09,3.41,1.59,2.11,4.41,2.88,6.85,1.85,.92-.74,1.51-1.82,1.64-2.99,.49-2.06,.68-4.26,1.06-6.35,.43-1.96,.97-3.89,1.62-5.78,1.13-3.31,2.96-8.08,.92-11.3l.56-2.19-3.31-.9-.56,2.19Z" style="fill:none;"/></clipPath><linearGradient id="linear-gradient-17" x1="-603.01" y1="566.6" x2="-602.96" y2="566.6" gradientTransform="translate(19852.01 12710.46) scale(32.92 -22.02)" xlink:href="#linear-gradient-9"/><clipPath id="clippath-45"><path d="M303.45,217.62c-.85-.23-1.49-.61-1.43-.86s.81-.25,1.67-.02,1.49,.61,1.43,.86c-.03,.12-.25,.19-.57,.19-.37,0-.74-.07-1.1-.17m-1.55-.89c-.07,.26,.62,.68,1.54,.93s1.73,.24,1.8-.02-.62-.68-1.54-.93c-.39-.11-.79-.17-1.19-.18-.34,0-.58,.07-.61,.2" style="fill:none;"/></clipPath><linearGradient id="linear-gradient-18" x1="-731.83" y1="489.56" x2="-731.07" y2="489.56" gradientTransform="translate(1653.99 2045.23) scale(2.26 -3.73)" gradientUnits="userSpaceOnUse"><stop offset="0" stop-color="#a8d8d9"/><stop offset="1" stop-color="#7ed3f7"/></linearGradient><clipPath id="clippath-46"><rect y="171.94" width="434.56" height="223.18" style="fill:none;"/></clipPath><clipPath id="clippath-47"><rect x="301.24" y="218.5" width="3.85" height="1.06" style="fill:none;"/></clipPath><linearGradient id="linear-gradient-19" x1="-585.35" y1="440" x2="-584.86" y2="440" gradientTransform="translate(2039.96 524.52) scale(3.49 -.69)" xlink:href="#linear-gradient-2"/><clipPath id="clippath-48"><rect x="301.33" y="218.17" width="3.85" height="1.06" style="fill:none;"/></clipPath><linearGradient id="linear-gradient-20" x1="-585.38" y1="440" x2="-584.89" y2="440" gradientTransform="translate(2040.05 524.17) scale(3.49 -.69)" xlink:href="#linear-gradient-2"/><clipPath id="clippath-49"><rect x="301.42" y="217.85" width="3.85" height="1.06" style="fill:none;"/></clipPath><linearGradient id="linear-gradient-21" x1="-585.4" y1="440.01" x2="-584.91" y2="440.01" gradientTransform="translate(2040.14 523.88) scale(3.49 -.69)" xlink:href="#linear-gradient-2"/><clipPath id="clippath-50"><rect x="301.51" y="217.52" width="3.85" height="1.06" style="fill:none;"/></clipPath><linearGradient id="linear-gradient-22" x1="-585.44" y1="440" x2="-584.95" y2="440" gradientTransform="translate(2041.42 523.52) scale(3.49 -.69)" xlink:href="#linear-gradient-2"/><linearGradient id="linear-gradient-23" x1="-585.33" y1="439.99" x2="-584.84" y2="439.99" gradientTransform="translate(2040.53 524.59) scale(3.49 -.69)" xlink:href="#linear-gradient-9"/><linearGradient id="linear-gradient-24" x1="-585.37" y1="441.2" x2="-584.88" y2="441.2" gradientTransform="translate(2040.02 527.72) scale(3.49 -.7)" xlink:href="#linear-gradient-9"/><linearGradient id="linear-gradient-25" x1="-585.4" y1="440" x2="-584.9" y2="440" gradientTransform="translate(2040.11 523.96) scale(3.49 -.69)" xlink:href="#linear-gradient-9"/><linearGradient id="linear-gradient-26" x1="-585.42" y1="439.59" x2="-584.93" y2="439.59" gradientTransform="translate(2040.2 522.49) scale(3.49 -.69)" xlink:href="#linear-gradient-9"/><clipPath id="clippath-51"><rect x="295.69" y="217.2" width="9.9" height="29.54" style="fill:none;"/></clipPath><clipPath id="clippath-52"><path d="M299.43,246.25c.92-.74,1.51-1.82,1.64-2.99,.5-2.06,.68-4.26,1.07-6.35,.43-1.96,.97-3.89,1.62-5.78,1.13-3.31,2.95-8.08,.92-11.3l.56-2.19-1.63-.44-7.92,29.3c1.23,.4,2.57,.31,3.74-.25" style="fill:none;"/></clipPath><linearGradient id="linear-gradient-27" x1="-603.48" y1="563.48" x2="-603.43" y2="563.48" gradientTransform="translate(19027.14 10587.64) scale(31.53 -18.38)" xlink:href="#linear-gradient-2"/><clipPath id="clippath-53"><rect x="26.45" width="279.67" height="213.07" style="fill:none;"/></clipPath></defs><g id="Layer_1-2"><g id="Grupo_6307"><g style="clip-path:url(#clippath);"><g id="Grupo_6306"><g id="Grupo_6183"><g style="clip-path:url(#clippath-1);"><g id="Grupo_6182"><path id="Caminho_21450" d="M434.56,365.07c0,16.6-97.28,30.06-217.28,30.06S0,381.67,0,365.07s97.28-30.06,217.28-30.06,217.28,13.46,217.28,30.06" style="fill:#e8e5df;"/><path id="Caminho_21451" d="M256.84,356.49c.12,2.01,1.05,3.66,2.07,3.66s1.93-1.65,2.02-3.67l.15-3.4c.09-2.02,.08-5.32,0-7.33l-.14-3.04c-.09-2.02-1-3.67-2.03-3.67s-1.96,1.65-2.08,3.66l-.18,3.12c-.12,2.01-.12,5.31,0,7.33l.19,3.33Z" style="fill:#272525;"/><rect id="Retângulo_735" x="259.58" y="347.52" width="6.44" height="4.11" style="fill:#272525;"/><path id="Caminho_21452" d="M322.73,356.49c-.12,2.01-1.05,3.66-2.07,3.66s-1.93-1.65-2.02-3.67l-.15-3.4c-.09-2.02-.09-5.32,0-7.33l.14-3.04c.09-2.02,1-3.67,2.03-3.67s1.96,1.65,2.08,3.66l.19,3.12c.12,2.01,.12,5.31,0,7.33l-.19,3.33Z" style="fill:#272525;"/><rect id="Retângulo_736" x="313.55" y="347.52" width="6.44" height="4.11" style="fill:#272525;"/></g></g></g><g id="Grupo_6185"><g style="clip-path:url(#clippath-2);"><g id="Grupo_6184"><rect id="Retângulo_738" x="256.84" y="253.18" width="66.05" height="112.12" style="fill:url(#linear-gradient);"/></g></g></g><g id="Grupo_6192"><g style="clip-path:url(#clippath-3);"><g id="Grupo_6191"><g id="Grupo_6190"><g id="Grupo_6189"><g style="clip-path:url(#clippath-4);"><g id="Grupo_6188"><g id="Grupo_6187"><g style="clip-path:url(#clippath-5);"><g id="Grupo_6186"><rect id="Retângulo_739" x="256.98" y="257.73" width="65.73" height="10.13" style="fill:url(#linear-gradient-2);"/></g></g></g></g></g></g></g><line id="Linha_36" x1="320.64" y1="248.63" x2="259.2" y2="248.63" style="fill:none; stroke:#002a4c; stroke-linecap:round; stroke-miterlimit:10; stroke-width:1.71px;"/><line id="Linha_37" x1="317.48" y1="243.56" x2="317.48" y2="249.61" style="fill:none; stroke:#002a4c; stroke-linecap:round; stroke-miterlimit:10; stroke-width:.86px;"/><line id="Linha_38" x1="262.87" y1="243.56" x2="262.87" y2="249.61" style="fill:none; stroke:#002a4c; stroke-linecap:round; stroke-miterlimit:10; stroke-width:.86px;"/></g></g></g><g id="Grupo_6194"><g style="clip-path:url(#clippath-6);"><g id="Grupo_6193"><rect id="Retângulo_742" x="256.95" y="181.5" width="65.31" height="62.44" style="fill:url(#linear-gradient-3);"/></g></g></g><g id="Grupo_6202"><g style="clip-path:url(#clippath-7);"><g id="Grupo_6201"><g id="Grupo_6197" style="opacity:.5;"><g id="Grupo_6196"><g style="clip-path:url(#clippath-8);"><g id="Grupo_6195"><path id="Caminho_21456" d="M259.12,186.46c.11-1.57,1.29-2.86,2.85-3.1l25.03-1.78c1.74-.1,3.48-.1,5.21,0l24.77,1.77c1.56,.24,2.75,1.52,2.87,3.1l2.25,27.67c.14,1.94,.09,3.88-.15,5.81l-3.51,21.11c-.2,1.56-1.46,2.77-3.03,2.89h-51.87c-1.57-.12-2.83-1.34-3.01-2.9l-3.3-21.3c-.23-1.93-.28-3.88-.15-5.82l2.03-27.46Z" style="fill:#fff;"/></g></g></g></g><g id="Grupo_6200" style="opacity:.1;"><g id="Grupo_6199"><g style="clip-path:url(#clippath-9);"><g id="Grupo_6198"><path id="Caminho_21457" d="M259.12,190.05c.1-1.58,1.29-2.87,2.85-3.1l25.04-1.78c1.74-.1,3.48-.1,5.21,0l24.77,1.78c1.56,.24,2.75,1.53,2.87,3.11l2.25,27.67c0,.1,.02,.22,.02,.33-.04,.7-.1,1.36-.17,1.9l-3.51,21.12c-.2,1.56-1.46,2.77-3.03,2.89h-51.87c-1.57-.12-2.83-1.34-3.01-2.9l-3.3-21.3c-.08-.55-.13-1.23-.17-1.94,0-.1,0-.2,.02-.29l2.03-27.46Z" style="fill:#fff;"/></g></g></g></g></g></g></g><g id="Grupo_6204"><g style="clip-path:url(#clippath-10);"><g id="Grupo_6203"><rect id="Retângulo_746" x="253.66" y="248.63" width="72.41" height="9.1" style="fill:url(#linear-gradient-4);"/></g></g></g><g id="Grupo_6206"><g style="clip-path:url(#clippath-11);"><g id="Grupo_6205"><rect id="Retângulo_748" x="257.21" y="185.9" width="64.76" height="55.27" style="fill:#f4b83f;"/></g></g></g><g id="Grupo_6211"><g style="clip-path:url(#clippath-12);"><g id="Grupo_6210"><line id="Linha_39" x1="318.81" y1="244.18" x2="260.9" y2="244.18" style="fill:none; stroke:#002a4c; stroke-linecap:round; stroke-miterlimit:10; stroke-width:1.71px;"/><g id="Grupo_6209" style="opacity:.2;"><g id="Grupo_6208"><g style="clip-path:url(#clippath-13);"><g id="Grupo_6207"><rect id="Retângulo_749" x="253.66" y="248.63" width="72.41" height="9.1" rx="2.14" ry="2.14" style="fill:#fff;"/></g></g></g></g></g></g></g><g id="Grupo_6213"><g style="clip-path:url(#clippath-14);"><g id="Grupo_6212"><rect id="Retângulo_752" x="252.73" y="252.25" width="74.27" height="5.48" style="fill:url(#linear-gradient-5);"/></g></g></g><g id="Grupo_6230"><g style="clip-path:url(#clippath-15);"><g id="Grupo_6229"><g id="Grupo_6216" style="opacity:.5;"><g id="Grupo_6215"><g style="clip-path:url(#clippath-16);"><g id="Grupo_6214"><line id="Linha_40" x1="326.07" y1="252.25" x2="253.66" y2="252.25" style="fill:none; stroke:#fff; stroke-miterlimit:10; stroke-width:.43px;"/></g></g></g></g><g id="Grupo_6219" style="opacity:.5;"><g id="Grupo_6218"><g style="clip-path:url(#clippath-17);"><g id="Grupo_6217"><line id="Linha_41" x1="326.07" y1="248.63" x2="253.66" y2="248.63" style="fill:none; stroke:#fff; stroke-miterlimit:10; stroke-width:.43px;"/></g></g></g></g><g id="Grupo_6222" style="opacity:.7;"><g id="Grupo_6221"><g style="clip-path:url(#clippath-18);"><g id="Grupo_6220"><path id="Caminho_21459" d="M318.81,188.65c-1.07-1.54-25.6-2.75-29.22-2.75" style="fill:none; stroke:#fff; stroke-linecap:round; stroke-miterlimit:10; stroke-width:.43px;"/></g></g></g></g><g id="Grupo_6225" style="opacity:.7;"><g id="Grupo_6224"><g style="clip-path:url(#clippath-19);"><g id="Grupo_6223"><path id="Caminho_21460" d="M260.37,188.65c1.07-1.54,25.6-2.75,29.22-2.75" style="fill:none; stroke:#fff; stroke-linecap:round; stroke-miterlimit:10; stroke-width:.43px;"/></g></g></g></g><g id="Grupo_6228"><g id="Grupo_6227"><g style="clip-path:url(#clippath-20);"><g id="Grupo_6226"><path id="Caminho_21461" d="M286.05,300.76c-.38-.19-3.46-1.99-3.79-2.19-.39-.23-.51-.53-.22-1.04,.85-1.5,3-5.19,3.71-6.42,.9-1.55,6.85-1.53,7.83,.04,.78,1.26,2.93,5.05,3.76,6.49l1.29-.74s.46-.31,.27,.44c-.16,.62-1.12,4.2-1.48,5.51-.08,.3-.28,.44-.53,.37-1.27-.34-5.11-1.37-5.7-1.53-.71-.19-.06-.47-.06-.47l1.21-.7-2.68-4.64s-2.52,4.35-2.72,4.69-.5,.37-.88,.17" style="fill:#b2b4c1;"/><path id="Caminho_21462" d="M292.96,310.06c.51-.52,.44,.19,.44,.19v1.4h5.36l-2.7-4.7c-.19-.34-.06-.62,.29-.85s3.46-2,3.79-2.19c.4-.22,.71-.18,1.01,.33,.87,1.48,3,5.19,3.71,6.42,.9,1.55-2.1,6.7-3.95,6.76-1.49,.05-5.84,.02-7.5,0v1.48s.04,.56-.52,.01c-.46-.45-3.08-3.08-4.04-4.04-.19-.14-.24-.41-.1-.6,.01-.02,.03-.03,.04-.05l4.17-4.17" style="fill:#b2b4c1;"/><path id="Caminho_21463" d="M274.51,311.07c.7-1.31,2.9-5.07,3.75-6.5l-1.29-.74s-.5-.25,.25-.46c.62-.18,4.2-1.13,5.51-1.47,.3-.08,.52,.02,.59,.28,.34,1.27,1.37,5.11,1.53,5.7,.19,.7-.38,.29-.38,.29l-1.21-.7-2.68,4.64h5.42c.39,.01,.57,.26,.59,.69s0,4,0,4.37c0,.46-.2,.71-.79,.71-1.72,.01-5.99,0-7.42,0-1.79,0-4.75-5.17-3.88-6.8" style="fill:#b2b4c1;"/></g></g></g></g><path id="Caminho_21464" d="M286.22,300.53c-.38-.19-3.46-1.99-3.79-2.19-.4-.23-.51-.53-.22-1.04,.85-1.5,3-5.19,3.71-6.42,.9-1.55,6.85-1.53,7.83,.04,.78,1.26,2.93,5.05,3.75,6.49l1.29-.74s.46-.31,.27,.44c-.16,.63-1.12,4.2-1.48,5.51-.08,.3-.28,.44-.53,.37-1.27-.34-5.11-1.37-5.7-1.53-.7-.19-.06-.47-.06-.47l1.21-.7-2.68-4.64-2.72,4.69c-.19,.34-.5,.36-.88,.17" style="fill:#fff;"/><path id="Caminho_21465" d="M293.14,309.83c.52-.52,.44,.18,.44,.18v1.4h5.36s-2.51-4.37-2.7-4.7-.06-.62,.29-.85,3.46-2,3.79-2.19c.4-.22,.71-.18,1.01,.33,.87,1.49,2.99,5.19,3.71,6.43,.9,1.55-2.1,6.7-3.95,6.76-1.48,.05-5.84,.02-7.5,0v1.49s.04,.56-.52,.01c-.46-.45-3.08-3.08-4.03-4.04-.19-.14-.24-.41-.1-.6,.01-.02,.03-.04,.04-.05l4.17-4.17" style="fill:#fff;"/><path id="Caminho_21466" d="M274.69,310.84c.7-1.31,2.9-5.07,3.75-6.5l-1.29-.74s-.5-.25,.25-.46c.62-.17,4.2-1.13,5.51-1.47,.3-.08,.52,.02,.59,.28,.34,1.27,1.37,5.11,1.53,5.7,.19,.7-.38,.29-.38,.29l-1.21-.7-2.68,4.64h5.42c.39,.01,.57,.27,.59,.69s0,4,0,4.37c0,.46-.2,.7-.79,.71-1.73,.01-5.99,0-7.42,0-1.79,0-4.75-5.17-3.88-6.8" style="fill:#fff;"/><path id="Caminho_21467" d="M230.03,242.51c0,1.88,.49,3.42,1.1,3.42s1.1-1.54,1.1-3.42-.49-3.42-1.1-3.42-1.1,1.54-1.1,3.42" style="fill:#6bad52;"/><path id="Caminho_21468" d="M187.42,242.51c0,1.88,.5,3.42,1.1,3.42s1.1-1.54,1.1-3.42-.49-3.42-1.1-3.42-1.1,1.54-1.1,3.42" style="fill:#6bad52;"/><path id="Caminho_21469" d="M177.04,356.49c.12,2.01,1.05,3.66,2.07,3.66s1.93-1.65,2.02-3.67l.15-3.4c.09-2.02,.08-5.32,0-7.33l-.14-3.04c-.09-2.02-1-3.67-2.03-3.67s-1.96,1.65-2.08,3.66l-.19,3.12c-.12,2.01-.12,5.31,0,7.33l.2,3.33Z" style="fill:#272525;"/><rect id="Retângulo_759" x="179.78" y="347.52" width="6.44" height="4.11" style="fill:#272525;"/><path id="Caminho_21470" d="M242.93,356.49c-.12,2.01-1.05,3.66-2.07,3.66s-1.93-1.65-2.02-3.67l-.15-3.4c-.09-2.02-.08-5.32,0-7.33l.14-3.04c.09-2.02,1-3.67,2.03-3.67s1.96,1.65,2.08,3.66l.19,3.12c.12,2.01,.12,5.31,0,7.33l-.19,3.33Z" style="fill:#272525;"/><rect id="Retângulo_760" x="233.75" y="347.52" width="6.44" height="4.11" style="fill:#272525;"/></g></g></g><g id="Grupo_6232"><g style="clip-path:url(#clippath-21);"><g id="Grupo_6231"><rect id="Retângulo_762" x="177.04" y="253.18" width="66.04" height="112.12" style="fill:url(#linear-gradient-6);"/></g></g></g><g id="Grupo_6239"><g style="clip-path:url(#clippath-22);"><g id="Grupo_6238"><g id="Grupo_6237"><g id="Grupo_6236"><g style="clip-path:url(#clippath-23);"><g id="Grupo_6235"><g id="Grupo_6234"><g style="clip-path:url(#clippath-24);"><g id="Grupo_6233"><rect id="Retângulo_763" x="177.18" y="257.73" width="65.73" height="10.13" style="fill:url(#linear-gradient-7);"/></g></g></g></g></g></g></g></g></g></g><g id="Grupo_6241"><g style="clip-path:url(#clippath-25);"><g id="Grupo_6240"><rect id="Retângulo_766" x="173.86" y="248.63" width="72.41" height="9.1" style="fill:url(#linear-gradient-8);"/></g></g></g><g id="Grupo_6249"><g style="clip-path:url(#clippath-26);"><g id="Grupo_6248"><rect id="Retângulo_768" x="173.86" y="248.63" width="72.41" height="9.1" rx="2.14" ry="2.14" style="fill:#6bad52;"/><rect id="Retângulo_769" x="172.93" y="252.25" width="74.27" height="5.48" rx=".86" ry=".86" style="fill:#6dc253;"/><g id="Grupo_6244" style="opacity:.5;"><g id="Grupo_6243"><g style="clip-path:url(#clippath-27);"><g id="Grupo_6242"><line id="Linha_42" x1="246.27" y1="252.25" x2="173.86" y2="252.25" style="fill:none; stroke:#fff; stroke-miterlimit:10; stroke-width:.43px;"/></g></g></g></g><g id="Grupo_6247"><g id="Grupo_6246"><g style="clip-path:url(#clippath-28);"><g id="Grupo_6245"><path id="Caminho_21473" d="M206.25,300.76c-.38-.19-3.46-1.99-3.79-2.19-.39-.23-.51-.53-.22-1.04,.85-1.5,2.99-5.19,3.71-6.42,.9-1.55,6.85-1.53,7.83,.04,.78,1.26,2.93,5.05,3.76,6.49l1.29-.74s.46-.31,.27,.44c-.16,.62-1.12,4.2-1.48,5.51-.08,.3-.28,.44-.53,.37-1.27-.34-5.11-1.37-5.7-1.53-.7-.19-.06-.47-.06-.47l1.21-.7-2.68-4.64-2.72,4.69c-.19,.33-.5,.37-.88,.17" style="fill:#b2b4c1;"/><path id="Caminho_21474" d="M213.16,310.06c.51-.52,.44,.19,.44,.19v1.4h5.36s-2.51-4.37-2.7-4.7-.06-.62,.29-.85,3.46-2,3.79-2.19c.4-.22,.71-.18,1.01,.33,.87,1.48,3,5.19,3.71,6.42,.9,1.55-2.1,6.7-3.95,6.76-1.49,.05-5.84,.02-7.5,0v1.48s.04,.56-.52,.01c-.46-.45-3.08-3.08-4.04-4.04-.19-.14-.24-.41-.1-.6,.01-.02,.03-.04,.04-.05l4.17-4.17" style="fill:#b2b4c1;"/><path id="Caminho_21475" d="M194.71,311.07c.7-1.31,2.91-5.07,3.75-6.5l-1.29-.74s-.5-.25,.25-.46c.62-.18,4.2-1.13,5.51-1.47,.3-.08,.52,.02,.59,.28,.34,1.27,1.37,5.11,1.53,5.7,.19,.7-.38,.29-.38,.29l-1.21-.7-2.68,4.64h5.43c.39,.01,.57,.26,.59,.69s0,4,0,4.37c0,.46-.2,.71-.79,.71-1.72,.01-5.99,0-7.42,0-1.79,0-4.75-5.17-3.88-6.8" style="fill:#b2b4c1;"/></g></g></g></g><path id="Caminho_21476" d="M206.42,300.53c-.37-.19-3.46-1.99-3.79-2.19-.39-.23-.51-.53-.22-1.04,.85-1.5,3-5.19,3.71-6.42,.9-1.55,6.85-1.53,7.83,.04,.78,1.26,2.93,5.05,3.75,6.49l1.29-.74s.46-.31,.27,.44c-.16,.63-1.12,4.2-1.48,5.51-.08,.3-.28,.44-.53,.37-1.27-.34-5.11-1.37-5.7-1.53-.7-.19-.06-.47-.06-.47l1.21-.7-2.68-4.64-2.72,4.69c-.19,.34-.5,.36-.88,.17" style="fill:#fff;"/><path id="Caminho_21477" d="M213.34,309.83c.52-.52,.44,.18,.44,.18v1.4h5.36s-2.51-4.37-2.7-4.7-.06-.62,.29-.85,3.46-2,3.79-2.19c.4-.22,.71-.18,1.01,.33,.87,1.49,2.99,5.19,3.71,6.43,.9,1.55-2.1,6.7-3.95,6.76-1.48,.05-5.84,.02-7.5,0v1.49s.04,.56-.52,.01c-.46-.45-3.08-3.08-4.03-4.04-.19-.14-.24-.41-.1-.6,.01-.02,.03-.04,.04-.05l4.17-4.18" style="fill:#fff;"/><path id="Caminho_21478" d="M194.89,310.84c.7-1.31,2.9-5.07,3.74-6.5l-1.28-.74s-.5-.25,.25-.46c.62-.17,4.2-1.13,5.51-1.47,.3-.08,.52,.02,.59,.28,.34,1.27,1.37,5.11,1.53,5.7,.19,.7-.38,.29-.38,.29l-1.21-.7-2.68,4.64h5.42c.39,.01,.57,.27,.59,.69s0,4,0,4.37c0,.46-.2,.7-.79,.71-1.72,.01-5.99,0-7.42,0-1.79,0-4.75-5.17-3.88-6.8" style="fill:#fff;"/><path id="Caminho_21479" d="M184.93,242.45h49.74l7.75,6.19h-65.24l7.75-6.19Z" style="fill:#6dc253;"/></g></g></g><g id="Grupo_6251"><g style="clip-path:url(#clippath-29);"><g id="Grupo_6250"><rect id="Retângulo_773" x="149.2" y="239.09" width="2.19" height="6.84" style="fill:url(#linear-gradient-9);"/></g></g></g><g id="Grupo_6253"><g style="clip-path:url(#clippath-30);"><g id="Grupo_6252"><rect id="Retângulo_774" x="106.58" y="239.09" width="2.19" height="6.84" style="fill:url(#linear-gradient-10);"/></g></g></g><g id="Grupo_6255"><g style="clip-path:url(#clippath-31);"><g id="Grupo_6254"><path id="Caminho_21482" d="M96.21,356.49c.12,2.01,1.05,3.66,2.08,3.66s1.93-1.65,2.02-3.67l.15-3.4c.09-2.02,.09-5.32,0-7.33l-.14-3.04c-.09-2.02-1-3.67-2.03-3.67s-1.96,1.65-2.08,3.66l-.19,3.12c-.12,2.01-.12,5.31,0,7.33l.19,3.33Z" style="fill:#272525;"/><rect id="Retângulo_775" x="98.95" y="347.52" width="6.44" height="4.11" style="fill:#272525;"/><path id="Caminho_21483" d="M162.1,356.49c-.12,2.01-1.05,3.66-2.07,3.66s-1.93-1.65-2.02-3.67l-.15-3.4c-.09-2.02-.08-5.32,0-7.33l.14-3.04c.09-2.02,1-3.67,2.03-3.67s1.96,1.65,2.08,3.66l.19,3.12c.12,2.01,.12,5.31,0,7.33l-.19,3.33Z" style="fill:#272525;"/><rect id="Retângulo_776" x="152.92" y="347.52" width="6.44" height="4.11" style="fill:#272525;"/></g></g></g><g id="Grupo_6257"><g style="clip-path:url(#clippath-32);"><g id="Grupo_6256"><rect id="Retângulo_778" x="96.21" y="253.18" width="66.04" height="112.12" style="fill:url(#linear-gradient-11);"/></g></g></g><g id="Grupo_6264"><g style="clip-path:url(#clippath-33);"><g id="Grupo_6263"><g id="Grupo_6262"><g id="Grupo_6261"><g style="clip-path:url(#clippath-34);"><g id="Grupo_6260"><g id="Grupo_6259"><g style="clip-path:url(#clippath-35);"><g id="Grupo_6258"><rect id="Retângulo_779" x="96.35" y="257.73" width="65.73" height="10.13" style="fill:url(#linear-gradient-12);"/></g></g></g></g></g></g></g></g></g></g><g id="Grupo_6266"><g style="clip-path:url(#clippath-36);"><g id="Grupo_6265"><rect id="Retângulo_782" x="93.03" y="248.63" width="72.4" height="9.1" style="fill:url(#linear-gradient-13);"/></g></g></g><g id="Grupo_6268"><g style="clip-path:url(#clippath-37);"><g id="Grupo_6267"><rect id="Retângulo_784" x="93.03" y="248.63" width="72.4" height="9.1" style="fill:url(#linear-gradient-14);"/></g></g></g><g id="Grupo_6270"><g style="clip-path:url(#clippath-38);"><g id="Grupo_6269"><rect id="Retângulo_786" x="92.1" y="252.25" width="74.27" height="5.48" style="fill:url(#linear-gradient-15);"/></g></g></g><g id="Grupo_6278"><g style="clip-path:url(#clippath-39);"><g id="Grupo_6277"><g id="Grupo_6273" style="opacity:.5;"><g id="Grupo_6272"><g style="clip-path:url(#clippath-40);"><g id="Grupo_6271"><line id="Linha_43" x1="165.43" y1="252.25" x2="93.03" y2="252.25" style="fill:none; stroke:#fff; stroke-miterlimit:10; stroke-width:.43px;"/></g></g></g></g><g id="Grupo_6276"><g id="Grupo_6275"><g style="clip-path:url(#clippath-41);"><g id="Grupo_6274"><path id="Caminho_21486" d="M125.41,300.76c-.38-.19-3.46-1.99-3.79-2.19-.39-.23-.51-.53-.22-1.04,.85-1.5,3-5.19,3.71-6.42,.9-1.55,6.85-1.53,7.83,.04,.78,1.26,2.93,5.05,3.75,6.49l1.29-.74s.46-.31,.27,.44c-.16,.62-1.12,4.2-1.48,5.51-.08,.3-.28,.44-.53,.37-1.27-.34-5.11-1.37-5.7-1.53-.7-.19-.06-.47-.06-.47l1.21-.7-2.68-4.64s-2.53,4.35-2.72,4.69-.51,.37-.88,.17" style="fill:#b2b4c1;"/><path id="Caminho_21487" d="M132.33,310.06c.51-.52,.44,.19,.44,.19v1.4h5.36s-2.51-4.37-2.7-4.7-.07-.62,.29-.85,3.46-2,3.79-2.19c.4-.22,.71-.18,1.01,.33,.87,1.48,2.99,5.19,3.71,6.42,.9,1.55-2.1,6.7-3.95,6.76-1.49,.05-5.84,.02-7.5,0v1.48s.04,.56-.52,.01c-.46-.45-3.08-3.08-4.04-4.04-.19-.14-.24-.41-.1-.6,.01-.02,.03-.04,.04-.05,.93-.93,3.74-3.74,4.17-4.17" style="fill:#b2b4c1;"/><path id="Caminho_21488" d="M113.88,311.07c.7-1.31,2.9-5.07,3.75-6.5l-1.29-.75s-.5-.25,.25-.46c.62-.18,4.2-1.13,5.51-1.47,.3-.08,.52,.02,.59,.28,.34,1.27,1.37,5.11,1.53,5.7,.19,.7-.38,.29-.38,.29l-1.21-.7-2.68,4.64h5.42c.39,.01,.57,.26,.59,.69s0,4,0,4.37c0,.46-.2,.71-.79,.71-1.72,.01-5.99,0-7.42,0-1.79,0-4.75-5.17-3.88-6.8" style="fill:#b2b4c1;"/></g></g></g></g><path id="Caminho_21489" d="M125.59,300.53c-.38-.19-3.46-1.99-3.79-2.19-.39-.23-.51-.53-.22-1.04,.85-1.5,3-5.19,3.71-6.42,.9-1.55,6.85-1.53,7.83,.04,.79,1.26,2.93,5.05,3.75,6.49l1.29-.74s.46-.31,.27,.44c-.16,.63-1.12,4.2-1.48,5.51-.08,.3-.28,.44-.53,.37-1.27-.34-5.11-1.37-5.7-1.53-.71-.19-.06-.47-.06-.47l1.21-.7-2.68-4.64s-2.53,4.36-2.72,4.69-.5,.36-.88,.17" style="fill:#fff;"/><path id="Caminho_21490" d="M132.51,309.83c.51-.52,.44,.18,.44,.18v1.4h5.36s-2.51-4.37-2.7-4.7-.06-.62,.29-.85,3.46-2,3.79-2.19c.4-.22,.71-.18,1.01,.33,.87,1.49,3,5.19,3.71,6.43,.9,1.55-2.1,6.7-3.95,6.76-1.49,.05-5.84,.02-7.5,0v1.49s.04,.56-.52,.01c-.46-.45-3.08-3.08-4.04-4.04-.19-.14-.24-.41-.1-.6,.01-.02,.03-.04,.04-.05,.93-.93,3.74-3.74,4.17-4.17" style="fill:#fff;"/><path id="Caminho_21491" d="M114.06,310.84c.7-1.31,2.9-5.07,3.75-6.5l-1.29-.74s-.5-.25,.25-.46c.62-.17,4.2-1.13,5.51-1.47,.3-.08,.52,.02,.59,.28,.34,1.27,1.37,5.11,1.53,5.7,.19,.7-.38,.29-.38,.29l-1.21-.7-2.68,4.64h5.43c.39,.01,.57,.27,.59,.69s0,4,0,4.37c0,.46-.2,.7-.79,.71-1.72,.01-5.99,0-7.42,0-1.79,0-4.75-5.17-3.88-6.8" style="fill:#fff;"/></g></g></g><g id="Grupo_6280"><g style="clip-path:url(#clippath-42);"><g id="Grupo_6279"><rect id="Retângulo_791" x="96.35" y="242.44" width="65.24" height="6.19" style="fill:url(#linear-gradient-16);"/></g></g></g><g id="Grupo_6282"><g style="clip-path:url(#clippath-43);"><g id="Grupo_6281"><path id="Caminho_21493" d="M410.61,269.27c4.19-11.75,5.46-32.68,3.97-36.69-.4-3.71-1.3-7.35-2.69-10.81l-1.26-1.12-1.84-.55s-5.31,2.8-5.7,3.14-3.64,5-3.64,5l.29,1.65c1.5,3.82,2.51,3.81,4.31,6.52-1.2,4.29,2.35,25.12,.8,33.43-.17,.84-.63,1.61-1.29,2.15-1.31,1.09-1.99,7.01-1.05,6.97,2.6-.1,1.76-2.31,3.03-4.25,1.27,2.76,.07,6.03-2.68,7.3-.22,.1-.44,.18-.66,.26,.6,2.83,7.01-1.26,8.7-3.15,1.87-2.05,1.02-5.94-.21-7.87-.21-.64-.23-1.32-.07-1.97" style="fill:#7f5e40;"/><path id="Caminho_21494" d="M309.28,217.88c1.66,1.34,6.48-.9,12.29-2.26,4.95-1.01,8.03-2.03,12.95-2.37,2.72-.34,5.26-.34,7.84-1.35,1.79-.65,3.52-1.45,5.16-2.4l3.42,2.28-.39,9.52c-7,1.52-17.66,1.71-20.76,1.73-7.61,.04-10.23,.9-17.68,1.06-3.26,0-4.09,.54-7.06,1.16-3.13,.62-3.34-1.62-5.99-1.31-2.59-.03-3.02-6.22-1.38-8.23,.76-.93,3.08-1.12,5.22-1.09,3.44,.06,3.98,1.4,6.38,3.26" style="fill:#7f5e40;"/><path id="Caminho_21495" d="M407.49,346.12c.66,2.9,1.15,5.84,1.49,8.8,.15,3.43-1.16,7.64-3.63,8.76-6.78,3.07-9.08-3.17-5.71-9.99,.86-1.16,1.65-2.37,2.36-3.62,.37-.89,5.5-3.95,5.5-3.95" style="fill:#272525;"/><path id="Caminho_21496" d="M365.14,351.49c.26,1.24,1.44,5.67,1.38,6.91,0,2.48-2.46,1.97-4.46,2.79-1.4,.68-2.88,1.17-4.41,1.45-3.72,.83-7.59,.72-11.26-.31-3.68-1.03-.99-3.41,1.1-4.14,2.93-.72,8.28-4.01,9.28-6.24,.54-.04,1.07-.2,1.55-.46,.32-.33,6.81,0,6.81,0" style="fill:#272525;"/><path id="Caminho_21497" d="M398.54,264.94c3.4,1.81,2.22,30.19,3.19,40.64,.23,2.47,1.79,3.38,3.4,10.31,2.57,11.1,3.3,29.68,1.49,33.8-1.26,2.84-4.94,4.16-8.36,2.76-3.19-1.3-6.45-17.53-10.76-36.74-1.53-6.85-7.06-19.01-8.71-26-.15-1.08-.36-2.14-.63-3.19-1.32,2.15-2.63,4.32-3.93,6.49-1.87,2.91-4.31,5.63-5.98,8.54-1.25,2.13-3.55,5.67-2.34,7.68,2.76,4.57,3.58,18.2,1.17,29.45-.76,4.27-.82,9.14-1.93,12.81-.54,1.78-8.34,2.05-8.9-.31-1.39-5.95-1.43-12.22-1.76-18.43-.5-11.26-5.13-21.67-3.41-28.14s7.06-30.39,13.93-43.24c.42-.91,.79-1.84,1.11-2.79,.01-.31,31.33,2.79,31.33,2.79l1.09,3.56Z" style="fill:#242426;"/><path id="Caminho_21498" d="M388.1,197.61c4.44,1.68,11.88,4.51,14.54,6.75,2.56,2.39,6.87,9.89,9.25,17.33h0c-2.69-2.28-11.59,2.92-12.2,8.2,.77,10.27,.34,17.97,.38,28.25-.08,1.86-.24,5.69-1.12,7.03-2.8,.66-5.71,.59-8.47-.21-8-1.66-21.81-7.86-26.11-2.9v-.46c.32-7.49-.59-33.66,.66-43.82-4.12,1.52-13.36,3.73-17.63,4.74-4.11-.62-4.39-8.9-3.03-11.79,2.03-1.1,5.63-3.05,7.62-4.03,8.48-4.15,14.36-5.58,23.56-7.46" style="fill:#4094bb;"/><path id="Caminho_21499" d="M373.82,197.08c.09,.24,.1-.09,1.34-.32,.54-.1-.89,2.43-1.25,2.83-1.34,1.49,4,7.29,5.63,7.12,3.66-.39,7.27-6.25,8.56-9.1-1.35-3-1.75-5.11-.94-9.66l-.65-4.34c.59-4.16,1.29-3.4-1.71-6.07-6.75-5.79-15.71-2.19-15.38,7.77,.03,.99,.76,2.7,.89,4.43,.32,4.26,1,7.61,3.51,7.35" style="fill:#7f5e40;"/><path id="Caminho_21500" d="M368.95,179.44c.74,1.95,4.62-.62,8.56,.73,2.49,.92,4.3,3.09,4.76,5.7,.69-2.53,3.13-1.65,2.93,.23-.02,1.32-.63,2.57-1.68,3.38,1.54-.42,2.71-.51,3.15,1.16,.2,.06,1.58-3.96,1.76-5.56,.52-4.73,.56-6.59-1.18-9.03-3.14-4.42-9.41-5.46-14.31-2.19-4.9,3.26-4,5.58-4,5.59" style="fill:#272525;"/><path id="Caminho_21501" d="M370.41,186.42c-.46,1.59-1.75,4.29-1.4,4.86s1.76-.23,2.48-.19" style="fill:#7f5e40;"/><path id="Caminho_21502" d="M373.82,197.08c.97-.34,7.02-2.68,7.32-5.94,0,0,1.19,4.72-7.32,5.94" style="fill:#6b4e2f;"/></g></g></g><g id="Grupo_6284"><g style="clip-path:url(#clippath-44);"><g id="Grupo_6283"><rect id="Retângulo_793" x="282.91" y="220.81" width="32.92" height="22.02" transform="translate(-2.58 460.28) rotate(-74.87)" style="fill:url(#linear-gradient-17);"/></g></g></g><g id="Grupo_6286"><g style="clip-path:url(#clippath-45);"><g id="Grupo_6285"><rect id="Retângulo_794" x="302.44" y="215.34" width="2.26" height="3.73" transform="translate(14.68 453.6) rotate(-74.88)" style="fill:url(#linear-gradient-18);"/></g></g></g><g id="Grupo_6305"><g style="clip-path:url(#clippath-46);"><g id="Grupo_6304"><path id="Caminho_21505" d="M305.12,217.6c.07-.24-.57-.63-1.43-.86s-1.6-.22-1.67,.02,.57,.63,1.43,.86,1.6,.22,1.67-.02" style="fill:#002a4c;"/><g id="Grupo_6289"><g id="Grupo_6288"><g style="clip-path:url(#clippath-47);"><g id="Grupo_6287"><path id="Caminho_21506" d="M301.43,218.68c.74,.46,1.6,.7,2.47,.69,.57,0,.98-.11,1.01-.25h0c-.03,.14-.45,.25-1.01,.25-.87,0-1.73-.23-2.47-.69Z" style="fill:url(#linear-gradient-19);"/></g></g></g></g><g id="Grupo_6292"><g id="Grupo_6291"><g style="clip-path:url(#clippath-48);"><g id="Grupo_6290"><path id="Caminho_21507" d="M301.51,218.36c.74,.46,1.6,.7,2.47,.69,.57,0,.98-.11,1.01-.25h0c-.03,.14-.45,.25-1.01,.25-.87,0-1.73-.23-2.47-.69Z" style="fill:url(#linear-gradient-20);"/></g></g></g></g><g id="Grupo_6295"><g id="Grupo_6294"><g style="clip-path:url(#clippath-49);"><g id="Grupo_6293"><path id="Caminho_21508" d="M301.6,218.03c.74,.46,1.6,.7,2.47,.69,.57,0,.98-.11,1.01-.25h0c-.04,.14-.45,.25-1.01,.25-.87,.01-1.73-.23-2.47-.69Z" style="fill:url(#linear-gradient-21);"/></g></g></g></g><g id="Grupo_6298"><g id="Grupo_6297"><g style="clip-path:url(#clippath-50);"><g id="Grupo_6296"><path id="Caminho_21509" d="M301.69,217.71c.74,.46,1.6,.7,2.47,.69,.57,0,.98-.11,1.01-.25h0c-.04,.14-.45,.25-1.01,.25-.87,0-1.73-.23-2.47-.69Z" style="fill:url(#linear-gradient-22);"/></g></g></g></g><path id="Caminho_21510" d="M301.4,218.79c.74,.46,1.6,.7,2.47,.69,.57,0,.98-.11,1.01-.25h0c-.04,.14-.45,.25-1.01,.25-.87,0-1.73-.23-2.47-.69Z" style="fill:url(#linear-gradient-23);"/><path id="Caminho_21511" d="M301.49,218.46c.74,.46,1.6,.71,2.47,.7,.57,0,.98-.11,1.01-.25h0c-.03,.14-.45,.25-1.01,.25-.87,0-1.73-.24-2.47-.7Z" style="fill:url(#linear-gradient-24);"/><path id="Caminho_21512" d="M301.57,218.14c.74,.46,1.6,.7,2.47,.69,.57,0,.98-.11,1.01-.25h0c-.04,.14-.45,.25-1.01,.25-.87,0-1.73-.23-2.47-.69Z" style="fill:url(#linear-gradient-25);"/><path id="Caminho_21513" d="M301.66,217.81c.74,.46,1.6,.7,2.47,.69,.57,0,.98-.11,1.01-.24h0c-.04,.14-.45,.24-1.01,.24-.87,0-1.73-.23-2.47-.69Z" style="fill:url(#linear-gradient-26);"/><g id="Grupo_6303" style="opacity:.5;"><g id="Grupo_6302"><g style="clip-path:url(#clippath-51);"><g id="Grupo_6301"><g id="Grupo_6300"><g style="clip-path:url(#clippath-52);"><g id="Grupo_6299"><rect id="Retângulo_799" x="285.43" y="222.86" width="31.53" height="18.38" transform="translate(-1.45 462.21) rotate(-74.87)" style="fill:url(#linear-gradient-27);"/></g></g></g></g></g></g></g><path id="Caminho_21515" d="M302.86,233.97c-.43,1.61-7.26-1.1-6.99-2.23,0,0-.85,3.12-1.58,4.92-1,2.5,7.18,4.66,7.39,2.79,.28-1.85,.67-3.67,1.18-5.47" style="fill:#002a4c;"/><path id="Caminho_21516" d="M308.32,220.81c-2.75,1.22-6.69,.54-9.82,.14-.22-.56-.28-1.82,.29-2.15,2.77-1.72,7.63,.52,10.47,.99" style="fill:#7f5e40;"/><path id="Caminho_21517" d="M52.85,347.26c-.19,.46-.24,2.4,.63,2.92,1.85,1.11,2.75,1.39,4.83,2.68,1.42,.88,3.58,2.78,5.21,3.29,1.93,.61,3.95,.88,5.98,.79,2.28-.24,4.13-.89,4.22-3.35-.04-1.03-.53-1.99-1.34-2.62-1.21-.8-5.9-.91-8.38-2-2.62-1.16-5.28-2.23-7.8-3.48-1.13-.56-3.3,1.46-3.35,1.77" style="fill:#e5b56a;"/><path id="Caminho_21518" d="M53.53,348.71c-1.37-1.12-.31-2.88-.14-4.28,.1-.82-.03-2.14,.62-2.77,.89-.87,2.91-.27,4.01-.23,1.02-.08,2.04,.03,3.02,.32,.79,.44,.89,1.67,1.46,2.32,1.55,1.77,3.83,2.49,5.85,3.6,2.16,1.19,4.98,2.8,5.35,5.5,.07,.93-.43,1.81-1.28,2.21-2.87,1.32-6.83,.29-9.63-1.18-2.3-1.2-4.11-3.25-6.51-4.23-.98-.28-1.91-.7-2.76-1.26" style="fill:#202021;"/><path id="Caminho_21519" d="M59.79,328.78c-1.56,.76-2.18-.08-3.73,.54l-2.24,9.74c.03,.96,.03,2.79,.03,2.79,.19,.91,.88,1.64,1.78,1.88,1.22,.41,1.92,.44,3.23-.82,.52-.55,1.25-.85,2-.82l-1.07-13.3Z" style="fill:#f7c39f;"/><path id="Caminho_21520" d="M49.1,317.73c.07,2.89,.55,5.75,1.43,8.5,1.6,4.81,2.59,9.81,2.93,14.87,.03,1.69,7.31,1.33,7.55-.4-.02-2.52,.49-24.77,.59-29.43,.01-.57,0-1.14-.03-1.71-.51-8.59-2.95-26.17-4.11-34.5-.26-1.88-1.76-8.36-3.27-9.51-3.01-2.3-6.9-6.2-10.39-.09-1.34,2.17-2.26,4.58-2.72,7.08-2.39,9.82,6.67,38.65,6.67,38.65,.8,2.09,1.26,4.3,1.34,6.54" style="fill:#242426;"/><path id="Caminho_21521" d="M29.42,360.05c-.35,1.09-.25,2.27,.27,3.28,2.67,4.01,6.46,8.9,9.95,9.39,3.11,.43,7.91-1.37,8.46-3.17,.4-1.3-.87-3.74-.87-3.74-.81-1.07-5.53-.83-7.35-2.54-1.92-1.82-4.69-2.59-6.95-3.89-1.01-.58-3.44,.37-3.51,.66" style="fill:#e5b56a;"/><path id="Caminho_21522" d="M29.94,362.35c-1.11-2.27-.24-2.49-.34-3.64-.13-1.53-.18-3.15,.29-3.75,.21-.24,.45-.43,.72-.59,.83-.42,1.76-.61,2.68-.52,1.33-.04,2.64,.3,3.77,.98,.84,.48,.45,1.22,1.23,2.68,.91,1.71,8.58,5.98,9.55,9.66,.28,1.08-2.92,3.73-7.63,3.69-4.28-.04-9.87-7.66-10.28-8.51" style="fill:#202021;"/><path id="Caminho_21523" d="M29.86,353.14s-.08-.9,.22,2.27c.17,1.62,1.48,2.34,1.99,1.61,.72-1.01,2.9-1.81,4.69-1.61l-.48-8.18c-.77-.08-6.38,5.92-6.43,5.91" style="fill:#f7c39f;"/><path id="Caminho_21524" d="M29.8,353.88c.28,1.52,5.89,1.51,7.05-.22,1.49-15.56,3.05-28.4,3.86-32.65,2.17-24.01,11.07-56.79,1.26-55.58-3.14,.39-7.43-.96-11.91,6.88-1.77,3.1-4.68,5.87-5.4,13.03-.99,9.97,3.98,21.46,2.81,38.18-.84,8.96,1.96,25,2.33,30.36" style="fill:#242426;"/><path id="Caminho_21525" d="M78.7,242.56c-2.43-.17-16.16-1.1-16.4-1.37-1.36-8.55-2.42-11.55-3.46-16.53-.47-2.25-1.02-4.49-1.64-6.71-1.06-3.77-2.18-6.44-5.68-6.7-11.41-.85,4.06,35.74,5.83,37.06,.6,.45,8.8,1.19,20.63-.95,1.33-.23,1.96-4.77,.72-4.81" style="fill:#bf532e;"/><path id="Caminho_21526" d="M58.72,230.04c-.31-1.44-.78-2.83-1.41-4.16-.91-2.18-1.59-4.45-2.03-6.77-.83-4.4-1.34-7.14-3.3-7.75-.72-.18-1.49-.07-2.13,.3-.52,.25-18.17,9.46-18.89,9.81-1.07,.55-2.05,1.28-2.89,2.14-1.48,1.64,.99,12.09,2.2,25.31,1.52,16.63-2.22,23.16-3.85,27.56,3.27,4.67,11.75,5.13,17.91,4.28,5.5-.77,14.06-3.51,13.12-9.03-1.01-5.91-2.05-11.16-2.26-15.1-.68-12.72,3.55-17.12,3.53-26.6" style="fill:#d35b30;"/><path id="Caminho_21527" d="M34.63,194.97c.17-.21,.47-.27,.7-.12,.62,.37,1.79,1.21,1.79,1.21,.75,.86,4.35,.32,5.11-.5,.6-.45,.72-1.31,.27-1.92-.03-.04-.06-.08-.1-.12-.47-.49-1-.91-1.58-1.26-.83-.58-1.69-1.12-2.58-1.62-.06-1.04-.59-1.99-1.45-2.58-1.76-1.49-5.62-1.64-7.58-1.09-2.53,.72-8.58,4.05-9.14,12.39-.3,4.52,2.73,11.72,.87,14.72,.71-.13,1.37-.45,1.91-.93-.86,1.4-2.04,2.59-3.45,3.45,1.32,.1,3.68-.65,4.22-1.96-.32,1.02-4.39,4.75-5.42,4.77,4.77-.11,9.11-2.76,11.37-6.96-.06,1.09-.27,2.16-.64,3.19,6.07-3.61,3.46-17.91,5.68-20.68" style="fill:#302625;"/><path id="Caminho_21528" d="M43.15,194.24c-.48-.56-1.02-1.05-1.62-1.48-.86-.69-1.83-1.39-2.78-2.15-1.87-1.52-5.37,2.94-4.03,4.32,.21,.23,2.53,1.7,2.53,1.7,.76,.99,4.69,.64,5.58-.2,.69-.45,.88-1.38,.43-2.07-.03-.05-.06-.09-.1-.13" style="fill:#6fa3d5;"/><path id="Caminho_21529" d="M37.09,209.87c.63-.86,2.28-.41,3.3-.35,1.59,.08,3.19,.17,4.78,.37,.39,.05,2.36,.13,2.45,.7,.15,1,1.32,3.18,1.35,4.2,.6,1.81,.98,3.69,1.13,5.58,.29,5.33-3.74,5.81-6.83,4.2-2.45-1.39-4.49-3.41-5.91-5.84,.59-3.66-.96-6.11-.63-7.49,.09-.46,.21-.92,.36-1.37" style="fill:#f0b790;"/><path id="Caminho_21530" d="M49.51,215.47c-.45,1.54-.95,3.4-2.46,3.86-1.82,.56-6.52-1.63-8.75-4.5-2.6-3.35-3.06-7.24-2.1-9.6,1.09-2.15,2.64-4.03,4.54-5.5,1.18-.83,2.47-1.49,3.84-1.95,3.86-1.46,7.13-1.14,7.17,2.68,.09,1.9,.06,3.79-.09,5.69-.26,3.2-.98,6.34-2.16,9.33" style="fill:#f7c39f;"/><path id="Caminho_21531" d="M51.67,206.43c.94-1.2,2.81-11.48-3.7-14.79-2.64-1.43-5.86-1.31-8.38,.32-4.9,.64-7.55,3.18-8.5,8.1-.38,1.97,.15,4.11,.43,6.07,.19,1.19,.56,2.34,1.1,3.41,.5,1.09,1.17,2.08,2,2.95,.41,.42,.87,.78,1.38,1.08,.24,.14,.51,.36,.8,.27,.39-.12,.42-.49,.37-.83-.02-.32-.09-.63-.2-.92-.6-1.35-1.31-3.38,.05-4.56,1.08-.93,2.07-.11,2.53,.68,.09,.16,.29,.21,.45,.12,.07-.04,.12-.1,.15-.18,.36-1.39,.96-2.71,1.78-3.89,1.2-1.81,6.38-4.24,8.54-2.9,1.58,.98,1.19,5.06,1.19,5.06" style="fill:#302625;"/><path id="Caminho_21532" d="M36.13,264.46c-2.07-1.26-12.22-9.96-12.25-10.33,3.91-7.83,4.82-10.91,6.9-15.61,.94-2.13,1.81-4.28,2.61-6.47,1.35-3.72,2.01-6.55-.65-8.77-8.7-7.25-17.67,31.78-17.01,33.88,.22,.72,5.86,6.65,17.88,11.13,1.2,.57,3.51-3.09,2.53-3.84" style="fill:#d35b30;"/><path id="Caminho_21533" d="M44.99,267.75c-.85-.03-1.71-.02-2.56,.05,0,0-3.02-1.53-2.59-1.74,.46-.22,1.34-.51,1.34-.51,.6-.04,1.65,.3,2.17,.09,.73-.3,.12-.73-.46-.96-1.07-.4-2.18-.66-3.32-.79-1.21,.2-2.4,.48-3.57,.82-1.64-.48-3.01,3.18-2.17,3.48,.02,0,4.79,3.53,5.59,3.89,.44,.2,3.46,.49,4.06-.19,.18-.16,.37-.31,.58-.44,.3-.2,.57-.45,.8-.73,.23-.29,.48-.56,.77-.8,.28-.42,.52-.86,.71-1.33,.12-.4-.88-.79-1.34-.84" style="fill:#f7c39f;"/><path id="Caminho_21534" d="M88.52,243.51c-.84,.19-1.67,.42-2.48,.7,0,0-3.33-.71-2.97-1.02,.39-.33,1.17-.83,1.17-.83,.57-.19,1.67-.13,2.13-.47,.63-.47-.07-.74-.7-.81-1.14-.11-2.29-.09-3.43,.08-1.12,.5-2.2,1.07-3.26,1.7-1.72-.05-2.1,3.82-1.2,3.9,.02,0,5.56,2.18,6.43,2.33,1.06,.08,2.11-.3,2.88-1.05,.96-.84,2.94-2.88,2.94-4.07,0-.42-1.06-.54-1.52-.47" style="fill:#f7c39f;"/><path id="Caminho_21535" d="M83.21,250.39c-.95-.5-3.93-2.01-4.41-2.29-.64-.39,.04-.94,.5-1.34,.09-.07,5.65-5.53,7.43-7.27,.09-.09,.22-.11,.33-.06,.63,.27,3.54,1.48,4.61,1.96,.24,.11,.34,.39,.23,.63-.02,.05-.06,.1-.1,.14-1.63,1.68-7.02,7.2-7.9,8.12-.18,.19-.46,.23-.69,.11" style="fill:#494242;"/><path id="Caminho_21536" d="M79.5,246.97l7.32-7.26,4.41,1.98-7.41,7.48-4.31-2.19Z" style="fill:#5ea4bc;"/><path id="Caminho_21537" d="M79.01,242.95c.81,.59,1.75,.98,2.73,1.15,.39-.33,2.5-1.75,2.5-1.75,.57-.19,1.67-.13,2.13-.47,.63-.47-.07-.74-.7-.81-1.14-.11-2.29-.09-3.43,.08-1.12,.5-2.2,1.07-3.25,1.7-.05,.05-.01,.06,.01,.09" style="fill:#f7c39f;"/></g></g></g></g></g></g><g id="Grupo_6309"><g style="clip-path:url(#clippath-53);"><g id="Grupo_6308"><path id="Caminho_21538" d="M166.28,0C89.05,0,26.45,45.1,26.45,100.74c0,32.99,22.01,62.28,56.03,80.65-.33,6.46-2.76,19.88-16.33,31.37,0,0,23.16,4.45,41.86-20.45,18.81,6.14,38.48,9.23,58.27,9.17,77.23,0,139.83-45.1,139.83-100.74S243.51,0,166.28,0" style="fill:#e8e5df;"/></g></g></g><g><path d="M98.25,52.95h2.34c.07,0,.12,.02,.17,.07,.05,.05,.07,.1,.07,.17v13.52c0,.07-.02,.12-.07,.17s-.1,.07-.17,.07h-2.34c-.07,0-.12-.02-.17-.07s-.07-.1-.07-.17v-8.82c0-.05-.01-.08-.04-.08s-.05,.02-.08,.06l-2.12,3.32c-.07,.11-.16,.16-.28,.16h-1.18c-.12,0-.21-.05-.28-.16l-2.12-3.32s-.05-.06-.08-.05c-.03,0-.04,.04-.04,.09v8.8c0,.07-.02,.12-.07,.17s-.1,.07-.17,.07h-2.34c-.07,0-.12-.02-.17-.07s-.07-.1-.07-.17v-13.52c0-.07,.02-.12,.07-.17,.05-.05,.1-.07,.17-.07h2.34c.12,0,.21,.05,.28,.16l3,4.66c.04,.08,.08,.08,.12,0l3.02-4.66c.07-.11,.16-.16,.28-.16Z"/><path d="M109.51,56.96c.68,.3,1.21,.71,1.59,1.23,.38,.52,.57,1.1,.57,1.74v6.78c0,.07-.02,.12-.07,.17s-.1,.07-.17,.07h-2.34c-.07,0-.12-.02-.17-.07s-.07-.1-.07-.17v-.66s-.01-.07-.04-.08-.05,0-.08,.04c-.56,.73-1.46,1.1-2.7,1.1-1.04,0-1.88-.25-2.52-.76-.64-.51-.96-1.25-.96-2.24s.36-1.82,1.08-2.39c.72-.57,1.75-.85,3.08-.85h2.04c.07,0,.1-.03,.1-.1v-.44c0-.44-.13-.78-.4-1.03-.27-.25-.67-.37-1.2-.37-.41,0-.76,.07-1.03,.22-.27,.15-.45,.35-.53,.62-.04,.15-.13,.21-.26,.2l-2.42-.32c-.16-.03-.23-.09-.22-.18,.05-.56,.28-1.07,.67-1.52,.39-.45,.91-.81,1.56-1.06,.65-.25,1.37-.38,2.17-.38,.87,0,1.64,.15,2.32,.45Zm-1.26,7.59c.4-.31,.6-.7,.6-1.18v-.72c0-.07-.03-.1-.1-.1h-1.44c-.6,0-1.07,.11-1.41,.34-.34,.23-.51,.55-.51,.96,0,.36,.13,.64,.38,.85,.25,.21,.59,.31,1.02,.31,.57,0,1.06-.15,1.46-.46Z"/><path d="M115.41,66.71c-.67-.25-1.18-.61-1.55-1.06-.37-.45-.55-.97-.55-1.54v-.2c0-.07,.02-.12,.07-.17,.05-.05,.1-.07,.17-.07h2.22c.07,0,.12,.02,.17,.07,.05,.05,.07,.1,.07,.17v.02c0,.29,.16,.54,.49,.75,.33,.21,.74,.31,1.23,.31,.45,0,.82-.09,1.1-.27,.28-.18,.42-.4,.42-.67,0-.24-.12-.42-.36-.54-.24-.12-.63-.25-1.18-.38-.63-.16-1.12-.31-1.48-.46-.85-.29-1.53-.65-2.04-1.08s-.76-1.04-.76-1.84c0-.99,.38-1.77,1.15-2.35,.77-.58,1.78-.87,3.05-.87,.85,0,1.6,.14,2.24,.41,.64,.27,1.14,.66,1.49,1.15s.53,1.05,.53,1.68c0,.07-.02,.12-.07,.17s-.1,.07-.17,.07h-2.14c-.07,0-.12-.02-.17-.07-.05-.05-.07-.1-.07-.17,0-.29-.15-.54-.45-.74-.3-.2-.7-.3-1.19-.3-.44,0-.8,.08-1.08,.24-.28,.16-.42,.38-.42,.66s.14,.47,.41,.6c.27,.13,.73,.27,1.37,.42,.15,.04,.31,.08,.5,.13s.39,.1,.6,.17c.95,.28,1.69,.64,2.24,1.08s.82,1.08,.82,1.92c0,.99-.39,1.76-1.17,2.31s-1.83,.83-3.15,.83c-.89,0-1.67-.13-2.34-.38Z"/><path d="M133.52,58.86s-.1,.07-.17,.07h-1.92c-.07,0-.1,.03-.1,.1v4.24c0,.44,.09,.77,.27,.98,.18,.21,.47,.32,.87,.32h.66c.07,0,.12,.02,.17,.07,.05,.05,.07,.1,.07,.17v1.9c0,.15-.08,.23-.24,.26-.56,.03-.96,.04-1.2,.04-1.11,0-1.93-.18-2.48-.55-.55-.37-.83-1.06-.84-2.07v-5.36c0-.07-.03-.1-.1-.1h-1.14c-.07,0-.12-.02-.17-.07s-.07-.1-.07-.17v-1.78c0-.07,.02-.12,.07-.17,.05-.05,.1-.07,.17-.07h1.14c.07,0,.1-.03,.1-.1v-2.38c0-.07,.02-.12,.07-.17,.05-.05,.1-.07,.17-.07h2.24c.07,0,.12,.02,.17,.07,.05,.05,.07,.1,.07,.17v2.38c0,.07,.03,.1,.1,.1h1.92c.07,0,.12,.02,.17,.07,.05,.05,.07,.1,.07,.17v1.78c0,.07-.02,.12-.07,.17Z"/><path d="M141.36,56.74s.1-.07,.17-.07h2.34c.07,0,.12,.02,.17,.07,.05,.05,.07,.1,.07,.17v9.8c0,.07-.02,.12-.07,.17s-.1,.07-.17,.07h-2.34c-.07,0-.12-.02-.17-.07-.05-.05-.07-.1-.07-.17v-.68s-.01-.06-.04-.07c-.03,0-.05,.01-.08,.05-.53,.72-1.36,1.08-2.48,1.08-1.01,0-1.85-.31-2.5-.92-.65-.61-.98-1.47-.98-2.58v-6.68c0-.07,.02-.12,.07-.17,.05-.05,.1-.07,.17-.07h2.32c.07,0,.12,.02,.17,.07,.05,.05,.07,.1,.07,.17v5.98c0,.53,.14,.97,.43,1.3,.29,.33,.68,.5,1.19,.5,.45,0,.83-.14,1.12-.41s.47-.63,.54-1.07v-6.3c0-.07,.02-.12,.07-.17Z"/><path d="M151.95,66.71c-.67-.25-1.18-.61-1.55-1.06-.37-.45-.55-.97-.55-1.54v-.2c0-.07,.02-.12,.07-.17,.05-.05,.1-.07,.17-.07h2.22c.07,0,.12,.02,.17,.07,.05,.05,.07,.1,.07,.17v.02c0,.29,.16,.54,.49,.75,.33,.21,.74,.31,1.23,.31,.45,0,.82-.09,1.1-.27,.28-.18,.42-.4,.42-.67,0-.24-.12-.42-.36-.54-.24-.12-.63-.25-1.18-.38-.63-.16-1.12-.31-1.48-.46-.85-.29-1.53-.65-2.04-1.08s-.76-1.04-.76-1.84c0-.99,.38-1.77,1.15-2.35,.77-.58,1.78-.87,3.05-.87,.85,0,1.6,.14,2.24,.41,.64,.27,1.14,.66,1.49,1.15s.53,1.05,.53,1.68c0,.07-.02,.12-.07,.17s-.1,.07-.17,.07h-2.14c-.07,0-.12-.02-.17-.07-.05-.05-.07-.1-.07-.17,0-.29-.15-.54-.45-.74-.3-.2-.7-.3-1.19-.3-.44,0-.8,.08-1.08,.24-.28,.16-.42,.38-.42,.66s.14,.47,.41,.6c.27,.13,.73,.27,1.37,.42,.15,.04,.31,.08,.5,.13s.39,.1,.6,.17c.95,.28,1.69,.64,2.24,1.08s.82,1.08,.82,1.92c0,.99-.39,1.76-1.17,2.31s-1.83,.83-3.15,.83c-.89,0-1.67-.13-2.34-.38Z"/><path d="M169.41,62.45c-.01,.16-.1,.24-.26,.24h-6.18c-.08,0-.11,.03-.08,.1,.04,.27,.11,.53,.22,.8,.35,.75,1.05,1.12,2.12,1.12,.85-.01,1.53-.36,2.02-1.04,.05-.08,.11-.12,.18-.12,.04,0,.09,.03,.14,.08l1.44,1.42c.07,.07,.1,.13,.1,.18,0,.03-.03,.08-.08,.16-.44,.55-1.01,.97-1.7,1.27s-1.45,.45-2.28,.45c-1.15,0-2.12-.26-2.91-.78-.79-.52-1.36-1.25-1.71-2.18-.28-.67-.42-1.54-.42-2.62,0-.73,.1-1.38,.3-1.94,.31-.95,.84-1.7,1.61-2.26,.77-.56,1.68-.84,2.73-.84,1.33,0,2.4,.39,3.21,1.16s1.3,1.81,1.47,3.1c.08,.51,.11,1.07,.08,1.7Zm-6.4-2.34c-.05,.17-.1,.39-.14,.64,0,.07,.03,.1,.1,.1h3.46c.08,0,.11-.03,.08-.1-.07-.39-.1-.57-.1-.56-.12-.4-.33-.71-.63-.93-.3-.22-.67-.33-1.11-.33-.84,0-1.39,.39-1.66,1.18Z"/><path d="M180.69,61.83c0,.92-.13,1.75-.38,2.5-.31,.85-.79,1.53-1.45,2.03s-1.48,.75-2.45,.75-1.71-.33-2.24-1c-.03-.04-.05-.05-.08-.04-.03,.01-.04,.04-.04,.08v4.28c0,.07-.02,.12-.07,.17s-.1,.07-.17,.07h-2.34c-.07,0-.12-.02-.17-.07-.05-.05-.07-.1-.07-.17v-13.52c0-.07,.02-.12,.07-.17,.05-.05,.1-.07,.17-.07h2.34c.07,0,.12,.02,.17,.07,.05,.05,.07,.1,.07,.17v.66s.01,.06,.04,.07c.03,0,.05,0,.08-.03,.56-.73,1.33-1.1,2.32-1.1,.92,0,1.72,.26,2.39,.77,.67,.51,1.16,1.23,1.45,2.15,.24,.68,.36,1.48,.36,2.4Zm-2.92-.04c0-.84-.14-1.51-.42-2-.31-.57-.8-.86-1.48-.86-.61,0-1.07,.29-1.38,.86-.28,.48-.42,1.15-.42,2.02s.15,1.59,.44,2.08c.31,.53,.76,.8,1.36,.8s1.07-.26,1.4-.78c.33-.52,.5-1.23,.5-2.12Z"/><path d="M188.93,56.96c.68,.3,1.21,.71,1.59,1.23,.38,.52,.57,1.1,.57,1.74v6.78c0,.07-.02,.12-.07,.17s-.1,.07-.17,.07h-2.34c-.07,0-.12-.02-.17-.07s-.07-.1-.07-.17v-.66s-.01-.07-.04-.08-.05,0-.08,.04c-.56,.73-1.46,1.1-2.7,1.1-1.04,0-1.88-.25-2.52-.76-.64-.51-.96-1.25-.96-2.24s.36-1.82,1.08-2.39c.72-.57,1.75-.85,3.08-.85h2.04c.07,0,.1-.03,.1-.1v-.44c0-.44-.13-.78-.4-1.03-.27-.25-.67-.37-1.2-.37-.41,0-.76,.07-1.03,.22-.27,.15-.45,.35-.53,.62-.04,.15-.13,.21-.26,.2l-2.42-.32c-.16-.03-.23-.09-.22-.18,.05-.56,.28-1.07,.67-1.52,.39-.45,.91-.81,1.56-1.06,.65-.25,1.37-.38,2.17-.38,.87,0,1.64,.15,2.32,.45Zm-1.26,7.59c.4-.31,.6-.7,.6-1.18v-.72c0-.07-.03-.1-.1-.1h-1.44c-.6,0-1.07,.11-1.41,.34-.34,.23-.51,.55-.51,.96,0,.36,.13,.64,.38,.85,.25,.21,.59,.31,1.02,.31,.57,0,1.06-.15,1.46-.46Z"/><path d="M199.33,56.81c.11,.05,.15,.15,.12,.3l-.42,2.28c-.01,.16-.11,.21-.28,.14-.2-.07-.43-.1-.7-.1-.11,0-.25,.01-.44,.04-.48,.04-.89,.22-1.22,.53-.33,.31-.5,.73-.5,1.25v5.46c0,.07-.02,.12-.07,.17s-.1,.07-.17,.07h-2.34c-.07,0-.12-.02-.17-.07-.05-.05-.07-.1-.07-.17v-9.8c0-.07,.02-.12,.07-.17,.05-.05,.1-.07,.17-.07h2.34c.07,0,.12,.02,.17,.07,.05,.05,.07,.1,.07,.17v.76s.01,.07,.04,.08c.03,.01,.05,0,.06-.02,.55-.8,1.28-1.2,2.2-1.2,.48,0,.86,.09,1.14,.28Z"/><path d="M207.03,56.96c.68,.3,1.21,.71,1.59,1.23,.38,.52,.57,1.1,.57,1.74v6.78c0,.07-.02,.12-.07,.17s-.1,.07-.17,.07h-2.34c-.07,0-.12-.02-.17-.07s-.07-.1-.07-.17v-.66s-.01-.07-.04-.08-.05,0-.08,.04c-.56,.73-1.46,1.1-2.7,1.1-1.04,0-1.88-.25-2.52-.76-.64-.51-.96-1.25-.96-2.24s.36-1.82,1.08-2.39c.72-.57,1.75-.85,3.08-.85h2.04c.07,0,.1-.03,.1-.1v-.44c0-.44-.13-.78-.4-1.03-.27-.25-.67-.37-1.2-.37-.41,0-.76,.07-1.03,.22-.27,.15-.45,.35-.53,.62-.04,.15-.13,.21-.26,.2l-2.42-.32c-.16-.03-.23-.09-.22-.18,.05-.56,.28-1.07,.67-1.52,.39-.45,.91-.81,1.56-1.06,.65-.25,1.37-.38,2.17-.38,.87,0,1.64,.15,2.32,.45Zm-1.26,7.59c.4-.31,.6-.7,.6-1.18v-.72c0-.07-.03-.1-.1-.1h-1.44c-.6,0-1.07,.11-1.41,.34-.34,.23-.51,.55-.51,.96,0,.36,.13,.64,.38,.85,.25,.21,.59,.31,1.02,.31,.57,0,1.06-.15,1.46-.46Z"/><path d="M212.93,66.71c-.67-.25-1.18-.61-1.55-1.06-.37-.45-.55-.97-.55-1.54v-.2c0-.07,.02-.12,.07-.17,.05-.05,.1-.07,.17-.07h2.22c.07,0,.12,.02,.17,.07,.05,.05,.07,.1,.07,.17v.02c0,.29,.16,.54,.49,.75,.33,.21,.74,.31,1.23,.31,.45,0,.82-.09,1.1-.27,.28-.18,.42-.4,.42-.67,0-.24-.12-.42-.36-.54-.24-.12-.63-.25-1.18-.38-.63-.16-1.12-.31-1.48-.46-.85-.29-1.53-.65-2.04-1.08s-.76-1.04-.76-1.84c0-.99,.38-1.77,1.15-2.35,.77-.58,1.78-.87,3.05-.87,.85,0,1.6,.14,2.24,.41,.64,.27,1.14,.66,1.49,1.15s.53,1.05,.53,1.68c0,.07-.02,.12-.07,.17s-.1,.07-.17,.07h-2.14c-.07,0-.12-.02-.17-.07-.05-.05-.07-.1-.07-.17,0-.29-.15-.54-.45-.74-.3-.2-.7-.3-1.19-.3-.44,0-.8,.08-1.08,.24-.28,.16-.42,.38-.42,.66s.14,.47,.41,.6c.27,.13,.73,.27,1.37,.42,.15,.04,.31,.08,.5,.13s.39,.1,.6,.17c.95,.28,1.69,.64,2.24,1.08s.82,1.08,.82,1.92c0,.99-.39,1.76-1.17,2.31s-1.83,.83-3.15,.83c-.89,0-1.67-.13-2.34-.38Z"/><path d="M231.63,56.96c.68,.3,1.21,.71,1.59,1.23,.38,.52,.57,1.1,.57,1.74v6.78c0,.07-.02,.12-.07,.17s-.1,.07-.17,.07h-2.34c-.07,0-.12-.02-.17-.07s-.07-.1-.07-.17v-.66s-.01-.07-.04-.08-.05,0-.08,.04c-.56,.73-1.46,1.1-2.7,1.1-1.04,0-1.88-.25-2.52-.76-.64-.51-.96-1.25-.96-2.24s.36-1.82,1.08-2.39c.72-.57,1.75-.85,3.08-.85h2.04c.07,0,.1-.03,.1-.1v-.44c0-.44-.13-.78-.4-1.03-.27-.25-.67-.37-1.2-.37-.41,0-.76,.07-1.03,.22-.27,.15-.45,.35-.53,.62-.04,.15-.13,.21-.26,.2l-2.42-.32c-.16-.03-.23-.09-.22-.18,.05-.56,.28-1.07,.67-1.52,.39-.45,.91-.81,1.56-1.06,.65-.25,1.37-.38,2.17-.38,.87,0,1.64,.15,2.32,.45Zm-1.26,7.59c.4-.31,.6-.7,.6-1.18v-.72c0-.07-.03-.1-.1-.1h-1.44c-.6,0-1.07,.11-1.41,.34-.34,.23-.51,.55-.51,.96,0,.36,.13,.64,.38,.85,.25,.21,.59,.31,1.02,.31,.57,0,1.06-.15,1.46-.46Z"/><path d="M237.53,66.71c-.67-.25-1.18-.61-1.55-1.06-.37-.45-.55-.97-.55-1.54v-.2c0-.07,.02-.12,.07-.17,.05-.05,.1-.07,.17-.07h2.22c.07,0,.12,.02,.17,.07,.05,.05,.07,.1,.07,.17v.02c0,.29,.16,.54,.49,.75,.33,.21,.74,.31,1.23,.31,.45,0,.82-.09,1.1-.27,.28-.18,.42-.4,.42-.67,0-.24-.12-.42-.36-.54-.24-.12-.63-.25-1.18-.38-.63-.16-1.12-.31-1.48-.46-.85-.29-1.53-.65-2.04-1.08s-.76-1.04-.76-1.84c0-.99,.38-1.77,1.15-2.35,.77-.58,1.78-.87,3.05-.87,.85,0,1.6,.14,2.24,.41,.64,.27,1.14,.66,1.49,1.15s.53,1.05,.53,1.68c0,.07-.02,.12-.07,.17s-.1,.07-.17,.07h-2.14c-.07,0-.12-.02-.17-.07-.05-.05-.07-.1-.07-.17,0-.29-.15-.54-.45-.74-.3-.2-.7-.3-1.19-.3-.44,0-.8,.08-1.08,.24-.28,.16-.42,.38-.42,.66s.14,.47,.41,.6c.27,.13,.73,.27,1.37,.42,.15,.04,.31,.08,.5,.13s.39,.1,.6,.17c.95,.28,1.69,.64,2.24,1.08s.82,1.08,.82,1.92c0,.99-.39,1.76-1.17,2.31s-1.83,.83-3.15,.83c-.89,0-1.67-.13-2.34-.38Z"/><path d="M64.73,88.45c-.01,.16-.1,.24-.26,.24h-6.18c-.08,0-.11,.03-.08,.1,.04,.27,.11,.53,.22,.8,.35,.75,1.05,1.12,2.12,1.12,.85-.01,1.53-.36,2.02-1.04,.05-.08,.11-.12,.18-.12,.04,0,.09,.03,.14,.08l1.44,1.42c.07,.07,.1,.13,.1,.18,0,.03-.03,.08-.08,.16-.44,.55-1.01,.97-1.7,1.27s-1.45,.45-2.28,.45c-1.15,0-2.12-.26-2.91-.78-.79-.52-1.36-1.25-1.71-2.18-.28-.67-.42-1.54-.42-2.62,0-.73,.1-1.38,.3-1.94,.31-.95,.84-1.7,1.61-2.26,.77-.56,1.68-.84,2.73-.84,1.33,0,2.4,.39,3.21,1.16s1.3,1.81,1.47,3.1c.08,.51,.11,1.07,.08,1.7Zm-6.4-2.34c-.05,.17-.1,.39-.14,.64,0,.07,.03,.1,.1,.1h3.46c.08,0,.11-.03,.08-.1-.07-.39-.1-.57-.1-.56-.12-.4-.33-.71-.63-.93-.3-.22-.67-.33-1.11-.33-.84,0-1.39,.39-1.66,1.18Z"/><path d="M80.31,83.45c.59,.63,.88,1.51,.88,2.64v6.62c0,.07-.02,.12-.07,.17-.05,.05-.1,.07-.17,.07h-2.34c-.07,0-.12-.02-.17-.07s-.07-.1-.07-.17v-6c0-.55-.14-.98-.42-1.3-.28-.32-.65-.48-1.12-.48s-.85,.16-1.14,.48-.44,.75-.44,1.28v6.02c0,.07-.02,.12-.07,.17s-.1,.07-.17,.07h-2.32c-.07,0-.12-.02-.17-.07s-.07-.1-.07-.17v-6c0-.53-.15-.96-.44-1.29-.29-.33-.67-.49-1.14-.49-.43,0-.78,.13-1.07,.38-.29,.25-.46,.61-.51,1.06v6.34c0,.07-.02,.12-.07,.17s-.1,.07-.17,.07h-2.34c-.07,0-.12-.02-.17-.07-.05-.05-.07-.1-.07-.17v-9.8c0-.07,.02-.12,.07-.17,.05-.05,.1-.07,.17-.07h2.34c.07,0,.12,.02,.17,.07,.05,.05,.07,.1,.07,.17v.78s.01,.07,.04,.08c.03,.01,.05,0,.08-.04,.55-.81,1.39-1.22,2.54-1.22,.67,0,1.25,.14,1.75,.42s.88,.68,1.15,1.2c.04,.08,.09,.08,.14,0,.29-.55,.69-.95,1.19-1.22,.5-.27,1.06-.4,1.69-.4,1.04,0,1.85,.31,2.44,.94Z"/><path d="M92.63,87.77c0,.92-.11,1.73-.34,2.42-.31,.91-.8,1.62-1.47,2.14-.67,.52-1.47,.78-2.39,.78-.97,0-1.74-.37-2.3-1.1-.03-.03-.05-.04-.08-.03-.03,0-.04,.03-.04,.07v.66c0,.07-.02,.12-.07,.17s-.1,.07-.17,.07h-2.34c-.07,0-.12-.02-.17-.07-.05-.05-.07-.1-.07-.17v-13.52c0-.07,.02-.12,.07-.17,.05-.05,.1-.07,.17-.07h2.34c.07,0,.12,.02,.17,.07,.05,.05,.07,.1,.07,.17v4.28s.01,.07,.04,.08c.03,.01,.05,0,.08-.04,.52-.67,1.26-1,2.22-1s1.79,.25,2.45,.75c.66,.5,1.14,1.18,1.45,2.03,.25,.69,.38,1.52,.38,2.48Zm-2.92,.06c0-.92-.16-1.63-.48-2.12-.32-.52-.79-.78-1.42-.78-.59,0-1.03,.26-1.34,.78-.29,.51-.44,1.21-.44,2.1s.13,1.57,.4,2.02c.32,.57,.79,.86,1.4,.86,.65,0,1.14-.29,1.46-.86,.28-.51,.42-1.17,.42-2Z"/><path d="M100.89,82.96c.68,.3,1.21,.71,1.59,1.23,.38,.52,.57,1.1,.57,1.74v6.78c0,.07-.02,.12-.07,.17s-.1,.07-.17,.07h-2.34c-.07,0-.12-.02-.17-.07s-.07-.1-.07-.17v-.66s-.01-.07-.04-.08-.05,0-.08,.04c-.56,.73-1.46,1.1-2.7,1.1-1.04,0-1.88-.25-2.52-.76-.64-.51-.96-1.25-.96-2.24s.36-1.82,1.08-2.39c.72-.57,1.75-.85,3.08-.85h2.04c.07,0,.1-.03,.1-.1v-.44c0-.44-.13-.78-.4-1.03-.27-.25-.67-.37-1.2-.37-.41,0-.76,.07-1.03,.22-.27,.15-.45,.35-.53,.62-.04,.15-.13,.21-.26,.2l-2.42-.32c-.16-.03-.23-.09-.22-.18,.05-.56,.28-1.07,.67-1.52,.39-.45,.91-.81,1.56-1.06,.65-.25,1.37-.38,2.17-.38,.87,0,1.64,.15,2.32,.45Zm-1.26,7.59c.4-.31,.6-.7,.6-1.18v-.72c0-.07-.03-.1-.1-.1h-1.44c-.6,0-1.07,.11-1.41,.34-.34,.23-.51,.55-.51,.96,0,.36,.13,.64,.38,.85,.25,.21,.59,.31,1.02,.31,.57,0,1.06-.15,1.46-.46Z"/><path d="M105.1,92.88s-.07-.1-.07-.17v-13.52c0-.07,.02-.12,.07-.17,.05-.05,.1-.07,.17-.07h2.34c.07,0,.12,.02,.17,.07,.05,.05,.07,.1,.07,.17v13.52c0,.07-.02,.12-.07,.17s-.1,.07-.17,.07h-2.34c-.07,0-.12-.02-.17-.07Z"/><path d="M116.33,82.96c.68,.3,1.21,.71,1.59,1.23,.38,.52,.57,1.1,.57,1.74v6.78c0,.07-.02,.12-.07,.17s-.1,.07-.17,.07h-2.34c-.07,0-.12-.02-.17-.07s-.07-.1-.07-.17v-.66s-.01-.07-.04-.08-.05,0-.08,.04c-.56,.73-1.46,1.1-2.7,1.1-1.04,0-1.88-.25-2.52-.76-.64-.51-.96-1.25-.96-2.24s.36-1.82,1.08-2.39c.72-.57,1.75-.85,3.08-.85h2.04c.07,0,.1-.03,.1-.1v-.44c0-.44-.13-.78-.4-1.03-.27-.25-.67-.37-1.2-.37-.41,0-.76,.07-1.03,.22-.27,.15-.45,.35-.53,.62-.04,.15-.13,.21-.26,.2l-2.42-.32c-.16-.03-.23-.09-.22-.18,.05-.56,.28-1.07,.67-1.52,.39-.45,.91-.81,1.56-1.06,.65-.25,1.37-.38,2.17-.38,.87,0,1.64,.15,2.32,.45Zm-1.26,7.59c.4-.31,.6-.7,.6-1.18v-.72c0-.07-.03-.1-.1-.1h-1.44c-.6,0-1.07,.11-1.41,.34-.34,.23-.51,.55-.51,.96,0,.36,.13,.64,.38,.85,.25,.21,.59,.31,1.02,.31,.57,0,1.06-.15,1.46-.46Z"/><path d="M126.82,82.74s.1-.07,.17-.07h2.34c.07,0,.12,.02,.17,.07,.05,.05,.07,.1,.07,.17v9.12c0,1.75-.5,2.99-1.51,3.74s-2.3,1.12-3.89,1.12c-.47,0-.99-.03-1.56-.1-.13-.01-.2-.1-.2-.26l.08-2.06c0-.17,.09-.25,.28-.22,.48,.08,.92,.12,1.32,.12,.85,0,1.51-.19,1.97-.56,.46-.37,.69-.97,.69-1.8,0-.04-.01-.06-.04-.07-.03,0-.05,0-.08,.03-.51,.55-1.25,.82-2.22,.82-.87,0-1.66-.21-2.39-.63s-1.24-1.1-1.55-2.03c-.2-.61-.3-1.41-.3-2.38,0-1.04,.12-1.89,.36-2.54,.28-.81,.75-1.47,1.42-1.96,.67-.49,1.44-.74,2.32-.74,1.03,0,1.81,.31,2.36,.92,.03,.03,.05,.04,.08,.03,.03,0,.04-.03,.04-.07v-.48c0-.07,.02-.12,.07-.17Zm-.07,4.99c0-.41-.01-.73-.04-.96-.03-.23-.07-.44-.14-.64-.12-.36-.32-.65-.6-.87-.28-.22-.63-.33-1.04-.33s-.74,.11-1.02,.33c-.28,.22-.49,.51-.62,.87-.19,.4-.28,.94-.28,1.62,0,.75,.08,1.28,.24,1.6,.12,.36,.33,.65,.63,.87s.66,.33,1.07,.33,.78-.11,1.06-.33,.47-.5,.58-.85c.11-.4,.16-.95,.16-1.64Z"/><path d="M140.77,88.45c-.01,.16-.1,.24-.26,.24h-6.18c-.08,0-.11,.03-.08,.1,.04,.27,.11,.53,.22,.8,.35,.75,1.05,1.12,2.12,1.12,.85-.01,1.53-.36,2.02-1.04,.05-.08,.11-.12,.18-.12,.04,0,.09,.03,.14,.08l1.44,1.42c.07,.07,.1,.13,.1,.18,0,.03-.03,.08-.08,.16-.44,.55-1.01,.97-1.7,1.27s-1.45,.45-2.28,.45c-1.15,0-2.12-.26-2.91-.78-.79-.52-1.36-1.25-1.71-2.18-.28-.67-.42-1.54-.42-2.62,0-.73,.1-1.38,.3-1.94,.31-.95,.84-1.7,1.61-2.26,.77-.56,1.68-.84,2.73-.84,1.33,0,2.4,.39,3.21,1.16s1.3,1.81,1.47,3.1c.08,.51,.11,1.07,.08,1.7Zm-6.4-2.34c-.05,.17-.1,.39-.14,.64,0,.07,.03,.1,.1,.1h3.46c.08,0,.11-.03,.08-.1-.07-.39-.1-.57-.1-.56-.12-.4-.33-.71-.63-.93-.3-.22-.67-.33-1.11-.33-.84,0-1.39,.39-1.66,1.18Z"/><path d="M150.45,83.49c.65,.65,.98,1.54,.98,2.66v6.56c0,.07-.02,.12-.07,.17s-.1,.07-.17,.07h-2.34c-.07,0-.12-.02-.17-.07s-.07-.1-.07-.17v-5.98c0-.53-.15-.97-.45-1.3-.3-.33-.7-.5-1.19-.5s-.89,.17-1.19,.5c-.3,.33-.45,.77-.45,1.3v5.98c0,.07-.02,.12-.07,.17s-.1,.07-.17,.07h-2.34c-.07,0-.12-.02-.17-.07-.05-.05-.07-.1-.07-.17v-9.8c0-.07,.02-.12,.07-.17,.05-.05,.1-.07,.17-.07h2.34c.07,0,.12,.02,.17,.07,.05,.05,.07,.1,.07,.17v.7s.01,.07,.04,.08c.03,.01,.05,0,.06-.02,.55-.77,1.36-1.16,2.44-1.16s1.93,.33,2.58,.98Z"/><path d="M155.21,92.71c-.67-.25-1.18-.61-1.55-1.06-.37-.45-.55-.97-.55-1.54v-.2c0-.07,.02-.12,.07-.17,.05-.05,.1-.07,.17-.07h2.22c.07,0,.12,.02,.17,.07,.05,.05,.07,.1,.07,.17v.02c0,.29,.16,.54,.49,.75,.33,.21,.74,.31,1.23,.31,.45,0,.82-.09,1.1-.27,.28-.18,.42-.4,.42-.67,0-.24-.12-.42-.36-.54-.24-.12-.63-.25-1.18-.38-.63-.16-1.12-.31-1.48-.46-.85-.29-1.53-.65-2.04-1.08s-.76-1.04-.76-1.84c0-.99,.38-1.77,1.15-2.35,.77-.58,1.78-.87,3.05-.87,.85,0,1.6,.14,2.24,.41,.64,.27,1.14,.66,1.49,1.15s.53,1.05,.53,1.68c0,.07-.02,.12-.07,.17s-.1,.07-.17,.07h-2.14c-.07,0-.12-.02-.17-.07-.05-.05-.07-.1-.07-.17,0-.29-.15-.54-.45-.74-.3-.2-.7-.3-1.19-.3-.44,0-.8,.08-1.08,.24-.28,.16-.42,.38-.42,.66s.14,.47,.41,.6c.27,.13,.73,.27,1.37,.42,.15,.04,.31,.08,.5,.13s.39,.1,.6,.17c.95,.28,1.69,.64,2.24,1.08s.82,1.08,.82,1.92c0,.99-.39,1.76-1.17,2.31s-1.83,.83-3.15,.83c-.89,0-1.67-.13-2.34-.38Z"/><path d="M165.92,88.44s-.07-.1-.07-.17v-.64c0-.67,.17-1.2,.51-1.61,.34-.41,.83-.84,1.47-1.29,.52-.36,.91-.68,1.16-.96,.25-.28,.38-.62,.38-1.02,0-.43-.16-.77-.48-1.03-.32-.26-.74-.39-1.26-.39-.56,0-1.01,.14-1.35,.42-.34,.28-.51,.64-.51,1.08v.32c0,.15-.08,.22-.24,.22l-2.34-.1c-.07,0-.12-.02-.17-.07-.05-.05-.07-.1-.07-.17v-.2c0-.8,.2-1.51,.6-2.13,.4-.62,.96-1.1,1.67-1.44,.71-.34,1.54-.51,2.47-.51s1.7,.16,2.39,.49c.69,.33,1.22,.78,1.59,1.37,.37,.59,.56,1.27,.56,2.04,0,.59-.1,1.09-.31,1.51-.21,.42-.46,.76-.75,1.03-.29,.27-.67,.56-1.12,.88-.48,.33-.83,.62-1.06,.86-.23,.24-.34,.53-.34,.88v.46c0,.07-.02,.12-.07,.17-.05,.05-.1,.07-.17,.07h-2.32c-.07,0-.12-.02-.17-.07Zm.12,4.1c-.3-.3-.45-.68-.45-1.13s.15-.83,.44-1.12c.29-.29,.67-.44,1.14-.44s.84,.14,1.13,.43c.29,.29,.43,.66,.43,1.13s-.15,.83-.44,1.13c-.29,.3-.67,.45-1.12,.45s-.83-.15-1.13-.45Z"/><path d="M187.68,81.3s-.1,.07-.17,.07h-6.56c-.07,0-.1,.03-.1,.1v3.1c0,.07,.03,.1,.1,.1h4.3c.07,0,.12,.02,.17,.07,.05,.05,.07,.1,.07,.17v1.94c0,.07-.02,.12-.07,.17-.05,.05-.1,.07-.17,.07h-4.3c-.07,0-.1,.03-.1,.1v3.24c0,.07,.03,.1,.1,.1h6.56c.07,0,.12,.02,.17,.07,.05,.05,.07,.1,.07,.17v1.94c0,.07-.02,.12-.07,.17s-.1,.07-.17,.07h-9.24c-.07,0-.12-.02-.17-.07s-.07-.1-.07-.17v-13.52c0-.07,.02-.12,.07-.17,.05-.05,.1-.07,.17-.07h9.24c.07,0,.12,.02,.17,.07,.05,.05,.07,.1,.07,.17v1.94c0,.07-.02,.12-.07,.17Z"/><path d="M189.6,92.88s-.07-.1-.07-.17v-13.52c0-.07,.02-.12,.07-.17,.05-.05,.1-.07,.17-.07h2.34c.07,0,.12,.02,.17,.07,.05,.05,.07,.1,.07,.17v13.52c0,.07-.02,.12-.07,.17s-.1,.07-.17,.07h-2.34c-.07,0-.12-.02-.17-.07Z"/><path d="M203.59,88.45c-.01,.16-.1,.24-.26,.24h-6.18c-.08,0-.11,.03-.08,.1,.04,.27,.11,.53,.22,.8,.35,.75,1.05,1.12,2.12,1.12,.85-.01,1.53-.36,2.02-1.04,.05-.08,.11-.12,.18-.12,.04,0,.09,.03,.14,.08l1.44,1.42c.07,.07,.1,.13,.1,.18,0,.03-.03,.08-.08,.16-.44,.55-1.01,.97-1.7,1.27s-1.45,.45-2.28,.45c-1.15,0-2.12-.26-2.91-.78-.79-.52-1.36-1.25-1.71-2.18-.28-.67-.42-1.54-.42-2.62,0-.73,.1-1.38,.3-1.94,.31-.95,.84-1.7,1.61-2.26,.77-.56,1.68-.84,2.73-.84,1.33,0,2.4,.39,3.21,1.16s1.3,1.81,1.47,3.1c.08,.51,.11,1.07,.08,1.7Zm-6.4-2.34c-.05,.17-.1,.39-.14,.64,0,.07,.03,.1,.1,.1h3.46c.08,0,.11-.03,.08-.1-.07-.39-.1-.57-.1-.56-.12-.4-.33-.71-.63-.93-.3-.22-.67-.33-1.11-.33-.84,0-1.39,.39-1.66,1.18Z"/><path d="M206.95,92.71c-.67-.25-1.18-.61-1.55-1.06-.37-.45-.55-.97-.55-1.54v-.2c0-.07,.02-.12,.07-.17,.05-.05,.1-.07,.17-.07h2.22c.07,0,.12,.02,.17,.07,.05,.05,.07,.1,.07,.17v.02c0,.29,.16,.54,.49,.75,.33,.21,.74,.31,1.23,.31,.45,0,.82-.09,1.1-.27,.28-.18,.42-.4,.42-.67,0-.24-.12-.42-.36-.54-.24-.12-.63-.25-1.18-.38-.63-.16-1.12-.31-1.48-.46-.85-.29-1.53-.65-2.04-1.08s-.76-1.04-.76-1.84c0-.99,.38-1.77,1.15-2.35,.77-.58,1.78-.87,3.05-.87,.85,0,1.6,.14,2.24,.41,.64,.27,1.14,.66,1.49,1.15s.53,1.05,.53,1.68c0,.07-.02,.12-.07,.17s-.1,.07-.17,.07h-2.14c-.07,0-.12-.02-.17-.07-.05-.05-.07-.1-.07-.17,0-.29-.15-.54-.45-.74-.3-.2-.7-.3-1.19-.3-.44,0-.8,.08-1.08,.24-.28,.16-.42,.38-.42,.66s.14,.47,.41,.6c.27,.13,.73,.27,1.37,.42,.15,.04,.31,.08,.5,.13s.39,.1,.6,.17c.95,.28,1.69,.64,2.24,1.08s.82,1.08,.82,1.92c0,.99-.39,1.76-1.17,2.31s-1.83,.83-3.15,.83c-.89,0-1.67-.13-2.34-.38Z"/><path d="M225.68,79.02s.1-.07,.17-.07h2.34c.07,0,.12,.02,.17,.07,.05,.05,.07,.1,.07,.17v13.52c0,.07-.02,.12-.07,.17s-.1,.07-.17,.07h-2.34c-.07,0-.12-.02-.17-.07-.05-.05-.07-.1-.07-.17v-.66s-.01-.06-.04-.07c-.03,0-.05,0-.08,.03-.56,.73-1.33,1.1-2.3,1.1s-1.74-.26-2.41-.78-1.16-1.23-1.45-2.14c-.23-.69-.34-1.5-.34-2.42s.12-1.77,.36-2.48c.31-.85,.79-1.53,1.45-2.03,.66-.5,1.48-.75,2.45-.75s1.71,.33,2.24,1c.03,.04,.05,.05,.08,.04s.04-.04,.04-.08v-4.28c0-.07,.02-.12,.07-.17Zm-.09,8.79c0-.89-.15-1.59-.44-2.1-.31-.52-.75-.78-1.34-.78-.63,0-1.1,.26-1.42,.78-.33,.52-.5,1.23-.5,2.12,0,.8,.14,1.47,.42,2,.33,.57,.83,.86,1.48,.86,.6,0,1.07-.29,1.4-.86,.27-.49,.4-1.17,.4-2.02Z"/><path d="M239.73,88.45c-.01,.16-.1,.24-.26,.24h-6.18c-.08,0-.11,.03-.08,.1,.04,.27,.11,.53,.22,.8,.35,.75,1.05,1.12,2.12,1.12,.85-.01,1.53-.36,2.02-1.04,.05-.08,.11-.12,.18-.12,.04,0,.09,.03,.14,.08l1.44,1.42c.07,.07,.1,.13,.1,.18,0,.03-.03,.08-.08,.16-.44,.55-1.01,.97-1.7,1.27s-1.45,.45-2.28,.45c-1.15,0-2.12-.26-2.91-.78-.79-.52-1.36-1.25-1.71-2.18-.28-.67-.42-1.54-.42-2.62,0-.73,.1-1.38,.3-1.94,.31-.95,.84-1.7,1.61-2.26,.77-.56,1.68-.84,2.73-.84,1.33,0,2.4,.39,3.21,1.16s1.3,1.81,1.47,3.1c.08,.51,.11,1.07,.08,1.7Zm-6.4-2.34c-.05,.17-.1,.39-.14,.64,0,.07,.03,.1,.1,.1h3.46c.08,0,.11-.03,.08-.1-.07-.39-.1-.57-.1-.56-.12-.4-.33-.71-.63-.93-.3-.22-.67-.33-1.11-.33-.84,0-1.39,.39-1.66,1.18Z"/><path d="M251.01,87.83c0,.92-.13,1.75-.38,2.5-.31,.85-.79,1.53-1.45,2.03s-1.48,.75-2.45,.75-1.71-.33-2.24-1c-.03-.04-.05-.05-.08-.04-.03,.01-.04,.04-.04,.08v4.28c0,.07-.02,.12-.07,.17s-.1,.07-.17,.07h-2.34c-.07,0-.12-.02-.17-.07-.05-.05-.07-.1-.07-.17v-13.52c0-.07,.02-.12,.07-.17,.05-.05,.1-.07,.17-.07h2.34c.07,0,.12,.02,.17,.07,.05,.05,.07,.1,.07,.17v.66s.01,.06,.04,.07c.03,0,.05,0,.08-.03,.56-.73,1.33-1.1,2.32-1.1,.92,0,1.72,.26,2.39,.77,.67,.51,1.16,1.23,1.45,2.15,.24,.68,.36,1.48,.36,2.4Zm-2.92-.04c0-.84-.14-1.51-.42-2-.31-.57-.8-.86-1.48-.86-.61,0-1.07,.29-1.38,.86-.28,.48-.42,1.15-.42,2.02s.15,1.59,.44,2.08c.31,.53,.76,.8,1.36,.8s1.07-.26,1.4-.78c.33-.52,.5-1.23,.5-2.12Z"/><path d="M254.43,92.23c-.8-.59-1.35-1.39-1.64-2.4-.19-.63-.28-1.31-.28-2.04,0-.79,.09-1.49,.28-2.12,.31-.99,.86-1.76,1.66-2.32s1.76-.84,2.88-.84,2.03,.28,2.8,.83c.77,.55,1.32,1.32,1.64,2.31,.21,.67,.32,1.37,.32,2.1s-.09,1.39-.28,2.02c-.29,1.04-.84,1.86-1.63,2.45-.79,.59-1.75,.89-2.87,.89s-2.08-.29-2.88-.88Zm4-1.94c.31-.27,.53-.63,.66-1.1,.11-.43,.16-.89,.16-1.4,0-.56-.05-1.03-.16-1.42-.15-.45-.37-.81-.68-1.06-.31-.25-.68-.38-1.12-.38s-.83,.13-1.13,.38c-.3,.25-.52,.61-.65,1.06-.11,.32-.16,.79-.16,1.42s.05,1.07,.14,1.4c.13,.47,.36,.83,.67,1.1,.31,.27,.7,.4,1.15,.4s.81-.13,1.12-.4Z"/><path d="M264.3,81.06c-.3-.3-.45-.68-.45-1.13s.15-.85,.44-1.14c.29-.29,.67-.44,1.14-.44s.85,.15,1.14,.44c.29,.29,.44,.67,.44,1.14s-.15,.83-.45,1.13c-.3,.3-.68,.45-1.13,.45s-.83-.15-1.13-.45Zm-.24,11.82s-.07-.1-.07-.17v-9.82c0-.07,.02-.12,.07-.17,.05-.05,.1-.07,.17-.07h2.34c.07,0,.12,.02,.17,.07,.05,.05,.07,.1,.07,.17v9.82c0,.07-.02,.12-.07,.17s-.1,.07-.17,.07h-2.34c-.07,0-.12-.02-.17-.07Z"/><path d="M270.77,92.71c-.67-.25-1.18-.61-1.55-1.06-.37-.45-.55-.97-.55-1.54v-.2c0-.07,.02-.12,.07-.17,.05-.05,.1-.07,.17-.07h2.22c.07,0,.12,.02,.17,.07,.05,.05,.07,.1,.07,.17v.02c0,.29,.16,.54,.49,.75,.33,.21,.74,.31,1.23,.31,.45,0,.82-.09,1.1-.27,.28-.18,.42-.4,.42-.67,0-.24-.12-.42-.36-.54-.24-.12-.63-.25-1.18-.38-.63-.16-1.12-.31-1.48-.46-.85-.29-1.53-.65-2.04-1.08s-.76-1.04-.76-1.84c0-.99,.38-1.77,1.15-2.35,.77-.58,1.78-.87,3.05-.87,.85,0,1.6,.14,2.24,.41,.64,.27,1.14,.66,1.49,1.15s.53,1.05,.53,1.68c0,.07-.02,.12-.07,.17s-.1,.07-.17,.07h-2.14c-.07,0-.12-.02-.17-.07-.05-.05-.07-.1-.07-.17,0-.29-.15-.54-.45-.74-.3-.2-.7-.3-1.19-.3-.44,0-.8,.08-1.08,.24-.28,.16-.42,.38-.42,.66s.14,.47,.41,.6c.27,.13,.73,.27,1.37,.42,.15,.04,.31,.08,.5,.13s.39,.1,.6,.17c.95,.28,1.69,.64,2.24,1.08s.82,1.08,.82,1.92c0,.99-.39,1.76-1.17,2.31s-1.83,.83-3.15,.83c-.89,0-1.67-.13-2.34-.38Z"/><path d="M69.12,109.45c.59,.63,.88,1.51,.88,2.64v6.62c0,.07-.02,.12-.07,.17-.05,.05-.1,.07-.17,.07h-2.34c-.07,0-.12-.02-.17-.07s-.07-.1-.07-.17v-6c0-.55-.14-.98-.42-1.3-.28-.32-.65-.48-1.12-.48s-.85,.16-1.14,.48-.44,.75-.44,1.28v6.02c0,.07-.02,.12-.07,.17s-.1,.07-.17,.07h-2.32c-.07,0-.12-.02-.17-.07s-.07-.1-.07-.17v-6c0-.53-.15-.96-.44-1.29-.29-.33-.67-.49-1.14-.49-.43,0-.78,.13-1.07,.38-.29,.25-.46,.61-.51,1.06v6.34c0,.07-.02,.12-.07,.17s-.1,.07-.17,.07h-2.34c-.07,0-.12-.02-.17-.07-.05-.05-.07-.1-.07-.17v-9.8c0-.07,.02-.12,.07-.17,.05-.05,.1-.07,.17-.07h2.34c.07,0,.12,.02,.17,.07,.05,.05,.07,.1,.07,.17v.78s.01,.07,.04,.08c.03,.01,.05,0,.08-.04,.55-.81,1.39-1.22,2.54-1.22,.67,0,1.25,.14,1.75,.42s.88,.68,1.15,1.2c.04,.08,.09,.08,.14,0,.29-.55,.69-.95,1.19-1.22,.5-.27,1.06-.4,1.69-.4,1.04,0,1.85,.31,2.44,.94Z"/><path d="M72.37,107.06c-.3-.3-.45-.68-.45-1.13s.15-.85,.44-1.14c.29-.29,.67-.44,1.14-.44s.85,.15,1.14,.44c.29,.29,.44,.67,.44,1.14s-.15,.83-.45,1.13c-.3,.3-.68,.45-1.13,.45s-.83-.15-1.13-.45Zm-.24,11.82s-.07-.1-.07-.17v-9.82c0-.07,.02-.12,.07-.17,.05-.05,.1-.07,.17-.07h2.34c.07,0,.12,.02,.17,.07,.05,.05,.07,.1,.07,.17v9.82c0,.07-.02,.12-.07,.17s-.1,.07-.17,.07h-2.34c-.07,0-.12-.02-.17-.07Z"/><path d="M78.84,118.71c-.67-.25-1.18-.61-1.55-1.06-.37-.45-.55-.97-.55-1.54v-.2c0-.07,.02-.12,.07-.17,.05-.05,.1-.07,.17-.07h2.22c.07,0,.12,.02,.17,.07,.05,.05,.07,.1,.07,.17v.02c0,.29,.16,.54,.49,.75,.33,.21,.74,.31,1.23,.31,.45,0,.82-.09,1.1-.27,.28-.18,.42-.4,.42-.67,0-.24-.12-.42-.36-.54-.24-.12-.63-.25-1.18-.38-.63-.16-1.12-.31-1.48-.46-.85-.29-1.53-.65-2.04-1.08s-.76-1.04-.76-1.84c0-.99,.38-1.77,1.15-2.35,.77-.58,1.78-.87,3.05-.87,.85,0,1.6,.14,2.24,.41,.64,.27,1.14,.66,1.49,1.15s.53,1.05,.53,1.68c0,.07-.02,.12-.07,.17s-.1,.07-.17,.07h-2.14c-.07,0-.12-.02-.17-.07-.05-.05-.07-.1-.07-.17,0-.29-.15-.54-.45-.74-.3-.2-.7-.3-1.19-.3-.44,0-.8,.08-1.08,.24-.28,.16-.42,.38-.42,.66s.14,.47,.41,.6c.27,.13,.73,.27,1.37,.42,.15,.04,.31,.08,.5,.13s.39,.1,.6,.17c.95,.28,1.69,.64,2.24,1.08s.82,1.08,.82,1.92c0,.99-.39,1.76-1.17,2.31s-1.83,.83-3.15,.83c-.89,0-1.67-.13-2.34-.38Z"/><path d="M92.93,110.86s-.1,.07-.17,.07h-1.92c-.07,0-.1,.03-.1,.1v4.24c0,.44,.09,.77,.27,.98,.18,.21,.47,.32,.87,.32h.66c.07,0,.12,.02,.17,.07,.05,.05,.07,.1,.07,.17v1.9c0,.15-.08,.23-.24,.26-.56,.03-.96,.04-1.2,.04-1.11,0-1.93-.18-2.48-.55-.55-.37-.83-1.06-.84-2.07v-5.36c0-.07-.03-.1-.1-.1h-1.14c-.07,0-.12-.02-.17-.07s-.07-.1-.07-.17v-1.78c0-.07,.02-.12,.07-.17,.05-.05,.1-.07,.17-.07h1.14c.07,0,.1-.03,.1-.1v-2.38c0-.07,.02-.12,.07-.17,.05-.05,.1-.07,.17-.07h2.24c.07,0,.12,.02,.17,.07,.05,.05,.07,.1,.07,.17v2.38c0,.07,.03,.1,.1,.1h1.92c.07,0,.12,.02,.17,.07,.05,.05,.07,.1,.07,.17v1.78c0,.07-.02,.12-.07,.17Z"/><path d="M100.77,108.74s.1-.07,.17-.07h2.34c.07,0,.12,.02,.17,.07,.05,.05,.07,.1,.07,.17v9.8c0,.07-.02,.12-.07,.17s-.1,.07-.17,.07h-2.34c-.07,0-.12-.02-.17-.07-.05-.05-.07-.1-.07-.17v-.68s-.01-.06-.04-.07c-.03,0-.05,.01-.08,.05-.53,.72-1.36,1.08-2.48,1.08-1.01,0-1.85-.31-2.5-.92-.65-.61-.98-1.47-.98-2.58v-6.68c0-.07,.02-.12,.07-.17,.05-.05,.1-.07,.17-.07h2.32c.07,0,.12,.02,.17,.07,.05,.05,.07,.1,.07,.17v5.98c0,.53,.14,.97,.43,1.3,.29,.33,.68,.5,1.19,.5,.45,0,.83-.14,1.12-.41s.47-.63,.54-1.07v-6.3c0-.07,.02-.12,.07-.17Z"/><path d="M111.86,108.81c.11,.05,.15,.15,.12,.3l-.42,2.28c-.01,.16-.11,.21-.28,.14-.2-.07-.43-.1-.7-.1-.11,0-.25,.01-.44,.04-.48,.04-.89,.22-1.22,.53-.33,.31-.5,.73-.5,1.25v5.46c0,.07-.02,.12-.07,.17s-.1,.07-.17,.07h-2.34c-.07,0-.12-.02-.17-.07-.05-.05-.07-.1-.07-.17v-9.8c0-.07,.02-.12,.07-.17,.05-.05,.1-.07,.17-.07h2.34c.07,0,.12,.02,.17,.07,.05,.05,.07,.1,.07,.17v.76s.01,.07,.04,.08c.03,.01,.05,0,.06-.02,.55-.8,1.28-1.2,2.2-1.2,.48,0,.86,.09,1.14,.28Z"/><path d="M119.56,108.96c.68,.3,1.21,.71,1.59,1.23,.38,.52,.57,1.1,.57,1.74v6.78c0,.07-.02,.12-.07,.17s-.1,.07-.17,.07h-2.34c-.07,0-.12-.02-.17-.07s-.07-.1-.07-.17v-.66s-.01-.07-.04-.08-.05,0-.08,.04c-.56,.73-1.46,1.1-2.7,1.1-1.04,0-1.88-.25-2.52-.76-.64-.51-.96-1.25-.96-2.24s.36-1.82,1.08-2.39c.72-.57,1.75-.85,3.08-.85h2.04c.07,0,.1-.03,.1-.1v-.44c0-.44-.13-.78-.4-1.03-.27-.25-.67-.37-1.2-.37-.41,0-.76,.07-1.03,.22-.27,.15-.45,.35-.53,.62-.04,.15-.13,.21-.26,.2l-2.42-.32c-.16-.03-.23-.09-.22-.18,.05-.56,.28-1.07,.67-1.52,.39-.45,.91-.81,1.56-1.06,.65-.25,1.37-.38,2.17-.38,.87,0,1.64,.15,2.32,.45Zm-1.26,7.59c.4-.31,.6-.7,.6-1.18v-.72c0-.07-.03-.1-.1-.1h-1.44c-.6,0-1.07,.11-1.41,.34-.34,.23-.51,.55-.51,.96,0,.36,.13,.64,.38,.85,.25,.21,.59,.31,1.02,.31,.57,0,1.06-.15,1.46-.46Z"/><path d="M137.54,109.45c.59,.63,.88,1.51,.88,2.64v6.62c0,.07-.02,.12-.07,.17-.05,.05-.1,.07-.17,.07h-2.34c-.07,0-.12-.02-.17-.07s-.07-.1-.07-.17v-6c0-.55-.14-.98-.42-1.3-.28-.32-.65-.48-1.12-.48s-.85,.16-1.14,.48-.44,.75-.44,1.28v6.02c0,.07-.02,.12-.07,.17s-.1,.07-.17,.07h-2.32c-.07,0-.12-.02-.17-.07s-.07-.1-.07-.17v-6c0-.53-.15-.96-.44-1.29-.29-.33-.67-.49-1.14-.49-.43,0-.78,.13-1.07,.38-.29,.25-.46,.61-.51,1.06v6.34c0,.07-.02,.12-.07,.17s-.1,.07-.17,.07h-2.34c-.07,0-.12-.02-.17-.07-.05-.05-.07-.1-.07-.17v-9.8c0-.07,.02-.12,.07-.17,.05-.05,.1-.07,.17-.07h2.34c.07,0,.12,.02,.17,.07,.05,.05,.07,.1,.07,.17v.78s.01,.07,.04,.08c.03,.01,.05,0,.08-.04,.55-.81,1.39-1.22,2.54-1.22,.67,0,1.25,.14,1.75,.42s.88,.68,1.15,1.2c.04,.08,.09,.08,.14,0,.29-.55,.69-.95,1.19-1.22,.5-.27,1.06-.4,1.69-.4,1.04,0,1.85,.31,2.44,.94Z"/><path d="M153.58,114.45c-.01,.16-.1,.24-.26,.24h-6.18c-.08,0-.11,.03-.08,.1,.04,.27,.11,.53,.22,.8,.35,.75,1.05,1.12,2.12,1.12,.85-.01,1.53-.36,2.02-1.04,.05-.08,.11-.12,.18-.12,.04,0,.09,.03,.14,.08l1.44,1.42c.07,.07,.1,.13,.1,.18,0,.03-.03,.08-.08,.16-.44,.55-1.01,.97-1.7,1.27s-1.45,.45-2.28,.45c-1.15,0-2.12-.26-2.91-.78-.79-.52-1.36-1.25-1.71-2.18-.28-.67-.42-1.54-.42-2.62,0-.73,.1-1.38,.3-1.94,.31-.95,.84-1.7,1.61-2.26,.77-.56,1.68-.84,2.73-.84,1.33,0,2.4,.39,3.21,1.16s1.3,1.81,1.47,3.1c.08,.51,.11,1.07,.08,1.7Zm-6.4-2.34c-.05,.17-.1,.39-.14,.64,0,.07,.03,.1,.1,.1h3.46c.08,0,.11-.03,.08-.1-.07-.39-.1-.57-.1-.56-.12-.4-.33-.71-.63-.93-.3-.22-.67-.33-1.11-.33-.84,0-1.39,.39-1.66,1.18Z"/><path d="M161.92,118.75l-3.2-9.82s-.02-.06-.02-.1c0-.12,.07-.18,.22-.18h2.58c.15,0,.24,.07,.28,.2l1.64,6.06s.03,.06,.06,.06,.05-.02,.06-.06l1.64-6.06c.04-.13,.13-.2,.28-.2l2.58,.04c.08,0,.14,.02,.18,.07,.04,.05,.05,.12,.02,.21l-3.18,9.78c-.04,.13-.13,.2-.26,.2h-2.62c-.13,0-.22-.07-.26-.2Z"/><path d="M175.6,108.96c.68,.3,1.21,.71,1.59,1.23,.38,.52,.57,1.1,.57,1.74v6.78c0,.07-.02,.12-.07,.17s-.1,.07-.17,.07h-2.34c-.07,0-.12-.02-.17-.07s-.07-.1-.07-.17v-.66s-.01-.07-.04-.08-.05,0-.08,.04c-.56,.73-1.46,1.1-2.7,1.1-1.04,0-1.88-.25-2.52-.76-.64-.51-.96-1.25-.96-2.24s.36-1.82,1.08-2.39c.72-.57,1.75-.85,3.08-.85h2.04c.07,0,.1-.03,.1-.1v-.44c0-.44-.13-.78-.4-1.03-.27-.25-.67-.37-1.2-.37-.41,0-.76,.07-1.03,.22-.27,.15-.45,.35-.53,.62-.04,.15-.13,.21-.26,.2l-2.42-.32c-.16-.03-.23-.09-.22-.18,.05-.56,.28-1.07,.67-1.52,.39-.45,.91-.81,1.56-1.06,.65-.25,1.37-.38,2.17-.38,.87,0,1.64,.15,2.32,.45Zm-1.26,7.59c.4-.31,.6-.7,.6-1.18v-.72c0-.07-.03-.1-.1-.1h-1.44c-.6,0-1.07,.11-1.41,.34-.34,.23-.51,.55-.51,.96,0,.36,.13,.64,.38,.85,.25,.21,.59,.31,1.02,.31,.57,0,1.06-.15,1.46-.46Z"/><path d="M180.13,107.06c-.3-.3-.45-.68-.45-1.13s.15-.85,.44-1.14c.29-.29,.67-.44,1.14-.44s.85,.15,1.14,.44c.29,.29,.44,.67,.44,1.14s-.15,.83-.45,1.13c-.3,.3-.68,.45-1.13,.45s-.83-.15-1.13-.45Zm-.24,11.82s-.07-.1-.07-.17v-9.82c0-.07,.02-.12,.07-.17,.05-.05,.1-.07,.17-.07h2.34c.07,0,.12,.02,.17,.07,.05,.05,.07,.1,.07,.17v9.82c0,.07-.02,.12-.07,.17s-.1,.07-.17,.07h-2.34c-.07,0-.12-.02-.17-.07Z"/><path d="M194.67,110.86s-.1,.07-.17,.07h-1.92c-.07,0-.1,.03-.1,.1v4.24c0,.44,.09,.77,.27,.98,.18,.21,.47,.32,.87,.32h.66c.07,0,.12,.02,.17,.07,.05,.05,.07,.1,.07,.17v1.9c0,.15-.08,.23-.24,.26-.56,.03-.96,.04-1.2,.04-1.11,0-1.93-.18-2.48-.55-.55-.37-.83-1.06-.84-2.07v-5.36c0-.07-.03-.1-.1-.1h-1.14c-.07,0-.12-.02-.17-.07s-.07-.1-.07-.17v-1.78c0-.07,.02-.12,.07-.17,.05-.05,.1-.07,.17-.07h1.14c.07,0,.1-.03,.1-.1v-2.38c0-.07,.02-.12,.07-.17,.05-.05,.1-.07,.17-.07h2.24c.07,0,.12,.02,.17,.07,.05,.05,.07,.1,.07,.17v2.38c0,.07,.03,.1,.1,.1h1.92c.07,0,.12,.02,.17,.07,.05,.05,.07,.1,.07,.17v1.78c0,.07-.02,.12-.07,.17Z"/><path d="M202.51,108.74s.1-.07,.17-.07h2.34c.07,0,.12,.02,.17,.07,.05,.05,.07,.1,.07,.17v9.8c0,.07-.02,.12-.07,.17s-.1,.07-.17,.07h-2.34c-.07,0-.12-.02-.17-.07-.05-.05-.07-.1-.07-.17v-.68s-.01-.06-.04-.07c-.03,0-.05,.01-.08,.05-.53,.72-1.36,1.08-2.48,1.08-1.01,0-1.85-.31-2.5-.92-.65-.61-.98-1.47-.98-2.58v-6.68c0-.07,.02-.12,.07-.17,.05-.05,.1-.07,.17-.07h2.32c.07,0,.12,.02,.17,.07,.05,.05,.07,.1,.07,.17v5.98c0,.53,.14,.97,.43,1.3,.29,.33,.68,.5,1.19,.5,.45,0,.83-.14,1.12-.41s.47-.63,.54-1.07v-6.3c0-.07,.02-.12,.07-.17Z"/><path d="M213.79,105.02s.1-.07,.17-.07h2.34c.07,0,.12,.02,.17,.07,.05,.05,.07,.1,.07,.17v13.52c0,.07-.02,.12-.07,.17s-.1,.07-.17,.07h-2.34c-.07,0-.12-.02-.17-.07-.05-.05-.07-.1-.07-.17v-.66s-.01-.06-.04-.07c-.03,0-.05,0-.08,.03-.56,.73-1.33,1.1-2.3,1.1s-1.74-.26-2.41-.78-1.16-1.23-1.45-2.14c-.23-.69-.34-1.5-.34-2.42s.12-1.77,.36-2.48c.31-.85,.79-1.53,1.45-2.03,.66-.5,1.48-.75,2.45-.75s1.71,.33,2.24,1c.03,.04,.05,.05,.08,.04s.04-.04,.04-.08v-4.28c0-.07,.02-.12,.07-.17Zm-.09,8.79c0-.89-.15-1.59-.44-2.1-.31-.52-.75-.78-1.34-.78-.63,0-1.1,.26-1.42,.78-.33,.52-.5,1.23-.5,2.12,0,.8,.14,1.47,.42,2,.33,.57,.83,.86,1.48,.86,.6,0,1.07-.29,1.4-.86,.27-.49,.4-1.17,.4-2.02Z"/><path d="M220.32,118.23c-.8-.59-1.35-1.39-1.64-2.4-.19-.63-.28-1.31-.28-2.04,0-.79,.09-1.49,.28-2.12,.31-.99,.86-1.76,1.66-2.32s1.76-.84,2.88-.84,2.03,.28,2.8,.83c.77,.55,1.32,1.32,1.64,2.31,.21,.67,.32,1.37,.32,2.1s-.09,1.39-.28,2.02c-.29,1.04-.84,1.86-1.63,2.45-.79,.59-1.75,.89-2.87,.89s-2.08-.29-2.88-.88Zm4-1.94c.31-.27,.53-.63,.66-1.1,.11-.43,.16-.89,.16-1.4,0-.56-.05-1.03-.16-1.42-.15-.45-.37-.81-.68-1.06-.31-.25-.68-.38-1.12-.38s-.83,.13-1.13,.38c-.3,.25-.52,.61-.65,1.06-.11,.32-.16,.79-.16,1.42s.05,1.07,.14,1.4c.13,.47,.36,.83,.67,1.1,.31,.27,.7,.4,1.15,.4s.81-.13,1.12-.4Z"/><path d="M231.56,122.79v-1.9c0-.17,.09-.25,.26-.22,.79,.03,1.34-.09,1.65-.34s.47-.7,.47-1.34l-.04-10.08c0-.07,.02-.12,.07-.17,.05-.05,.1-.07,.17-.07h2.34c.07,0,.12,.02,.17,.07,.05,.05,.07,.1,.07,.17v10.04c0,1.08-.15,1.92-.44,2.51-.29,.59-.79,1.01-1.49,1.25-.7,.24-1.7,.35-2.99,.32-.16,0-.24-.08-.24-.24Zm2.62-15.73c-.29-.3-.44-.68-.44-1.13s.15-.85,.44-1.14c.29-.29,.67-.44,1.12-.44s.85,.15,1.14,.44c.29,.29,.44,.67,.44,1.14s-.15,.83-.45,1.13c-.3,.3-.68,.45-1.13,.45s-.83-.15-1.12-.45Z"/><path d="M244.95,108.74s.1-.07,.17-.07h2.34c.07,0,.12,.02,.17,.07,.05,.05,.07,.1,.07,.17v9.8c0,.07-.02,.12-.07,.17s-.1,.07-.17,.07h-2.34c-.07,0-.12-.02-.17-.07-.05-.05-.07-.1-.07-.17v-.68s-.01-.06-.04-.07c-.03,0-.05,.01-.08,.05-.53,.72-1.36,1.08-2.48,1.08-1.01,0-1.85-.31-2.5-.92-.65-.61-.98-1.47-.98-2.58v-6.68c0-.07,.02-.12,.07-.17,.05-.05,.1-.07,.17-.07h2.32c.07,0,.12,.02,.17,.07,.05,.05,.07,.1,.07,.17v5.98c0,.53,.14,.97,.43,1.3,.29,.33,.68,.5,1.19,.5,.45,0,.83-.14,1.12-.41s.47-.63,.54-1.07v-6.3c0-.07,.02-.12,.07-.17Z"/><path d="M257.72,109.49c.65,.65,.98,1.54,.98,2.66v6.56c0,.07-.02,.12-.07,.17s-.1,.07-.17,.07h-2.34c-.07,0-.12-.02-.17-.07s-.07-.1-.07-.17v-5.98c0-.53-.15-.97-.45-1.3-.3-.33-.7-.5-1.19-.5s-.89,.17-1.19,.5c-.3,.33-.45,.77-.45,1.3v5.98c0,.07-.02,.12-.07,.17s-.1,.07-.17,.07h-2.34c-.07,0-.12-.02-.17-.07-.05-.05-.07-.1-.07-.17v-9.8c0-.07,.02-.12,.07-.17,.05-.05,.1-.07,.17-.07h2.34c.07,0,.12,.02,.17,.07,.05,.05,.07,.1,.07,.17v.7s.01,.07,.04,.08c.03,.01,.05,0,.06-.02,.55-.77,1.36-1.16,2.44-1.16s1.93,.33,2.58,.98Z"/><path d="M266.55,110.86s-.1,.07-.17,.07h-1.92c-.07,0-.1,.03-.1,.1v4.24c0,.44,.09,.77,.27,.98,.18,.21,.47,.32,.87,.32h.66c.07,0,.12,.02,.17,.07,.05,.05,.07,.1,.07,.17v1.9c0,.15-.08,.23-.24,.26-.56,.03-.96,.04-1.2,.04-1.11,0-1.93-.18-2.48-.55-.55-.37-.83-1.06-.84-2.07v-5.36c0-.07-.03-.1-.1-.1h-1.14c-.07,0-.12-.02-.17-.07s-.07-.1-.07-.17v-1.78c0-.07,.02-.12,.07-.17,.05-.05,.1-.07,.17-.07h1.14c.07,0,.1-.03,.1-.1v-2.38c0-.07,.02-.12,.07-.17,.05-.05,.1-.07,.17-.07h2.24c.07,0,.12,.02,.17,.07,.05,.05,.07,.1,.07,.17v2.38c0,.07,.03,.1,.1,.1h1.92c.07,0,.12,.02,.17,.07,.05,.05,.07,.1,.07,.17v1.78c0,.07-.02,.12-.07,.17Z"/><path d="M269.84,118.23c-.8-.59-1.35-1.39-1.64-2.4-.19-.63-.28-1.31-.28-2.04,0-.79,.09-1.49,.28-2.12,.31-.99,.86-1.76,1.66-2.32s1.76-.84,2.88-.84,2.03,.28,2.8,.83c.77,.55,1.32,1.32,1.64,2.31,.21,.67,.32,1.37,.32,2.1s-.09,1.39-.28,2.02c-.29,1.04-.84,1.86-1.63,2.45-.79,.59-1.75,.89-2.87,.89s-2.08-.29-2.88-.88Zm4-1.94c.31-.27,.53-.63,.66-1.1,.11-.43,.16-.89,.16-1.4,0-.56-.05-1.03-.16-1.42-.15-.45-.37-.81-.68-1.06-.31-.25-.68-.38-1.12-.38s-.83,.13-1.13,.38c-.3,.25-.52,.61-.65,1.06-.11,.32-.16,.79-.16,1.42s.05,1.07,.14,1.4c.13,.47,.36,.83,.67,1.1,.31,.27,.7,.4,1.15,.4s.81-.13,1.12-.4Z"/><path d="M86.45,139.83c0,.92-.13,1.75-.38,2.5-.31,.85-.79,1.53-1.45,2.03s-1.48,.75-2.45,.75-1.71-.33-2.24-1c-.03-.04-.05-.05-.08-.04-.03,.01-.04,.04-.04,.08v4.28c0,.07-.02,.12-.07,.17s-.1,.07-.17,.07h-2.34c-.07,0-.12-.02-.17-.07-.05-.05-.07-.1-.07-.17v-13.52c0-.07,.02-.12,.07-.17,.05-.05,.1-.07,.17-.07h2.34c.07,0,.12,.02,.17,.07,.05,.05,.07,.1,.07,.17v.66s.01,.06,.04,.07c.03,0,.05,0,.08-.03,.56-.73,1.33-1.1,2.32-1.1,.92,0,1.72,.26,2.39,.77,.67,.51,1.16,1.23,1.45,2.15,.24,.68,.36,1.48,.36,2.4Zm-2.92-.04c0-.84-.14-1.51-.42-2-.31-.57-.8-.86-1.48-.86-.61,0-1.07,.29-1.38,.86-.28,.48-.42,1.15-.42,2.02s.15,1.59,.44,2.08c.31,.53,.76,.8,1.36,.8s1.07-.26,1.4-.78c.33-.52,.5-1.23,.5-2.12Z"/><path d="M94.69,134.96c.68,.3,1.21,.71,1.59,1.23,.38,.52,.57,1.1,.57,1.74v6.78c0,.07-.02,.12-.07,.17s-.1,.07-.17,.07h-2.34c-.07,0-.12-.02-.17-.07s-.07-.1-.07-.17v-.66s-.01-.07-.04-.08-.05,0-.08,.04c-.56,.73-1.46,1.1-2.7,1.1-1.04,0-1.88-.25-2.52-.76-.64-.51-.96-1.25-.96-2.24s.36-1.82,1.08-2.39c.72-.57,1.75-.85,3.08-.85h2.04c.07,0,.1-.03,.1-.1v-.44c0-.44-.13-.78-.4-1.03-.27-.25-.67-.37-1.2-.37-.41,0-.76,.07-1.03,.22-.27,.15-.45,.35-.53,.62-.04,.15-.13,.21-.26,.2l-2.42-.32c-.16-.03-.23-.09-.22-.18,.05-.56,.28-1.07,.67-1.52,.39-.45,.91-.81,1.56-1.06,.65-.25,1.37-.38,2.17-.38,.87,0,1.64,.15,2.32,.45Zm-1.26,7.59c.4-.31,.6-.7,.6-1.18v-.72c0-.07-.03-.1-.1-.1h-1.44c-.6,0-1.07,.11-1.41,.34-.34,.23-.51,.55-.51,.96,0,.36,.13,.64,.38,.85,.25,.21,.59,.31,1.02,.31,.57,0,1.06-.15,1.46-.46Z"/><path d="M105.09,134.81c.11,.05,.15,.15,.12,.3l-.42,2.28c-.01,.16-.11,.21-.28,.14-.2-.07-.43-.1-.7-.1-.11,0-.25,.01-.44,.04-.48,.04-.89,.22-1.22,.53-.33,.31-.5,.73-.5,1.25v5.46c0,.07-.02,.12-.07,.17s-.1,.07-.17,.07h-2.34c-.07,0-.12-.02-.17-.07-.05-.05-.07-.1-.07-.17v-9.8c0-.07,.02-.12,.07-.17,.05-.05,.1-.07,.17-.07h2.34c.07,0,.12,.02,.17,.07,.05,.05,.07,.1,.07,.17v.76s.01,.07,.04,.08c.03,.01,.05,0,.06-.02,.55-.8,1.28-1.2,2.2-1.2,.48,0,.86,.09,1.14,.28Z"/><path d="M112.79,134.96c.68,.3,1.21,.71,1.59,1.23,.38,.52,.57,1.1,.57,1.74v6.78c0,.07-.02,.12-.07,.17s-.1,.07-.17,.07h-2.34c-.07,0-.12-.02-.17-.07s-.07-.1-.07-.17v-.66s-.01-.07-.04-.08-.05,0-.08,.04c-.56,.73-1.46,1.1-2.7,1.1-1.04,0-1.88-.25-2.52-.76-.64-.51-.96-1.25-.96-2.24s.36-1.82,1.08-2.39c.72-.57,1.75-.85,3.08-.85h2.04c.07,0,.1-.03,.1-.1v-.44c0-.44-.13-.78-.4-1.03-.27-.25-.67-.37-1.2-.37-.41,0-.76,.07-1.03,.22-.27,.15-.45,.35-.53,.62-.04,.15-.13,.21-.26,.2l-2.42-.32c-.16-.03-.23-.09-.22-.18,.05-.56,.28-1.07,.67-1.52,.39-.45,.91-.81,1.56-1.06,.65-.25,1.37-.38,2.17-.38,.87,0,1.64,.15,2.32,.45Zm-1.26,7.59c.4-.31,.6-.7,.6-1.18v-.72c0-.07-.03-.1-.1-.1h-1.44c-.6,0-1.07,.11-1.41,.34-.34,.23-.51,.55-.51,.96,0,.36,.13,.64,.38,.85,.25,.21,.59,.31,1.02,.31,.57,0,1.06-.15,1.46-.46Z"/><path d="M122.59,144.23c-.8-.59-1.35-1.39-1.64-2.4-.19-.63-.28-1.31-.28-2.04,0-.79,.09-1.49,.28-2.12,.31-.99,.86-1.76,1.66-2.32s1.76-.84,2.88-.84,2.03,.28,2.8,.83c.77,.55,1.32,1.32,1.64,2.31,.21,.67,.32,1.37,.32,2.1s-.09,1.39-.28,2.02c-.29,1.04-.84,1.86-1.63,2.45-.79,.59-1.75,.89-2.87,.89s-2.08-.29-2.88-.88Zm4-1.94c.31-.27,.53-.63,.66-1.1,.11-.43,.16-.89,.16-1.4,0-.56-.05-1.03-.16-1.42-.15-.45-.37-.81-.68-1.06-.31-.25-.68-.38-1.12-.38s-.83,.13-1.13,.38c-.3,.25-.52,.61-.65,1.06-.11,.32-.16,.79-.16,1.42s.05,1.07,.14,1.4c.13,.47,.36,.83,.67,1.1,.31,.27,.7,.4,1.15,.4s.81-.13,1.12-.4Z"/><path d="M149.91,135.45c.59,.63,.88,1.51,.88,2.64v6.62c0,.07-.02,.12-.07,.17-.05,.05-.1,.07-.17,.07h-2.34c-.07,0-.12-.02-.17-.07s-.07-.1-.07-.17v-6c0-.55-.14-.98-.42-1.3-.28-.32-.65-.48-1.12-.48s-.85,.16-1.14,.48-.44,.75-.44,1.28v6.02c0,.07-.02,.12-.07,.17s-.1,.07-.17,.07h-2.32c-.07,0-.12-.02-.17-.07s-.07-.1-.07-.17v-6c0-.53-.15-.96-.44-1.29-.29-.33-.67-.49-1.14-.49-.43,0-.78,.13-1.07,.38-.29,.25-.46,.61-.51,1.06v6.34c0,.07-.02,.12-.07,.17s-.1,.07-.17,.07h-2.34c-.07,0-.12-.02-.17-.07-.05-.05-.07-.1-.07-.17v-9.8c0-.07,.02-.12,.07-.17,.05-.05,.1-.07,.17-.07h2.34c.07,0,.12,.02,.17,.07,.05,.05,.07,.1,.07,.17v.78s.01,.07,.04,.08c.03,.01,.05,0,.08-.04,.55-.81,1.39-1.22,2.54-1.22,.67,0,1.25,.14,1.75,.42s.88,.68,1.15,1.2c.04,.08,.09,.08,.14,0,.29-.55,.69-.95,1.19-1.22,.5-.27,1.06-.4,1.69-.4,1.04,0,1.85,.31,2.44,.94Z"/><path d="M161.89,140.45c-.01,.16-.1,.24-.26,.24h-6.18c-.08,0-.11,.03-.08,.1,.04,.27,.11,.53,.22,.8,.35,.75,1.05,1.12,2.12,1.12,.85-.01,1.53-.36,2.02-1.04,.05-.08,.11-.12,.18-.12,.04,0,.09,.03,.14,.08l1.44,1.42c.07,.07,.1,.13,.1,.18,0,.03-.03,.08-.08,.16-.44,.55-1.01,.97-1.7,1.27s-1.45,.45-2.28,.45c-1.15,0-2.12-.26-2.91-.78-.79-.52-1.36-1.25-1.71-2.18-.28-.67-.42-1.54-.42-2.62,0-.73,.1-1.38,.3-1.94,.31-.95,.84-1.7,1.61-2.26,.77-.56,1.68-.84,2.73-.84,1.33,0,2.4,.39,3.21,1.16s1.3,1.81,1.47,3.1c.08,.51,.11,1.07,.08,1.7Zm-6.4-2.34c-.05,.17-.1,.39-.14,.64,0,.07,.03,.1,.1,.1h3.46c.08,0,.11-.03,.08-.1-.07-.39-.1-.57-.1-.56-.12-.4-.33-.71-.63-.93-.3-.22-.67-.33-1.11-.33-.84,0-1.39,.39-1.66,1.18Z"/><path d="M165.25,144.71c-.67-.25-1.18-.61-1.55-1.06-.37-.45-.55-.97-.55-1.54v-.2c0-.07,.02-.12,.07-.17,.05-.05,.1-.07,.17-.07h2.22c.07,0,.12,.02,.17,.07,.05,.05,.07,.1,.07,.17v.02c0,.29,.16,.54,.49,.75,.33,.21,.74,.31,1.23,.31,.45,0,.82-.09,1.1-.27,.28-.18,.42-.4,.42-.67,0-.24-.12-.42-.36-.54-.24-.12-.63-.25-1.18-.38-.63-.16-1.12-.31-1.48-.46-.85-.29-1.53-.65-2.04-1.08s-.76-1.04-.76-1.84c0-.99,.38-1.77,1.15-2.35,.77-.58,1.78-.87,3.05-.87,.85,0,1.6,.14,2.24,.41,.64,.27,1.14,.66,1.49,1.15s.53,1.05,.53,1.68c0,.07-.02,.12-.07,.17s-.1,.07-.17,.07h-2.14c-.07,0-.12-.02-.17-.07-.05-.05-.07-.1-.07-.17,0-.29-.15-.54-.45-.74-.3-.2-.7-.3-1.19-.3-.44,0-.8,.08-1.08,.24-.28,.16-.42,.38-.42,.66s.14,.47,.41,.6c.27,.13,.73,.27,1.37,.42,.15,.04,.31,.08,.5,.13s.39,.1,.6,.17c.95,.28,1.69,.64,2.24,1.08s.82,1.08,.82,1.92c0,.99-.39,1.76-1.17,2.31s-1.83,.83-3.15,.83c-.89,0-1.67-.13-2.34-.38Z"/><path d="M187.37,135.45c.59,.63,.88,1.51,.88,2.64v6.62c0,.07-.02,.12-.07,.17-.05,.05-.1,.07-.17,.07h-2.34c-.07,0-.12-.02-.17-.07s-.07-.1-.07-.17v-6c0-.55-.14-.98-.42-1.3-.28-.32-.65-.48-1.12-.48s-.85,.16-1.14,.48-.44,.75-.44,1.28v6.02c0,.07-.02,.12-.07,.17s-.1,.07-.17,.07h-2.32c-.07,0-.12-.02-.17-.07s-.07-.1-.07-.17v-6c0-.53-.15-.96-.44-1.29-.29-.33-.67-.49-1.14-.49-.43,0-.78,.13-1.07,.38-.29,.25-.46,.61-.51,1.06v6.34c0,.07-.02,.12-.07,.17s-.1,.07-.17,.07h-2.34c-.07,0-.12-.02-.17-.07-.05-.05-.07-.1-.07-.17v-9.8c0-.07,.02-.12,.07-.17,.05-.05,.1-.07,.17-.07h2.34c.07,0,.12,.02,.17,.07,.05,.05,.07,.1,.07,.17v.78s.01,.07,.04,.08c.03,.01,.05,0,.08-.04,.55-.81,1.39-1.22,2.54-1.22,.67,0,1.25,.14,1.75,.42s.88,.68,1.15,1.2c.04,.08,.09,.08,.14,0,.29-.55,.69-.95,1.19-1.22,.5-.27,1.06-.4,1.69-.4,1.04,0,1.85,.31,2.44,.94Z"/><path d="M191.83,144.23c-.8-.59-1.35-1.39-1.64-2.4-.19-.63-.28-1.31-.28-2.04,0-.79,.09-1.49,.28-2.12,.31-.99,.86-1.76,1.66-2.32s1.76-.84,2.88-.84,2.03,.28,2.8,.83c.77,.55,1.32,1.32,1.64,2.31,.21,.67,.32,1.37,.32,2.1s-.09,1.39-.28,2.02c-.29,1.04-.84,1.86-1.63,2.45-.79,.59-1.75,.89-2.87,.89s-2.08-.29-2.88-.88Zm4-1.94c.31-.27,.53-.63,.66-1.1,.11-.43,.16-.89,.16-1.4,0-.56-.05-1.03-.16-1.42-.15-.45-.37-.81-.68-1.06-.31-.25-.68-.38-1.12-.38s-.83,.13-1.13,.38c-.3,.25-.52,.61-.65,1.06-.11,.32-.16,.79-.16,1.42s.05,1.07,.14,1.4c.13,.47,.36,.83,.67,1.1,.31,.27,.7,.4,1.15,.4s.81-.13,1.12-.4Z"/><path d="M207.07,144.71c-.67-.25-1.18-.61-1.55-1.06-.37-.45-.55-.97-.55-1.54v-.2c0-.07,.02-.12,.07-.17,.05-.05,.1-.07,.17-.07h2.22c.07,0,.12,.02,.17,.07,.05,.05,.07,.1,.07,.17v.02c0,.29,.16,.54,.49,.75,.33,.21,.74,.31,1.23,.31,.45,0,.82-.09,1.1-.27,.28-.18,.42-.4,.42-.67,0-.24-.12-.42-.36-.54-.24-.12-.63-.25-1.18-.38-.63-.16-1.12-.31-1.48-.46-.85-.29-1.53-.65-2.04-1.08s-.76-1.04-.76-1.84c0-.99,.38-1.77,1.15-2.35,.77-.58,1.78-.87,3.05-.87,.85,0,1.6,.14,2.24,.41,.64,.27,1.14,.66,1.49,1.15s.53,1.05,.53,1.68c0,.07-.02,.12-.07,.17s-.1,.07-.17,.07h-2.14c-.07,0-.12-.02-.17-.07-.05-.05-.07-.1-.07-.17,0-.29-.15-.54-.45-.74-.3-.2-.7-.3-1.19-.3-.44,0-.8,.08-1.08,.24-.28,.16-.42,.38-.42,.66s.14,.47,.41,.6c.27,.13,.73,.27,1.37,.42,.15,.04,.31,.08,.5,.13s.39,.1,.6,.17c.95,.28,1.69,.64,2.24,1.08s.82,1.08,.82,1.92c0,.99-.39,1.76-1.17,2.31s-1.83,.83-3.15,.83c-.89,0-1.67-.13-2.34-.38Z"/><path d="M215.34,144.88s-.07-.1-.07-.17v-9.8c0-.07,.02-.12,.07-.17,.05-.05,.1-.07,.17-.07h2.34c.07,0,.12,.02,.17,.07,.05,.05,.07,.1,.07,.17v9.8c0,.07-.02,.12-.07,.17s-.1,.07-.17,.07h-2.34c-.07,0-.12-.02-.17-.07Zm.05-11.53c-.03-.05-.02-.12,.02-.2l1.06-2.02c.05-.12,.15-.18,.3-.18h2.02c.09,0,.16,.03,.19,.09s.02,.13-.03,.21l-1.42,2.02c-.07,.11-.16,.16-.28,.16h-1.68c-.09,0-.15-.03-.18-.08Z"/><path d="M225.92,136.86s-.1,.07-.17,.07h-1.92c-.07,0-.1,.03-.1,.1v4.24c0,.44,.09,.77,.27,.98,.18,.21,.47,.32,.87,.32h.66c.07,0,.12,.02,.17,.07,.05,.05,.07,.1,.07,.17v1.9c0,.15-.08,.23-.24,.26-.56,.03-.96,.04-1.2,.04-1.11,0-1.93-.18-2.48-.55-.55-.37-.83-1.06-.84-2.07v-5.36c0-.07-.03-.1-.1-.1h-1.14c-.07,0-.12-.02-.17-.07s-.07-.1-.07-.17v-1.78c0-.07,.02-.12,.07-.17,.05-.05,.1-.07,.17-.07h1.14c.07,0,.1-.03,.1-.1v-2.38c0-.07,.02-.12,.07-.17,.05-.05,.1-.07,.17-.07h2.24c.07,0,.12,.02,.17,.07,.05,.05,.07,.1,.07,.17v2.38c0,.07,.03,.1,.1,.1h1.92c.07,0,.12,.02,.17,.07,.05,.05,.07,.1,.07,.17v1.78c0,.07-.02,.12-.07,.17Z"/><path d="M228.08,133.06c-.3-.3-.45-.68-.45-1.13s.15-.85,.44-1.14c.29-.29,.67-.44,1.14-.44s.85,.15,1.14,.44c.29,.29,.44,.67,.44,1.14s-.15,.83-.45,1.13c-.3,.3-.68,.45-1.13,.45s-.83-.15-1.13-.45Zm-.24,11.82s-.07-.1-.07-.17v-9.82c0-.07,.02-.12,.07-.17,.05-.05,.1-.07,.17-.07h2.34c.07,0,.12,.02,.17,.07,.05,.05,.07,.1,.07,.17v9.82c0,.07-.02,.12-.07,.17s-.1,.07-.17,.07h-2.34c-.07,0-.12-.02-.17-.07Z"/><path d="M234.45,144.23c-.8-.59-1.35-1.39-1.64-2.4-.19-.63-.28-1.31-.28-2.04,0-.79,.09-1.49,.28-2.12,.31-.99,.86-1.76,1.66-2.32s1.76-.84,2.88-.84,2.03,.28,2.8,.83c.77,.55,1.32,1.32,1.64,2.31,.21,.67,.32,1.37,.32,2.1s-.09,1.39-.28,2.02c-.29,1.04-.84,1.86-1.63,2.45-.79,.59-1.75,.89-2.87,.89s-2.08-.29-2.88-.88Zm4-1.94c.31-.27,.53-.63,.66-1.1,.11-.43,.16-.89,.16-1.4,0-.56-.05-1.03-.16-1.42-.15-.45-.37-.81-.68-1.06-.31-.25-.68-.38-1.12-.38s-.83,.13-1.13,.38c-.3,.25-.52,.61-.65,1.06-.11,.32-.16,.79-.16,1.42s.05,1.07,.14,1.4c.13,.47,.36,.83,.67,1.1,.31,.27,.7,.4,1.15,.4s.81-.13,1.12-.4Z"/><path d="M245.1,144.48c-.3-.3-.45-.68-.45-1.13s.15-.85,.44-1.14c.29-.29,.67-.44,1.14-.44s.84,.15,1.13,.44c.29,.29,.43,.67,.43,1.14s-.15,.83-.44,1.13c-.29,.3-.67,.45-1.12,.45s-.83-.15-1.13-.45Zm.18-4.4s-.07-.1-.07-.17l-.26-8.72c0-.07,.02-.12,.07-.17,.05-.05,.1-.07,.17-.07h2.34c.07,0,.12,.02,.17,.07,.05,.05,.07,.1,.07,.17l-.3,8.72c0,.07-.02,.12-.07,.17-.05,.05-.1,.07-.17,.07h-1.78c-.07,0-.12-.02-.17-.07Z"/><path d="M251.98,144.48c-.3-.3-.45-.68-.45-1.13s.15-.85,.44-1.14c.29-.29,.67-.44,1.14-.44s.84,.15,1.13,.44c.29,.29,.43,.67,.43,1.14s-.15,.83-.44,1.13c-.29,.3-.67,.45-1.12,.45s-.83-.15-1.13-.45Zm.18-4.4s-.07-.1-.07-.17l-.26-8.72c0-.07,.02-.12,.07-.17,.05-.05,.1-.07,.17-.07h2.34c.07,0,.12,.02,.17,.07,.05,.05,.07,.1,.07,.17l-.3,8.72c0,.07-.02,.12-.07,.17-.05,.05-.1,.07-.17,.07h-1.78c-.07,0-.12-.02-.17-.07Z"/></g></g></svg>