<svg id="Layer_1" data-name="Layer 1" xmlns="http://www.w3.org/2000/svg" xmlns:xlink="http://www.w3.org/1999/xlink" viewBox="0 0 434.56 395.13"><defs><clipPath id="clip-path" transform="translate(0)"><rect y="171.94" width="434.56" height="223.18" style="fill:none"/></clipPath><clipPath id="clip-path-3" transform="translate(0)"><path d="M259.87,253.18a2.92,2.92,0,0,0-2.94,2.89v.21l5.87,105.93a3.32,3.32,0,0,0,3.27,3.1h47.58a3.32,3.32,0,0,0,3.28-3.1l5.86-105.93a2.9,2.9,0,0,0-2.72-3.09h-60.2Z" style="fill:none"/></clipPath><linearGradient id="linear-gradient" x1="198.01" y1="211.16" x2="198.03" y2="211.16" gradientTransform="matrix(66.05, 0, 0, -112.13, -13077.59, 23985.43)" gradientUnits="userSpaceOnUse"><stop offset="0" stop-color="#a2d85b"/><stop offset="1" stop-color="#7aad38"/></linearGradient><clipPath id="clip-path-5" transform="translate(0)"><rect x="256.98" y="257.73" width="65.73" height="10.13" style="fill:none"/></clipPath><clipPath id="clip-path-6" transform="translate(0)"><path d="M322.15,267.86c.21-3.84-64.77-3.64-64.57,0l-.6-10,65.73-.12Z" style="fill:none"/></clipPath><linearGradient id="linear-gradient-2" x1="197.97" y1="227.87" x2="198" y2="227.87" gradientTransform="matrix(65.73, 0, 0, -10.13, -13012.05, 2570.4)" gradientUnits="userSpaceOnUse"><stop offset="0" stop-color="#fff"/><stop offset="1" stop-color="#b2b4c1"/></linearGradient><clipPath id="clip-path-7" transform="translate(0)"><path d="M287,181.58l-25,1.78a3.35,3.35,0,0,0-2.85,3.1l-2,27.47a31.33,31.33,0,0,0,.15,5.81l3.3,21.3a3.27,3.27,0,0,0,3,2.9H315.4a3.31,3.31,0,0,0,3-2.89L322,219.93a29.67,29.67,0,0,0,.15-5.81l-2.25-27.66a3.39,3.39,0,0,0-2.87-3.1l-24.77-1.78c-.72-.05-1.68-.08-2.63-.08s-1.87,0-2.58.08" style="fill:none"/></clipPath><linearGradient id="linear-gradient-3" x1="197.93" y1="212.48" x2="197.95" y2="212.48" gradientTransform="matrix(65.31, 0, 0, -62.44, -12926.19, 13480.53)" gradientUnits="userSpaceOnUse"><stop offset="0" stop-color="#ffab24"/><stop offset="1" stop-color="#ffbe5f"/></linearGradient><clipPath id="clip-path-9" transform="translate(0)"><rect x="257.01" y="181.5" width="65.17" height="62.44" style="fill:none"/></clipPath><clipPath id="clip-path-10" transform="translate(0)"><rect x="257.06" y="185.09" width="65.07" height="58.86" style="fill:none"/></clipPath><clipPath id="clip-path-11" transform="translate(0)"><path d="M255.8,248.63h68.13a2.14,2.14,0,0,1,2.14,2.14h0v4.83a2.13,2.13,0,0,1-2.14,2.13H255.8a2.13,2.13,0,0,1-2.14-2.13v-4.83a2.14,2.14,0,0,1,2.14-2.14Z" style="fill:none"/></clipPath><linearGradient id="linear-gradient-4" x1="198.67" y1="229.94" x2="198.69" y2="229.94" gradientTransform="matrix(72.41, 0, 0, -9.1, -14384.77, 2346.05)" xlink:href="#linear-gradient"/><clipPath id="clip-path-12" transform="translate(0)"><path d="M287,186l-25,1.78a3.37,3.37,0,0,0-2.85,3.1l-1.9,25.94c0,.06,0,.12,0,.17l3.3,21.3a3.28,3.28,0,0,0,3,2.9H315.4a3.31,3.31,0,0,0,3-2.89L322,217.17a.5.5,0,0,0,0-.12l-2.12-26.18a3.39,3.39,0,0,0-2.87-3.1L292.21,186c-.72,0-1.68-.08-2.63-.08s-1.87,0-2.58.08" style="fill:none"/></clipPath><clipPath id="clip-path-14" transform="translate(0)"><rect x="253.66" y="248.63" width="72.41" height="9.1" style="fill:none"/></clipPath><clipPath id="clip-path-15" transform="translate(0)"><path d="M253.58,252.25h72.56a.86.86,0,0,1,.86.86h0v3.77a.85.85,0,0,1-.86.85H253.58a.85.85,0,0,1-.85-.85h0v-3.77A.86.86,0,0,1,253.58,252.25Z" style="fill:none"/></clipPath><linearGradient id="linear-gradient-5" x1="198.84" y1="243.44" x2="198.86" y2="243.44" gradientTransform="matrix(74.27, 0, 0, -5.48, -14767.41, 1589.26)" xlink:href="#linear-gradient"/><clipPath id="clip-path-17" transform="translate(0)"><rect x="253.66" y="251.89" width="72.41" height="0.73" style="fill:none"/></clipPath><clipPath id="clip-path-18" transform="translate(0)"><rect x="253.66" y="248.26" width="72.41" height="0.73" style="fill:none"/></clipPath><clipPath id="clip-path-19" transform="translate(0)"><rect x="289.22" y="185.54" width="29.95" height="3.48" style="fill:none"/></clipPath><clipPath id="clip-path-20" transform="translate(0)"><rect x="260" y="185.54" width="29.95" height="3.48" style="fill:none"/></clipPath><clipPath id="clip-path-21" transform="translate(0)"><rect x="274.35" y="289.96" width="30.66" height="29.19" style="fill:none"/></clipPath><clipPath id="clip-path-22" transform="translate(0)"><path d="M180.07,253.18a2.92,2.92,0,0,0-2.94,2.89,1.48,1.48,0,0,0,0,.21L183,362.21a3.32,3.32,0,0,0,3.27,3.1h47.59a3.32,3.32,0,0,0,3.27-3.1L243,256.28a2.9,2.9,0,0,0-2.72-3.09h-60.2Z" style="fill:none"/></clipPath><linearGradient id="linear-gradient-6" x1="199.22" y1="211.16" x2="199.24" y2="211.16" gradientTransform="matrix(66.04, 0, 0, -112.13, -13157.18, 23985.43)" xlink:href="#linear-gradient"/><clipPath id="clip-path-24" transform="translate(0)"><rect x="177.18" y="257.73" width="65.73" height="10.13" style="fill:none"/></clipPath><clipPath id="clip-path-25" transform="translate(0)"><path d="M242.35,267.86c.21-3.84-64.77-3.64-64.57,0l-.6-10,65.73-.12Z" style="fill:none"/></clipPath><linearGradient id="linear-gradient-7" x1="199.19" y1="227.87" x2="199.21" y2="227.87" gradientTransform="matrix(65.73, 0, 0, -10.13, -13091.85, 2570.4)" xlink:href="#linear-gradient-2"/><clipPath id="clip-path-26" transform="translate(0)"><path d="M176,248.63h68.13a2.14,2.14,0,0,1,2.14,2.14h0v4.83a2.13,2.13,0,0,1-2.14,2.13H176a2.13,2.13,0,0,1-2.14-2.13v-4.83a2.14,2.14,0,0,1,2.14-2.14Z" style="fill:none"/></clipPath><linearGradient id="linear-gradient-8" x1="199.77" y1="229.94" x2="199.79" y2="229.94" gradientTransform="matrix(72.41, 0, 0, -9.1, -14464.57, 2346.05)" xlink:href="#linear-gradient"/><clipPath id="clip-path-28" transform="translate(0)"><rect x="173.86" y="251.89" width="72.41" height="0.73" style="fill:none"/></clipPath><clipPath id="clip-path-29" transform="translate(0)"><rect x="194.55" y="289.96" width="30.66" height="29.19" style="fill:none"/></clipPath><clipPath id="clip-path-30" transform="translate(0)"><path d="M149.19,242.51c0,1.88.5,3.42,1.1,3.42s1.1-1.54,1.1-3.42-.49-3.42-1.1-3.42-1.1,1.54-1.1,3.42" style="fill:none"/></clipPath><linearGradient id="linear-gradient-9" x1="43.5" y1="236.68" x2="44.28" y2="236.68" gradientTransform="matrix(2.19, 0, 0, -6.84, -95.37, 1862.12)" gradientUnits="userSpaceOnUse"><stop offset="0" stop-color="#34bfe0"/><stop offset="1" stop-color="#4591ff"/></linearGradient><clipPath id="clip-path-31" transform="translate(0)"><path d="M106.58,242.51c0,1.88.5,3.42,1.1,3.42s1.1-1.54,1.1-3.42-.49-3.42-1.1-3.42-1.1,1.54-1.1,3.42" style="fill:none"/></clipPath><linearGradient id="linear-gradient-10" x1="63.05" y1="236.68" x2="63.83" y2="236.68" gradientTransform="matrix(2.19, 0, 0, -6.84, -138.39, 1862.12)" xlink:href="#linear-gradient-9"/><clipPath id="clip-path-33" transform="translate(0)"><path d="M99.23,253.18a2.91,2.91,0,0,0-2.93,2.89,1.47,1.47,0,0,0,0,.21l5.87,105.93a3.31,3.31,0,0,0,3.27,3.1H153a3.32,3.32,0,0,0,3.28-3.1l5.86-105.93a2.91,2.91,0,0,0-2.72-3.09H99.23Z" style="fill:none"/></clipPath><linearGradient id="linear-gradient-11" x1="200.44" y1="211.16" x2="200.46" y2="211.16" gradientTransform="matrix(66.04, 0, 0, -112.13, -13237.61, 23985.43)" xlink:href="#linear-gradient"/><clipPath id="clip-path-35" transform="translate(0)"><rect x="96.35" y="257.73" width="65.73" height="10.13" style="fill:none"/></clipPath><clipPath id="clip-path-36" transform="translate(0)"><path d="M161.52,267.86c.21-3.84-64.78-3.64-64.58,0l-.58-10,65.72-.12Z" style="fill:none"/></clipPath><linearGradient id="linear-gradient-12" x1="200.42" y1="227.87" x2="200.44" y2="227.87" gradientTransform="matrix(65.73, 0, 0, -10.13, -13172.68, 2570.4)" xlink:href="#linear-gradient-2"/><clipPath id="clip-path-37" transform="translate(0)"><path d="M95.17,248.63H163.3a2.13,2.13,0,0,1,2.13,2.14v4.83a2.13,2.13,0,0,1-2.13,2.13H95.17A2.13,2.13,0,0,1,93,255.6v-4.83a2.14,2.14,0,0,1,2.14-2.14Z" style="fill:none"/></clipPath><linearGradient id="linear-gradient-13" x1="200.88" y1="229.94" x2="200.91" y2="229.94" gradientTransform="matrix(72.4, 0, 0, -9.1, -14544.58, 2346.05)" xlink:href="#linear-gradient"/><linearGradient id="linear-gradient-14" x1="200.88" y1="229.94" x2="200.91" y2="229.94" gradientTransform="matrix(72.4, 0, 0, -9.1, -14544.58, 2346.05)" xlink:href="#linear-gradient-9"/><clipPath id="clip-path-39" transform="translate(0)"><path d="M93,252.25h72.56a.87.87,0,0,1,.86.86h0v3.77a.86.86,0,0,1-.86.85H93a.85.85,0,0,1-.85-.85h0v-3.77A.86.86,0,0,1,93,252.25Z" style="fill:none"/></clipPath><linearGradient id="linear-gradient-15" x1="201" y1="243.44" x2="201.02" y2="243.44" gradientTransform="matrix(74.27, 0, 0, -5.48, -14928.05, 1589.26)" xlink:href="#linear-gradient-9"/><clipPath id="clip-path-41" transform="translate(0)"><rect x="93.03" y="251.89" width="72.4" height="0.73" style="fill:none"/></clipPath><clipPath id="clip-path-42" transform="translate(0)"><rect x="113.72" y="289.96" width="30.66" height="29.19" style="fill:none"/></clipPath><clipPath id="clip-path-43" transform="translate(0)"><polygon points="104.1 242.44 96.36 248.63 161.59 248.63 153.84 242.44 104.1 242.44" style="fill:none"/></clipPath><linearGradient id="linear-gradient-16" x1="200.38" y1="239.55" x2="200.41" y2="239.55" gradientTransform="matrix(65.24, 0, 0, -6.19, -13072.64, 1728.13)" xlink:href="#linear-gradient-9"/><clipPath id="clip-path-45" transform="translate(0)"><path d="M301.36,218.93c-3.37,1.75-4.21,6.8-4.9,10.23A53.31,53.31,0,0,1,295,235c-.72,2-1.68,4-2.28,6a4.48,4.48,0,0,0-.09,3.41,5.77,5.77,0,0,0,6.84,1.85,4.5,4.5,0,0,0,1.64-3c.5-2.05.68-4.25,1.06-6.34a52.14,52.14,0,0,1,1.63-5.78c1.13-3.31,2.95-8.09.92-11.3l.56-2.19-3.31-.9Z" style="fill:none"/></clipPath><linearGradient id="linear-gradient-17" x1="200.24" y1="220.69" x2="200.29" y2="220.69" gradientTransform="matrix(32.92, 0, 0, -22.02, -6591.97, 5092.26)" xlink:href="#linear-gradient-9"/><clipPath id="clip-path-46" transform="translate(0)"><path d="M303.45,217.62c-.85-.23-1.49-.61-1.43-.86s.82-.25,1.67,0,1.49.62,1.43.86-.25.19-.57.19a4.58,4.58,0,0,1-1.1-.17m-1.55-.89c-.08.26.61.68,1.54.93s1.73.24,1.8,0-.62-.67-1.54-.92a4.83,4.83,0,0,0-1.19-.18c-.34,0-.58.07-.61.2" style="fill:none"/></clipPath><linearGradient id="linear-gradient-18" x1="126.98" y1="275.5" x2="127.74" y2="275.5" gradientTransform="matrix(2.26, 0, 0, -3.73, -286.94, 1245.91)" gradientUnits="userSpaceOnUse"><stop offset="0" stop-color="#a8d8d9"/><stop offset="1" stop-color="#7ed3f7"/></linearGradient><clipPath id="clip-path-48" transform="translate(0)"><rect x="301.24" y="218.5" width="3.85" height="1.06" style="fill:none"/></clipPath><linearGradient id="linear-gradient-19" x1="59.69" y1="477.4" x2="60.18" y2="477.4" gradientTransform="matrix(3.49, 0, 0, -0.69, -208, 550.48)" xlink:href="#linear-gradient-2"/><clipPath id="clip-path-49" transform="translate(0)"><rect x="301.33" y="218.17" width="3.85" height="1.06" style="fill:none"/></clipPath><linearGradient id="linear-gradient-20" x1="59.66" y1="477.42" x2="60.15" y2="477.42" gradientTransform="matrix(3.49, 0, 0, -0.69, -207.91, 550.15)" xlink:href="#linear-gradient-2"/><clipPath id="clip-path-50" transform="translate(0)"><rect x="301.42" y="217.85" width="3.85" height="1.06" style="fill:none"/></clipPath><linearGradient id="linear-gradient-21" x1="59.64" y1="477.39" x2="60.13" y2="477.39" gradientTransform="matrix(3.49, 0, 0, -0.69, -207.82, 549.84)" xlink:href="#linear-gradient-2"/><clipPath id="clip-path-51" transform="translate(0)"><rect x="301.51" y="217.52" width="3.85" height="1.06" style="fill:none"/></clipPath><linearGradient id="linear-gradient-22" x1="59.69" y1="477.41" x2="60.18" y2="477.41" gradientTransform="matrix(3.49, 0, 0, -0.69, -208.15, 549.5)" xlink:href="#linear-gradient-2"/><linearGradient id="linear-gradient-23" x1="59.75" y1="477.42" x2="60.25" y2="477.42" gradientTransform="matrix(3.49, 0, 0, -0.69, -208.24, 550.58)" xlink:href="#linear-gradient-9"/><linearGradient id="linear-gradient-24" x1="59.67" y1="475.15" x2="60.16" y2="475.15" gradientTransform="matrix(3.49, 0, 0, -0.7, -207.94, 551.5)" xlink:href="#linear-gradient-9"/><linearGradient id="linear-gradient-25" x1="59.64" y1="477.41" x2="60.14" y2="477.41" gradientTransform="matrix(3.49, 0, 0, -0.69, -207.85, 549.94)" xlink:href="#linear-gradient-9"/><linearGradient id="linear-gradient-26" x1="59.62" y1="478.17" x2="60.11" y2="478.17" gradientTransform="matrix(3.49, 0, 0, -0.69, -207.76, 549.19)" xlink:href="#linear-gradient-9"/><clipPath id="clip-path-52" transform="translate(0)"><rect x="295.69" y="217.2" width="9.9" height="29.54" style="fill:none"/></clipPath><clipPath id="clip-path-53" transform="translate(0)"><path d="M299.42,246.25a4.44,4.44,0,0,0,1.64-3c.5-2.06.68-4.26,1.07-6.35a52.1,52.1,0,0,1,1.62-5.78c1.13-3.31,2.95-8.09.92-11.3l.56-2.19-1.63-.44-7.91,29.3a5,5,0,0,0,3.73-.25" style="fill:none"/></clipPath><linearGradient id="linear-gradient-27" x1="199.95" y1="222.91" x2="200" y2="222.91" gradientTransform="matrix(31.53, 0, 0, -18.38, -6303.98, 4328.69)" xlink:href="#linear-gradient-2"/><clipPath id="clip-path-54" transform="translate(0)"><rect x="26.45" width="279.67" height="213.07" style="fill:none"/></clipPath></defs><g style="clip-path:url(#clip-path)"><g style="clip-path:url(#clip-path)"><path d="M434.56,365.07c0,16.6-97.28,30.06-217.28,30.06S0,381.67,0,365.07,97.28,335,217.28,335s217.28,13.45,217.28,30.06" transform="translate(0)" style="fill:#e8e5df"/><path d="M256.84,356.49c.12,2,1.05,3.66,2.08,3.66s1.93-1.64,2-3.66l.15-3.4c.08-2,.08-5.32,0-7.34l-.14-3c-.09-2-1-3.67-2-3.67s-2,1.65-2.08,3.67l-.19,3.11c-.12,2-.12,5.32,0,7.33Z" transform="translate(0)" style="fill:#272525"/><rect x="259.58" y="347.52" width="6.44" height="4.11" style="fill:#272525"/><path d="M322.73,356.49c-.12,2-1.05,3.66-2.08,3.66s-1.93-1.64-2-3.66l-.14-3.4c-.09-2-.09-5.32,0-7.34l.14-3c.09-2,1-3.67,2-3.67s2,1.65,2.08,3.67l.19,3.11c.12,2,.12,5.32,0,7.33Z" transform="translate(0)" style="fill:#272525"/><rect x="313.55" y="347.52" width="6.44" height="4.11" style="fill:#272525"/></g><g style="clip-path:url(#clip-path-3)"><rect x="256.84" y="253.18" width="66.05" height="112.13" style="fill:url(#linear-gradient)"/></g><g style="clip-path:url(#clip-path)"><g style="clip-path:url(#clip-path-5)"><g style="clip-path:url(#clip-path-6)"><rect x="256.98" y="257.73" width="65.73" height="10.13" style="fill:url(#linear-gradient-2)"/></g></g><path d="M320.64,249.49H259.2a.86.86,0,0,1-.86-.86h0a.85.85,0,0,1,.86-.85h61.44a.86.86,0,0,1,.86.85h0a.86.86,0,0,1-.86.86Z" transform="translate(0)" style="fill:#002a4c"/><path d="M317.48,250a.43.43,0,0,1-.43-.43v-6.05a.43.43,0,0,1,.43-.42h0a.42.42,0,0,1,.43.42h0v6.05A.43.43,0,0,1,317.48,250Z" transform="translate(0)" style="fill:#002a4c"/><path d="M262.87,250a.43.43,0,0,1-.43-.43v-6.05a.42.42,0,0,1,.43-.42h0a.42.42,0,0,1,.42.42h0v6.05A.42.42,0,0,1,262.87,250Z" transform="translate(0)" style="fill:#002a4c"/></g><g style="clip-path:url(#clip-path-7)"><rect x="256.95" y="181.5" width="65.31" height="62.44" style="fill:url(#linear-gradient-3)"/></g><g style="clip-path:url(#clip-path)"><g style="opacity:0.5"><g style="clip-path:url(#clip-path-9)"><path d="M259.12,186.46a3.36,3.36,0,0,1,2.85-3.1l25-1.78a45.28,45.28,0,0,1,5.21,0L317,183.35a3.41,3.41,0,0,1,2.87,3.1l2.25,27.67a29.67,29.67,0,0,1-.15,5.81l-3.51,21.12a3.31,3.31,0,0,1-3,2.89H263.54a3.28,3.28,0,0,1-3-2.9l-3.3-21.3a33.28,33.28,0,0,1-.15-5.82Z" transform="translate(0)" style="fill:#fff"/></g></g><g style="opacity:0.10000000149011612"><g style="clip-path:url(#clip-path-10)"><path d="M259.12,190.05a3.36,3.36,0,0,1,2.85-3.11l25-1.78a45.28,45.28,0,0,1,5.21,0L317,186.94a3.4,3.4,0,0,1,2.88,3.1l2.25,27.67c0,.1,0,.21,0,.32,0,.7-.1,1.36-.18,1.9l-3.51,21.12a3.31,3.31,0,0,1-3,2.89H263.54a3.28,3.28,0,0,1-3-2.9l-3.3-21.3c-.07-.55-.13-1.23-.17-1.94,0-.1,0-.2,0-.29Z" transform="translate(0)" style="fill:#fff"/></g></g></g><g style="clip-path:url(#clip-path-11)"><rect x="253.66" y="248.63" width="72.41" height="9.1" style="fill:url(#linear-gradient-4)"/></g><g style="clip-path:url(#clip-path-12)"><rect x="257.21" y="185.9" width="64.76" height="55.27" style="fill:#f4b83f"/></g><g style="clip-path:url(#clip-path)"><path d="M318.8,245H260.9a.86.86,0,0,1,0-1.71h57.9a.86.86,0,0,1,.86.85h0a.85.85,0,0,1-.86.86Z" transform="translate(0)" style="fill:#002a4c"/><g style="opacity:0.20000000298023224"><g style="clip-path:url(#clip-path-14)"><rect x="253.66" y="248.63" width="72.41" height="9.1" rx="2.14" style="fill:#fff"/></g></g></g><g style="clip-path:url(#clip-path-15)"><rect x="252.73" y="252.25" width="74.27" height="5.48" style="fill:url(#linear-gradient-5)"/></g><g style="clip-path:url(#clip-path)"><g style="opacity:0.5"><g style="clip-path:url(#clip-path-17)"><path d="M326.07,252.47H253.66V252h72.41Z" transform="translate(0)" style="fill:#fff"/></g></g><g style="opacity:0.5"><g style="clip-path:url(#clip-path-18)"><path d="M326.07,248.84H253.66v-.42h72.41Z" transform="translate(0)" style="fill:#fff"/></g></g><g style="opacity:0.699999988079071"><g style="clip-path:url(#clip-path-19)"><path d="M318.81,188.87a.22.22,0,0,1-.18-.1c-.15-.21-1.56-1-13.5-1.86-6.5-.48-13.66-.8-15.55-.8a.2.2,0,0,1-.22-.19.21.21,0,0,1,.19-.23h0c1.89,0,9.07.31,15.58.8,3.79.28,6.87.57,9.16.87,3.75.49,4.46.88,4.66,1.17a.22.22,0,0,1-.06.3.24.24,0,0,1-.12,0Z" transform="translate(0)" style="fill:#fff"/></g></g><g style="opacity:0.699999988079071"><g style="clip-path:url(#clip-path-20)"><path d="M260.37,188.87a.21.21,0,0,1-.21-.22.19.19,0,0,1,0-.12c.2-.28.9-.67,4.65-1.17,2.29-.3,5.37-.59,9.16-.87,6.51-.48,13.69-.8,15.58-.8a.22.22,0,0,1,0,.43h0c-1.88,0-9,.31-15.55.8-11.93.87-13.34,1.64-13.5,1.86A.22.22,0,0,1,260.37,188.87Z" transform="translate(0)" style="fill:#fff"/></g></g><g style="clip-path:url(#clip-path-21)"><path d="M286,300.76c-.37-.19-3.46-2-3.78-2.19s-.51-.52-.22-1c.84-1.5,3-5.19,3.71-6.43.9-1.55,6.85-1.53,7.82.05.79,1.26,2.94,5,3.76,6.49l1.28-.74s.47-.32.27.44-1.12,4.2-1.47,5.51c-.08.3-.28.44-.54.37l-5.7-1.52c-.7-.19-.06-.47-.06-.47l1.21-.7-2.68-4.64-2.72,4.69c-.19.34-.5.36-.87.17" transform="translate(0)" style="fill:#b2b4c1"/><path d="M293,310.06c.51-.51.44.19.44.19v1.4h5.35l-2.7-4.7c-.19-.34-.06-.62.29-.85s3.46-2,3.79-2.19.71-.17,1,.33c.87,1.49,3,5.19,3.71,6.43.89,1.55-2.1,6.7-4,6.75-1.49.05-5.84,0-7.5,0v1.48s0,.56-.52,0l-4-4a.43.43,0,0,1-.09-.6l0-.05,4.17-4.17" transform="translate(0)" style="fill:#b2b4c1"/><path d="M274.51,311.07c.7-1.31,2.9-5.07,3.75-6.5l-1.29-.74s-.5-.25.25-.46l5.51-1.47c.3-.08.52,0,.59.27l1.53,5.7c.19.7-.38.29-.38.29l-1.21-.7-2.68,4.64H286c.39,0,.57.26.59.68s0,4,0,4.37-.2.71-.79.71c-1.72,0-6,0-7.41,0-1.8,0-4.76-5.16-3.88-6.8" transform="translate(0)" style="fill:#b2b4c1"/></g><path d="M286.22,300.53c-.37-.19-3.46-2-3.78-2.18s-.51-.53-.22-1c.84-1.5,3-5.19,3.7-6.43.9-1.55,6.86-1.53,7.83.05.79,1.26,2.94,5.05,3.76,6.49l1.28-.74s.47-.31.27.44-1.12,4.2-1.47,5.51c-.08.3-.28.44-.54.37l-5.7-1.52c-.7-.19-.06-.47-.06-.47l1.21-.7-2.68-4.64-2.72,4.69c-.19.34-.5.36-.88.17" transform="translate(0)" style="fill:#fff"/><path d="M293.14,309.83c.52-.51.44.19.44.19v1.4h5.36l-2.7-4.7c-.19-.33-.07-.62.29-.85s3.46-2,3.78-2.19.71-.17,1,.33c.88,1.49,3,5.19,3.71,6.43.9,1.55-2.1,6.7-3.95,6.75-1.48.05-5.84,0-7.5,0v1.48s0,.56-.52,0-3.08-3.08-4-4a.42.42,0,0,1-.1-.6l0-.05,4.17-4.17" transform="translate(0)" style="fill:#fff"/><path d="M274.69,310.84c.7-1.31,2.9-5.07,3.75-6.5l-1.29-.74s-.5-.25.25-.46l5.52-1.47c.3-.08.52,0,.58.27l1.53,5.7c.19.7-.38.29-.38.29l-1.21-.7-2.68,4.64,5.43,0c.39,0,.57.25.59.67s0,4,0,4.37-.2.7-.79.72c-1.72,0-6,0-7.42,0-1.79,0-4.75-5.17-3.87-6.8" transform="translate(0)" style="fill:#fff"/><path d="M230,242.51c0,1.88.49,3.42,1.1,3.42s1.1-1.54,1.1-3.42-.5-3.42-1.1-3.42-1.1,1.54-1.1,3.42" transform="translate(0)" style="fill:#6bad52"/><path d="M187.42,242.51c0,1.88.49,3.42,1.1,3.42s1.1-1.54,1.1-3.42-.5-3.42-1.1-3.42-1.1,1.54-1.1,3.42" transform="translate(0)" style="fill:#6bad52"/><path d="M177,356.49c.12,2,1.05,3.66,2.08,3.66s1.93-1.64,2-3.66l.15-3.4c.09-2,.08-5.32,0-7.34l-.13-3c-.1-2-1-3.67-2-3.67s-2,1.65-2.08,3.67l-.19,3.12c-.12,2-.12,5.31,0,7.32Z" transform="translate(0)" style="fill:#272525"/><rect x="179.78" y="347.52" width="6.44" height="4.11" style="fill:#272525"/><path d="M242.93,356.49c-.12,2-1.05,3.66-2.08,3.66s-1.93-1.64-2-3.66l-.14-3.4c-.09-2-.09-5.32,0-7.34l.14-3c.09-2,1-3.67,2-3.67s2,1.65,2.08,3.67l.19,3.11c.12,2,.12,5.32,0,7.33Z" transform="translate(0)" style="fill:#272525"/><rect x="233.75" y="347.52" width="6.44" height="4.11" style="fill:#272525"/></g><g style="clip-path:url(#clip-path-22)"><rect x="177.04" y="253.18" width="66.04" height="112.13" style="fill:url(#linear-gradient-6)"/></g><g style="clip-path:url(#clip-path)"><g style="clip-path:url(#clip-path-24)"><g style="clip-path:url(#clip-path-25)"><rect x="177.18" y="257.73" width="65.73" height="10.13" style="fill:url(#linear-gradient-7)"/></g></g></g><g style="clip-path:url(#clip-path-26)"><rect x="173.86" y="248.63" width="72.41" height="9.1" style="fill:url(#linear-gradient-8)"/></g><g style="clip-path:url(#clip-path)"><rect x="173.86" y="248.63" width="72.41" height="9.1" rx="2.14" style="fill:#6bad52"/><rect x="172.93" y="252.25" width="74.27" height="5.48" rx="0.86" style="fill:#6dc253"/><g style="opacity:0.5"><g style="clip-path:url(#clip-path-28)"><path d="M246.27,252.47H173.86V252h72.41Z" transform="translate(0)" style="fill:#fff"/></g></g><g style="clip-path:url(#clip-path-29)"><path d="M206.25,300.76c-.38-.19-3.47-2-3.79-2.19s-.51-.52-.22-1c.85-1.5,3-5.19,3.71-6.43.9-1.55,6.85-1.53,7.82.05.79,1.26,2.94,5,3.76,6.49l1.28-.74s.47-.32.27.44-1.12,4.2-1.47,5.51c-.08.3-.28.44-.54.37l-5.7-1.52c-.7-.19-.06-.47-.06-.47l1.21-.7-2.67-4.64-2.72,4.69c-.19.33-.5.36-.88.17" transform="translate(0)" style="fill:#b2b4c1"/><path d="M213.16,310.06c.52-.51.44.19.44.19v1.4H219l-2.7-4.7c-.19-.33-.06-.62.29-.85s3.46-2,3.79-2.19.71-.17,1,.33c.87,1.49,3,5.19,3.71,6.43.89,1.55-2.1,6.7-3.95,6.75-1.49.05-5.84,0-7.5,0v1.48s0,.56-.52,0-3.08-3.08-4-4a.44.44,0,0,1-.1-.6l.05-.05,4.17-4.17" transform="translate(0)" style="fill:#b2b4c1"/><path d="M194.71,311.07c.7-1.31,2.91-5.07,3.75-6.5l-1.29-.74s-.5-.25.25-.46l5.51-1.47c.3-.08.52,0,.59.27l1.53,5.7c.19.7-.38.29-.38.29l-1.21-.7-2.68,4.64h5.43c.38,0,.56.26.58.68s0,4,0,4.37-.2.71-.78.71c-1.73,0-6,0-7.42,0-1.8,0-4.76-5.16-3.88-6.8" transform="translate(0)" style="fill:#b2b4c1"/></g><path d="M206.42,300.53c-.37-.19-3.46-2-3.78-2.18s-.51-.53-.22-1c.85-1.5,3-5.19,3.71-6.43.9-1.55,6.85-1.53,7.82.05.78,1.26,2.94,5.05,3.76,6.49l1.28-.74s.47-.31.27.44-1.12,4.2-1.48,5.51c-.07.3-.28.44-.53.37l-5.7-1.52c-.7-.19-.06-.47-.06-.47l1.21-.7L210,295.67l-2.72,4.69c-.19.34-.5.36-.88.17" transform="translate(0)" style="fill:#fff"/><path d="M213.34,309.83c.52-.51.44.19.44.19v1.4h5.36l-2.7-4.7c-.19-.33-.06-.62.29-.85s3.46-2,3.79-2.19.71-.17,1,.33c.87,1.49,3,5.19,3.7,6.43.9,1.55-2.1,6.7-3.95,6.75-1.48.05-5.83,0-7.5,0v1.48s0,.56-.52,0-3.08-3.08-4-4a.43.43,0,0,1-.1-.6l0-.05,4.17-4.18" transform="translate(0)" style="fill:#fff"/><path d="M194.89,310.84c.7-1.31,2.9-5.07,3.75-6.5l-1.29-.74s-.5-.25.25-.46l5.52-1.47c.3-.08.51,0,.58.27l1.53,5.7c.19.7-.38.29-.38.29l-1.21-.7L201,311.87h5.42c.39,0,.57.26.59.68s0,4,0,4.37-.2.7-.78.71c-1.73,0-6,0-7.42,0-1.79,0-4.75-5.17-3.88-6.8" transform="translate(0)" style="fill:#fff"/><path d="M184.93,242.45h49.75l7.74,6.18H177.18Z" transform="translate(0)" style="fill:#6dc253"/></g><g style="clip-path:url(#clip-path-30)"><rect x="149.2" y="239.09" width="2.19" height="6.84" style="fill:url(#linear-gradient-9)"/></g><g style="clip-path:url(#clip-path-31)"><rect x="106.58" y="239.09" width="2.19" height="6.84" style="fill:url(#linear-gradient-10)"/></g><g style="clip-path:url(#clip-path)"><path d="M96.21,356.49c.12,2,1.05,3.66,2.07,3.66s1.94-1.64,2-3.66l.14-3.4c.09-2,.09-5.32,0-7.34l-.14-3c-.09-2-1-3.67-2-3.67s-2,1.65-2.07,3.67L96,345.83c-.12,2-.12,5.32,0,7.33Z" transform="translate(0)" style="fill:#272525"/><rect x="98.95" y="347.52" width="6.44" height="4.11" style="fill:#272525"/><path d="M162.1,356.49c-.12,2-1,3.66-2.08,3.66s-1.93-1.64-2-3.66l-.15-3.4c-.09-2-.08-5.32,0-7.34l.13-3c.1-2,1-3.67,2-3.67s2,1.65,2.08,3.67l.19,3.11c.12,2,.12,5.32,0,7.33Z" transform="translate(0)" style="fill:#272525"/><rect x="152.92" y="347.52" width="6.44" height="4.11" style="fill:#272525"/></g><g style="clip-path:url(#clip-path-33)"><rect x="96.21" y="253.18" width="66.04" height="112.13" style="fill:url(#linear-gradient-11)"/></g><g style="clip-path:url(#clip-path)"><g style="clip-path:url(#clip-path-35)"><g style="clip-path:url(#clip-path-36)"><rect x="96.35" y="257.73" width="65.73" height="10.13" style="fill:url(#linear-gradient-12)"/></g></g></g><g style="clip-path:url(#clip-path-37)"><rect x="93.03" y="248.63" width="72.4" height="9.1" style="fill:url(#linear-gradient-13)"/></g><g style="clip-path:url(#clip-path-37)"><rect x="93.03" y="248.63" width="72.4" height="9.1" style="fill:url(#linear-gradient-14)"/></g><g style="clip-path:url(#clip-path-39)"><rect x="92.1" y="252.25" width="74.27" height="5.48" style="fill:url(#linear-gradient-15)"/></g><g style="clip-path:url(#clip-path)"><g style="opacity:0.5"><g style="clip-path:url(#clip-path-41)"><path d="M165.43,252.47H93V252h72.4Z" transform="translate(0)" style="fill:#fff"/></g></g><g style="clip-path:url(#clip-path-42)"><path d="M125.41,300.76c-.38-.19-3.46-2-3.79-2.19s-.5-.52-.22-1c.85-1.5,3-5.19,3.71-6.43.9-1.55,6.85-1.53,7.83.05.78,1.26,2.93,5,3.75,6.49l1.29-.74s.46-.32.27.44-1.12,4.2-1.48,5.51c-.08.3-.28.44-.53.37l-5.7-1.52c-.7-.19-.06-.47-.06-.47l1.21-.7L129,295.9l-2.72,4.69c-.19.34-.5.36-.88.17" transform="translate(0)" style="fill:#b2b4c1"/><path d="M132.33,310.06c.51-.51.44.19.44.19v1.4h5.35s-2.5-4.37-2.7-4.7-.06-.62.29-.85,3.46-2,3.79-2.19.71-.17,1,.33c.87,1.49,3,5.19,3.71,6.43.9,1.55-2.1,6.7-3.95,6.75-1.49.05-5.84,0-7.5,0v1.48s0,.56-.52,0-3.08-3.08-4-4a.44.44,0,0,1-.1-.6l0-.05,4.17-4.17" transform="translate(0)" style="fill:#b2b4c1"/><path d="M113.88,311.07c.7-1.31,2.9-5.07,3.75-6.5l-1.29-.75s-.5-.24.25-.45,4.2-1.13,5.51-1.48a.43.43,0,0,1,.59.28l1.53,5.7c.19.7-.38.29-.38.29l-1.21-.7L120,312.1h5.42c.39,0,.57.26.59.68s0,4,0,4.37-.2.71-.79.71h-7.41c-1.79,0-4.76-5.17-3.88-6.8" transform="translate(0)" style="fill:#b2b4c1"/></g><path d="M125.59,300.53c-.37-.19-3.46-2-3.78-2.18s-.51-.53-.22-1c.84-1.5,3-5.19,3.71-6.43.9-1.55,6.84-1.53,7.82.05.79,1.26,2.94,5.05,3.76,6.49l1.28-.74s.47-.31.27.44-1.12,4.2-1.48,5.51c-.08.3-.27.44-.53.37l-5.7-1.52c-.7-.19-.06-.47-.06-.47l1.21-.7-2.68-4.64s-2.53,4.35-2.72,4.69-.5.36-.88.17" transform="translate(0)" style="fill:#fff"/><path d="M132.51,309.83c.51-.51.43.19.43.19v1.4h5.36l-2.7-4.7c-.19-.33-.06-.62.3-.85s3.45-2,3.78-2.19.71-.17,1,.33c.87,1.49,3,5.19,3.71,6.43.9,1.55-2.1,6.7-4,6.75-1.49.05-5.84,0-7.5,0v1.48s0,.56-.52,0-3.07-3.08-4-4a.42.42,0,0,1-.1-.6l0-.05,4.17-4.17" transform="translate(0)" style="fill:#fff"/><path d="M114.06,310.84c.7-1.31,2.9-5.07,3.75-6.5l-1.29-.74s-.5-.25.25-.46l5.51-1.47c.3-.08.52,0,.59.27l1.53,5.7c.19.7-.38.29-.38.29l-1.21-.7-2.68,4.64,5.42,0c.39,0,.57.25.59.67s0,4,0,4.37-.2.7-.79.72c-1.72,0-6,0-7.41,0-1.8,0-4.76-5.17-3.88-6.8" transform="translate(0)" style="fill:#fff"/></g><g style="clip-path:url(#clip-path-43)"><rect x="96.35" y="242.44" width="65.24" height="6.19" style="fill:url(#linear-gradient-16)"/></g><g style="clip-path:url(#clip-path)"><path d="M410.61,269.27c4.19-11.75,5.46-32.68,4-36.69a40.8,40.8,0,0,0-2.69-10.81l-1.26-1.12-1.84-.55s-5.32,2.8-5.7,3.14-3.64,5-3.64,5l.28,1.65c1.5,3.82,2.52,3.81,4.31,6.52-1.2,4.29,2.35,25.12.8,33.42a3.78,3.78,0,0,1-1.29,2.16c-1.31,1.09-2,7-1.05,7,2.6-.1,1.76-2.3,3-4.25a5.51,5.51,0,0,1-2.68,7.31c-.22.09-.44.18-.67.25.6,2.83,7-1.26,8.7-3.15,1.87-2.05,1-5.94-.2-7.87a3.39,3.39,0,0,1-.07-2" transform="translate(0)" style="fill:#7f5e40"/><path d="M309.28,217.88c1.66,1.34,6.49-.9,12.29-2.25,4.95-1,8-2,13-2.37,2.72-.34,5.25-.34,7.84-1.36a32.2,32.2,0,0,0,5.16-2.4l3.42,2.28-.39,9.52c-7,1.52-17.66,1.71-20.77,1.73-7.61,0-10.22.89-17.67,1.06-3.26,0-4.09.54-7.07,1.16s-3.33-1.62-6-1.31c-2.59,0-3-6.22-1.38-8.23.76-.93,3.08-1.12,5.21-1.08,3.44.06,4,1.4,6.39,3.25" transform="translate(0)" style="fill:#7f5e40"/><path d="M407.49,346.12a84.18,84.18,0,0,1,1.49,8.8c.14,3.43-1.16,7.63-3.64,8.76-6.78,3.07-9.08-3.17-5.71-10a35.64,35.64,0,0,0,2.36-3.62c.37-.89,5.5-3.95,5.5-3.95" transform="translate(0)" style="fill:#272525"/><path d="M365.14,351.49c.26,1.25,1.43,5.67,1.38,6.91,0,2.49-2.46,2-4.46,2.8a17.55,17.55,0,0,1-4.41,1.45,23.08,23.08,0,0,1-11.26-.32c-3.68-1-1-3.41,1.1-4.13,2.93-.73,8.28-4,9.28-6.24a3.68,3.68,0,0,0,1.55-.47c.33-.33,6.81,0,6.81,0" transform="translate(0)" style="fill:#272525"/><path d="M398.54,264.94c3.4,1.82,2.22,30.19,3.19,40.65.23,2.47,1.79,3.37,3.4,10.31,2.57,11.1,3.3,29.68,1.48,33.8-1.25,2.84-4.93,4.15-8.36,2.76-3.19-1.3-6.45-17.53-10.76-36.75-1.53-6.84-7.06-19-8.71-26a29,29,0,0,0-.63-3.19c-1.32,2.15-2.63,4.32-3.93,6.49-1.87,2.91-4.31,5.63-6,8.54-1.26,2.13-3.56,5.67-2.34,7.68,2.76,4.57,3.58,18.2,1.17,29.46-.76,4.26-.82,9.14-1.93,12.8-.54,1.78-8.34,2.05-8.9-.3-1.39-5.95-1.43-12.23-1.75-18.44-.5-11.25-5.13-21.67-3.41-28.13s7.06-30.39,13.93-43.24a27.92,27.92,0,0,0,1.11-2.79c0-.31,31.33,2.79,31.33,2.79Z" transform="translate(0)" style="fill:#242426"/><path d="M388.1,197.61c4.44,1.68,11.88,4.51,14.54,6.75s6.88,9.89,9.25,17.34h0c-2.69-2.28-11.59,2.92-12.2,8.2.77,10.27.34,18,.38,28.25-.08,1.86-.24,5.69-1.12,7a16.77,16.77,0,0,1-8.47-.2c-8-1.66-21.81-7.86-26.12-2.9l0-.47c.31-7.49-.6-33.66.64-43.82-4.12,1.52-13.35,3.72-17.62,4.74-4.12-.62-4.39-8.9-3-11.79,2-1.1,5.63-3.06,7.62-4,8.48-4.15,14.36-5.58,23.56-7.46" transform="translate(0)" style="fill:#4094bb"/><path d="M373.82,197.08c.09.24.1-.09,1.34-.32.54-.1-.89,2.43-1.25,2.84-1.34,1.49,4,7.29,5.63,7.11,3.65-.38,7.27-6.25,8.56-9.1-1.35-3-1.75-5.11-.94-9.66l-.65-4.35c.59-4.16,1.29-3.4-1.71-6.07-6.75-5.79-15.71-2.19-15.38,7.77,0,1,.76,2.7.89,4.43.32,4.27,1,7.62,3.51,7.35" transform="translate(0)" style="fill:#7f5e40"/><path d="M369,179.44c.74,1.95,4.62-.62,8.56.72a7.45,7.45,0,0,1,4.76,5.7c.7-2.53,3.13-1.64,2.93.23a4.32,4.32,0,0,1-1.67,3.38c1.54-.42,2.7-.51,3.15,1.16.2.06,1.58-3.95,1.76-5.56.51-4.72.55-6.59-1.18-9-3.14-4.42-9.41-5.45-14.31-2.19s-4,5.58-4,5.58" transform="translate(0)" style="fill:#272525"/><path d="M370.41,186.42c-.47,1.58-1.75,4.29-1.4,4.86s1.76-.24,2.49-.19" transform="translate(0)" style="fill:#7f5e40"/><path d="M373.82,197.08c1-.34,7-2.68,7.32-5.93,0,0,1.2,4.72-7.32,5.93" transform="translate(0)" style="fill:#6b4e2f"/></g><g style="clip-path:url(#clip-path-45)"><rect x="282.91" y="220.81" width="32.92" height="22.02" transform="translate(-2.58 460.28) rotate(-74.87)" style="fill:url(#linear-gradient-17)"/></g><g style="clip-path:url(#clip-path-46)"><rect x="302.44" y="215.34" width="2.26" height="3.73" transform="matrix(0.26, -0.97, 0.97, 0.26, 14.68, 453.6)" style="fill:url(#linear-gradient-18)"/></g><g style="clip-path:url(#clip-path)"><path d="M305.12,217.6c.06-.24-.58-.63-1.43-.86s-1.6-.22-1.67,0,.58.63,1.43.86,1.6.22,1.67,0" transform="translate(0)" style="fill:#002a4c"/><g style="clip-path:url(#clip-path-48)"><path d="M301.42,218.68a4.54,4.54,0,0,0,2.48.7c.56,0,1-.11,1-.25h0c0,.14-.45.25-1,.25A4.54,4.54,0,0,1,301.42,218.68Z" transform="translate(0)" style="fill:url(#linear-gradient-19)"/></g><g style="clip-path:url(#clip-path-49)"><path d="M301.51,218.36a4.6,4.6,0,0,0,2.48.69c.56,0,1-.1,1-.24h0c0,.13-.45.24-1,.24A4.6,4.6,0,0,1,301.51,218.36Z" transform="translate(0)" style="fill:url(#linear-gradient-20)"/></g><g style="clip-path:url(#clip-path-50)"><path d="M301.6,218a4.51,4.51,0,0,0,2.47.7c.57,0,1-.11,1-.25h0c0,.14-.45.25-1,.25A4.51,4.51,0,0,1,301.6,218Z" transform="translate(0)" style="fill:url(#linear-gradient-21)"/></g><g style="clip-path:url(#clip-path-51)"><path d="M301.69,217.71a4.59,4.59,0,0,0,2.47.69c.57,0,1-.11,1-.25h0c0,.14-.45.25-1,.25A4.59,4.59,0,0,1,301.69,217.71Z" transform="translate(0)" style="fill:url(#linear-gradient-22)"/></g><path d="M301.4,218.79a4.59,4.59,0,0,0,2.47.69c.56,0,1-.11,1-.25h0c0,.14-.45.25-1,.25A4.59,4.59,0,0,1,301.4,218.79Z" transform="translate(0)" style="fill:url(#linear-gradient-23)"/><path d="M301.48,218.46a4.63,4.63,0,0,0,2.48.7c.56,0,1-.11,1-.25h0c0,.14-.45.25-1,.25A4.63,4.63,0,0,1,301.48,218.46Z" transform="translate(0)" style="fill:url(#linear-gradient-24)"/><path d="M301.57,218.14a4.59,4.59,0,0,0,2.47.69c.57,0,1-.1,1-.24h0c0,.14-.45.24-1,.24A4.59,4.59,0,0,1,301.57,218.14Z" transform="translate(0)" style="fill:url(#linear-gradient-25)"/><path d="M301.66,217.81a4.59,4.59,0,0,0,2.47.69c.57,0,1-.1,1-.24h0c0,.13-.45.24-1,.24A4.59,4.59,0,0,1,301.66,217.81Z" transform="translate(0)" style="fill:url(#linear-gradient-26)"/><g style="opacity:0.5"><g style="clip-path:url(#clip-path-52)"><g style="clip-path:url(#clip-path-53)"><rect x="285.43" y="222.86" width="31.53" height="18.38" transform="matrix(0.26, -0.97, 0.97, 0.26, -1.45, 462.21)" style="fill:url(#linear-gradient-27)"/></g></g></g><path d="M302.86,234c-.43,1.61-7.25-1.1-7-2.23,0,0-.85,3.12-1.58,4.92-1,2.5,7.18,4.66,7.39,2.79a46.44,46.44,0,0,1,1.17-5.48" transform="translate(0)" style="fill:#002a4c"/><path d="M308.32,220.81c-2.75,1.22-6.7.54-9.82.14-.21-.56-.28-1.82.29-2.15,2.77-1.73,7.63.52,10.47,1" transform="translate(0)" style="fill:#7f5e40"/><path d="M52.85,347.26c-.19.47-.24,2.4.63,2.92,1.85,1.11,2.75,1.39,4.84,2.69,1.42.88,3.57,2.77,5.21,3.29a17.26,17.26,0,0,0,6,.79c2.28-.24,4.13-.89,4.23-3.35A3.47,3.47,0,0,0,72.38,351c-1.21-.8-5.9-.91-8.37-2-2.63-1.16-5.28-2.23-7.8-3.49-1.14-.56-3.3,1.46-3.35,1.77" transform="translate(0)" style="fill:#e5b56a"/><path d="M53.53,348.71c-1.37-1.13-.31-2.88-.14-4.28.1-.83,0-2.15.62-2.78.9-.87,2.91-.27,4-.23a8.12,8.12,0,0,1,3,.33c.78.44.88,1.67,1.46,2.32,1.54,1.76,3.83,2.48,5.85,3.6s5,2.8,5.35,5.5a2.24,2.24,0,0,1-1.27,2.21c-2.88,1.32-6.83.29-9.63-1.18C60.5,353,58.69,351,56.29,350a10.44,10.44,0,0,1-2.76-1.26" transform="translate(0)" style="fill:#202021"/><path d="M59.79,328.78c-1.56.76-2.18-.08-3.73.54l-2.24,9.74c0,1,0,2.79,0,2.79a2.46,2.46,0,0,0,1.78,1.88c1.22.41,1.92.44,3.23-.82a2.66,2.66,0,0,1,2-.83Z" transform="translate(0)" style="fill:#f7c39f"/><path d="M49.1,317.73a30.28,30.28,0,0,0,1.43,8.5,59.85,59.85,0,0,1,2.93,14.87c0,1.69,7.31,1.33,7.55-.4,0-2.53.48-24.77.59-29.43,0-.57,0-1.13,0-1.71-.52-8.59-2.95-26.17-4.11-34.5-.26-1.88-1.76-8.36-3.27-9.51-3-2.3-6.9-6.2-10.4-.1a20.83,20.83,0,0,0-2.72,7.09c-2.39,9.82,6.67,38.65,6.67,38.65a20.35,20.35,0,0,1,1.35,6.54" transform="translate(0)" style="fill:#242426"/><path d="M29.42,360.05a4.37,4.37,0,0,0,.27,3.29c2.67,4,6.46,8.9,10,9.39,3.11.43,7.91-1.38,8.46-3.17.4-1.3-.87-3.74-.87-3.74-.8-1.07-5.53-.83-7.35-2.54s-4.69-2.59-7-3.89c-1-.58-3.44.38-3.51.66" transform="translate(0)" style="fill:#e5b56a"/><path d="M29.94,362.35c-1.12-2.27-.25-2.49-.34-3.65-.13-1.53-.18-3.15.29-3.74a2.6,2.6,0,0,1,.73-.59,4.77,4.77,0,0,1,2.68-.52,7,7,0,0,1,3.77,1c.85.49.45,1.23,1.23,2.68.91,1.71,8.58,6,9.55,9.66.29,1.08-2.92,3.74-7.63,3.69-4.28,0-9.87-7.66-10.28-8.5" transform="translate(0)" style="fill:#202021"/><path d="M36.77,355.4c-4.92-.59-6.21,5.77-6.91-2.26h0c.05,0,5.66-6,6.43-5.91Z" transform="translate(0)" style="fill:#f7c39f"/><path d="M29.8,353.88c.29,1.53,5.89,1.52,7.05-.22,1.48-15.56,3-28.4,3.86-32.65,2.17-24,11.07-56.79,1.26-55.58-3.14.39-7.43-1-11.91,6.88-1.77,3.1-4.69,5.87-5.4,13-1,10,4,21.46,2.81,38.18-.84,9,2,25,2.33,30.36" transform="translate(0)" style="fill:#242426"/><path d="M78.7,242.56c-2.43-.17-16.16-1.1-16.4-1.37-1.36-8.55-2.41-11.55-3.46-16.53-.47-2.25-1-4.49-1.64-6.7-1.06-3.78-2.18-6.44-5.67-6.7-11.42-.85,4.06,35.74,5.83,37.06.6.44,8.8,1.18,20.62-.95,1.33-.24,2-4.77.72-4.81" transform="translate(0)" style="fill:#bf532e"/><path d="M58.72,230a19.25,19.25,0,0,0-1.41-4.16,33.76,33.76,0,0,1-2-6.76c-.83-4.4-1.34-7.14-3.3-7.76a2.88,2.88,0,0,0-2.13.3c-.52.25-18.17,9.46-18.89,9.82a11,11,0,0,0-2.89,2.14c-1.47,1.64,1,12.09,2.2,25.31,1.52,16.63-2.21,23.16-3.85,27.57,3.28,4.67,11.75,5.13,17.92,4.27,5.5-.76,14.06-3.51,13.11-9-1-5.91-2.05-11.16-2.26-15.1-.68-12.72,3.56-17.12,3.53-26.6" transform="translate(0)" style="fill:#d35b30"/><path d="M34.63,195a.54.54,0,0,1,.7-.12c.63.37,1.79,1.21,1.79,1.21.75.86,4.35.31,5.11-.5a1.36,1.36,0,0,0,.27-1.92l-.1-.12a8.68,8.68,0,0,0-1.57-1.26,28.53,28.53,0,0,0-2.58-1.61,3.35,3.35,0,0,0-1.45-2.58c-1.76-1.49-5.62-1.64-7.58-1.09-2.53.72-8.58,4.06-9.13,12.39-.3,4.52,2.72,11.73.87,14.73a3.94,3.94,0,0,0,1.91-.93,10.41,10.41,0,0,1-3.45,3.44c1.32.1,3.68-.65,4.22-2-.32,1-4.39,4.75-5.42,4.77a13.25,13.25,0,0,0,11.38-7,11.18,11.18,0,0,1-.65,3.19C35,212,32.42,197.75,34.64,195" transform="translate(0)" style="fill:#302625"/><path d="M43.15,194.24a8.74,8.74,0,0,0-1.62-1.48c-.86-.69-1.83-1.39-2.78-2.15-1.87-1.52-5.38,2.94-4,4.32.21.24,2.53,1.7,2.53,1.7.75,1,4.69.64,5.57-.2a1.49,1.49,0,0,0,.43-2.06l-.1-.14" transform="translate(0)" style="fill:#6fa3d5"/><path d="M37.08,209.87c.63-.86,2.29-.41,3.3-.36,1.6.09,3.2.18,4.78.37.39.05,2.37.13,2.45.7.15,1,1.32,3.19,1.35,4.2a24.24,24.24,0,0,1,1.14,5.59c.28,5.32-3.75,5.8-6.84,4.2a16,16,0,0,1-5.91-5.84c.59-3.66-1-6.12-.63-7.49.1-.46.22-.92.36-1.37" transform="translate(0)" style="fill:#f0b790"/><path d="M49.51,215.47c-.45,1.54-.95,3.4-2.46,3.86-1.82.56-6.52-1.62-8.75-4.5-2.6-3.35-3-7.23-2.1-9.6a16.42,16.42,0,0,1,4.54-5.5,15.11,15.11,0,0,1,3.84-1.95c3.86-1.46,7.13-1.14,7.17,2.68a44.87,44.87,0,0,1-.09,5.68,32.48,32.48,0,0,1-2.15,9.33" transform="translate(0)" style="fill:#f7c39f"/><path d="M51.67,206.43c.94-1.2,2.81-11.47-3.7-14.78a8.21,8.21,0,0,0-8.38.32c-4.9.64-7.55,3.18-8.5,8.1-.38,2,.15,4.11.43,6.07a12.26,12.26,0,0,0,1.1,3.41,11,11,0,0,0,2,2.95A6.85,6.85,0,0,0,36,213.58c.23.13.51.35.8.27s.42-.5.37-.83a3.15,3.15,0,0,0-.2-.92c-.6-1.35-1.31-3.38.05-4.56,1.08-.93,2.07-.11,2.53.68a.34.34,0,0,0,.46.13.31.31,0,0,0,.14-.18,12.16,12.16,0,0,1,1.78-3.89c1.2-1.81,6.39-4.24,8.54-2.9,1.58,1,1.2,5.06,1.2,5.06" transform="translate(0)" style="fill:#302625"/><path d="M36.13,264.46a138.1,138.1,0,0,1-12.25-10.33c3.91-7.83,4.82-10.91,6.9-15.61.94-2.12,1.81-4.28,2.61-6.46,1.35-3.72,2-6.56-.65-8.78-8.7-7.25-17.67,31.78-17,33.88.22.72,5.86,6.66,17.88,11.13,1.2.57,3.51-3.09,2.53-3.83" transform="translate(0)" style="fill:#d35b30"/><path d="M45,267.75a22,22,0,0,0-2.57.05s-3-1.53-2.59-1.74a13.33,13.33,0,0,1,1.34-.52c.6,0,1.64.3,2.17.09.73-.3.12-.73-.46-1a14,14,0,0,0-3.32-.79,33.55,33.55,0,0,0-3.57.82c-1.64-.48-3,3.18-2.17,3.49,0,0,4.79,3.52,5.59,3.89.44.2,3.46.49,4.06-.2a4.73,4.73,0,0,1,.57-.43,3.5,3.5,0,0,0,.8-.73,4.55,4.55,0,0,1,.78-.8,7.73,7.73,0,0,0,.71-1.33c.12-.41-.88-.79-1.34-.84" transform="translate(0)" style="fill:#f7c39f"/><path d="M88.52,243.51a23.38,23.38,0,0,0-2.48.7s-3.33-.7-3-1,1.17-.83,1.17-.83c.57-.19,1.67-.13,2.13-.47.63-.47-.07-.73-.7-.81a14.07,14.07,0,0,0-3.43.09,31.38,31.38,0,0,0-3.25,1.7c-1.72-.05-2.1,3.82-1.2,3.9,0,0,5.56,2.17,6.43,2.32a3.67,3.67,0,0,0,2.88-1c1-.84,2.93-2.88,2.94-4.07,0-.42-1.06-.53-1.52-.47" transform="translate(0)" style="fill:#f7c39f"/><path d="M83.21,250.39c-.95-.5-3.93-2-4.41-2.29-.64-.38,0-.94.5-1.34.09-.07,5.66-5.53,7.43-7.27a.31.31,0,0,1,.33-.06c.63.27,3.54,1.48,4.61,2a.48.48,0,0,1,.24.63.5.5,0,0,1-.1.14c-1.64,1.68-7,7.2-7.9,8.12a.58.58,0,0,1-.69.11" transform="translate(0)" style="fill:#494242"/><path d="M79.5,247l7.32-7.26,4.41,2-7.41,7.48Z" transform="translate(0)" style="fill:#5ea4bc"/><path d="M79,243a6.62,6.62,0,0,0,2.73,1.15c.39-.33,2.5-1.75,2.5-1.75.56-.19,1.67-.13,2.13-.47.63-.46-.07-.73-.7-.8a13.59,13.59,0,0,0-3.43.08,31.38,31.38,0,0,0-3.25,1.7s0,.06,0,.09" transform="translate(0)" style="fill:#f7c39f"/></g></g><g style="clip-path:url(#clip-path-54)"><path d="M166.28,0C89.05,0,26.45,45.1,26.45,100.74c0,33,22,62.27,56,80.65-.32,6.46-2.75,19.88-16.33,31.37,0,0,23.15,4.45,41.86-20.45a186,186,0,0,0,58.27,9.17c77.23,0,139.83-45.1,139.83-100.74S243.51,0,166.28,0" transform="translate(0)" style="fill:#e8e5df"/></g></svg>