<svg xmlns="http://www.w3.org/2000/svg" width="212.159" height="59.052" viewBox="0 0 212.159 59.052"><path d="M2432.935,720.609c-5.762,0-8.431,4.062-8.431,8.625v3.6c0,4.6,2.127,8.623,8.391,8.623a16.3,16.3,0,0,0,5.993-1.121,2.4,2.4,0,0,0,1.354-2.939,2.193,2.193,0,0,0-2.9-1.586,10.78,10.78,0,0,1-4.1.735c-1.74,0-2.63-1.083-2.63-3.017v-.618h8.585a2.08,2.08,0,0,0,2.05-2.127v-1.624c0-4.6-2.36-8.547-8.314-8.547m2.435,7.813h-4.756V728c0-1.779.89-2.707,2.436-2.707s2.32.928,2.32,2.707Z" transform="translate(-2259.204 -686.828)" fill="#fff"/><path d="M2391.675,721.319a3.937,3.937,0,0,0-2.32-.658,6.924,6.924,0,0,0-5.336,2.321,4.912,4.912,0,0,0-2.978-2.011,3.813,3.813,0,0,0-.928-.116c-1.895,0-3.093.735-3.093,2.514a2.357,2.357,0,0,0,.772,1.7,2.556,2.556,0,0,1,1.083,2.049v11.292a3.07,3.07,0,0,0,3.094,3.054,3.037,3.037,0,0,0,3.055-3.054V728.047a2.832,2.832,0,0,1,2.823-1.585,6.134,6.134,0,0,1,1.547.116,2.747,2.747,0,0,0,3.325-2.051,2.8,2.8,0,0,0-1.044-3.208" transform="translate(-2247.745 -686.84)" fill="#fff"/><path d="M2362.215,720.609c-5.762,0-8.431,4.062-8.431,8.625v3.6c0,4.6,2.127,8.623,8.392,8.623a16.3,16.3,0,0,0,5.994-1.121,2.4,2.4,0,0,0,1.354-2.939,2.193,2.193,0,0,0-2.9-1.586,10.778,10.778,0,0,1-4.1.735c-1.74,0-2.631-1.083-2.631-3.017v-.618h8.584a2.08,2.08,0,0,0,2.05-2.127v-1.624c0-4.6-2.359-8.547-8.314-8.547m2.436,7.813h-4.756V728c0-1.779.89-2.707,2.436-2.707s2.32.928,2.32,2.707Z" transform="translate(-2242.138 -686.828)" fill="#fff"/><path d="M2412.667,714.359a3.037,3.037,0,0,0-3.054,3.055v1.73a11.555,11.555,0,0,0-2.4-.237c-5.917,0-8.585,3.79-8.585,8.353v4.176c0,4.564,2.668,8.314,8.585,8.314h2.568c3.64,0,5.965-2.083,5.965-5.418l.013-7.073c0-.176,0-.35,0-.606v-9.239a3.071,3.071,0,0,0-3.094-3.055m-3.016,18.491a1.352,1.352,0,0,1-1.478,1.448h-.958q-2.437,0-2.437-2.9v-4.1q0-2.9,2.437-2.9c1.585,0,2.436.967,2.436,2.9Z" transform="translate(-2252.96 -685.319)" fill="#fff"/><path d="M2344.017,720.609a2.741,2.741,0,0,0-2.668,2.011c-1.16,3.519-2.591,7.889-3.829,11.292-1.238-3.441-2.668-7.889-3.712-11.33a2.621,2.621,0,0,0-2.592-1.973,2.734,2.734,0,0,0-2.745,3.6c1.391,4.718,3.325,10.055,4.949,14.193,1.044,2.59,2.32,3.054,4.061,3.054,1.547,0,2.9-.464,4.021-3.054,1.817-4.216,3.751-9.242,5.337-14.038a2.842,2.842,0,0,0-2.823-3.751" transform="translate(-2235.995 -686.828)" fill="#fff"/><path d="M2268.416,720.567a8.4,8.4,0,0,0-5.685,1.934,4.593,4.593,0,0,0-.889-.851,4.528,4.528,0,0,0-2.63-.851c-1.817,0-3.094.735-3.094,2.513a2.358,2.358,0,0,0,.773,1.7,2.555,2.555,0,0,1,1.083,2.049v11.292a3.07,3.07,0,0,0,3.094,3.054,3.036,3.036,0,0,0,3.054-3.054v-10.9a3.332,3.332,0,0,1,2.513-1.122c1.934,0,2.243,1.276,2.243,2.436v9.591a3.037,3.037,0,0,0,3.056,3.054,3.07,3.07,0,0,0,3.094-3.054V727.992c0-4.524-1.74-7.425-6.614-7.425" transform="translate(-2218.57 -686.818)" fill="#fff"/><path d="M2293.206,734.266h-.614a1.416,1.416,0,0,1-1.477-1.546v-8.508h1.91a2.475,2.475,0,1,0,0-4.95h-1.91V717.29a3.075,3.075,0,1,0-6.15,0v1.973h-.386a2.467,2.467,0,0,0-2.475,2.475,2.492,2.492,0,0,0,2.475,2.475h.386v9.572c0,1.808.291,5.857,7.04,5.857h1.2a2.682,2.682,0,0,0,2.668-2.707,2.655,2.655,0,0,0-2.668-2.668" transform="translate(-2224.841 -685.28)" fill="#fff"/><path d="M2215.3,720.45h-2.568c-3.641,0-5.965,2.083-5.965,5.419l-.014,7.072c0,.174,0,.351,0,.606v9.238a3.071,3.071,0,0,0,3.094,3.055,3.038,3.038,0,0,0,3.055-3.055v-1.73a11.545,11.545,0,0,0,2.4.238c5.916,0,8.584-3.79,8.584-8.352v-4.178c0-4.562-2.668-8.314-8.584-8.314m2.436,12.452q0,2.9-2.436,2.9c-1.586,0-2.437-.967-2.437-2.9v-5.551a1.352,1.352,0,0,1,1.478-1.449h.959q2.436,0,2.436,2.9Z" transform="translate(-2206.657 -686.789)" fill="#fff"/><path d="M2311.065,720.567c-5.917,0-8.585,3.79-8.585,8.352V733.1c0,4.564,2.668,8.315,8.585,8.315,5.877,0,8.546-3.751,8.546-8.315v-4.177c0-4.563-2.668-8.352-8.546-8.352m2.436,12.491c0,1.934-.851,2.9-2.436,2.9q-2.437,0-2.437-2.9v-4.1q0-2.9,2.437-2.9c1.585,0,2.436.968,2.436,2.9Z" transform="translate(-2229.758 -686.818)" fill="#fff"/><path d="M2240.555,720.45c-5.917,0-8.585,3.791-8.585,8.353v4.177c0,4.564,2.668,8.315,8.585,8.315,5.877,0,8.546-3.751,8.546-8.315V728.8c0-4.562-2.668-8.353-8.546-8.353m2.436,12.492c0,1.934-.851,2.9-2.436,2.9q-2.436,0-2.437-2.9v-4.1q0-2.9,2.437-2.9c1.585,0,2.436.968,2.436,2.9Z" transform="translate(-2212.743 -686.789)" fill="#fff"/><path d="M2244.37,693.171c-2.609,0-3.591,1.815-3.591,3.952v1.758c0,2.117.963,3.932,3.591,3.932a5.724,5.724,0,0,0,3.005-.737.535.535,0,0,0,.209-.7.479.479,0,0,0-.7-.245,4.718,4.718,0,0,1-2.5.6c-1.7,0-2.419-1.116-2.419-2.8v-.568h5.481a.481.481,0,0,0,.492-.51v-.775c0-2.118-.888-3.914-3.573-3.914m2.4,4.179h-4.8v-.36c0-1.664.68-2.76,2.4-2.76,1.8,0,2.4,1.078,2.4,2.742Z" transform="translate(-2214.869 -680.207)" fill="#fff"/><path d="M2237.732,691.207a.739.739,0,0,0,.738-.737.751.751,0,0,0-.738-.737.739.739,0,0,0-.737.737.727.727,0,0,0,.737.737" transform="translate(-2213.956 -679.377)" fill="#fff"/><path d="M2269.513,701.811c-.4-.189-.549-.435-.549-1.247v-3.705c0-2.326-.68-3.686-3.365-3.686a4.947,4.947,0,0,0-2.646.643.543.543,0,1,0,.567.926,3.842,3.842,0,0,1,2.042-.51c1.814,0,2.193.831,2.193,2.552v.51h-2.364c-2.42,0-3.365,1.191-3.365,2.665v.152c0,1.455.889,2.7,3.252,2.7a3.3,3.3,0,0,0,2.665-1.059,1.438,1.438,0,0,0,.378.662,1.4,1.4,0,0,0,.907.4.535.535,0,0,0,.585-.549.464.464,0,0,0-.3-.454m-1.758-2.269a2.048,2.048,0,0,1-2.325,2.25c-1.758,0-2.193-.812-2.193-1.663v-.171c0-.832.416-1.663,2.23-1.663h2.288Z" transform="translate(-2219.996 -680.207)" fill="#fff"/><path d="M2255.039,701.995c.831,0,3.516-.224,3.516-3.932v-7.676a.6.6,0,1,0-1.191,0v2.8a4.017,4.017,0,0,0-2.4-.831c-2.458,0-3.346,1.721-3.346,4.121v1.815c0,2.344.945,3.7,3.422,3.7m-2.231-5.633c0-1.853.68-2.911,2.306-2.911a3.213,3.213,0,0,1,2.25,1v3.668c0,2.466-1.531,2.779-2.193,2.779-1.739,0-2.363-.87-2.363-2.57Z" transform="translate(-2217.484 -679.389)" fill="#fff"/><path d="M2288.15,693.171c-2.608,0-3.592,1.815-3.592,3.952v1.758c0,2.117.964,3.932,3.592,3.932a5.731,5.731,0,0,0,3.007-.737.535.535,0,0,0,.208-.7.48.48,0,0,0-.7-.245,4.715,4.715,0,0,1-2.495.6c-1.7,0-2.42-1.116-2.42-2.8v-.568h5.482a.481.481,0,0,0,.491-.51v-.775c0-2.118-.888-3.914-3.573-3.914m2.4,4.179h-4.8v-.36c0-1.664.68-2.76,2.4-2.76,1.8,0,2.4,1.078,2.4,2.742Z" transform="translate(-2225.433 -680.207)" fill="#fff"/><path d="M2237.775,693.171a.61.61,0,0,0-.6.6v8.431a.6.6,0,0,0,.6.606.61.61,0,0,0,.6-.606v-8.431a.623.623,0,0,0-.6-.6" transform="translate(-2213.998 -680.207)" fill="#fff"/><path d="M2231.218,702.812a4.913,4.913,0,0,0,2.345-.548.52.52,0,0,0,.227-.718.485.485,0,0,0-.719-.227,3.98,3.98,0,0,1-1.8.416c-1.664,0-2.477-1.134-2.477-3.044v-1.4c0-1.8.889-3.025,2.5-3.025a3.629,3.629,0,0,1,1.739.4.515.515,0,0,0,.719-.208.523.523,0,0,0-.208-.737,4.668,4.668,0,0,0-2.306-.548c-2.438,0-3.629,1.928-3.629,4.178v1.323c0,2.4,1.1,4.14,3.61,4.14" transform="translate(-2211.69 -680.207)" fill="#fff"/><path d="M2206.976,702.4a6.849,6.849,0,0,0,2.646.416c2.08,0,3.441-.982,3.441-2.816,0-1.929-1.437-2.306-2.8-2.57-1.248-.247-2.438-.417-2.438-1.589,0-.926.68-1.588,1.966-1.588a4.7,4.7,0,0,1,1.929.36.538.538,0,0,0,.7-.3.527.527,0,0,0-.322-.719,5.472,5.472,0,0,0-2.344-.416c-1.759,0-3.082,1-3.082,2.7,0,1.777,1.248,2.193,2.533,2.457,1.342.285,2.684.4,2.684,1.7,0,1-.662,1.7-2.249,1.7a5.583,5.583,0,0,1-2.269-.379.557.557,0,0,0-.4,1.039" transform="translate(-2206.628 -680.207)" fill="#fff"/><path d="M2279.8,689.783a.593.593,0,0,0-.586.6v2.8a4.012,4.012,0,0,0-2.4-.832c-2.458,0-3.345,1.721-3.345,4.122v1.814c0,2.344.945,3.705,3.422,3.705.832,0,3.516-.225,3.516-3.932v-7.676a.6.6,0,0,0-.6-.6m-.587,8.337c0,2.466-1.531,2.779-2.192,2.779-1.74,0-2.364-.87-2.364-2.571v-1.966c0-1.853.681-2.911,2.307-2.911a3.207,3.207,0,0,1,2.249,1Z" transform="translate(-2222.756 -679.389)" fill="#fff"/><path d="M2220.021,693.171c-2.628,0-3.667,1.739-3.667,3.857v1.928c0,2.118,1.039,3.857,3.667,3.857s3.668-1.739,3.668-3.857v-1.928c0-2.118-1.04-3.857-3.668-3.857m2.458,5.785c0,1.646-.7,2.723-2.458,2.723-1.777,0-2.476-1.077-2.476-2.723v-1.928c0-1.627.7-2.7,2.476-2.7,1.758,0,2.458,1.077,2.458,2.7Z" transform="translate(-2208.975 -680.207)" fill="#fff"/><path d="M2449.723,693.652c-.049-4.572,4-11.99,11.942-11.99.061-.159,0-3.867,0-3.867,1.945.5,6.591,5.046,7.174,7.66-.256,2.445-4.974,7.175-7.26,7.929V689.25c-2.784,1.265-6.42,4.561-7.514,8.2,1.35,3.965,5.241,6.834,7.6,8.014l.024-4.22c14.163-1.188,15.987-22.447,1.115-24.852-.353-.025-.706-.054-1.066-.054a14.817,14.817,0,0,0-6.531,28.121c-3.724-2.191-5.484-6.337-5.484-10.8" transform="translate(-2264.611 -676.144)" fill="#fff"/><path d="M2461.681,676.083A15.016,15.016,0,1,0,2476.71,691.1a15.018,15.018,0,0,0-15.029-15.015m0,29.936a12.673,12.673,0,0,1-6.531-1.626,14.816,14.816,0,0,1,6.531-28.12c.359,0,.712.029,1.066.054-.349-.057-.7-.114-1.066-.149a14.921,14.921,0,1,1,0,29.841" transform="translate(-2264.551 -676.083)" fill="#fff"/></svg>