<svg xmlns="http://www.w3.org/2000/svg" width="185.753" height="159.037" viewBox="0 0 185.753 159.037"><g transform="translate(4.175 0)"><path d="M443.945,379.658v-5.051a.324.324,0,0,1,.323-.323H460l.278-.467,7.069-21.776a8.306,8.306,0,0,1,7.2-3.741H581.255a8.329,8.329,0,0,1,7.184,3.7l7.441,22.279h15.706a.321.321,0,0,1,.323.323v4.449a.321.321,0,0,1-.323.323H609c-.258,2.583-10.155,87.553-10.4,88.286a5.055,5.055,0,0,0-.094.606c-.315,2.472-1.281,9.983-11.694,11.473l-.045,0H470.027c-10.462-1.494-11.428-9.009-11.743-11.477a4.158,4.158,0,0,0-.1-.606c-.242-.733-10.139-85.7-10.4-88.286h-3.52a.324.324,0,0,1-.323-.323" transform="translate(-439.226 -343.577)" fill="#b3b3b3"/><path d="M590.331,488.034H473.589a4.5,4.5,0,0,1-.663-.045c-6.4-.913-14.326-4.351-15.759-15.55-.372-1.15-7.928-66.543-9.991-84.5a4.724,4.724,0,0,1-4.384-4.707v-5.051a5.05,5.05,0,0,1,5.043-5.043h12.427l6.164-18.984a4.878,4.878,0,0,1,.405-.909,13.055,13.055,0,0,1,11.281-6.095H584.822a13.032,13.032,0,0,1,11.265,6.062,4.917,4.917,0,0,1,.393.872l6.365,19.054h12.308a5.05,5.05,0,0,1,5.043,5.043v4.449a5.052,5.052,0,0,1-3.385,4.764c-1.879,16.377-9.009,78.033-10.057,84.766l.037,0c-1.478,11.481-9.373,14.916-15.742,15.824A5.19,5.19,0,0,1,590.331,488.034ZM473.945,478.6H590.008c6.054-.945,6.991-4.29,7.384-7.359.041-.307.094-.61.143-.86h0c.569-3.508,9.991-84.749,10.335-87.807h-8.42a4.719,4.719,0,0,1-4.474-3.225l-7.225-21.62a3.873,3.873,0,0,0-2.927-1.142H478.112a3.814,3.814,0,0,0-2.939,1.175l-6.844,21.084a4.6,4.6,0,0,1-.43.95l-.274.462a4.721,4.721,0,0,1-4.06,2.317h-7.507c.344,3.029,9.586,82.744,10.315,87.684a10.014,10.014,0,0,1,.155.99C466.922,474.3,467.851,477.625,473.945,478.6Z" transform="translate(-442.792 -347.146)"/></g><g transform="translate(8.776 27.06)"><path d="M611.147,363.2H448.631a4.719,4.719,0,0,1,0-9.439H611.147a4.719,4.719,0,1,1,0,9.439Z" transform="translate(-443.916 -353.757)"/></g><g transform="translate(43.678 13.716)"><path d="M546.287,359.936H457.163a4.72,4.72,0,1,1,0-9.439h89.125a4.72,4.72,0,0,1,0,9.439Z" transform="translate(-452.443 -350.497)"/></g><g transform="translate(32.672 143.309)"><circle cx="7.864" cy="7.864" r="7.864"/><g transform="translate(104.849)"><circle cx="7.864" cy="7.864" r="7.864"/></g></g><g transform="translate(0 48.029)"><path d="M454.2,368.319h-7.712a4.72,4.72,0,0,1,0-9.439H454.2a4.72,4.72,0,0,1,0,9.439Z" transform="translate(-441.772 -358.88)"/><g transform="translate(168.602)"><path d="M495.394,368.319h-7.711a4.72,4.72,0,0,1,0-9.439h7.711a4.72,4.72,0,1,1,0,9.439Z" transform="translate(-482.963 -358.88)"/></g></g></svg>