<svg xmlns="http://www.w3.org/2000/svg" width="218" height="55.181" viewBox="0 0 218 55.181"><g transform="translate(-611.748 -951.861)"><g transform="translate(611.748 951.861)"><path d="M630.136,983.183a8.086,8.086,0,0,0-.784,3.5v1.707H634.2v-1.707a4.239,4.239,0,0,1,1.144-3.088,4.817,4.817,0,0,1,6.313,0,4.246,4.246,0,0,1,1.141,3.088v1.707h4.845v-1.707a8.054,8.054,0,0,0-.784-3.5,8.261,8.261,0,0,0-2.218-2.85,8.316,8.316,0,0,0,2.218-2.832,8.017,8.017,0,0,0,.784-3.516V972.28H642.8v1.707a4.247,4.247,0,0,1-1.141,3.089,4.3,4.3,0,0,1-7.457-3.089V972.28h-4.846v1.707a8.048,8.048,0,0,0,.784,3.516,8.386,8.386,0,0,0,2.219,2.832,8.329,8.329,0,0,0-2.219,2.85" transform="translate(-610.563 -950.488)" fill="#fff"/><path d="M628.146,954.235a.758.758,0,0,1,.1-.068,27.427,27.427,0,0,1,10.766-2.3h.049c.609-.005,1.209.02,1.8.058.415.022.826.065,1.241.1.065.009.129.011.193.017v.006a27.366,27.366,0,0,1,13.05,4.99l2.695-3.977a.694.694,0,0,1,1.255.266l1.675,9.236,1.177,6.52a.67.67,0,0,1-.16.581.678.678,0,0,1-.509.236h-.048l-7.324-.391-8.248-.44a.69.69,0,0,1-.437-1.192l3.4-3.21A17.4,17.4,0,0,0,641.618,962l0,.076a17.692,17.692,0,1,0,15.427,17.36,18.148,18.148,0,0,0-.226-2.506l9.429-3.555a27.586,27.586,0,1,1-38.1-19.145" transform="translate(-611.748 -951.861)" fill="#fff"/><path d="M638.155,973.664a2.891,2.891,0,1,0-2.891-2.89,2.89,2.89,0,0,0,2.891,2.89" transform="translate(-610.166 -950.784)" fill="#fff"/></g><g transform="translate(675.832 959.636)"><path d="M809.57,972.137c2.817,0,3.96,3.024,3.96,5.965,0,3.635-1.51,6.045-3.96,6.045-2.661,0-4.088-2.574-4.088-6,0-2.943,1.145-6.007,4.088-6.007m.2-4.451c-6.453,0-10.7,4.124-10.7,10.619,0,6.453,4.494,10.295,10.333,10.295,5.352,0,10.539-3.351,10.539-10.662,0-6.046-4.084-10.252-10.17-10.252m-32.066.49,6.617,9.8-6.78,10.173h6.82l1.882-3.6c.49-.98,1.019-1.958,1.509-3.023h.124c.49,1.022.98,2.043,1.552,3.023l2,3.6h7.026l-6.657-10.46,6.575-9.515h-6.739l-1.758,3.267c-.531.98-1.021,1.961-1.551,3.064h-.084c-.529-.981-1.062-1.961-1.633-2.983l-1.961-3.348Zm-5.842-8.661a3.111,3.111,0,1,0,3.269,3.1,3.082,3.082,0,0,0-3.269-3.1m3.064,8.661h-6.206v19.975h6.206Zm-17.441,19.975H763.7V959.146h-6.208Z" transform="translate(-666.027 -959.146)" fill="#fff"/><path d="M749.035,971.909c2.822,0,3.964,3.021,3.964,5.963,0,3.636-1.509,6.046-3.964,6.046-2.652,0-4.083-2.574-4.083-6,0-2.941,1.144-6,4.083-6m.208-4.454c-6.454,0-10.7,4.126-10.7,10.62,0,6.454,4.493,10.295,10.336,10.295,5.35,0,10.539-3.35,10.539-10.662,0-6.045-4.085-10.253-10.17-10.253m-23.489-3.226v3.716H723.1v4.575h2.653v8.171c0,2.818.571,4.738,1.716,5.922a6.626,6.626,0,0,0,4.695,1.715,13.154,13.154,0,0,0,4-.528l-.041-4.7a7.556,7.556,0,0,1-1.838.165c-1.84,0-2.452-1.1-2.452-3.512V972.52h4.451v-4.575H731.84v-5.391ZM714.276,980.65a4.381,4.381,0,0,1-.123,1.062A3.438,3.438,0,0,1,710.926,984a2.231,2.231,0,0,1-2.452-2.369c0-2.369,2.533-3.147,5.8-3.147Zm6-4.534c0-4.738-2.083-8.661-8.74-8.661a16.4,16.4,0,0,0-7.762,1.8l1.145,4a11.229,11.229,0,0,1,5.514-1.509c3.063,0,3.635,1.509,3.635,2.613v.246c-7.068,0-11.723,2.448-11.723,7.639a6.122,6.122,0,0,0,6.455,6.126,7.2,7.2,0,0,0,5.716-2.453h.124l.369,2h5.595a25.873,25.873,0,0,1-.328-4.823Zm-31.7,11.806h6.207V977.791a7.373,7.373,0,0,1,.123-1.39,3.993,3.993,0,0,1,4.249-3.145,9.319,9.319,0,0,1,1.674.162v-5.84a6.223,6.223,0,0,0-1.306-.123,5.817,5.817,0,0,0-5.391,4.168h-.162l-.249-3.678H688.42c.121,1.717.162,3.636.162,6.578Zm-14.132-23.693v3.716h-2.659v4.575h2.659v8.171c0,2.818.569,4.738,1.712,5.922a6.637,6.637,0,0,0,4.7,1.715,13.157,13.157,0,0,0,4.005-.528l-.042-4.7a7.547,7.547,0,0,1-1.837.165c-1.84,0-2.452-1.1-2.452-3.512V972.52h4.452v-4.575h-4.452v-5.391Z" transform="translate(-671.792 -958.917)" fill="#fff"/><path d="M820.9,999.1a4.276,4.276,0,0,0,1.961.434c1.738,0,2.615-.831,2.615-1.971-.01-.88-.482-1.475-1.636-1.873-.743-.26-.979-.41-.979-.707s.26-.483.719-.483a3.007,3.007,0,0,1,1.315.349l.322-1.3a3.98,3.98,0,0,0-1.7-.359c-1.5,0-2.471.856-2.471,2-.009.72.473,1.4,1.737,1.821.695.237.884.386.884.71s-.237.494-.808.494a3.679,3.679,0,0,1-1.624-.446Zm-3.966-4.562c.854,0,1.2.917,1.2,1.809,0,1.106-.459,1.835-1.2,1.835-.806,0-1.241-.78-1.241-1.821,0-.893.347-1.823,1.241-1.823m.064-1.352a3.033,3.033,0,0,0-3.251,3.225,2.968,2.968,0,0,0,3.136,3.123,3.042,3.042,0,0,0,3.2-3.236,2.948,2.948,0,0,0-3.085-3.112M806.823,999.4h1.887v-3.5a1.354,1.354,0,0,1,.06-.474,1.033,1.033,0,0,1,.967-.706c.684,0,.955.533.955,1.315v3.36h1.885v-3.584c0-1.787-.929-2.617-2.171-2.617a2.183,2.183,0,0,0-1.872.98H808.5l-.083-.844h-1.638c.023.549.049,1.178.049,1.936ZM803.5,997.19a1.212,1.212,0,0,1-.037.322,1.039,1.039,0,0,1-.978.694.675.675,0,0,1-.743-.719c0-.718.767-.954,1.758-.954Zm1.824-1.377a2.353,2.353,0,0,0-2.653-2.629,5.006,5.006,0,0,0-2.358.544l.348,1.214a3.431,3.431,0,0,1,1.673-.456c.932,0,1.1.456,1.1.791v.077c-2.145,0-3.558.743-3.558,2.317a1.857,1.857,0,0,0,1.96,1.86,2.182,2.182,0,0,0,1.735-.744h.034l.115.608h1.7a7.748,7.748,0,0,1-.1-1.463Zm-10.578.111a1.457,1.457,0,0,1,.038-.346,1.171,1.171,0,0,1,1.1-.932c.881,0,1.3.745,1.3,1.686,0,1.092-.5,1.712-1.3,1.712a1.155,1.155,0,0,1-1.1-.891,1.308,1.308,0,0,1-.038-.335Zm-1.885,1.663c0,.681-.023,1.413-.05,1.81h1.6l.075-.842h.026a2,2,0,0,0,1.823.978c1.387,0,2.765-1.091,2.765-3.274.014-1.859-1.043-3.062-2.492-3.062a2.137,2.137,0,0,0-1.836.854h-.026v-3.458H792.86Zm-4.675,1.81h1.885v-3.078a2.195,2.195,0,0,1,.038-.417,1.212,1.212,0,0,1,1.289-.958,2.565,2.565,0,0,1,.509.054v-1.777a1.929,1.929,0,0,0-.4-.036,1.772,1.772,0,0,0-1.64,1.265h-.048l-.074-1.117h-1.611c.035.521.048,1.1.048,2Zm-1.511-6.065h-1.885v3.611a.975.975,0,0,1-.076.408,1,1,0,0,1-.941.657c-.671,0-.956-.53-.956-1.414v-3.262h-1.884v3.56c0,1.873.892,2.641,2.133,2.641a2.161,2.161,0,0,0,1.9-.993H785l.085.857h1.636c-.026-.51-.049-1.151-.049-1.946ZM772.722,999.1a4.286,4.286,0,0,0,1.963.434c1.732,0,2.616-.831,2.616-1.971-.014-.88-.486-1.475-1.638-1.873-.744-.26-.978-.41-.978-.707s.258-.483.717-.483a3,3,0,0,1,1.314.349l.322-1.3a3.962,3.962,0,0,0-1.7-.359c-1.5,0-2.466.856-2.466,2-.014.72.47,1.4,1.734,1.821.7.237.883.386.883.71s-.238.494-.806.494a3.676,3.676,0,0,1-1.627-.446Zm-3.968-4.562c.857,0,1.206.917,1.206,1.809,0,1.106-.459,1.835-1.206,1.835-.806,0-1.24-.78-1.24-1.821,0-.893.349-1.823,1.24-1.823m.064-1.352a3.033,3.033,0,0,0-3.251,3.225,2.969,2.969,0,0,0,3.138,3.123,3.044,3.044,0,0,0,3.2-3.236,2.949,2.949,0,0,0-3.089-3.112m-4.413.147h-1.888v3.611a1.04,1.04,0,0,1-1.015,1.065c-.671,0-.954-.53-.954-1.414v-3.262h-1.885v3.56c0,1.873.892,2.641,2.132,2.641a2.168,2.168,0,0,0,1.9-.993h.038l.083.857h1.638c-.025-.51-.048-1.151-.048-1.946Zm-9.113,3.362a2.58,2.58,0,0,1-.039.433,1.114,1.114,0,0,1-1.1.9c-.782,0-1.289-.642-1.289-1.671,0-.957.433-1.726,1.3-1.726a1.134,1.134,0,0,1,1.1.918,1.549,1.549,0,0,1,.028.35Zm0-6.1v3.274h-.028a1.855,1.855,0,0,0-1.6-.682c-1.453,0-2.73,1.192-2.716,3.237,0,1.885,1.152,3.111,2.59,3.111a2.113,2.113,0,0,0,1.9-1.016h.04l.074.88h1.675c-.027-.409-.048-1.129-.048-1.81v-6.995Zm-6.176.1-1.068,1.885h1.288l1.514-1.885Zm.669,2.641H747.9V999.4h1.885Zm-7.616,5.766a4.289,4.289,0,0,0,1.963.434c1.735,0,2.615-.831,2.615-1.971-.012-.88-.482-1.475-1.639-1.873-.742-.26-.975-.41-.975-.707s.259-.483.718-.483a3,3,0,0,1,1.313.349l.321-1.3a3.965,3.965,0,0,0-1.7-.359c-1.5,0-2.465.856-2.465,2-.011.72.471,1.4,1.735,1.821.695.237.881.386.881.71s-.235.494-.8.494a3.667,3.667,0,0,1-1.624-.446Zm-4.76-3.423a1.244,1.244,0,0,1,1.165-1.226,1.094,1.094,0,0,1,1.066,1.226Zm3.918,1.29a4.358,4.358,0,0,0,.063-.744c0-1.5-.744-3.026-2.706-3.026a3.038,3.038,0,0,0-3.061,3.238,2.91,2.91,0,0,0,3.238,3.089,5.724,5.724,0,0,0,2.193-.386l-.247-1.28a5.008,5.008,0,0,1-1.676.26c-.881,0-1.661-.37-1.713-1.151Zm-9.97,2.431h1.884v-3.078a2.191,2.191,0,0,1,.039-.417,1.213,1.213,0,0,1,1.29-.958,2.562,2.562,0,0,1,.508.054v-1.777a1.9,1.9,0,0,0-.4-.036,1.764,1.764,0,0,0-1.636,1.265h-.051l-.074-1.117h-1.613c.038.521.049,1.1.049,2Zm-7.613-3.722a1.248,1.248,0,0,1,1.165-1.226,1.094,1.094,0,0,1,1.066,1.226Zm3.918,1.29a4.639,4.639,0,0,0,.062-.744c0-1.5-.744-3.026-2.7-3.026a3.037,3.037,0,0,0-3.063,3.238,2.91,2.91,0,0,0,3.235,3.089,5.736,5.736,0,0,0,2.2-.386l-.249-1.28a4.982,4.982,0,0,1-1.673.26c-.881,0-1.662-.37-1.711-1.151Zm-8.753-.272a2.471,2.471,0,0,1-.038.433,1.115,1.115,0,0,1-1.1.9c-.782,0-1.289-.642-1.289-1.671,0-.957.433-1.726,1.3-1.726a1.134,1.134,0,0,1,1.1.918,1.675,1.675,0,0,1,.026.35Zm0-6.1v3.274h-.026a1.862,1.862,0,0,0-1.6-.682c-1.45,0-2.728,1.192-2.714,3.237,0,1.885,1.152,3.111,2.591,3.111a2.109,2.109,0,0,0,1.893-1.016h.039l.076.88h1.675c-.027-.409-.05-1.129-.05-1.81v-6.995Zm-10.814,3.945c.854,0,1.2.917,1.2,1.809,0,1.106-.456,1.835-1.2,1.835-.806,0-1.241-.78-1.241-1.821,0-.893.347-1.823,1.241-1.823m.06-1.352a3.034,3.034,0,0,0-3.248,3.225,2.97,2.97,0,0,0,3.139,3.123,3.042,3.042,0,0,0,3.2-3.236,2.949,2.949,0,0,0-3.09-3.112m-7.909-.707c.023-.371.123-.558.3-.558s.248.075.471.2a1.85,1.85,0,0,0,.854.264c.657,0,1.054-.46,1.017-1.589h-.867c-.038.431-.125.546-.323.546a1.31,1.31,0,0,1-.52-.236,1.763,1.763,0,0,0-.807-.246c-.631,0-1.054.581-1.017,1.623Zm1.684,4.712a1.359,1.359,0,0,1-.036.322,1.04,1.04,0,0,1-.979.694.679.679,0,0,1-.747-.719c0-.718.771-.954,1.762-.954Zm1.823-1.377a2.352,2.352,0,0,0-2.651-2.629,5.013,5.013,0,0,0-2.36.544l.349,1.214a3.435,3.435,0,0,1,1.674-.456c.931,0,1.1.456,1.1.791v.077c-2.143,0-3.558.743-3.558,2.317a1.858,1.858,0,0,0,1.96,1.86,2.179,2.179,0,0,0,1.735-.744h.037l.112.608h1.7a7.722,7.722,0,0,1-.1-1.463Zm-9.336-3.607v1.126h-.806v1.391h.806v2.48a2.506,2.506,0,0,0,.521,1.8,2.012,2.012,0,0,0,1.426.523,3.925,3.925,0,0,0,1.216-.164l-.011-1.425a2.327,2.327,0,0,1-.558.05c-.561,0-.746-.336-.746-1.067v-2.194h1.352v-1.391h-1.352V991.7Zm-5.987,6.892a4.262,4.262,0,0,0,1.957.434c1.736,0,2.618-.831,2.618-1.971-.012-.88-.487-1.475-1.638-1.873-.742-.26-.98-.41-.98-.707s.263-.483.719-.483a3,3,0,0,1,1.315.349l.32-1.3a3.958,3.958,0,0,0-1.7-.359c-1.5,0-2.468.856-2.468,2-.013.72.473,1.4,1.735,1.821.695.237.882.386.882.71s-.238.494-.807.494a3.657,3.657,0,0,1-1.622-.446Zm-4.762-3.423a1.245,1.245,0,0,1,1.165-1.226,1.094,1.094,0,0,1,1.064,1.226Zm3.916,1.29a4.128,4.128,0,0,0,.064-.744c0-1.5-.743-3.026-2.7-3.026a3.038,3.038,0,0,0-3.064,3.238,2.911,2.911,0,0,0,3.239,3.089,5.713,5.713,0,0,0,2.191-.386l-.244-1.28a5.006,5.006,0,0,1-1.677.26c-.878,0-1.662-.37-1.71-1.151Zm-8.754-.272a1.757,1.757,0,0,1-.062.509,1.031,1.031,0,0,1-1.006.757c-.779,0-1.224-.709-1.224-1.614,0-1.1.544-1.724,1.24-1.724a1.033,1.033,0,0,1,1.015.831,1.666,1.666,0,0,1,.037.349Zm1.886-1.549c0-.906.026-1.416.048-1.813h-1.636l-.062.733h-.026a1.808,1.808,0,0,0-1.66-.869,2.9,2.9,0,0,0-2.753,3.2,2.665,2.665,0,0,0,2.567,2.951,1.953,1.953,0,0,0,1.635-.781h.028v.385a1.445,1.445,0,0,1-1.576,1.6,3.667,3.667,0,0,1-1.76-.461l-.374,1.438a4.856,4.856,0,0,0,2.183.46,3.682,3.682,0,0,0,2.454-.744,3.435,3.435,0,0,0,.932-2.728Z" transform="translate(-671.601 -957.03)" fill="#fff"/></g></g></svg>