<svg xmlns="http://www.w3.org/2000/svg" width="166.73" height="21.802" viewBox="0 0 166.73 21.802"><g transform="translate(-876.635 -266.507)"><path d="M1682,237.886c-5.828,0-8.816-2.868-11.453-5.4-2.457-2.362-4.582-4.4-8.958-4.4s-6.5,2.036-8.953,4.4c-2.635,2.532-5.622,5.4-11.448,5.4s-8.805-2.868-11.44-5.4c-2.453-2.359-4.57-4.4-8.941-4.4s-6.493,2.036-8.95,4.4c-2.634,2.534-5.619,5.4-11.445,5.4s-8.808-2.868-11.44-5.4c-2.456-2.359-4.576-4.4-8.947-4.4s-6.49,2.036-8.944,4.4c-2.634,2.534-5.62,5.4-11.442,5.4s-8.808-2.868-11.442-5.4c-2.454-2.359-4.574-4.4-8.944-4.4s-6.488,2.036-8.941,4.4c-2.632,2.534-5.617,5.4-11.437,5.4a1.8,1.8,0,1,1,0-3.6c4.368,0,6.488-2.036,8.941-4.4,2.632-2.532,5.617-5.4,11.437-5.4s8.808,2.871,11.442,5.4c2.454,2.359,4.574,4.4,8.944,4.4s6.49-2.036,8.944-4.4c2.634-2.532,5.62-5.4,11.442-5.4s8.807,2.871,11.442,5.4c2.454,2.359,4.573,4.4,8.944,4.4s6.493-2.036,8.949-4.4c2.635-2.532,5.622-5.4,11.445-5.4s8.805,2.871,11.44,5.4c2.454,2.359,4.571,4.4,8.941,4.4s6.5-2.036,8.953-4.4c2.634-2.532,5.622-5.4,11.448-5.4s8.816,2.868,11.453,5.4c2.457,2.362,4.579,4.4,8.958,4.4a1.8,1.8,0,1,1,0,3.6Z" transform="translate(-640.437 42.022)" fill="#388148"/><path d="M1682,237.886c-5.828,0-8.816-2.868-11.453-5.4-2.457-2.362-4.582-4.4-8.958-4.4s-6.5,2.036-8.953,4.4c-2.635,2.532-5.622,5.4-11.448,5.4s-8.805-2.868-11.44-5.4c-2.453-2.359-4.57-4.4-8.941-4.4s-6.493,2.036-8.95,4.4c-2.634,2.534-5.619,5.4-11.445,5.4s-8.808-2.868-11.44-5.4c-2.456-2.359-4.576-4.4-8.947-4.4s-6.49,2.036-8.944,4.4c-2.634,2.534-5.62,5.4-11.442,5.4s-8.808-2.868-11.442-5.4c-2.454-2.359-4.574-4.4-8.944-4.4s-6.488,2.036-8.941,4.4c-2.632,2.534-5.617,5.4-11.437,5.4a1.8,1.8,0,1,1,0-3.6c4.368,0,6.488-2.036,8.941-4.4,2.632-2.532,5.617-5.4,11.437-5.4s8.808,2.871,11.442,5.4c2.454,2.359,4.574,4.4,8.944,4.4s6.49-2.036,8.944-4.4c2.634-2.532,5.62-5.4,11.442-5.4s8.807,2.871,11.442,5.4c2.454,2.359,4.573,4.4,8.944,4.4s6.493-2.036,8.949-4.4c2.635-2.532,5.622-5.4,11.445-5.4s8.805,2.871,11.44,5.4c2.454,2.359,4.571,4.4,8.941,4.4s6.5-2.036,8.953-4.4c2.634-2.532,5.622-5.4,11.448-5.4s8.816,2.868,11.453,5.4c2.457,2.362,4.579,4.4,8.958,4.4a1.8,1.8,0,1,1,0,3.6Z" transform="translate(-640.437 50.423)" fill="#388148"/></g></svg>