<svg xmlns="http://www.w3.org/2000/svg" width="181.146" height="213.735" viewBox="0 0 181.146 213.735"><g transform="translate(-751.324 171.852)"><g transform="translate(821.756 24.475)"><path d="M775.348-93.434a13.558,13.558,0,0,1,6.151-10.61c1.712-.988,3.257-1.076,4.371-.428l0,0,2.671,1.709-9.059,14.773-2.334-1.489v0C776.037-90.118,775.348-91.484,775.348-93.434Z" transform="translate(-775.348 104.887)" fill="#25242f"/><path d="M776.2-92.885c0,3.9,2.753,5.468,6.151,3.506a13.551,13.551,0,0,0,6.151-10.61c0-3.9-2.753-5.468-6.151-3.506A13.55,13.55,0,0,0,776.2-92.885Z" transform="translate(-773.693 105.942)" fill="#393842"/><path d="M776.8-95.364c0,2.8,1.976,3.923,4.412,2.515a9.723,9.723,0,0,0,4.412-7.608c0-2.8-1.976-3.923-4.412-2.515A9.723,9.723,0,0,0,776.8-95.364Z" transform="translate(-772.547 107.415)" fill="#cdc6bc"/></g><g transform="translate(755.205 -16.637)"><path d="M766.4-107.457a13.554,13.554,0,0,0-6.154-10.61c-1.709-.988-3.254-1.076-4.368-.428l0,0-2.671,1.709,9.059,14.773,2.334-1.489v0C765.7-104.141,766.4-105.507,766.4-107.457Z" transform="translate(-751.582 118.91)" fill="#25242f"/><path d="M764.95-106.908c0,3.9-2.756,5.468-6.151,3.506a13.55,13.55,0,0,1-6.151-10.61c0-3.9,2.753-5.468,6.151-3.506A13.558,13.558,0,0,1,764.95-106.908Z" transform="translate(-752.648 119.965)" fill="#393842"/><path d="M762.066-109.387c0,2.8-1.976,3.923-4.412,2.515a9.723,9.723,0,0,1-4.412-7.608c0-2.8,1.976-3.923,4.412-2.515A9.723,9.723,0,0,1,762.066-109.387Z" transform="translate(-751.503 121.438)" fill="#929a88"/></g><g transform="translate(907.445 -25.341)"><path d="M804.576-110.426a13.55,13.55,0,0,1,6.151-10.61c1.712-.988,3.257-1.076,4.371-.428l0,0,2.671,1.709-9.059,14.773-2.334-1.489v0C805.265-107.11,804.576-108.476,804.576-110.426Z" transform="translate(-804.576 121.879)" fill="#25242f"/><path d="M805.432-109.877c0,3.9,2.756,5.468,6.154,3.506a13.55,13.55,0,0,0,6.151-10.61c0-3.9-2.753-5.468-6.151-3.506A13.554,13.554,0,0,0,805.432-109.877Z" transform="translate(-802.922 122.934)" fill="#393842"/><path d="M806.026-112.356c0,2.8,1.976,3.923,4.412,2.515a9.72,9.72,0,0,0,4.409-7.608c0-2.8-1.973-3.923-4.409-2.515A9.724,9.724,0,0,0,806.026-112.356Z" transform="translate(-801.775 124.407)" fill="#cdc6bc"/></g><path d="M775.032-66.933l87.355-50.434,2.464-4.988L777.5-71.92Z" transform="translate(45.797 95.618)" fill="#966c0e"/><g transform="translate(832.917 -171.253)"><path d="M866.02-113.633l-5.185,73.59L851.211-45.6l-2.464,4.988-49.468-28.56-2.434-7.816-9.567-5.524-5.185-79.577Z" transform="translate(-773.48 190.115)" fill="#416d48"/><path d="M866.51-71.967,779.155-21.532l5.175-73.6,87.355-50.434Z" transform="translate(-779.155 222.039)" fill="#f1d03e"/><path d="M782.093-162.088l.28,4.294,44.377,25.621L845.6-111.658l19.487,11.25.444-6.31L845.6-118.225l-20.027-20.466Z" transform="translate(-773.48 190.115)" fill="#385e3e"/><path d="M808.349-114.271l-12.044-6.954a5.217,5.217,0,0,1-2.178-4.16V-155.14l16.4,9.47v29.754C810.527-114.312,809.551-113.576,808.349-114.271Z" transform="translate(-750.233 203.537)" fill="#303c3e"/><path d="M857.374-130.239c-19.188-27.9-47.462-44.217-66.653-38.482-5.054,1.51-8.622,11.8-8.622,21.663h0L866-98.617h0C866-110.121,862.431-122.889,857.374-130.239Z" transform="translate(-773.47 175.095)" fill="#417a48"/><path d="M783.119-151.048c.663-8.209,3.767-15.412,7.37-16.485,8.784-2.627,20-.39,31.587,6.3s22.8,17.406,31.59,30.177c3.94,5.729,6.822,15.638,7.394,25.011Z" transform="translate(-771.497 177.525)" fill="#416d48"/><path d="M849.747-124.616l-68.626-39.621v4.656l68.626,39.621Z" transform="translate(-775.358 185.963)" fill="#417a48"/><path d="M824.582-135.35l-20.827-12.024v3.184l20.827,12.024Z" transform="translate(-731.634 218.539)" fill="#417a48"/><path d="M817.38-133.263l-18.917-20.918-1.161,2.222,18.917,20.918Z" transform="translate(-744.098 205.39)" fill="#417a48"/><path d="M792.095-165.1l-5.764,14.627,25.753,43.539c2.776,4.609,7.016,7.394,10.126,6.658h0c4.061-.959,4.539-7.385,1.006-13.445l-14.327-24.55,3.879-5.043Z" transform="translate(-765.293 184.303)" fill="#518557"/><path d="M800.952-143.048c0,1.589-1.123,2.228-2.506,1.428a5.522,5.522,0,0,1-2.507-4.321c0-1.589,1.123-2.228,2.507-1.431A5.527,5.527,0,0,1,800.952-143.048Z" transform="translate(-746.732 217.881)" fill="#414f52"/><path d="M872-85.137l-15.6-16.715L853.2-97.8l-67.333-70.964-2.6-2.881-1.729,3.882,72.726,76.649,3.17-4.512,15.545,16.683,1.128-4.1Z" transform="translate(-774.552 171.648)" fill="#518557"/></g><g transform="translate(751.325 -171.852)"><path d="M821.8-107.958l-68.626-39.621-1.85,1.6L821.8-103.3Z" transform="translate(-751.325 218.742)" fill="#422e05"/><path d="M836.223-96.43l-5.184,73.59L821.415-28.4l-2.464,4.988-49.468-28.56-2.435-7.816-9.567-5.524L752.3-144.885Z" transform="translate(-749.447 223.947)" fill="#c6992a"/><path d="M752.3-144.885l.28,4.294,44.378,25.621,18.851,20.515L835.292-83.2l.445-6.31-19.931-11.507-20.027-20.466Z" transform="translate(-749.447 223.947)" fill="#966c0e"/><path d="M778.553-97.068l-12.044-6.954a5.217,5.217,0,0,1-2.178-4.16v-29.754l16.4,9.467v29.757C780.731-97.112,779.755-96.374,778.553-97.068Z" transform="translate(-726.199 237.369)" fill="#966c0e"/><path d="M827.578-113.035c-19.188-27.9-47.462-44.22-66.654-38.482-5.054,1.51-8.622,11.8-8.622,21.663h0l83.9,48.441v0C836.2-92.918,832.635-105.689,827.578-113.035Z" transform="translate(-749.436 208.926)" fill="#c6992a"/><path d="M753.322-133.844c.666-8.209,3.77-15.412,7.373-16.488,8.784-2.624,20-.387,31.587,6.3s22.8,17.406,31.587,30.177c3.943,5.726,6.825,15.635,7.4,25.011Z" transform="translate(-747.466 211.356)" fill="#422e05"/><path d="M756-137.214c.451-5.588,2.034-10.707,4.136-13.747-3.36,1.61-6.186,8.479-6.816,16.262l77.944,45c-.088-1.431-.246-2.873-.437-4.313Z" transform="translate(-747.466 212.21)" fill="#77500a"/><path d="M819.951-107.414l-68.626-39.621v4.656l68.626,39.621Z" transform="translate(-751.325 219.794)" fill="#c6992a"/><path d="M794.786-118.147l-20.827-12.024v3.184l20.827,12.024Z" transform="translate(-707.601 252.37)" fill="#77500a"/><path d="M787.584-116.06l-18.917-20.918-1.161,2.222,18.917,20.918Z" transform="translate(-720.065 239.221)" fill="#77500a"/><g transform="translate(2.951 0.599)"><path d="M843.171-32.61,825.465-51.417l-3.2,4.049L754.93-118.334l-2.6-2.88,87.355-50.434L909.618-97.8l3.2-4.049,17.706,18.808Z" transform="translate(-752.331 171.648)" fill="#f1d03e"/></g><path d="M838.512-169.6c8.276-5.236,30.212-2.287,52.953,19.083,27.324,25.673,33.575,43.795,30.613,67.084L838.624-35.252,830.74-62.9l-76.3-58.093S837.4-168.9,838.512-169.6Z" transform="translate(-745.304 171.852)" fill="#f1be3e"/><path d="M753.776-150.632c4.952-8.232,29.716-7.7,55.519,16.547C836.619-108.412,842.869-90.29,839.908-67L824.294-83.122l-1.618.352-1.566,3.1Z" transform="translate(-746.589 203.601)" fill="#966c0e"/><path d="M762.3-147.894l-5.764,14.627,25.753,43.539c2.776,4.606,7.016,7.394,10.126,6.658h0c4.058-.959,4.538-7.388,1-13.445l-14.324-24.551,3.879-5.043Z" transform="translate(-741.259 218.134)" fill="#c6992a"/><path d="M771.153-125.844c0,1.586-1.12,2.228-2.5,1.428a5.52,5.52,0,0,1-2.506-4.324c0-1.586,1.12-2.228,2.506-1.428A5.524,5.524,0,0,1,771.153-125.844Z" transform="translate(-722.699 251.711)" fill="#414f52"/><path d="M761.257-147.135l-5.764,14.627,25.753,43.539c2.776,4.609,7.013,7.394,10.126,6.658h0c4.057-.959,4.538-7.385,1-13.445l-14.324-24.55,3.876-5.043Z" transform="translate(-743.272 219.601)" fill="#af8322"/><path d="M770.113-125.086c0,1.589-1.123,2.228-2.507,1.428a5.522,5.522,0,0,1-2.507-4.321c0-1.589,1.123-2.228,2.507-1.431A5.527,5.527,0,0,1,770.113-125.086Z" transform="translate(-724.714 253.178)" fill="#414f52"/><path d="M842.2-67.934,826.6-84.649,823.4-80.6l-67.333-70.964-2.6-2.881-1.729,3.882,72.726,76.649,3.169-4.512,15.545,16.683,1.128-4.1Z" transform="translate(-750.519 205.479)" fill="#af8322"/></g><path d="M870.286-137.327,782.931-86.893l1.128-4.1,87.355-50.434Z" transform="translate(61.056 58.777)" fill="#c6992a"/><g transform="translate(780.318 -167.14)"><path d="M860.577-93.368l-5.819,3.348c-.407-18.192-8.57-34.3-31.279-55.627-15.359-14.436-30.332-20.467-40.995-21.232l5.834-3.366c10.663.783,25.635,6.8,40.98,21.232C851.993-127.7,860.152-111.575,860.577-93.368Z" transform="translate(-720.126 170.245)" fill="#966c0e"/><path d="M853.089-92.748c-1.017-18.529-10.305-34.469-31.581-54.454-12.319-11.575-25.97-19.112-38.051-21.115l2.334-1.346c6.142.525,21.563,3.656,39.866,20.874,21.232,19.939,30.226,35.662,30.871,54.062Z" transform="translate(-718.246 171.369)" fill="#af8322"/><path d="M855.259-90.3l-5.82,3.348c-.422-18.192-8.567-34.316-31.258-55.645-15.362-14.436-30.352-20.449-41.015-21.214l5.819-3.366c10.663.78,25.653,6.8,41.015,21.232C846.693-124.616,854.855-108.488,855.259-90.3Z" transform="translate(-730.399 176.179)" fill="#966c0e"/><path d="M847.773-89.676c-1.032-18.552-10.311-34.5-31.563-54.469-12.311-11.569-25.972-19.1-38.072-21.1l2.325-1.343c6.145.525,21.575,3.656,39.9,20.874,21.238,19.956,30.227,35.679,30.857,54.062Z" transform="translate(-728.521 177.304)" fill="#af8322"/><path d="M849.933-87.232l-5.82,3.363c-.407-18.189-8.567-34.313-31.261-55.642-15.362-14.436-30.332-20.452-41-21.232l5.819-3.363c10.666.78,25.635,6.81,41,21.229C841.366-121.534,849.525-105.424,849.933-87.232Z" transform="translate(-740.66 182.104)" fill="#966c0e"/><path d="M842.451-86.6c-1.017-18.535-10.3-34.478-31.566-54.463-12.3-11.563-25.961-19.1-38.06-21.115l2.331-1.349c6.133.525,21.537,3.653,39.878,20.874,21.237,19.974,30.229,35.7,30.856,54.065Z" transform="translate(-738.787 183.226)" fill="#af8322"/><path d="M844.613-84.159,838.793-80.8c-.4-18.189-8.567-34.316-31.259-55.642-15.362-14.436-30.35-20.467-41-21.232l5.819-3.366c10.663.78,25.635,6.8,41,21.232C836.046-118.475,844.208-102.35,844.613-84.159Z" transform="translate(-750.931 188.036)" fill="#966c0e"/><path d="M837.131-83.527c-1.017-18.535-10.3-34.477-31.566-54.463-12.322-11.578-25.975-19.118-38.057-21.117l2.328-1.346c6.136.525,21.554,3.656,39.878,20.874,21.237,19.959,30.226,35.682,30.857,54.062Z" transform="translate(-749.056 189.161)" fill="#af8322"/><path d="M839.322-81.1l-5.82,3.366c-.4-18.192-8.566-34.319-31.276-55.645-15.377-14.436-30.349-20.452-41.012-21.232l5.82-3.348c10.663.765,25.65,6.778,41.012,21.232C830.756-115.406,838.917-99.3,839.322-81.1Z" transform="translate(-761.214 193.971)" fill="#966c0e"/><path d="M831.835-80.472c-1.017-18.54-10.3-34.48-31.583-54.463-12.313-11.56-25.97-19.1-38.063-21.112l2.316-1.334c6.142.513,21.563,3.627,39.9,20.874,21.25,19.956,30.244,35.674,30.871,54.047Z" transform="translate(-759.332 195.095)" fill="#af8322"/></g><g transform="translate(783.135 -29.635)" opacity="0.6" style="mix-blend-mode:multiply;isolation:isolate"><path d="M763.359-115.149a.846.846,0,0,0-.029.707c.029.082.059.132.088.147l6.72,3.882V-115.9l-4.2-2.425Z" transform="translate(-760.061 133.033)" fill="#b3b3b3"/><path d="M768.85-113.97l4.612,2.665a.843.843,0,0,0,.859.1l-2.636-6.286-4.037.624Z" transform="translate(-751.602 134.648)" fill="#b3b3b3"/><path d="M768.321-111.768l5.843,4.87,1.29-5.966-1.545.237-2.41-5.737a5.229,5.229,0,0,0-2.035-2.454l-4.371-2.524L769.86-112Z" transform="translate(-756.538 123.343)" fill="#b3b3b3"/><path d="M770.281-116.676l-2.234-5.4A1.868,1.868,0,0,0,767.3-123l-.029-.018c-.056-.032-.114-.067-.144-.05l-3.38,4.163,4.04,5.289Z" transform="translate(-759.134 123.873)" fill="#b3b3b3"/><path d="M769.777-111.922l-1.29-7.452-5.843-1.879,1.542,2.02-1.633,1.994a2.931,2.931,0,0,0-.082,2.773l1.95,5.2,3.814-4.667Z" transform="translate(-762.175 127.378)" fill="#b3b3b3"/><path d="M770.114-115.134v-2.1l-4.239,2.407,4.239,7.3v-2.1l4.207,2.428c.824.475,1.58.4,1.979-.2l1.994-3.011Z" transform="translate(-755.027 135.146)" fill="#b3b3b3"/></g></g></svg>