<?xml version="1.0" encoding="UTF-8"?><svg id="Layer_2" xmlns="http://www.w3.org/2000/svg" viewBox="0 0 89.7 15.69"><g id="Layer_1-2"><g><path d="M3.93,15.69c-.72,0-1.38-.09-1.98-.27-.6-.18-1.08-.41-1.43-.7s-.53-.6-.53-.93c0-.17,.04-.36,.13-.58,.09-.22,.21-.41,.37-.58,.16-.17,.34-.25,.55-.25,.22,0,.44,.08,.66,.24,.22,.16,.5,.31,.82,.47s.76,.23,1.31,.23,.9-.08,1.05-.24,.23-.31,.23-.44c0-.24-.12-.42-.35-.55-.24-.13-.54-.24-.9-.33-.36-.09-.75-.19-1.17-.31s-.81-.28-1.17-.49c-.37-.21-.67-.49-.9-.85-.24-.36-.35-.83-.35-1.41,0-.51,.12-1.01,.36-1.5,.24-.49,.64-.89,1.21-1.21s1.34-.48,2.32-.48c.61,0,1.18,.06,1.71,.19,.53,.12,.97,.3,1.3,.53,.34,.23,.51,.49,.51,.78,0,.14-.05,.33-.13,.57-.09,.24-.22,.46-.39,.65s-.38,.29-.63,.29c-.18,0-.38-.05-.6-.15-.22-.1-.47-.21-.75-.31s-.6-.15-.97-.15c-.28,0-.5,.03-.67,.1-.17,.07-.3,.15-.38,.25-.08,.1-.12,.2-.12,.31,0,.19,.12,.34,.35,.44,.23,.1,.54,.2,.91,.29,.37,.09,.77,.19,1.18,.31,.41,.12,.81,.29,1.18,.52,.37,.23,.67,.53,.91,.91,.24,.38,.35,.87,.35,1.48,0,.96-.34,1.74-1.02,2.32-.68,.58-1.67,.87-2.97,.87Z" style="fill:#272525;"/><path d="M11.31,15.48c-.47,0-.85-.1-1.15-.31s-.44-.43-.44-.68V6.6c0-.29,.15-.52,.44-.7,.3-.18,.68-.27,1.15-.27,.44,0,.82,.09,1.14,.27,.32,.18,.48,.41,.48,.7v7.88c0,.25-.16,.48-.48,.68-.32,.21-.7,.31-1.14,.31Z" style="fill:#272525;"/><path d="M16.68,15.48c-.47,0-.85-.1-1.15-.31s-.44-.43-.44-.68V6.6c0-.29,.15-.52,.44-.7,.3-.18,.68-.27,1.15-.27,.39,0,.72,.09,.99,.27,.28,.18,.41,.41,.41,.7v.48c.23-.4,.58-.76,1.03-1.09s1.02-.49,1.7-.49c.57,0,1.06,.19,1.49,.58,.43,.39,.75,.88,.95,1.49,.36-.7,.82-1.22,1.38-1.56,.56-.34,1.14-.51,1.73-.51,.65,0,1.26,.17,1.83,.51,.57,.34,1.04,.83,1.4,1.48s.54,1.43,.54,2.36v4.64c0,.25-.16,.48-.47,.68-.32,.21-.7,.31-1.14,.31s-.8-.1-1.12-.31c-.32-.21-.47-.43-.47-.68v-4.64c0-.34-.07-.63-.2-.87-.13-.23-.3-.41-.52-.53-.21-.12-.44-.18-.67-.18-.22,0-.43,.06-.63,.18-.2,.12-.37,.29-.5,.52-.13,.23-.2,.52-.2,.88v4.66c0,.35-.17,.59-.51,.74s-.71,.23-1.11,.23c-.37,0-.73-.08-1.08-.23-.35-.15-.52-.4-.52-.74v-4.64c0-.34-.07-.63-.21-.87-.14-.23-.31-.41-.53-.53s-.44-.18-.67-.18c-.22,0-.43,.06-.63,.17s-.36,.28-.49,.51-.19,.52-.19,.88v4.64c0,.25-.16,.48-.48,.68-.32,.21-.7,.31-1.14,.31Z" style="fill:#272525;"/><path d="M33.8,15.48c-.45,0-.83-.1-1.13-.31s-.44-.43-.44-.68V6.6c0-.29,.15-.52,.44-.7,.3-.18,.67-.27,1.13-.27,.4,0,.74,.09,1.01,.27,.28,.18,.41,.41,.41,.7v.77c.14-.3,.33-.6,.59-.88,.25-.28,.54-.52,.87-.7,.32-.19,.66-.28,1-.28h.6c.3,0,.57,.14,.8,.41,.23,.28,.34,.6,.34,.97s-.11,.72-.34,.99c-.23,.28-.49,.41-.8,.41h-.6c-.37,0-.73,.13-1.08,.38s-.63,.61-.85,1.07c-.22,.46-.33,1-.33,1.64v3.1c0,.25-.16,.48-.48,.68-.32,.21-.7,.31-1.16,.31Z" style="fill:#84bd00;"/><path d="M45.42,15.69c-1.02,0-1.92-.18-2.71-.55-.79-.36-1.4-.88-1.85-1.54s-.67-1.43-.67-2.3v-1.51c0-.77,.21-1.48,.64-2.13,.43-.65,1-1.17,1.72-1.56,.72-.39,1.52-.59,2.4-.59,.8,0,1.53,.17,2.2,.5,.67,.33,1.21,.79,1.62,1.38,.41,.59,.62,1.27,.62,2.06,0,.62-.1,1.07-.3,1.33-.2,.27-.46,.43-.77,.5-.31,.06-.62,.09-.94,.09h-3.99v.12c0,.51,.19,.92,.58,1.23,.39,.31,.9,.46,1.53,.46,.43,0,.79-.07,1.1-.2,.3-.13,.57-.26,.81-.38s.46-.19,.68-.19c.25,0,.46,.08,.64,.25,.18,.17,.31,.36,.4,.58,.09,.22,.13,.41,.13,.58,0,.26-.16,.54-.47,.83-.32,.29-.76,.53-1.34,.73s-1.25,.3-2.04,.3Zm-2.03-6.13h2.57c.15,0,.26-.03,.33-.1,.07-.07,.1-.2,.1-.39,0-.28-.07-.51-.22-.69s-.33-.32-.56-.41c-.23-.09-.47-.13-.73-.13-.25,0-.49,.04-.71,.13-.23,.09-.41,.23-.56,.41s-.22,.42-.22,.69v.5Z" style="fill:#84bd00;"/><path d="M55.68,15.69c-1.09,0-1.98-.19-2.68-.58s-1.21-.91-1.53-1.57c-.33-.66-.49-1.41-.49-2.23v-1.41c0-.83,.16-1.57,.49-2.23,.32-.66,.83-1.19,1.52-1.57,.69-.39,1.57-.58,2.65-.58,.68,0,1.27,.08,1.8,.24,.52,.16,.94,.37,1.24,.63s.46,.54,.46,.85c0,.19-.05,.41-.16,.66-.1,.25-.25,.46-.43,.64-.19,.18-.4,.27-.65,.27-.17,0-.33-.04-.49-.12-.16-.08-.36-.17-.59-.25-.23-.08-.54-.12-.91-.12-.62,0-1.06,.14-1.33,.41s-.39,.67-.39,1.18v1.41c0,.51,.13,.9,.39,1.18,.26,.28,.71,.41,1.35,.41,.37,0,.67-.05,.89-.14,.22-.1,.41-.19,.57-.28,.16-.09,.33-.13,.51-.13,.29,0,.54,.08,.75,.25s.36,.37,.46,.61c.1,.24,.15,.47,.15,.67,0,.3-.16,.6-.47,.88-.32,.28-.75,.51-1.28,.68-.54,.17-1.15,.26-1.82,.26Z" style="fill:#84bd00;"/><path d="M62.5,15.48c-.47,0-.85-.1-1.15-.31s-.44-.43-.44-.68V6.6c0-.29,.15-.52,.44-.7,.3-.18,.68-.27,1.15-.27,.44,0,.82,.09,1.14,.27,.32,.18,.48,.41,.48,.7v7.88c0,.25-.16,.48-.48,.68-.32,.21-.7,.31-1.14,.31Z" style="fill:#84bd00;"/><path d="M70.61,15.69c-1.09,0-1.98-.19-2.68-.58s-1.21-.91-1.53-1.57c-.33-.66-.49-1.41-.49-2.23v-1.41c0-.83,.16-1.57,.49-2.23,.32-.66,.83-1.19,1.52-1.57,.69-.39,1.57-.58,2.65-.58,.68,0,1.27,.08,1.8,.24,.52,.16,.94,.37,1.24,.63s.46,.54,.46,.85c0,.19-.05,.41-.16,.66-.1,.25-.25,.46-.43,.64-.19,.18-.4,.27-.65,.27-.17,0-.33-.04-.49-.12-.16-.08-.36-.17-.59-.25-.23-.08-.54-.12-.91-.12-.62,0-1.06,.14-1.33,.41s-.39,.67-.39,1.18v1.41c0,.51,.13,.9,.39,1.18,.26,.28,.71,.41,1.35,.41,.37,0,.67-.05,.89-.14,.22-.1,.41-.19,.57-.28,.16-.09,.33-.13,.51-.13,.29,0,.54,.08,.75,.25s.36,.37,.46,.61c.1,.24,.15,.47,.15,.67,0,.3-.16,.6-.47,.88-.32,.28-.75,.51-1.28,.68-.54,.17-1.15,.26-1.82,.26Z" style="fill:#84bd00;"/><path d="M77.52,15.48c-.47,0-.85-.1-1.15-.31-.3-.21-.44-.43-.44-.68V.97c0-.29,.15-.52,.44-.7,.3-.18,.68-.27,1.15-.27,.44,0,.82,.09,1.14,.27,.32,.18,.47,.41,.47,.7V14.49c0,.25-.16,.48-.47,.68-.32,.21-.7,.31-1.14,.31Z" style="fill:#84bd00;"/><path d="M83.56,15.69c-.72,0-1.34-.22-1.86-.67s-.79-1.14-.79-2.08c0-.81,.21-1.45,.62-1.9,.41-.46,.98-.77,1.71-.95s1.56-.27,2.51-.27h.74v-.21c0-.23-.05-.47-.14-.7s-.26-.43-.48-.59c-.22-.16-.53-.24-.93-.24-.57,0-.99,.05-1.26,.17-.28,.11-.49,.22-.64,.34s-.33,.18-.52,.18c-.35,0-.61-.17-.8-.52-.19-.34-.28-.7-.28-1.08,0-.33,.19-.62,.57-.87,.38-.25,.84-.44,1.39-.58,.54-.14,1.07-.21,1.58-.21,1.13,0,2.04,.19,2.73,.58,.69,.39,1.19,.89,1.51,1.5,.32,.61,.48,1.27,.48,1.98v4.93c0,.28-.15,.51-.45,.7-.3,.19-.67,.29-1.13,.29-.4,0-.74-.1-1.01-.29-.28-.19-.41-.43-.41-.7v-.45c-.37,.43-.81,.81-1.3,1.15s-1.11,.51-1.84,.51Zm1.39-2.34c.22,0,.45-.09,.68-.26,.23-.17,.44-.4,.61-.69,.17-.29,.26-.61,.26-.95v-.08h-.08c-.39,0-.76,.02-1.11,.07s-.63,.15-.85,.31c-.22,.16-.32,.4-.32,.73,0,.3,.08,.53,.23,.66s.35,.21,.58,.21Z" style="fill:#84bd00;"/><circle cx="11.3" cy="2.25" r="1.75" style="fill:#272525;"/><circle cx="62.51" cy="2.25" r="1.75" style="fill:#84bd00;"/></g></g></svg>